<svg width="285" height="55" viewBox="0 0 285 55" fill="none" xmlns="http://www.w3.org/2000/svg">
<g opacity="0.4" clip-path="url(#clip0_19_369)">
<path d="M0.538086 42.903C0.538086 43.0537 0.597948 43.1982 0.704503 43.3048C0.811057 43.4113 0.955577 43.4712 1.10627 43.4712C3.32405 43.4712 4.46848 42.3728 5.47831 41.4038C6.45735 40.4644 7.30297 39.6529 9.06354 39.6529C10.8241 39.6529 11.6698 40.4644 12.6488 41.4038C13.6587 42.3728 14.803 43.4712 17.0208 43.4712C19.2375 43.4712 20.3814 42.3728 21.3906 41.4035C22.3689 40.4641 23.2137 39.6529 24.9729 39.6529C26.7329 39.6529 27.578 40.4644 28.5568 41.4038C29.566 42.3728 30.7102 43.4712 32.9274 43.4712C35.1446 43.4712 36.2877 42.3728 37.297 41.4038C38.2752 40.4641 39.12 39.6529 40.8792 39.6529C42.6384 39.6529 43.4843 40.4644 44.4628 41.4038C45.4721 42.3728 46.6162 43.4712 48.8332 43.4712C48.9839 43.4712 49.1284 43.4113 49.235 43.3048C49.3415 43.1982 49.4014 43.0537 49.4014 42.903C49.4014 42.7523 49.3415 42.6078 49.235 42.5013C49.1284 42.3947 48.9839 42.3348 48.8332 42.3348C47.0731 42.3348 46.2281 41.5234 45.2496 40.5839C44.2403 39.6149 43.0962 38.5165 40.8792 38.5165C38.6623 38.5165 37.5189 39.6149 36.5099 40.5839C35.5317 41.5236 34.6869 42.3348 32.9277 42.3348C31.1685 42.3348 30.3226 41.5234 29.3438 40.5839C28.3346 39.6149 27.1904 38.5165 24.9731 38.5165C22.7559 38.5165 21.6129 39.6149 20.6038 40.5839C19.6253 41.5234 18.7805 42.3348 17.021 42.3348C15.2602 42.3348 14.4148 41.5234 13.4358 40.5839C12.4259 39.6149 11.2816 38.5165 9.06371 38.5165C6.84587 38.5165 5.70127 39.6149 4.69138 40.5839C3.71235 41.5234 2.86701 42.3348 1.10615 42.3348C0.955483 42.3349 0.810993 42.3947 0.704462 42.5013C0.597932 42.6078 0.538086 42.7523 0.538086 42.903Z" fill="white"/>
<path d="M46.6989 11.9193C45.0455 11.1385 43.1194 11.3552 41.3146 12.4393C41.635 11.6129 41.7586 10.7233 41.6755 9.84083C41.5925 8.9584 41.3051 8.10742 40.8362 7.35528C40.7525 7.22997 40.6224 7.14306 40.4746 7.11366C40.3268 7.08426 40.1734 7.11479 40.048 7.19852C39.9227 7.28225 39.8358 7.41233 39.8064 7.56014C39.777 7.70795 39.8076 7.86139 39.8913 7.9867C40.8895 9.48102 40.743 11.5526 39.5228 13.6361C39.6578 12.121 39.3107 10.6021 38.5309 9.29616C37.7511 7.99022 36.5786 6.96409 35.1808 6.36431C36.2255 6.15235 37.3096 6.25487 38.2961 6.65891C38.3643 6.68967 38.4379 6.70664 38.5127 6.70886C38.5875 6.71107 38.662 6.69849 38.732 6.67183C38.8019 6.64517 38.8659 6.60496 38.9202 6.55351C38.9745 6.50205 39.0182 6.44037 39.0486 6.37201C39.0791 6.30364 39.0957 6.22993 39.0975 6.15512C39.0994 6.0803 39.0865 6.00586 39.0595 5.93606C39.0325 5.86625 38.992 5.80247 38.9403 5.74837C38.8886 5.69426 38.8267 5.65091 38.7582 5.62079C37.1938 4.92443 35.2152 4.9688 33.1866 5.74647C33.0763 5.78882 32.9819 5.86451 32.9166 5.96301C32.8513 6.0615 32.8184 6.1779 32.8223 6.296C32.8263 6.4141 32.867 6.52802 32.9388 6.62191C33.0105 6.71579 33.1097 6.78498 33.2227 6.81982C34.5279 7.1799 35.7239 7.8572 36.7041 8.79141C35.9405 8.42143 35.123 8.17537 34.2821 8.06249C33.1213 7.85861 31.9284 7.93816 30.805 8.2944C29.6815 8.65063 28.6608 9.27299 27.8296 10.1085C27.755 10.1898 27.7056 10.291 27.6876 10.3998C27.6695 10.5087 27.6836 10.6204 27.728 10.7214C27.7724 10.8224 27.8452 10.9083 27.9376 10.9686C28.03 11.0289 28.1379 11.061 28.2482 11.061H28.2624C29.9488 11.0294 31.6286 11.2797 33.2326 11.8013C33.2108 11.8008 33.1895 11.7961 33.1677 11.7956C33.1513 11.7956 33.1357 11.7956 33.1194 11.7956C29.6109 11.7956 27.0516 15.2677 26.944 15.4164C26.8712 15.5168 26.8332 15.6384 26.8359 15.7624C26.8387 15.8865 26.8819 16.0063 26.9591 16.1034C27.0363 16.2006 27.1432 16.2698 27.2635 16.3005C27.3837 16.3312 27.5107 16.3216 27.625 16.2733C29.8707 15.329 32.3346 15.0269 34.7419 15.4006C27.7444 18.7146 24.8637 26.1708 23.7227 30.7898L23.7136 30.7904C22.712 30.8365 21.7149 30.9518 20.7292 31.1354C20.504 27.1874 19.319 22.2452 15.2406 19.3777C15.2875 19.3314 15.3379 19.2802 15.4062 19.2193C15.7905 19.134 16.1801 19.0743 16.5723 19.0408C19.5569 20.8468 21.5945 23.7723 22.6301 27.7408C22.6682 27.8866 22.7626 28.0114 22.8926 28.0876C23.0226 28.1638 23.1776 28.1853 23.3234 28.1472C23.4693 28.1092 23.594 28.0148 23.6702 27.8847C23.7465 27.7547 23.7679 27.5997 23.7299 27.4539C22.782 23.8214 21.0282 21.0054 18.527 19.0335C20.3363 19.1783 22.0763 19.7935 23.5745 20.8179C23.6769 20.8882 23.7994 20.9229 23.9234 20.9169C24.0474 20.9109 24.166 20.8645 24.2611 20.7847C24.3562 20.7049 24.4226 20.5962 24.45 20.4751C24.4775 20.3541 24.4646 20.2274 24.4132 20.1144C24.3555 19.9874 23.0644 17.2099 20.61 16.3709C21.7338 16.3126 22.8605 16.4036 23.9604 16.6415C24.0685 16.6635 24.1806 16.6536 24.2832 16.613C24.3857 16.5724 24.4742 16.5029 24.5379 16.4128C24.6015 16.3228 24.6376 16.2162 24.6418 16.106C24.6459 15.9958 24.6178 15.8867 24.5611 15.7922C24.0327 14.987 23.3175 14.3214 22.4765 13.8522C21.6354 13.383 20.6934 13.124 19.7307 13.0973C19.277 13.0679 18.8215 13.0843 18.3711 13.1462C19.1261 12.7971 19.9366 12.5836 20.7655 12.5156C20.8831 12.504 20.9942 12.456 21.0833 12.3783C21.1723 12.3006 21.2349 12.1971 21.2624 12.0822C21.2899 11.9673 21.2808 11.8466 21.2365 11.7371C21.1922 11.6275 21.1148 11.5345 21.0152 11.471C19.9162 10.7195 18.6083 10.3335 17.2774 10.3679C17.202 10.3712 17.128 10.3894 17.0598 10.4215C16.9915 10.4536 16.9303 10.499 16.8798 10.555C16.8293 10.611 16.7904 10.6766 16.7655 10.7478C16.7405 10.819 16.73 10.8944 16.7345 10.9697C16.7391 11.045 16.7585 11.1187 16.7918 11.1863C16.8251 11.254 16.8716 11.3144 16.9284 11.364C16.9853 11.4135 17.0515 11.4513 17.1231 11.475C17.1947 11.4987 17.2703 11.5079 17.3455 11.5021C17.878 11.4761 18.4106 11.5492 18.9164 11.7177C17.8605 11.9962 16.9046 12.567 16.1584 13.3644C15.4123 14.1618 14.9062 15.1535 14.6982 16.2256C14.6953 16.2389 14.6903 16.2529 14.6875 16.2661C14.2142 14.4806 14.5843 12.8951 15.7262 12.0616C15.7884 12.0184 15.8413 11.9632 15.8819 11.8993C15.9225 11.8354 15.9499 11.7639 15.9624 11.6893C15.975 11.6146 15.9726 11.5382 15.9552 11.4645C15.9378 11.3908 15.9059 11.3213 15.8613 11.2601C15.8167 11.1989 15.7603 11.1473 15.6954 11.1082C15.6305 11.0691 15.5585 11.0434 15.4836 11.0325C15.4086 11.0217 15.3323 11.0259 15.259 11.045C15.1857 11.0641 15.117 11.0976 15.0569 11.1436C14.4425 11.6237 13.9637 12.2555 13.6675 12.9767C13.3714 13.698 13.2682 14.484 13.368 15.2573C12.8333 14.7605 12.1868 14.3998 11.4831 14.2056C10.7795 14.0115 10.0395 13.9897 9.32566 14.142C7.31788 14.634 5.97623 16.5893 5.82418 19.2449C5.81738 19.3629 5.84756 19.4801 5.91051 19.5802C5.97346 19.6802 6.06606 19.7581 6.17539 19.8031C6.28472 19.848 6.40535 19.8578 6.52048 19.8309C6.6356 19.8041 6.73948 19.742 6.81765 19.6533C7.56169 18.7399 8.54836 18.055 9.66424 17.6773C9.3102 17.9519 8.98912 18.2665 8.70742 18.6148C7.11799 20.5771 6.7393 23.3223 7.78697 25.2904C7.83538 25.3813 7.9076 25.4574 7.9959 25.5104C8.08421 25.5634 8.18527 25.5915 8.28828 25.5915C8.30271 25.5915 8.31668 25.591 8.33129 25.5899C8.44133 25.5816 8.54657 25.5415 8.63417 25.4743C8.72177 25.4072 8.78794 25.3161 8.82458 25.212C9.12301 24.3428 9.50865 23.5061 9.9756 22.7145C9.90609 24.274 10.2877 25.8204 11.0748 27.1685C11.1393 27.2745 11.2367 27.3566 11.3522 27.402C11.4677 27.4475 11.5949 27.4539 11.7144 27.4202C11.8339 27.3866 11.939 27.3147 12.0138 27.2156C12.0886 27.1165 12.1289 26.9957 12.1285 26.8716C12.1338 24.4595 12.9605 22.1211 14.4723 20.2416C18.335 22.8877 19.4171 27.6393 19.6022 31.39C15.8451 32.3381 12.732 34.3147 11.1003 36.9497C11.0248 37.0776 11.0024 37.2301 11.038 37.3744C11.0735 37.5186 11.1642 37.6432 11.2905 37.7215C11.4169 37.7997 11.5688 37.8253 11.7138 37.7929C11.8588 37.7604 11.9853 37.6724 12.0662 37.5478C16.7641 29.9623 32.9733 30.0793 37.4041 37.7267C37.4408 37.7927 37.4903 37.8507 37.5496 37.8973C37.6089 37.9439 37.677 37.9783 37.7497 37.9984C37.8225 38.0184 37.8985 38.0238 37.9734 38.0141C38.0482 38.0045 38.1204 37.98 38.1857 37.9422C38.251 37.9043 38.3081 37.8538 38.3537 37.7937C38.3992 37.7335 38.4324 37.6649 38.4511 37.5918C38.4698 37.5187 38.4738 37.4425 38.4629 37.3679C38.4519 37.2932 38.4261 37.2215 38.3871 37.1569C36.7621 34.3524 33.5007 32.2711 29.5278 31.3279C29.9982 29.0848 30.7523 26.9106 31.7719 24.8579C31.8365 24.7243 31.8463 24.5708 31.7991 24.4301C31.752 24.2893 31.6517 24.1727 31.5196 24.105C31.3875 24.0373 31.2342 24.0239 31.0924 24.0678C30.9507 24.1117 30.8317 24.2093 30.7609 24.3397C29.6908 26.4804 28.8989 28.7492 28.4047 31.0909C27.2467 30.8913 26.0748 30.7828 24.8999 30.7666C26.1188 26.0241 29.1953 18.4748 36.6766 15.827C37.1817 15.9745 37.676 16.1565 38.156 16.3719C38.2168 16.4541 38.3128 16.5901 38.4377 16.7825C35.9152 17.8754 33.7549 19.6621 32.2083 21.9348C32.1243 22.058 32.0922 22.2092 32.1187 22.3559C32.1452 22.5025 32.2283 22.6329 32.3501 22.7189C32.4718 22.8049 32.6225 22.8396 32.7696 22.8155C32.9167 22.7914 33.0484 22.7105 33.1364 22.5902C34.5901 20.453 36.6325 18.7833 39.016 17.7834C40.4593 20.5121 40.913 23.6564 40.2999 26.6818C40.2748 26.8033 40.2902 26.9297 40.3437 27.0416C40.3971 27.1536 40.4858 27.2449 40.5961 27.3017C40.7064 27.3586 40.8322 27.3777 40.9544 27.3563C41.0766 27.3349 41.1884 27.2741 41.2728 27.1831C41.385 27.0619 43.7498 24.462 43.7186 21.431C44.2322 22.7141 44.58 24.0575 44.7535 25.4286C44.7686 25.5379 44.8152 25.6405 44.8876 25.7238C44.9601 25.807 45.0552 25.8674 45.1614 25.8975C45.2118 25.9119 45.264 25.9192 45.3164 25.9191C45.4001 25.9191 45.4828 25.9006 45.5585 25.8649C45.6343 25.8293 45.7012 25.7773 45.7545 25.7127C47.4904 23.6098 47.7046 20.2235 46.2758 17.4777C45.9191 16.784 45.4452 16.1572 44.875 15.625C46.1547 16.1113 47.4557 17.1391 48.5739 19.0827C48.6237 19.1692 48.6955 19.2411 48.7819 19.2912C48.8684 19.3412 48.9665 19.3676 49.0663 19.3676C49.1022 19.3676 49.1379 19.3642 49.1732 19.3576C49.2892 19.3353 49.3954 19.2775 49.4771 19.1921C49.5587 19.1067 49.6117 18.9979 49.6287 18.881C50.0952 15.6608 48.9727 12.9933 46.6989 11.9193ZM22.11 18.7333C20.5512 18.0893 18.8719 17.7885 17.1864 17.8514C17.9663 17.3666 18.895 17.1795 19.8018 17.3245C20.7006 17.5387 21.5086 18.0319 22.11 18.7333ZM19.6595 14.2312C20.7179 14.2865 21.7368 14.6514 22.5897 15.2807C18.9501 14.9104 16.8288 16.0871 15.7041 17.1098C15.9517 14.9428 17.4633 14.0958 19.6595 14.2312ZM7.25435 17.6863C7.40034 17.1118 7.69281 16.5849 8.1032 16.1572C8.5136 15.7294 9.0279 15.4154 9.59589 15.2457C9.81816 15.1913 10.0462 15.1638 10.275 15.1639C10.8953 15.2055 11.4985 15.3844 12.0412 15.6875C12.5839 15.9907 13.0524 16.4106 13.413 16.917L13.38 16.9028C13.3649 16.8963 13.3495 16.8906 13.3337 16.8858C12.346 16.4414 11.2541 16.2809 10.1803 16.4223C9.10653 16.5637 8.09335 17.0014 7.25435 17.6863ZM11.2288 24.4943C10.987 23.6017 11.0339 22.6554 11.3628 21.791C11.7529 20.958 12.4309 20.2941 13.2719 19.9217C12.2705 21.2815 11.5737 22.8411 11.2288 24.4943ZM8.35521 23.3512C8.23212 21.9015 8.67484 20.4604 9.59061 19.3299C10.6963 17.9662 12.1453 17.4237 13.6588 18.3179C12.1995 18.706 9.97788 19.8768 8.35521 23.3512ZM32.7496 14.0933C31.6227 14.0926 30.4998 14.2264 29.4046 14.4917C30.4336 13.5474 31.7621 12.9953 33.1574 12.9322C33.8367 12.9681 34.5022 13.1378 35.1157 13.4315C35.7293 13.7253 36.2788 14.1373 36.7327 14.644C35.4362 14.28 34.0961 14.0947 32.7496 14.0933ZM38.3323 14.2056L38.329 14.2257C37.2898 12.6424 34.9183 10.3592 29.7824 9.97925C31.1007 9.23688 32.6299 8.95809 34.1253 9.18749C37.1484 9.60863 38.7154 11.2151 38.3323 14.2056ZM41.7016 24.5836C41.7962 22.1041 41.2539 19.6417 40.1263 17.4314C40.7109 17.7777 41.2215 18.2359 41.6288 18.7798C42.0361 19.3237 42.3322 19.9426 42.5 20.601C42.7048 21.981 42.4223 23.3891 41.7016 24.5836ZM45.2674 18.0023C45.7316 18.8848 46.0028 19.8559 46.0631 20.8512C46.1235 21.8465 45.9715 22.8433 45.6173 23.7754C44.4987 18.5502 41.7625 16.5527 40.0573 15.8006C42.4549 14.8616 44.1745 15.9014 45.2674 18.0023ZM40.545 14.4398C42.3921 12.7172 44.5136 12.144 46.2137 12.9466C47.6364 13.6186 48.4832 15.1356 48.5855 17.0737C47.6893 15.8488 46.4314 14.9358 44.989 14.4633C43.5467 13.9909 41.9922 13.9825 40.545 14.4398Z" fill="white"/>
<path d="M6.12515 10.111C6.79941 10.111 7.45852 9.91109 8.01915 9.53649C8.57977 9.1619 9.01672 8.62947 9.27474 8.00654C9.53277 7.38361 9.60028 6.69816 9.46874 6.03686C9.3372 5.37556 9.01252 4.76812 8.53575 4.29135C8.05898 3.81458 7.45153 3.48989 6.79024 3.35835C6.12894 3.22681 5.44348 3.29432 4.82055 3.55235C4.19762 3.81038 3.6652 4.24733 3.2906 4.80795C2.916 5.36857 2.71606 6.02768 2.71606 6.70194C2.71706 7.60578 3.07655 8.47232 3.71566 9.11143C4.35477 9.75055 5.22131 10.11 6.12515 10.111ZM6.12515 4.42921C6.57466 4.42921 7.01407 4.56251 7.38781 4.81224C7.76156 5.06197 8.05286 5.41692 8.22488 5.8322C8.3969 6.24749 8.44191 6.70446 8.35421 7.14533C8.26652 7.58619 8.05006 7.99115 7.73222 8.309C7.41437 8.62685 7.00941 8.8433 6.56854 8.931C6.12768 9.01869 5.67071 8.97368 5.25542 8.80166C4.84013 8.62965 4.48518 8.33835 4.23545 7.9646C3.98572 7.59085 3.85243 7.15144 3.85243 6.70194C3.85312 6.09939 4.09279 5.52171 4.51886 5.09564C4.94493 4.66957 5.5226 4.4299 6.12515 4.42921Z" fill="white"/>
<path d="M6.12507 2.7599C6.27576 2.7599 6.42028 2.70004 6.52683 2.59348C6.63339 2.48693 6.69325 2.34241 6.69325 2.19172V1.41047C6.69325 1.25978 6.63339 1.11526 6.52683 1.0087C6.42028 0.902147 6.27576 0.842285 6.12507 0.842285C5.97438 0.842285 5.82986 0.902147 5.7233 1.0087C5.61675 1.11526 5.55688 1.25978 5.55688 1.41047V2.19172C5.55688 2.34241 5.61675 2.48693 5.7233 2.59348C5.82986 2.70004 5.97438 2.7599 6.12507 2.7599Z" fill="white"/>
<path d="M2.53406 3.91479C2.6406 4.0214 2.78513 4.08133 2.93585 4.08138C3.08657 4.08143 3.23114 4.02161 3.33776 3.91507C3.44437 3.80853 3.5043 3.664 3.50435 3.51328C3.5044 3.36256 3.44458 3.21799 3.33804 3.11138L2.78566 2.55871C2.73291 2.50592 2.67029 2.46403 2.60136 2.43544C2.53243 2.40686 2.45855 2.39212 2.38393 2.39209C2.30931 2.39206 2.23541 2.40672 2.16645 2.43524C2.0975 2.46377 2.03484 2.5056 1.98205 2.55834C1.87543 2.66485 1.8155 2.80936 1.81543 2.96007C1.81536 3.11077 1.87516 3.25533 1.98168 3.36195L2.53406 3.91479Z" fill="white"/>
<path d="M1.6153 7.27015C1.76599 7.27015 1.91051 7.21029 2.01707 7.10374C2.12362 6.99718 2.18348 6.85266 2.18348 6.70197C2.18348 6.55128 2.12362 6.40676 2.01707 6.30021C1.91051 6.19365 1.76599 6.13379 1.6153 6.13379H0.834051C0.68336 6.13379 0.53884 6.19365 0.432286 6.30021C0.325731 6.40676 0.265869 6.55128 0.265869 6.70197C0.265869 6.85266 0.325731 6.99718 0.432286 7.10374C0.53884 7.21029 0.68336 7.27015 0.834051 7.27015H1.6153Z" fill="white"/>
<path d="M2.78554 10.8451L3.33792 10.2927C3.39068 10.2399 3.43252 10.1773 3.46106 10.1084C3.4896 10.0394 3.50429 9.96553 3.50427 9.89091C3.50426 9.81629 3.48955 9.74241 3.46098 9.67348C3.43242 9.60455 3.39055 9.54192 3.33778 9.48917C3.28501 9.43641 3.22236 9.39457 3.15342 9.36603C3.08448 9.33748 3.01059 9.3228 2.93598 9.32281C2.86136 9.32283 2.78748 9.33754 2.71854 9.3661C2.64961 9.39467 2.58698 9.43654 2.53423 9.48931L1.9819 10.0416C1.87802 10.1487 1.82042 10.2924 1.82155 10.4416C1.82268 10.5907 1.88244 10.7335 1.98794 10.839C2.09343 10.9445 2.23618 11.0043 2.38537 11.0054C2.53456 11.0066 2.67844 10.949 2.78554 10.8451Z" fill="white"/>
<path d="M6.69325 11.9934V11.2122C6.69325 11.0615 6.63339 10.917 6.52683 10.8104C6.42028 10.7038 6.27576 10.644 6.12507 10.644C5.97438 10.644 5.82986 10.7038 5.7233 10.8104C5.61675 10.917 5.55688 11.0615 5.55688 11.2122V11.9934C5.55688 12.1441 5.61675 12.2886 5.7233 12.3952C5.82986 12.5017 5.97438 12.5616 6.12507 12.5616C6.27576 12.5616 6.42028 12.5017 6.52683 12.3952C6.63339 12.2886 6.69325 12.1441 6.69325 11.9934Z" fill="white"/>
<path d="M8.91229 9.48932C8.80582 9.59597 8.74604 9.74053 8.74609 9.89122C8.74615 10.0419 8.80602 10.1864 8.91257 10.293L9.46524 10.8454C9.57185 10.9519 9.71643 11.0118 9.86715 11.0117C10.0179 11.0117 10.1624 10.9518 10.269 10.8451C10.3755 10.7385 10.4353 10.594 10.4353 10.4432C10.4352 10.2925 10.3753 10.148 10.2687 10.0414L9.71598 9.48903C9.6093 9.38262 9.46475 9.32288 9.31407 9.32294C9.16339 9.32299 9.01889 9.38283 8.91229 9.48932Z" fill="white"/>
<path d="M10.0674 6.70197C10.0674 6.85266 10.1272 6.99718 10.2338 7.10374C10.3404 7.21029 10.4849 7.27015 10.6356 7.27015H11.4168C11.5675 7.27015 11.712 7.21029 11.8186 7.10374C11.9251 6.99718 11.985 6.85266 11.985 6.70197C11.985 6.55128 11.9251 6.40676 11.8186 6.30021C11.712 6.19365 11.5675 6.13379 11.4168 6.13379H10.6356C10.4849 6.13379 10.3404 6.19365 10.2338 6.30021C10.1272 6.40676 10.0674 6.55128 10.0674 6.70197Z" fill="white"/>
<path d="M9.716 3.91478L10.2687 3.36216C10.373 3.25516 10.431 3.11136 10.43 2.96192C10.4291 2.81248 10.3693 2.66943 10.2636 2.56376C10.1579 2.45808 10.0149 2.3983 9.86545 2.39735C9.71601 2.3964 9.57221 2.45437 9.46521 2.5587L8.91254 3.11137C8.80866 3.21846 8.75107 3.36211 8.75221 3.5113C8.75335 3.66049 8.81313 3.80325 8.91863 3.90874C9.02413 4.01423 9.16689 4.074 9.31608 4.07513C9.46527 4.07626 9.60892 4.01866 9.716 3.91478Z" fill="white"/>
<path d="M48.8637 48.0213C47.5375 48.045 46.2433 47.6131 45.1972 46.7976C43.9534 45.88 42.4484 45.3849 40.9027 45.3849C39.357 45.3849 37.852 45.88 36.6082 46.7976C35.5501 47.5919 34.2628 48.0213 32.9398 48.0213C31.6168 48.0213 30.3295 47.5919 29.2715 46.7976C28.0272 45.88 26.5219 45.3849 24.9758 45.3849C23.4298 45.3849 21.9244 45.88 20.6802 46.7976C19.6337 47.6131 18.3391 48.045 17.0125 48.0213C15.6851 48.045 14.3897 47.6131 13.3421 46.7976C12.1084 45.8583 10.5948 45.3608 9.04442 45.3849C7.49405 45.3608 5.98053 45.8582 4.74669 46.7973C3.69919 47.6131 2.4037 48.0451 1.07624 48.0213C0.925547 48.0213 0.781028 48.0812 0.674473 48.1878C0.567918 48.2943 0.508057 48.4388 0.508057 48.5895C0.508057 48.7402 0.567918 48.8847 0.674473 48.9913C0.781028 49.0978 0.925547 49.1577 1.07624 49.1577C2.62664 49.1818 4.14017 48.6843 5.37391 47.745C6.42146 46.9294 7.71694 46.4975 9.04436 46.5212C10.3718 46.4976 11.6672 46.9295 12.7148 47.745C13.9486 48.6843 15.4621 49.1818 17.0125 49.1577C18.5623 49.1817 20.0751 48.6842 21.308 47.745C22.366 46.9507 23.6532 46.5212 24.9762 46.5212C26.2992 46.5212 27.5864 46.9507 28.6444 47.745C29.8887 48.6627 31.3941 49.1577 32.9402 49.1577C34.4862 49.1577 35.9917 48.6627 37.236 47.745C38.2935 46.9507 39.5803 46.5212 40.9029 46.5212C42.2255 46.5212 43.5124 46.9507 44.5699 47.745C45.8023 48.6841 47.3145 49.1816 48.8637 49.1577C49.0144 49.1577 49.159 49.0978 49.2655 48.9913C49.3721 48.8847 49.4319 48.7402 49.4319 48.5895C49.4319 48.4388 49.3721 48.2943 49.2655 48.1878C49.159 48.0812 49.0144 48.0213 48.8637 48.0213Z" fill="white"/>
</g>
<g opacity="0.5" clip-path="url(#clip1_19_369)">
<path d="M283.214 28.3035C282.984 27.9102 282.48 27.7752 282.083 28.0005L275.725 31.6713C275.691 31.5964 275.645 31.5273 275.589 31.4663L269.756 25.633C269.446 25.323 268.949 25.3062 268.618 25.5947L261.952 31.428C261.604 31.729 261.565 32.2553 261.866 32.6034C262.167 32.9515 262.694 32.9898 263.042 32.6888C263.044 32.687 263.046 32.685 263.048 32.683L269.132 27.3622L274.278 32.5088L259.167 41.2314V27.8889H259.278C260.666 27.8174 261.734 26.6341 261.662 25.2461C261.596 23.9581 260.566 22.9286 259.278 22.8623H259.167V20.3889C259.167 19.9287 258.794 19.5556 258.333 19.5556C257.873 19.5556 257.5 19.9287 257.5 20.3889V22.8623H254.197L250 18.3289V17.8889C250 17.4287 249.627 17.0556 249.167 17.0556H244.167C243.706 17.0556 243.333 17.4287 243.333 17.8889V27.8673C243.326 33.2451 241.573 38.4751 238.338 42.7714C238.317 42.7999 238.298 42.8297 238.28 42.8606C237.366 44.4632 237.909 46.5031 239.5 47.4381C240.006 47.7336 240.581 47.8892 241.167 47.8889C241.458 47.8888 241.748 47.8504 242.03 47.7748C242.869 47.5569 243.586 47.0137 244.023 46.2656L245.384 44.2823C247.091 41.7889 248.354 39.0196 249.118 36.0964L250.833 36.9639V39.5556C250.833 40.9363 251.953 42.0556 253.333 42.0556C254.714 42.0556 255.833 40.9363 255.833 39.5556V33.9298C255.833 33.6321 255.675 33.357 255.417 33.2081L249.974 30.0731C249.981 29.8356 250.001 29.5998 250.001 29.3623V24.9823L252.446 27.6223C252.603 27.7923 252.825 27.8889 253.057 27.8889H257.5V42.0156C257.505 42.0697 257.516 42.123 257.533 42.1748L241.667 51.3339C241.267 51.5613 241.127 52.0701 241.354 52.4702C241.581 52.8703 242.09 53.0103 242.49 52.7829C242.493 52.781 242.497 52.7791 242.5 52.7773L282.917 29.4439C283.314 29.2111 283.447 28.7006 283.214 28.3035ZM244.008 43.3406L242.61 45.3806C242.162 46.176 241.153 46.4574 240.358 46.0089C240.351 46.0051 240.344 46.0012 240.338 45.9973C239.553 45.5338 239.273 44.534 239.703 43.7306C242.784 39.6125 244.6 34.6876 244.931 29.5556H248.326C248.298 34.4792 246.794 39.2813 244.008 43.3406ZM248.333 27.8889H245V18.7223H248.333V27.8889ZM254.167 34.4114V39.5556C254.167 40.0158 253.794 40.3889 253.333 40.3889C252.873 40.3889 252.5 40.0158 252.5 39.5556V36.4498C252.5 36.1354 252.322 35.8479 252.042 35.7064L249.5 34.4239C249.66 33.6014 249.783 32.7706 249.864 31.9314L254.167 34.4114ZM253.417 26.2189L250 22.5289V20.7789L253.222 24.2581C253.379 24.4286 253.601 24.5256 253.833 24.5256H258.067C258.237 24.5967 258.429 24.5967 258.6 24.5256H259.278C259.746 24.6006 260.064 25.0405 259.989 25.5081C259.931 25.8736 259.644 26.1602 259.278 26.2189H253.417Z" fill="white"/>
<path d="M253.333 10.4156H251.583C251.108 8.16395 248.898 6.72374 246.646 7.19864C244.395 7.67364 242.955 9.88395 243.429 12.1356C243.835 14.0606 245.533 15.4393 247.5 15.4423C249.486 15.4346 251.193 14.0301 251.583 12.0823H253.333C253.794 12.0823 254.167 11.7092 254.167 11.249C254.167 10.7887 253.794 10.4156 253.333 10.4156ZM247.5 13.7756C246.436 13.7683 245.494 13.089 245.151 12.0823H249.849C249.506 13.089 248.564 13.7683 247.5 13.7756ZM245.151 10.4156C245.494 9.40895 246.436 8.72958 247.5 8.72229C248.564 8.72958 249.506 9.40895 249.849 10.4156H245.151Z" fill="white"/>
<path d="M238.333 12.889C236.492 12.889 235 14.3814 235 16.2223V23.7223C235.004 26.9422 237.613 29.5515 240.833 29.5556C241.294 29.5556 241.667 29.1825 241.667 28.7223V16.2223C241.667 14.3814 240.174 12.889 238.333 12.889ZM240 27.8056C238.061 27.4072 236.669 25.7017 236.667 23.7223V16.2223C236.667 15.3018 237.413 14.5556 238.333 14.5556C239.254 14.5556 240 15.3018 240 16.2223V27.8056Z" fill="white"/>
<path d="M276.667 19.5556C274.826 19.5556 273.333 21.048 273.333 22.8889C273.333 24.7299 274.826 26.2223 276.667 26.2223C278.508 26.2223 280 24.7299 280 22.8889C280 21.048 278.508 19.5556 276.667 19.5556ZM276.667 24.5556C275.746 24.5556 275 23.8095 275 22.8889C275 21.9684 275.746 21.2223 276.667 21.2223C277.587 21.2223 278.333 21.9684 278.333 22.8889C278.333 23.8095 277.587 24.5556 276.667 24.5556Z" fill="white"/>
<path d="M280.957 15.3184C280.956 15.3175 280.954 15.3166 280.953 15.3156C280.557 15.0808 280.045 15.2112 279.811 15.6071C279.81 15.6074 279.81 15.6077 279.81 15.6081L278.954 17.0556C278.72 17.4517 278.85 17.963 279.246 18.1977C279.642 18.4324 280.154 18.3017 280.388 17.9056L281.244 16.4615C281.481 16.0666 281.352 15.5548 280.957 15.3184Z" fill="white"/>
<path d="M283.995 18.5719C283.768 18.188 283.28 18.0504 282.886 18.2598L281.403 19.0931C281.001 19.3181 280.858 19.826 281.083 20.2275C281.083 20.2277 281.083 20.2279 281.083 20.2281C281.309 20.629 281.816 20.7715 282.218 20.5464L283.701 19.7131C284.097 19.4791 284.229 18.9681 283.995 18.5719Z" fill="white"/>
<path d="M284.167 22.0556H282.454C281.994 22.0556 281.621 22.4287 281.621 22.8889C281.621 23.3491 281.994 23.7223 282.454 23.7223H284.167C284.627 23.7223 285 23.3491 285 22.8889C285 22.4287 284.627 22.0556 284.167 22.0556Z" fill="white"/>
<path d="M270.833 22.0556H269.121C268.661 22.0556 268.288 22.4287 268.288 22.8889C268.288 23.3491 268.661 23.7223 269.121 23.7223H270.833C271.294 23.7223 271.667 23.3491 271.667 22.8889C271.667 22.4287 271.294 22.0556 270.833 22.0556Z" fill="white"/>
<path d="M271.892 18.889L270.408 18.0556C270.007 17.8301 269.499 17.9726 269.273 18.374C269.048 18.7753 269.19 19.2834 269.592 19.509L271.074 20.3423C271.475 20.568 271.984 20.4257 272.21 20.0244C272.435 19.623 272.293 19.1147 271.892 18.889Z" fill="white"/>
<path d="M274.393 17.0556L273.537 15.6081C273.303 15.2121 272.792 15.0811 272.396 15.3156C272 15.5501 271.869 16.0612 272.103 16.4573L272.96 17.9015C273.215 18.2848 273.732 18.3891 274.115 18.1344C274.47 17.8986 274.59 17.4334 274.393 17.0556Z" fill="white"/>
<path d="M276.674 14.1948C276.214 14.1948 275.841 14.5679 275.841 15.0281V16.6948C275.841 17.155 276.214 17.5281 276.674 17.5281C277.134 17.5281 277.507 17.155 277.507 16.6948V15.0281C277.507 14.5679 277.134 14.1948 276.674 14.1948Z" fill="white"/>
</g>
<path opacity="0.5" d="M62 46.4999C71 33.4999 100.5 7.2 138.5 12C186 18 174.5 49.5 228.5 46.4999" stroke="white" stroke-dasharray="10 10"/>
<path d="M62 47H202" stroke="white" stroke-opacity="0.5" stroke-dasharray="10 10"/>
<defs>
<clipPath id="clip0_19_369">
<rect width="50" height="50" fill="white"/>
</clipPath>
<clipPath id="clip1_19_369">
<rect width="50" height="50" fill="white" transform="translate(235 5)"/>
</clipPath>
</defs>
</svg>
