<svg width="277" height="52" viewBox="0 0 277 52" fill="none" xmlns="http://www.w3.org/2000/svg">
<g opacity="0.5" clip-path="url(#clip0_19_430)">
<path d="M28.8095 45.3098C30.9209 42.6506 32.1813 39.2897 32.1813 35.6354C32.1813 27.0182 25.1722 20.0325 16.5261 20.0325C7.87988 20.0325 0.87085 27.0182 0.87085 35.6354C0.87085 44.2526 7.87998 51.2382 16.5261 51.2382C20.086 51.2382 23.3683 50.054 25.9982 48.0593M23.1864 45.3101C21.2908 46.6104 18.996 47.3722 16.526 47.3722C10.0325 47.3722 4.74972 42.1071 4.74972 35.6354C4.74972 29.1636 10.0325 23.8985 16.526 23.8985C23.0195 23.8985 28.3024 29.1636 28.3024 35.6354C28.3024 38.2417 27.4456 40.6523 25.998 42.6021" stroke="white" stroke-width="1.52344" stroke-miterlimit="10" stroke-linecap="round" stroke-linejoin="round"/>
<path d="M23.1892 25.9611C21.2936 24.6608 18.9992 23.8984 16.5292 23.8984C10.0357 23.8984 4.75293 29.1635 4.75293 35.6352C4.75293 42.107 10.0357 47.3721 16.5292 47.3721C18.9992 47.3721 21.2936 46.6097 23.1892 45.3094C21.0778 42.6502 19.8169 39.2896 19.8169 35.6352C19.8169 31.9809 21.0779 28.6203 23.1892 25.9611Z" stroke="white" stroke-width="1.52344" stroke-miterlimit="10"/>
<path d="M28.812 45.3094C30.7076 46.6097 33.002 47.3721 35.472 47.3721C41.9655 47.3721 47.2483 42.107 47.2483 35.6352C47.2483 29.1635 41.9655 23.8984 35.472 23.8984C33.002 23.8984 30.7076 24.6608 28.812 25.9611C30.9234 28.6203 32.1843 31.9809 32.1843 35.6352C32.1843 39.2896 30.9233 42.6502 28.812 45.3094Z" stroke="white" stroke-width="1.52344" stroke-miterlimit="10"/>
<path d="M46.9204 46.2761C49.5298 43.4887 51.1274 39.7481 51.1274 35.6353C51.1274 27.0181 44.1182 20.0324 35.4721 20.0324C31.9122 20.0324 28.6305 21.2174 26.0006 23.2121C27.0494 24.0077 27.9947 24.9316 28.812 25.9611C30.7076 24.6608 33.002 23.8984 35.472 23.8984C41.9655 23.8984 47.2484 29.1635 47.2484 35.6353C47.2484 42.107 41.9655 47.3721 35.472 47.3721C33.002 47.3721 30.7076 46.6097 28.812 45.3094C27.7312 44.568 26.7802 43.6517 26.0005 42.6016C24.5529 40.6518 23.6957 38.2416 23.6957 35.6353C23.6957 33.029 24.5529 30.6188 26.0005 28.669C25.2208 27.6188 24.2698 26.7026 23.1889 25.9611C21.0775 28.6203 19.8167 31.9809 19.8167 35.6353C19.8167 39.2896 21.0775 42.6503 23.1889 45.3094C24.0064 46.339 24.9516 47.2629 26.0005 48.0584C28.6303 50.0531 31.9121 51.2381 35.472 51.2381C38.9028 51.2381 42.0751 50.1374 44.6548 48.2722" stroke="white" stroke-width="1.52344" stroke-miterlimit="10" stroke-linecap="round" stroke-linejoin="round"/>
<path d="M17.9852 5.96239C17.7468 6.48777 17.6128 7.07054 17.6128 7.68479C17.6128 12.2172 25.999 17.7018 25.999 17.7018C25.999 17.7018 34.3852 12.2172 34.3852 7.68479C34.3852 5.37515 32.508 3.50275 30.1921 3.50275C27.8763 3.50285 25.999 5.37515 25.999 7.68479C25.999 5.37515 24.1217 3.50275 21.8059 3.50275C21.2062 3.50275 20.6363 3.62919 20.1204 3.85547" stroke="white" stroke-width="1.52344" stroke-miterlimit="10" stroke-linecap="round" stroke-linejoin="round"/>
<path d="M13.3804 0.761719L14.9753 1.68015" stroke="white" stroke-width="1.52344" stroke-miterlimit="10" stroke-linecap="round" stroke-linejoin="round"/>
<path d="M11.4285 8.02771H13.2702" stroke="white" stroke-width="1.52344" stroke-miterlimit="10" stroke-linecap="round" stroke-linejoin="round"/>
<path d="M13.3804 15.2937L14.9753 14.3752" stroke="white" stroke-width="1.52344" stroke-miterlimit="10" stroke-linecap="round" stroke-linejoin="round"/>
<path d="M38.6172 15.2938L37.0222 14.3754" stroke="white" stroke-width="1.52344" stroke-miterlimit="10" stroke-linecap="round" stroke-linejoin="round"/>
<path d="M40.57 8.02783H38.7283" stroke="white" stroke-width="1.52344" stroke-miterlimit="10" stroke-linecap="round" stroke-linejoin="round"/>
<path d="M38.6172 0.761719L37.0222 1.68015" stroke="white" stroke-width="1.52344" stroke-miterlimit="10" stroke-linecap="round" stroke-linejoin="round"/>
</g>
<g opacity="0.5" clip-path="url(#clip1_19_430)">
<path d="M240.262 38.5V36.7031C241.388 36.3647 242.375 35.6731 243.077 34.7305C243.78 33.7879 244.16 32.6443 244.163 31.4687V30.6875C244.636 30.6896 245.099 30.5476 245.49 30.2802C245.881 30.0129 246.181 29.6329 246.35 29.1908C246.52 28.7487 246.551 28.2655 246.439 27.8053C246.328 27.3452 246.078 26.9299 245.725 26.6148V26.2414C245.754 24.2286 245.019 22.2798 243.667 20.7879C242.316 19.2961 240.449 18.3724 238.443 18.2031C237.375 18.1286 236.304 18.2762 235.296 18.6366C234.289 18.997 233.367 19.5623 232.588 20.2968C231.81 21.0294 231.19 21.9131 230.766 22.8938C230.341 23.8744 230.122 24.9314 230.12 26V26.6148C229.767 26.9299 229.518 27.3452 229.406 27.8053C229.294 28.2655 229.325 28.7487 229.495 29.1908C229.665 29.6329 229.965 30.0129 230.356 30.2802C230.746 30.5476 231.209 30.6896 231.683 30.6875V31.4687C231.685 32.644 232.065 33.7874 232.767 34.73C233.469 35.6725 234.456 36.3643 235.581 36.7031V38.5C233.304 38.5033 231.122 39.4102 229.513 41.0214C227.904 42.6327 227 44.8167 227 47.0937V50.2187C227 50.4259 227.082 50.6246 227.229 50.7711C227.375 50.9177 227.574 51 227.781 51H248.062C248.27 51 248.468 50.9177 248.615 50.7711C248.761 50.6246 248.844 50.4259 248.844 50.2187V47.0937C248.844 44.8165 247.94 42.6325 246.331 41.0212C244.722 39.4099 242.539 38.5031 240.262 38.5ZM237.918 44.6937L237.261 40.0625H238.582L237.918 44.6937ZM235.496 42.8383L234.969 41.7812L235.808 40.9406L236.568 46.2711L236.695 47.1601L234.927 44.6812L235.498 43.539C235.552 43.4301 235.581 43.3099 235.581 43.188C235.582 43.0661 235.553 42.9459 235.499 42.8367L235.496 42.8383ZM239.27 46.2695L240.03 40.939L240.873 41.7812L240.344 42.8398C240.29 42.9485 240.262 43.0681 240.262 43.1894C240.262 43.3107 240.29 43.4304 240.344 43.539L240.914 44.6812L239.147 47.1601L239.27 46.2695ZM233.241 31.4687V29.9062C233.241 29.699 233.158 29.5003 233.012 29.3538C232.865 29.2073 232.667 29.125 232.459 29.125H231.678C231.506 29.1253 231.338 29.0686 231.202 28.9639C231.065 28.8592 230.967 28.7122 230.922 28.5458C230.878 28.3795 230.889 28.203 230.955 28.044C231.021 27.885 231.138 27.7522 231.287 27.6664C231.331 27.636 231.372 27.6011 231.409 27.5625H235.848C236.361 27.5638 236.869 27.4633 237.343 27.2669C237.817 27.0704 238.247 26.7818 238.608 26.4179L238.93 26.0945C239.003 26.0217 239.089 25.9639 239.183 25.9246C239.278 25.8853 239.38 25.8652 239.482 25.8656C239.689 25.8656 239.888 25.7833 240.034 25.6368C240.181 25.4903 240.263 25.2915 240.263 25.0843C240.263 24.8771 240.181 24.6784 240.034 24.5319C239.888 24.3854 239.689 24.3031 239.482 24.3031C239.174 24.3024 238.87 24.3627 238.585 24.4806C238.301 24.5985 238.043 24.7715 237.827 24.9898L237.504 25.3133C237.287 25.5316 237.029 25.7047 236.745 25.8225C236.461 25.9404 236.156 26.0007 235.848 26H231.68C231.68 25.1446 231.856 24.2984 232.196 23.5136C232.536 22.7288 233.034 22.0222 233.658 21.4375C234.282 20.8528 235.02 20.4024 235.825 20.1143C236.63 19.8262 237.486 19.7064 238.34 19.7625C239.909 19.8997 241.372 20.6129 242.446 21.7647C243.52 22.9165 244.13 24.4252 244.158 26H243.115C242.78 26.0004 242.449 25.9285 242.145 25.789C241.957 25.704 241.742 25.6973 241.549 25.7702C241.355 25.8432 241.198 25.9899 241.113 26.1782C241.027 26.3665 241.02 26.5811 241.092 26.7748C241.165 26.9685 241.311 27.1256 241.499 27.2117C242.006 27.4434 242.557 27.5631 243.115 27.5625H244.434C244.47 27.6009 244.509 27.6358 244.552 27.6664C244.701 27.7522 244.818 27.885 244.884 28.044C244.95 28.203 244.961 28.3795 244.917 28.5458C244.872 28.7122 244.774 28.8592 244.637 28.9639C244.501 29.0686 244.333 29.1253 244.161 29.125H243.38C243.172 29.125 242.974 29.2073 242.827 29.3538C242.681 29.5003 242.598 29.699 242.598 29.9062V31.4687C242.598 32.5038 242.188 33.4965 241.456 34.2289C240.725 34.9613 239.733 35.3735 238.698 35.375H237.135C236.101 35.3719 235.111 34.959 234.381 34.2267C233.651 33.4945 233.241 32.5027 233.241 31.4687ZM238.702 36.9375V38.5H237.139V36.9375H238.702ZM228.562 47.0937C228.565 45.4425 229.147 43.8445 230.209 42.5796C231.27 41.3146 232.742 40.4631 234.368 40.1742L233.47 41.0711C233.354 41.1871 233.277 41.3367 233.251 41.4986C233.225 41.6606 233.25 41.8267 233.323 41.9734L233.929 43.1875L233.323 44.4008C233.26 44.5277 233.232 44.6696 233.244 44.8111C233.255 44.9526 233.304 45.0884 233.387 45.2039L236.406 49.4375H232.461V45.5312C232.461 45.324 232.379 45.1253 232.232 44.9788C232.086 44.8323 231.887 44.75 231.68 44.75C231.472 44.75 231.274 44.8323 231.127 44.9788C230.981 45.1253 230.898 45.324 230.898 45.5312V49.4375H228.562V47.0937ZM247.285 49.4375H244.941V45.5312C244.941 45.324 244.859 45.1253 244.713 44.9788C244.566 44.8323 244.367 44.75 244.16 44.75C243.953 44.75 243.754 44.8323 243.608 44.9788C243.461 45.1253 243.379 45.324 243.379 45.5312V49.4375H239.434L242.453 45.2031C242.536 45.0876 242.585 44.9518 242.596 44.8103C242.607 44.6688 242.58 44.527 242.516 44.4L241.914 43.1875L242.52 41.9742C242.593 41.8275 242.618 41.6614 242.592 41.4994C242.566 41.3375 242.489 41.1879 242.373 41.0718L241.477 40.1742C243.103 40.4631 244.575 41.3146 245.637 42.5796C246.698 43.8445 247.281 45.4425 247.283 47.0937L247.285 49.4375Z" fill="white"/>
<path d="M235.581 28.3438C235.374 28.3438 235.175 28.4261 235.029 28.5726C234.882 28.7191 234.8 28.9178 234.8 29.125V29.9062C234.8 30.1135 234.882 30.3122 235.029 30.4587C235.175 30.6052 235.374 30.6875 235.581 30.6875C235.788 30.6875 235.987 30.6052 236.134 30.4587C236.28 30.3122 236.363 30.1135 236.363 29.9062V29.125C236.363 28.9178 236.28 28.7191 236.134 28.5726C235.987 28.4261 235.788 28.3438 235.581 28.3438Z" fill="white"/>
<path d="M240.262 30.6875C240.469 30.6875 240.668 30.6052 240.814 30.4587C240.961 30.3122 241.043 30.1135 241.043 29.9062V29.125C241.043 28.9178 240.961 28.7191 240.814 28.5726C240.668 28.4261 240.469 28.3438 240.262 28.3438C240.055 28.3438 239.856 28.4261 239.709 28.5726C239.563 28.7191 239.48 28.9178 239.48 29.125V29.9062C239.48 30.1135 239.563 30.3122 239.709 30.4587C239.856 30.6052 240.055 30.6875 240.262 30.6875Z" fill="white"/>
<path d="M263.665 32.25C263.872 32.25 264.071 32.1677 264.217 32.0212C264.364 31.8747 264.446 31.676 264.446 31.4688V30.6875C264.446 30.4803 264.364 30.2816 264.217 30.1351C264.071 29.9886 263.872 29.9062 263.665 29.9062C263.458 29.9062 263.259 29.9886 263.112 30.1351C262.966 30.2816 262.884 30.4803 262.884 30.6875V31.4688C262.884 31.676 262.966 31.8747 263.112 32.0212C263.259 32.1677 263.458 32.25 263.665 32.25Z" fill="white"/>
<path d="M269.126 31.4688V30.6875C269.126 30.4803 269.043 30.2816 268.897 30.1351C268.75 29.9886 268.552 29.9062 268.344 29.9062C268.137 29.9062 267.939 29.9886 267.792 30.1351C267.646 30.2816 267.563 30.4803 267.563 30.6875V31.4688C267.563 31.676 267.646 31.8747 267.792 32.0212C267.939 32.1677 268.137 32.25 268.344 32.25C268.552 32.25 268.75 32.1677 268.897 32.0212C269.043 31.8747 269.126 31.676 269.126 31.4688Z" fill="white"/>
<path d="M263.746 12.218C264.805 10.8858 265.325 9.20453 265.203 7.5072C265.081 5.80987 264.326 4.22024 263.087 3.05312C261.82 1.87428 260.185 1.16903 258.458 1.05657C256.731 0.94412 255.019 1.43136 253.609 2.43593C253.082 2.81718 252.538 3.24609 251.959 3.7375C251.375 3.23046 250.828 2.78906 250.29 2.39843C248.884 1.39072 247.171 0.902853 245.446 1.01829C243.72 1.13372 242.087 1.84528 240.828 3.03125C239.596 4.20553 238.846 5.79787 238.727 7.49605C238.607 9.19424 239.127 10.8758 240.183 12.2109C243.274 16.0203 247.169 19.099 251.589 21.2266C251.7 21.2834 251.824 21.3126 251.949 21.3117C252.074 21.3107 252.197 21.2797 252.307 21.2211C257.28 18.5883 261.021 15.6445 263.746 12.218ZM251.938 19.6453C247.864 17.636 244.272 14.7692 241.409 11.2414C240.594 10.2111 240.193 8.91347 240.285 7.60296C240.377 6.29245 240.955 5.06351 241.906 4.15703C242.9 3.22196 244.188 2.66123 245.549 2.57074C246.911 2.48024 248.262 2.86562 249.37 3.66093C250.086 4.18996 250.774 4.75556 251.432 5.35546C251.574 5.48351 251.759 5.55487 251.95 5.55603C252.141 5.55718 252.327 5.48803 252.47 5.36172C253.209 4.71015 253.881 4.16718 254.523 3.7039C255.634 2.90866 256.987 2.52195 258.351 2.60922C259.715 2.69649 261.007 3.25238 262.009 4.18281C262.963 5.08128 263.546 6.30526 263.642 7.61273C263.737 8.92019 263.339 10.2159 262.525 11.2437C259.606 14.7369 256.003 17.596 251.938 19.6453Z" fill="white"/>
<path d="M277 42.3164C276.952 38.2719 276.095 34.278 274.478 30.5703C274.547 30.3555 274.583 30.1317 274.587 29.9063C274.586 29.5785 274.516 29.2546 274.381 28.9558C274.246 28.6569 274.05 28.3898 273.805 28.1719V27.8039C273.807 26.1711 273.322 24.5748 272.411 23.2195C272.356 23.1295 272.283 23.0515 272.197 22.9902C272.111 22.929 272.014 22.8858 271.911 22.8633C271.808 22.8407 271.701 22.8393 271.598 22.859C271.494 22.8787 271.396 22.9193 271.308 22.9782C271.22 23.037 271.146 23.113 271.088 23.2016C271.031 23.2901 270.992 23.3893 270.974 23.4933C270.956 23.5973 270.959 23.7038 270.984 23.8064C271.008 23.9091 271.053 24.0058 271.116 24.0906C271.808 25.1201 272.198 26.3228 272.241 27.5625H268.59C267.872 27.5644 267.161 27.4237 266.499 27.1486C265.836 26.8736 265.234 26.4696 264.729 25.9602L264.216 25.4469C264.146 25.365 264.06 25.2985 263.963 25.2514C263.867 25.2044 263.761 25.1779 263.654 25.1736C263.546 25.1693 263.439 25.1873 263.338 25.2264C263.238 25.2655 263.147 25.325 263.071 25.401C262.994 25.477 262.935 25.568 262.895 25.6682C262.856 25.7684 262.838 25.8757 262.842 25.9833C262.846 26.0909 262.872 26.1965 262.918 26.2935C262.965 26.3905 263.032 26.4767 263.113 26.5469L263.626 27.0594C264.275 27.7154 265.048 28.2359 265.9 28.5905C266.753 28.9451 267.667 29.1268 268.59 29.125H270.686V33.0313C270.686 34.0663 270.275 35.0591 269.544 35.7915C268.812 36.5239 267.82 36.9361 266.785 36.9375H265.223C264.188 36.9359 263.196 36.5236 262.465 35.7912C261.733 35.0588 261.323 34.0662 261.323 33.0313V29.0531C261.723 28.9831 262.11 28.8513 262.469 28.6625C262.649 28.5631 262.782 28.3973 262.84 28.2009C262.898 28.0044 262.876 27.7929 262.78 27.6121C262.684 27.4313 262.52 27.2955 262.325 27.2341C262.129 27.1726 261.918 27.1904 261.735 27.2836C261.396 27.4644 261.018 27.5591 260.634 27.5594H259.765C259.765 26.7042 259.94 25.8581 260.28 25.0734C260.62 24.2888 261.118 23.5822 261.742 22.9975C262.366 22.4128 263.103 21.9625 263.908 21.6742C264.714 21.386 265.569 21.2661 266.423 21.3219C267.259 21.3756 268.075 21.6065 268.816 21.9992C268.907 22.0498 269.007 22.0817 269.11 22.093C269.214 22.1043 269.318 22.0949 269.418 22.0652C269.518 22.0355 269.611 21.9862 269.691 21.9201C269.771 21.8541 269.838 21.7726 269.886 21.6805C269.935 21.5885 269.964 21.4876 269.973 21.384C269.982 21.2803 269.971 21.1758 269.939 21.0768C269.907 20.9777 269.855 20.886 269.788 20.8071C269.72 20.7282 269.637 20.6636 269.544 20.6172C269.383 20.532 269.216 20.461 269.052 20.3891C269.098 20.1776 269.123 19.9619 269.126 19.7453C269.129 19.3069 269.041 18.8726 268.865 18.4708C268.69 18.0689 268.431 17.7086 268.107 17.4133C267.783 17.1179 267.401 16.8942 266.984 16.7566C266.568 16.6191 266.127 16.5708 265.691 16.615C265.255 16.6592 264.833 16.7948 264.453 17.013C264.072 17.2312 263.742 17.5271 263.484 17.8815C263.226 18.2358 263.045 18.6406 262.954 19.0694C262.862 19.4982 262.862 19.9415 262.954 20.3703C261.542 20.9683 260.338 21.9698 259.493 23.2493C258.648 24.5287 258.2 26.0292 258.204 27.5625V28.1719C257.867 28.4643 257.624 28.8496 257.506 29.2794C257.387 29.7093 257.398 30.1646 257.537 30.5883C257.523 30.6125 257.502 30.6289 257.491 30.6539C255.9 34.34 255.058 38.3053 255.012 42.3195C254.994 43.2727 255.328 44.1991 255.949 44.9219C255.382 46.0851 255.086 47.362 255.084 48.6563V50.2188C255.084 50.426 255.166 50.6247 255.312 50.7712C255.459 50.9177 255.658 51 255.865 51H276.147C276.354 51 276.553 50.9177 276.699 50.7712C276.846 50.6247 276.928 50.426 276.928 50.2188V48.6563C276.927 47.3609 276.631 46.0829 276.062 44.9188C276.683 44.1956 277.017 43.2695 277 42.3164ZM264.445 19.7453C264.434 19.5332 264.465 19.321 264.539 19.1216C264.612 18.9222 264.725 18.7398 264.871 18.5856C265.017 18.4314 265.193 18.3085 265.388 18.2245C265.583 18.1406 265.793 18.0973 266.005 18.0973C266.218 18.0973 266.428 18.1406 266.623 18.2245C266.818 18.3085 266.994 18.4314 267.14 18.5856C267.286 18.7398 267.399 18.9222 267.472 19.1216C267.545 19.321 267.577 19.5332 267.566 19.7453C267.564 19.8002 267.559 19.855 267.552 19.9094C267.213 19.8368 266.87 19.7877 266.524 19.7625C265.832 19.7201 265.138 19.769 264.459 19.9078C264.451 19.8539 264.447 19.7997 264.445 19.7453ZM273.027 29.9063C273.027 30.1135 272.944 30.3122 272.798 30.4587C272.651 30.6052 272.452 30.6875 272.245 30.6875V29.125C272.452 29.125 272.651 29.2073 272.798 29.3538C272.944 29.5003 273.027 29.6991 273.027 29.9063ZM272.245 33.0313V32.25C272.638 32.2471 273.024 32.1441 273.366 31.9508C274.69 35.2598 275.392 38.7847 275.437 42.3485C275.443 42.7381 275.35 43.1229 275.169 43.468C274.373 42.4114 273.342 41.554 272.158 40.9631C270.974 40.3722 269.669 40.0639 268.345 40.0625V38.2656C269.471 37.9275 270.458 37.236 271.161 36.2933C271.863 35.3506 272.243 34.2069 272.245 33.0313ZM258.984 29.9063C258.984 29.6991 259.067 29.5003 259.213 29.3538C259.36 29.2073 259.558 29.125 259.766 29.125V30.6875C259.558 30.6875 259.36 30.6052 259.213 30.4587C259.067 30.3122 258.984 30.1135 258.984 29.9063ZM256.572 42.3492C256.617 38.7845 257.32 35.2588 258.645 31.9492C258.987 32.1429 259.372 32.2464 259.765 32.25V33.0313C259.767 34.2068 260.147 35.3504 260.85 36.2931C261.552 37.2358 262.539 37.9274 263.665 38.2656V40.0625C262.342 40.0644 261.038 40.3729 259.854 40.9638C258.671 41.5547 257.64 42.4118 256.844 43.468C256.661 43.1236 256.568 42.739 256.572 42.3492ZM261.154 49.4375L260.672 47.5117L262.534 46.5789C262.643 46.5249 262.762 46.4967 262.883 46.4967C263.004 46.4967 263.124 46.5249 263.232 46.5789L264.957 47.443C265.282 47.6048 265.641 47.689 266.004 47.689C266.367 47.689 266.725 47.6048 267.051 47.443L268.775 46.5789C268.883 46.5247 269.003 46.4965 269.124 46.4965C269.245 46.4965 269.365 46.5247 269.473 46.5789L271.336 47.5117L270.856 49.4375H261.154ZM275.366 49.4375H272.469L273.006 47.2828C273.049 47.1105 273.033 46.9287 272.959 46.7672C272.885 46.6057 272.758 46.4743 272.599 46.3945L270.177 45.1813C269.852 45.0194 269.494 44.9352 269.13 44.9352C268.767 44.9352 268.409 45.0194 268.084 45.1813L266.359 46.0406C266.25 46.0947 266.131 46.1228 266.01 46.1228C265.889 46.1228 265.769 46.0947 265.661 46.0406L263.936 45.1813C263.611 45.0194 263.253 44.9352 262.889 44.9352C262.526 44.9352 262.168 45.0194 261.843 45.1813L259.421 46.3945C259.262 46.4742 259.135 46.6055 259.061 46.767C258.987 46.9285 258.97 47.1105 259.013 47.2828L259.546 49.4375H256.644V48.6563C256.644 46.7932 257.383 45.0063 258.7 43.688C260.016 42.3697 261.802 41.6277 263.665 41.625C264.079 41.625 264.477 41.4604 264.77 41.1674C265.063 40.8743 265.227 40.4769 265.227 40.0625V38.5H266.79V40.0625C266.79 40.4769 266.954 40.8743 267.247 41.1674C267.54 41.4604 267.938 41.625 268.352 41.625C270.215 41.6277 272.001 42.3697 273.318 43.688C274.634 45.0063 275.373 46.7932 275.373 48.6563L275.366 49.4375Z" fill="white"/>
</g>
<path opacity="0.5" d="M63 37.0001C86 13.1667 149.6 -20.1999 220 37.0001" stroke="white" stroke-dasharray="10 10"/>
<path opacity="0.5" d="M63.5 45H217.5" stroke="white" stroke-dasharray="10 10"/>
<defs>
<clipPath id="clip0_19_430">
<rect width="52" height="52" fill="white"/>
</clipPath>
<clipPath id="clip1_19_430">
<rect width="50" height="50" fill="white" transform="translate(227 1)"/>
</clipPath>
</defs>
</svg>
