<svg width="287" height="50" viewBox="0 0 287 50" fill="none" xmlns="http://www.w3.org/2000/svg">
<g opacity="0.5" clip-path="url(#clip0_19_620)">
<path d="M242.833 50H281.167C281.499 50.0001 281.828 49.9338 282.135 49.805C282.442 49.6763 282.719 49.4876 282.952 49.2502C283.185 49.0127 283.368 48.7312 283.491 48.4221C283.614 48.113 283.673 47.7825 283.667 47.45C283.649 45.3843 283.495 43.322 283.205 41.2767C282.874 38.9488 281.9 36.7596 280.391 34.9562C278.882 33.1529 276.9 31.8071 274.667 31.0708L267 28.5625V28.2667C267.589 27.8967 268.139 27.5167 268.632 27.1683C268.891 26.9858 269.136 26.8133 269.367 26.6567C270.161 26.1151 270.837 25.4186 271.355 24.609C271.873 23.7995 272.221 22.8936 272.38 21.9458L272.718 19.9217C273.426 19.7628 274.063 19.3775 274.532 18.824C275.001 18.2706 275.276 17.5793 275.317 16.855C275.927 15.1953 276.216 13.4344 276.167 11.6667C276.163 10.4017 276.052 9.13927 275.833 7.89333C275.729 7.28092 275.497 6.6973 275.153 6.18043C274.808 5.66356 274.359 5.22502 273.833 4.89333C272.856 4.26603 271.685 4.01108 270.535 4.17499C269.526 2.87452 268.233 1.82203 266.754 1.098C265.276 0.373965 263.651 -0.00244141 262.005 -0.00244141C260.359 -0.00244141 258.735 0.373965 257.257 1.098C255.778 1.82203 254.485 2.87452 253.476 4.17499C252.325 4.01107 251.154 4.26631 250.176 4.89416C249.651 5.2248 249.202 5.6621 248.857 6.17766C248.513 6.69321 248.281 7.27549 248.176 7.88666C247.954 9.13453 247.839 10.3992 247.833 11.6667C247.784 13.4332 248.072 15.1929 248.682 16.8517C248.721 17.5766 248.997 18.2688 249.466 18.8229C249.935 19.377 250.572 19.7628 251.281 19.9217L251.619 21.9458C251.778 22.8938 252.127 23.7998 252.644 24.6095C253.162 25.4192 253.838 26.1158 254.632 26.6575C254.863 26.8133 255.108 26.9858 255.367 27.1683C255.86 27.515 256.41 27.8967 256.999 28.2667V28.5625L249.332 31.0708C247.104 31.8048 245.124 33.1466 243.617 34.9451C242.109 36.7435 241.134 38.9272 240.801 41.25C240.507 43.3039 240.351 45.3752 240.333 47.45C240.327 47.7825 240.386 48.113 240.509 48.4221C240.632 48.7312 240.815 49.0127 241.048 49.2502C241.28 49.4876 241.558 49.6763 241.865 49.805C242.171 49.9338 242.501 50.0001 242.833 50ZM262 34.1667C263.133 34.1647 264.231 33.7787 265.116 33.0717C266.001 32.3647 266.62 31.3785 266.872 30.2742L268.982 30.9642C268.002 35.483 265.539 39.5441 261.983 42.5C258.446 39.5333 255.996 35.4745 255.018 30.9625L257.127 30.2725C257.379 31.3771 257.998 32.3637 258.883 33.0711C259.768 33.7784 260.867 34.1646 262 34.1667ZM258.667 29.1792C259.705 29.6922 260.842 29.9723 262 30C263.158 29.9723 264.295 29.6922 265.333 29.1792C265.333 30.0632 264.982 30.9111 264.357 31.5362C263.732 32.1613 262.884 32.5125 262 32.5125C261.116 32.5125 260.268 32.1613 259.643 31.5362C259.018 30.9111 258.667 30.0632 258.667 29.1792ZM272.925 6.29666C273.256 6.50397 273.539 6.77858 273.757 7.10262C273.974 7.42667 274.121 7.7929 274.188 8.1775C274.391 9.32957 274.495 10.4969 274.5 11.6667C274.509 12.5361 274.442 13.4047 274.3 14.2625C273.89 13.8669 273.385 13.5831 272.833 13.4383V10.8333C272.833 9.08928 272.41 7.37134 271.598 5.82749C272.07 5.88139 272.524 6.04182 272.925 6.29666ZM262 1.66666C264.43 1.66953 266.76 2.63622 268.479 4.35468C270.197 6.07314 271.164 8.40306 271.167 10.8333V13.4442L270.182 13.5858C269.971 12.8077 269.513 12.119 268.878 11.623C268.242 11.127 267.463 10.8505 266.657 10.8349C265.851 10.8193 265.061 11.0655 264.407 11.5366C263.753 12.0076 263.269 12.6781 263.028 13.4475C262.351 13.2953 261.649 13.2953 260.972 13.4475C260.731 12.6781 260.247 12.0076 259.593 11.5366C258.938 11.0655 258.149 10.8193 257.343 10.8349C256.537 10.8505 255.758 11.127 255.122 11.623C254.487 12.119 254.029 12.8077 253.818 13.5858L252.833 13.4442V10.8333C252.836 8.40306 253.803 6.07314 255.521 4.35468C257.24 2.63622 259.57 1.66953 262 1.66666ZM268.667 14.5833C268.667 14.9954 268.544 15.3982 268.315 15.7408C268.087 16.0834 267.761 16.3504 267.381 16.5081C267 16.6658 266.581 16.707 266.177 16.6266C265.773 16.5462 265.401 16.3478 265.11 16.0565C264.819 15.7651 264.62 15.3939 264.54 14.9898C264.46 14.5856 264.501 14.1667 264.659 13.7861C264.816 13.4054 265.083 13.08 265.426 12.8511C265.768 12.6222 266.171 12.5 266.583 12.5C267.136 12.5 267.666 12.7195 268.056 13.1102C268.447 13.5009 268.667 14.0308 268.667 14.5833ZM259.5 14.5833C259.5 14.9954 259.378 15.3982 259.149 15.7408C258.92 16.0834 258.595 16.3504 258.214 16.5081C257.833 16.6658 257.414 16.707 257.01 16.6266C256.606 16.5462 256.235 16.3478 255.943 16.0565C255.652 15.7651 255.454 15.3939 255.373 14.9898C255.293 14.5856 255.334 14.1667 255.492 13.7861C255.65 13.4054 255.917 13.08 256.259 12.8511C256.602 12.6222 257.005 12.5 257.417 12.5C257.969 12.5 258.499 12.7195 258.89 13.1102C259.28 13.5009 259.5 14.0308 259.5 14.5833ZM249.813 8.17333C249.88 7.78954 250.027 7.42414 250.245 7.10083C250.462 6.77752 250.745 6.50353 251.075 6.29666C251.476 6.04182 251.93 5.88139 252.402 5.82749C251.59 7.37134 251.166 9.08928 251.167 10.8333V13.4383C250.616 13.583 250.111 13.8665 249.701 14.2617C249.558 13.4042 249.491 12.5359 249.5 11.6667C249.505 10.4954 249.61 9.32673 249.813 8.17333ZM255.563 25.2767C254.956 24.8619 254.439 24.3287 254.044 23.709C253.648 23.0894 253.382 22.3961 253.261 21.6708L252.818 19.0292C252.786 18.8353 252.686 18.6591 252.536 18.5318C252.386 18.4045 252.196 18.3342 252 18.3333C251.558 18.3379 251.132 18.1666 250.816 17.8573C250.501 17.5479 250.321 17.1258 250.316 16.6837C250.312 16.2417 250.483 15.816 250.792 15.5002C251.102 15.1845 251.524 15.0045 251.966 15L253.735 15.25C253.892 16.123 254.355 16.9114 255.041 17.4745C255.726 18.0375 256.59 18.3383 257.477 18.3232C258.364 18.308 259.216 17.9779 259.882 17.3919C260.548 16.8058 260.984 16.002 261.112 15.1242C261.691 14.9492 262.309 14.9492 262.888 15.1242C263.015 16.0029 263.45 16.8079 264.116 17.3949C264.782 17.982 265.635 18.3128 266.523 18.328C267.41 18.3432 268.274 18.0419 268.96 17.4781C269.646 16.9143 270.108 16.1247 270.265 15.2508L272.034 15.0008C272.47 15.014 272.884 15.1976 273.186 15.5123C273.488 15.8269 273.655 16.2476 273.65 16.6838C273.646 17.1201 273.471 17.5372 273.162 17.8456C272.853 18.154 272.436 18.3291 272 18.3333C271.803 18.3334 271.612 18.4033 271.462 18.5307C271.311 18.6581 271.211 18.8347 271.178 19.0292L270.736 21.6708C270.615 22.3959 270.349 23.089 269.953 23.7086C269.558 24.3281 269.041 24.8612 268.434 25.2758C268.196 25.4375 267.941 25.6167 267.672 25.805C266.073 26.9317 264.083 28.3333 262 28.3333C259.917 28.3333 257.927 26.9317 256.327 25.805C256.059 25.6167 255.804 25.4375 255.567 25.2767H255.563ZM242.447 41.5C242.735 39.482 243.58 37.5844 244.889 36.0215C246.197 34.4586 247.916 33.2926 249.852 32.655L253.429 31.4842C254.506 36.2974 257.14 40.6213 260.922 43.7867C261.227 44.0344 261.608 44.1687 262 44.1667C262.395 44.1664 262.778 44.0295 263.083 43.7792C266.862 40.6147 269.493 36.2933 270.57 31.4833L274.145 32.65C276.085 33.2898 277.808 34.4601 279.118 36.0283C280.427 37.5964 281.272 39.5 281.556 41.5233C281.833 43.4997 281.981 45.4919 282 47.4875C282.003 47.5971 281.983 47.7062 281.943 47.8081C281.902 47.91 281.842 48.0028 281.765 48.0808C281.687 48.1608 281.594 48.2244 281.491 48.2678C281.389 48.3111 281.278 48.3334 281.167 48.3333H242.833C242.722 48.3339 242.611 48.312 242.508 48.2691C242.405 48.2261 242.312 48.163 242.234 48.0833C242.157 48.0049 242.096 47.9117 242.056 47.8093C242.016 47.7069 241.997 47.5975 242 47.4875C242.019 45.4841 242.168 43.484 242.447 41.5Z" fill="white"/>
<path d="M267 23.3334V22.5C267 21.616 266.649 20.7681 266.024 20.143C265.399 19.5179 264.551 19.1667 263.667 19.1667H260.333C259.449 19.1667 258.601 19.5179 257.976 20.143C257.351 20.7681 257 21.616 257 22.5V23.3334C257 23.7754 257.176 24.1993 257.488 24.5119C257.801 24.8244 258.225 25 258.667 25H265.333C265.775 25 266.199 24.8244 266.512 24.5119C266.824 24.1993 267 23.7754 267 23.3334ZM258.667 22.5C258.667 22.058 258.842 21.6341 259.155 21.3215C259.467 21.0089 259.891 20.8334 260.333 20.8334H263.667C264.109 20.8334 264.533 21.0089 264.845 21.3215C265.158 21.6341 265.333 22.058 265.333 22.5V23.3334H258.667V22.5Z" fill="white"/>
</g>
<g opacity="0.5" clip-path="url(#clip1_19_620)">
<path d="M14.1583 33.0292C12.1719 33.9616 10.4914 35.4394 9.31251 37.2903C8.13367 39.1412 7.50509 41.2889 7.5 43.4833V47.5C7.5 48.163 7.76339 48.7989 8.23223 49.2678C8.70107 49.7366 9.33696 50 10 50H40C40.663 50 41.2989 49.7366 41.7678 49.2678C42.2366 48.7989 42.5 48.163 42.5 47.5V43.4833C42.4949 41.2889 41.8663 39.1412 40.6875 37.2903C39.5087 35.4394 37.8281 33.9616 35.8417 33.0292L30 30.3025V29.5308C31.2482 28.5989 32.2713 27.3987 32.9939 26.0188C33.7165 24.6388 34.1201 23.1142 34.175 21.5575C34.7899 21.3968 35.3463 21.0644 35.7792 20.5992C36.3474 19.9823 36.6591 19.172 36.6508 18.3333H36.6667V15C36.6645 12.9364 36.115 10.9103 35.0743 9.12836C34.0336 7.34642 32.5388 5.87241 30.7425 4.85667C30.5139 3.49898 29.8116 2.26619 28.7604 1.37713C27.7091 0.488068 26.3768 0.000244141 25 0.000244141C23.6232 0.000244141 22.2909 0.488068 21.2396 1.37713C20.1884 2.26619 19.4861 3.49898 19.2575 4.85667C17.4612 5.87241 15.9664 7.34642 14.9257 9.12836C13.885 10.9103 13.3355 12.9364 13.3333 15V18.3333C13.3342 19.0707 13.5791 19.787 14.0299 20.3705C14.4806 20.9541 15.1118 21.372 15.825 21.5592C15.8804 23.1156 16.2842 24.6397 17.0068 26.0194C17.7293 27.399 18.7522 28.5989 20 29.5308V30.3025L14.1583 33.0292ZM21.4642 34.3758C21.9839 34.8902 22.6095 35.2849 23.2975 35.5325L22.9242 35.9108C22.5886 36.2502 22.1645 36.4886 21.7002 36.5991C21.2359 36.7096 20.75 36.6876 20.2975 36.5358C19.7833 36.3613 19.3366 36.0301 19.0202 35.5887C18.7038 35.1474 18.5336 34.618 18.5333 34.075C18.5577 33.5825 18.6831 33.1003 18.9017 32.6583L20.1592 32.075C20.3808 32.9448 20.8314 33.7393 21.4642 34.3758ZM29.84 32.0675L31.0983 32.6508C31.3169 33.0928 31.4423 33.575 31.4667 34.0675C31.4664 34.6103 31.2963 35.1395 30.98 35.5807C30.6638 36.0218 30.2173 36.3529 29.7033 36.5275C29.2511 36.6797 28.7653 36.7022 28.3009 36.5925C27.8365 36.4828 27.4121 36.2452 27.0758 35.9067L26.6967 35.5233C27.4617 35.2456 28.1476 34.7858 28.6952 34.1837C29.2429 33.5816 29.6357 32.8553 29.84 32.0675ZM40.8333 43.4833V47.5C40.8333 47.721 40.7455 47.933 40.5893 48.0893C40.433 48.2455 40.221 48.3333 40 48.3333H10C9.77899 48.3333 9.56703 48.2455 9.41074 48.0893C9.25446 47.933 9.16667 47.721 9.16667 47.5V43.4833C9.17111 41.6059 9.70895 39.7684 10.7175 38.1849C11.7261 36.6013 13.1639 35.337 14.8633 34.5392L16.9108 33.5833C16.8855 33.7458 16.8707 33.9098 16.8667 34.0742C16.866 35.2024 17.3133 36.2847 18.1102 37.0834C18.9071 37.882 19.9885 38.3316 21.1167 38.3333C21.6732 38.3324 22.2241 38.2215 22.7377 38.007C23.2512 37.7925 23.7173 37.4786 24.1092 37.0833L25 36.185L25.8942 37.0892C26.4495 37.6486 27.1505 38.0412 27.9176 38.2223C28.6847 38.4035 29.4873 38.366 30.2342 38.1142C31.079 37.8285 31.813 37.2851 32.333 36.5606C32.8531 35.8361 33.133 34.9668 33.1333 34.075C33.1293 33.9106 33.1145 33.7467 33.0892 33.5842L35.1367 34.5392C36.8361 35.337 38.2739 36.6013 39.2825 38.1849C40.2911 39.7684 40.8289 41.6059 40.8333 43.4833ZM25 1.66667C25.7664 1.67225 26.5167 1.88762 27.1694 2.28941C27.8221 2.69119 28.3523 3.26406 28.7025 3.94584C26.3017 3.12941 23.6983 3.12941 21.2975 3.94584C21.6477 3.26406 22.1779 2.69119 22.8306 2.28941C23.4833 1.88762 24.2336 1.67225 25 1.66667ZM25 5.00001C27.6513 5.00287 30.1932 6.05736 32.0679 7.93211C33.9426 9.80685 34.9971 12.3487 35 15V15.4608C34.7026 15.2857 34.3799 15.1575 34.0433 15.0808C33.6475 13.6808 31.9825 10.8333 25 10.8333C18.0175 10.8333 16.3567 13.6733 15.9575 15.0758C15.6204 15.1512 15.2973 15.2791 15 15.455V15C15.0029 12.3487 16.0574 9.80685 17.9321 7.93211C19.8068 6.05736 22.3487 5.00287 25 5.00001ZM31.9167 16.455C31.5871 15.9698 31.1349 15.5805 30.6061 15.3267C30.0772 15.073 29.4906 14.9638 28.9059 15.0104C28.3211 15.057 27.7592 15.2576 27.2772 15.5918C26.7952 15.9261 26.4103 16.3821 26.1617 16.9133C25.7957 16.7507 25.3997 16.6667 24.9992 16.6667C24.5987 16.6667 24.2026 16.7507 23.8367 16.9133C23.5881 16.3821 23.2032 15.9261 22.7212 15.5918C22.2391 15.2576 21.6772 15.057 21.0925 15.0104C20.5077 14.9638 19.9211 15.073 19.3923 15.3267C18.8634 15.5805 18.4112 15.9698 18.0817 16.455L17.5342 15.6342C17.705 14.9217 18.7433 12.5 25 12.5C31.2842 12.5 32.3017 14.8858 32.4667 15.6308L31.9167 16.455ZM30.8333 18.3333C30.8333 18.663 30.7356 18.9852 30.5525 19.2593C30.3693 19.5334 30.109 19.747 29.8045 19.8731C29.4999 19.9993 29.1648 20.0323 28.8415 19.968C28.5182 19.9037 28.2212 19.7449 27.9882 19.5119C27.7551 19.2788 27.5963 18.9818 27.532 18.6585C27.4677 18.3352 27.5007 18.0001 27.6269 17.6955C27.753 17.391 27.9666 17.1307 28.2407 16.9476C28.5148 16.7644 28.837 16.6667 29.1667 16.6667C29.6087 16.6667 30.0326 16.8423 30.3452 17.1548C30.6577 17.4674 30.8333 17.8913 30.8333 18.3333ZM22.5 18.3333C22.5 18.663 22.4023 18.9852 22.2191 19.2593C22.036 19.5334 21.7757 19.747 21.4711 19.8731C21.1666 19.9993 20.8315 20.0323 20.5082 19.968C20.1849 19.9037 19.8879 19.7449 19.6548 19.5119C19.4217 19.2788 19.263 18.9818 19.1987 18.6585C19.1344 18.3352 19.1674 18.0001 19.2935 17.6955C19.4197 17.391 19.6333 17.1307 19.9074 16.9476C20.1815 16.7644 20.5037 16.6667 20.8333 16.6667C21.2754 16.6667 21.6993 16.8423 22.0118 17.1548C22.3244 17.4674 22.5 17.8913 22.5 18.3333ZM17.495 20.9233C17.5076 20.807 17.4956 20.6893 17.4598 20.5779C17.4239 20.4665 17.365 20.364 17.2868 20.2769C17.2087 20.1898 17.1131 20.1201 17.0062 20.0724C16.8994 20.0247 16.7837 20 16.6667 20C16.2642 19.9947 15.8772 19.8439 15.5772 19.5754C15.2773 19.307 15.0846 18.939 15.0348 18.5396C14.985 18.1401 15.0815 17.7362 15.3064 17.4023C15.5313 17.0685 15.8694 16.8273 16.2583 16.7233L17.53 18.6308C17.5995 19.4536 17.9736 20.2208 18.579 20.7822C19.1843 21.3437 19.9775 21.6591 20.8031 21.6666C21.6287 21.6741 22.4275 21.3732 23.0429 20.8228C23.6584 20.2724 24.0464 19.5122 24.1308 18.6908C24.3625 18.4625 24.6747 18.3346 25 18.3346C25.3253 18.3346 25.6375 18.4625 25.8692 18.6908C25.9534 19.5122 26.341 20.2726 26.9563 20.8231C27.5716 21.3737 28.3701 21.6749 29.1958 21.6677C30.0214 21.6605 30.8146 21.3455 31.4202 20.7843C32.0258 20.223 32.4001 19.456 32.47 18.6333L33.7383 16.73C34.0748 16.8152 34.3764 17.0028 34.6015 17.2669C34.8267 17.531 34.9642 17.8585 34.995 18.2042C35.0128 18.4332 34.9831 18.6635 34.9076 18.8805C34.8322 19.0975 34.7127 19.2966 34.5567 19.4653C34.4006 19.6339 34.2114 19.7685 34.0009 19.8605C33.7904 19.9525 33.5631 20 33.3333 20C33.2166 20.0001 33.1011 20.0247 32.9944 20.0722C32.8878 20.1198 32.7923 20.1892 32.7142 20.276C32.6361 20.3628 32.5771 20.4651 32.5411 20.5762C32.505 20.6873 32.4927 20.8047 32.505 20.9208C32.5308 21.1792 33.0683 27.2783 25.88 29.8483C25.3108 30.0509 24.6892 30.0509 24.12 29.8483C16.9317 27.2783 17.4692 21.1792 17.495 20.9233ZM23.5592 31.4167C24.491 31.7489 25.509 31.7489 26.4408 31.4167C27.0907 31.1843 27.7231 30.9058 28.3333 30.5833V30.8333C28.3333 31.7174 27.9821 32.5652 27.357 33.1904C26.7319 33.8155 25.8841 34.1667 25 34.1667C24.1159 34.1667 23.2681 33.8155 22.643 33.1904C22.0179 32.5652 21.6667 31.7174 21.6667 30.8333V30.5833C22.2769 30.9058 22.9093 31.1843 23.5592 31.4167Z" fill="white"/>
<path d="M25.0001 39.1667C24.7791 39.1667 24.5671 39.2545 24.4108 39.4108C24.2545 39.567 24.1667 39.779 24.1667 40V40.8334C24.1667 41.0544 24.2545 41.2663 24.4108 41.4226C24.5671 41.5789 24.7791 41.6667 25.0001 41.6667C25.2211 41.6667 25.4331 41.5789 25.5893 41.4226C25.7456 41.2663 25.8334 41.0544 25.8334 40.8334V40C25.8334 39.779 25.7456 39.567 25.5893 39.4108C25.4331 39.2545 25.2211 39.1667 25.0001 39.1667Z" fill="white"/>
<path d="M25.0001 43.3333C24.7791 43.3333 24.5671 43.4211 24.4108 43.5774C24.2545 43.7337 24.1667 43.9456 24.1667 44.1666V45C24.1667 45.221 24.2545 45.433 24.4108 45.5892C24.5671 45.7455 24.7791 45.8333 25.0001 45.8333C25.2211 45.8333 25.4331 45.7455 25.5893 45.5892C25.7456 45.433 25.8334 45.221 25.8334 45V44.1666C25.8334 43.9456 25.7456 43.7337 25.5893 43.5774C25.4331 43.4211 25.2211 43.3333 25.0001 43.3333Z" fill="white"/>
</g>
<path opacity="0.5" d="M54 18H231" stroke="white" stroke-dasharray="10 10"/>
<path opacity="0.5" d="M55 21C59.5 32.6922 68.2 53.5711 117 44.9809C178 34.2432 134 19.9262 231 22.4317" stroke="white" stroke-dasharray="10 10"/>
<defs>
<clipPath id="clip0_19_620">
<rect width="50" height="50" fill="white" transform="translate(237)"/>
</clipPath>
<clipPath id="clip1_19_620">
<rect width="50" height="50" fill="white"/>
</clipPath>
</defs>
</svg>
