<svg width="281" height="52" viewBox="0 0 281 52" fill="none" xmlns="http://www.w3.org/2000/svg">
<path opacity="0.5" d="M62 40.5831C85 16.7497 148.6 -16.6169 219 40.5831" stroke="white" stroke-dasharray="10 10"/>
<path opacity="0.5" d="M62.5 48.583H216.5" stroke="white" stroke-dasharray="10 10"/>
<g opacity="0.5" clip-path="url(#clip0_19_558)">
<path d="M278.656 30.4687H273.969V28.125C273.969 26.8328 272.917 25.7812 271.625 25.7812H263.812C263.139 25.7812 262.535 26.0711 262.107 26.5273L253.656 25.1195V23.1617C255.987 21.8086 257.562 19.2906 257.562 16.4062H258.344C259.636 16.4062 260.688 15.3547 260.688 14.0625C260.688 12.7703 259.636 11.7187 258.344 11.7187H257.969L258.397 10.7258C259.2 8.8656 259.056 6.71717 258.014 4.97967C257.353 3.8781 256.387 3.01482 255.218 2.48357L253.038 1.4906C250.463 0.318729 247.308 0.661697 245.045 2.35779L243.812 3.28123L243.814 3.28357C242.595 3.60154 241.52 4.38592 240.859 5.48748C239.998 6.92185 239.931 8.67107 240.679 10.1672L241.455 11.7187H241.156C239.864 11.7187 238.812 12.7703 238.812 14.0625C238.812 15.3547 239.864 16.4062 241.156 16.4062H241.938C241.938 19.2906 243.512 21.8086 245.844 23.1617V25.1195L236.351 26.7015C233.703 27.1429 231.781 29.4109 231.781 32.0961V48.4375C231.781 48.8695 232.131 49.2187 232.562 49.2187H256.781H257.562H278.656C279.518 49.2187 280.219 48.5179 280.219 47.6562V32.0312C280.219 31.1695 279.518 30.4687 278.656 30.4687ZM272.406 28.125V30.4687H267.459C267.041 29.132 266.127 28.0211 264.929 27.3437H271.625C272.055 27.3437 272.406 27.6937 272.406 28.125ZM263.031 28.2773C264.262 28.5297 265.277 29.3562 265.789 30.4687H263.031V28.2773ZM259.125 14.0625C259.125 14.4929 258.774 14.8437 258.344 14.8437H257.562V13.2812H258.344C258.774 13.2812 259.125 13.632 259.125 14.0625ZM242.198 6.29139C242.792 5.30232 243.878 4.68748 245.031 4.68748C246.256 4.68748 247.393 5.29607 248.073 6.31482L248.319 6.68279L249.619 5.81638L249.373 5.44842C248.669 4.39217 247.618 3.64998 246.427 3.32029C248.195 2.22342 250.487 2.04529 252.39 2.9117L254.57 3.90467C255.449 4.30467 256.177 4.95388 256.674 5.78279C257.459 7.08982 257.566 8.70623 256.962 10.1062L256.91 10.2281L255.918 8.24373C255.814 8.0367 255.624 7.88592 255.398 7.83279C255.173 7.77888 254.936 7.82967 254.75 7.96795L253.5 8.90545C252.425 9.71248 251.093 10.1562 249.75 10.1562C248.407 10.1562 247.075 9.71248 246 8.90623L244.75 7.96873C244.564 7.82888 244.326 7.77888 244.102 7.83357C243.876 7.8867 243.686 8.03748 243.582 8.24451L242.523 10.3625L242.077 9.46873C241.569 8.4531 241.614 7.26482 242.198 6.29139ZM241.156 14.8437C240.726 14.8437 240.375 14.4929 240.375 14.0625C240.375 13.632 240.726 13.2812 241.156 13.2812H241.938V14.8437H241.156ZM243.5 16.4062V11.9031L244.561 9.78045L245.062 10.1562C246.406 11.164 248.071 11.7187 249.75 11.7187C251.429 11.7187 253.094 11.164 254.438 10.1562L254.939 9.78045L256 11.9031V16.4062C256 19.8523 253.196 22.6562 249.75 22.6562C246.304 22.6562 243.5 19.8523 243.5 16.4062ZM249.75 24.2187C250.566 24.2187 251.353 24.0922 252.094 23.8586V25.4578L249.75 27.8015L247.406 25.4578V23.8586C248.147 24.0922 248.934 24.2187 249.75 24.2187ZM249.498 32.8125H250.002L251.277 36L249.75 42.6195L248.223 36L249.498 32.8125ZM251.231 29.5726L250.113 31.25H249.387L248.268 29.5726L248.529 28.7906L249.198 29.4594C249.35 29.6109 249.55 29.6875 249.75 29.6875C249.95 29.6875 250.15 29.6109 250.302 29.4586L250.971 28.7898L251.231 29.5726ZM241.156 47.6562V34.375H239.594V47.6562H233.344V32.0961C233.344 30.1789 234.716 28.5578 236.608 28.2422L246.357 26.6179L247.294 27.5547L246.665 29.4406C246.588 29.6695 246.622 29.9203 246.756 30.1211L248.091 32.1226L246.68 35.6476C246.621 35.7953 246.609 35.9578 246.645 36.1133L248.988 46.2695C249.07 46.6242 249.386 46.875 249.75 46.875C250.114 46.875 250.43 46.6242 250.512 46.2695L252.855 36.1133C252.891 35.9586 252.879 35.7961 252.82 35.6476L251.409 32.1226L252.744 30.1211C252.877 29.9203 252.911 29.6695 252.835 29.4406L252.206 27.5547L253.143 26.6179L261.48 28.007C261.479 28.0469 261.469 28.0844 261.469 28.125V30.4687H256.781C255.92 30.4687 255.219 31.1695 255.219 32.0312V47.6562H241.156ZM257.562 47.6562H256.781V46.0937H278.657V47.6562H257.562ZM278.657 44.5312H256.781V38.1945C257.775 39.2109 259.158 39.8437 260.688 39.8437H265.375V40.625C265.375 41.9172 266.427 42.9687 267.719 42.9687C269.011 42.9687 270.062 41.9172 270.062 40.625V39.8437H274.75C276.28 39.8437 277.663 39.2101 278.657 38.1945V44.5312ZM266.938 40.625V36.7187H268.5V40.625C268.5 41.0562 268.149 41.4062 267.719 41.4062C267.288 41.4062 266.938 41.0562 266.938 40.625ZM278.656 34.375C278.656 36.5289 276.904 38.2812 274.75 38.2812H270.062V35.9375C270.062 35.5054 269.713 35.1562 269.281 35.1562H266.156C265.725 35.1562 265.375 35.5054 265.375 35.9375V38.2812H260.688C258.534 38.2812 256.781 36.5289 256.781 34.375V32.0312H278.656V34.375Z" fill="white"/>
</g>
<g opacity="0.5" clip-path="url(#clip1_19_558)">
<mask id="mask0_19_558" style="mask-type:luminance" maskUnits="userSpaceOnUse" x="0" y="0" width="52" height="52">
<path d="M0.0131836 6.48499e-05H51.3465V51.3334H0.0131836V6.48499e-05Z" fill="white"/>
</mask>
<g mask="url(#mask0_19_558)">
<path d="M11.3393 40.706C10.7929 40.706 10.3477 41.1441 10.3367 41.6885V41.7086C10.3367 42.262 10.7858 42.7112 11.3393 42.7112C11.8927 42.7112 12.3419 42.262 12.3419 41.7086V41.6885C12.3308 41.1441 11.8857 40.706 11.3393 40.706Z" fill="white"/>
<path d="M42.3188 27.8724C46.8947 28.8009 50.3397 32.8474 50.3397 37.698C50.3397 43.2353 45.851 47.724 40.3136 47.724C39.2138 47.724 38.155 47.5465 37.1645 47.2197C34.4434 46.3204 32.2387 44.2871 31.1097 41.6803C30.5804 40.4601 30.2876 39.1136 30.2876 37.698C30.2876 36.9881 30.3608 36.2963 30.5012 35.6286C31.0195 33.1582 32.4482 31.0216 34.4193 29.5879C36.0736 28.3818 38.1099 27.6719 40.3136 27.6719C40.5272 27.6719 40.7387 27.6789 40.9483 27.692C41.4145 27.7211 41.8717 27.7812 42.3188 27.8724Z" stroke="white" stroke-width="2.00521" stroke-linecap="round" stroke-linejoin="round"/>
<path d="M40.3154 31.6825V33.6877" stroke="white" stroke-width="2.00521" stroke-linecap="round" stroke-linejoin="round"/>
<path d="M40.3154 43.7134V41.7082" stroke="white" stroke-width="2.00521" stroke-linecap="round" stroke-linejoin="round"/>
<path d="M38.8929 41.1207C39.2559 41.4837 39.7572 41.7083 40.3106 41.7083C41.4184 41.7083 42.3158 40.8109 42.3158 39.703C42.3158 38.5953 41.4184 37.6978 40.3106 37.6978C39.2028 37.6978 38.3054 36.8005 38.3054 35.6926C38.3054 34.5849 39.2028 33.6874 40.3106 33.6874C40.864 33.6874 41.3653 33.9121 41.7282 34.275" stroke="white" stroke-width="2.00521" stroke-linecap="round" stroke-linejoin="round"/>
<path d="M21.6622 19.6511C21.6622 21.8658 16.8727 23.6615 11.3354 23.6615C5.79798 23.6615 1.00854 21.8658 1.00854 19.6511C1.00854 17.4363 5.79798 15.6407 11.3354 15.6407C16.8727 15.6407 21.6622 17.4363 21.6622 19.6511Z" stroke="white" stroke-width="2.00521" stroke-linecap="round" stroke-linejoin="round"/>
<path d="M21.667 25.6667C21.667 27.8815 26.7572 29.6771 32.2946 29.6771C33.0245 29.6771 33.7353 29.646 34.4211 29.5869" stroke="white" stroke-width="2.00521" stroke-linecap="round" stroke-linejoin="round"/>
<path d="M1.00854 25.6667C1.00854 27.8815 5.79798 29.6771 11.3354 29.6771C16.8727 29.6771 21.6622 27.8815 21.6622 25.6667" stroke="white" stroke-width="2.00521" stroke-linecap="round" stroke-linejoin="round"/>
<path d="M21.667 31.6822C21.667 33.6523 25.8208 35.2905 30.5029 35.6284" stroke="white" stroke-width="2.00521" stroke-linecap="round" stroke-linejoin="round"/>
<path d="M1.00854 31.6823C1.00854 33.8971 5.79798 35.6927 11.3354 35.6927C16.8727 35.6927 21.6622 33.8971 21.6622 31.6823" stroke="white" stroke-width="2.00521" stroke-linecap="round" stroke-linejoin="round"/>
<path d="M1.00854 37.6981C1.00854 37.7252 1.00955 37.7533 1.01055 37.7803C1.01155 37.8004 1.01356 37.8194 1.01556 37.8395C1.01657 37.8485 1.01757 37.8575 1.01857 37.8656C1.02058 37.8866 1.02358 37.9077 1.02659 37.9277C1.27123 39.4757 3.9562 40.7892 7.33898 41.3777" stroke="white" stroke-width="2.00521" stroke-linecap="round" stroke-linejoin="round"/>
<path d="M21.667 37.6982C21.667 39.7525 26.1316 41.4469 31.1115 41.6805" stroke="white" stroke-width="2.00521" stroke-linecap="round" stroke-linejoin="round"/>
<path d="M15.334 41.3776C18.7168 40.789 21.4017 39.4756 21.6464 37.9276C21.6494 37.9076 21.6524 37.8865 21.6544 37.8654C21.6554 37.8574 21.6564 37.8484 21.6574 37.8394C21.6594 37.8193 21.6614 37.8002 21.6624 37.7802C21.6634 37.7532 21.6644 37.725 21.6644 37.698" stroke="white" stroke-width="2.00521" stroke-linecap="round" stroke-linejoin="round"/>
<path d="M21.6622 43.7136C21.6622 45.9283 16.8727 47.724 11.3354 47.724C5.79798 47.724 1.00854 45.9283 1.00854 43.7136V37.698V31.6823V25.6667V19.6511" stroke="white" stroke-width="2.00521" stroke-linecap="round" stroke-linejoin="round"/>
<path d="M42.3206 19.6511C42.3206 21.8658 37.5312 23.6615 31.9938 23.6615C26.4564 23.6615 21.667 21.8658 21.667 19.6511" stroke="white" stroke-width="2.00521" stroke-linecap="round" stroke-linejoin="round"/>
<path d="M42.3206 13.6355C42.3206 15.8502 37.5312 17.6459 31.9938 17.6459C26.4564 17.6459 21.667 15.8502 21.667 13.6355" stroke="white" stroke-width="2.00521" stroke-linecap="round" stroke-linejoin="round"/>
<path d="M42.3206 7.61983C42.3206 9.83459 37.5312 11.6302 31.9938 11.6302C26.4564 11.6302 21.667 9.83459 21.667 7.61983C21.667 5.40508 26.4564 3.60942 31.9938 3.60942C37.5312 3.60942 42.3206 5.40508 42.3206 7.61983Z" stroke="white" stroke-width="2.00521" stroke-linecap="round" stroke-linejoin="round"/>
<path d="M42.3154 25.6669C42.3154 26.4058 41.8161 27.0976 40.9448 27.6921" stroke="white" stroke-width="2.00521" stroke-linecap="round" stroke-linejoin="round"/>
<path d="M42.3188 7.61984V13.6355V19.6511V25.6667V27.8724" stroke="white" stroke-width="2.00521" stroke-linecap="round" stroke-linejoin="round"/>
<path d="M21.667 7.61985V13.6355V19.6511V25.6667V31.6823V37.698V43.7136C21.667 45.9283 26.4564 47.724 31.9938 47.724C33.7624 47.724 35.7245 47.5405 37.1662 47.2197" stroke="white" stroke-width="2.00521" stroke-linecap="round" stroke-linejoin="round"/>
</g>
</g>
<defs>
<clipPath id="clip0_19_558">
<rect width="50" height="50" fill="white" transform="translate(231)"/>
</clipPath>
<clipPath id="clip1_19_558">
<rect width="51.3333" height="51.3333" fill="white"/>
</clipPath>
</defs>
</svg>
