<svg width="100" height="100" viewBox="0 0 100 100" fill="none" xmlns="http://www.w3.org/2000/svg">
<path d="M13.9232 19.8158H65.4309C68.9983 19.8158 71.4806 22.709 71.8702 26.2551L76.7545 70.7091C77.1441 74.2551 73.8825 77.1484 70.3152 77.1484H11.3255C7.75812 77.1484 4.67808 74.2704 4.88619 70.7091L7.48395 26.2551C7.69206 22.6938 10.3559 19.8158 13.9232 19.8158Z" fill="#7738C7"/>
<path d="M55.543 27.6307C53.7288 27.4911 53.31 63.6343 38.3781 68.6581C26.3732 72.6971 14.5499 72.3143 5.80662 64.1776L4.88624 70.7091C4.38843 74.2416 7.75807 77.1483 11.3254 77.1483H64.31C63.0149 67.5048 55.543 27.6307 55.543 27.6307Z" fill="#171D8F"/>
<path d="M45.585 41.1178C44.3693 40.9786 42.9789 41.1217 41.4585 41.5619C41.457 41.5624 41.4556 41.5629 41.4541 41.5634C36.3266 43.0683 32.3522 42.5325 28.3348 41.5473C27.5429 41.3534 26.7438 41.8379 26.5494 42.6296C26.3556 43.4215 26.8401 44.2206 27.6318 44.4149C31.8594 45.4517 36.5607 46.0778 42.2806 44.4002C44.7555 43.6836 46.0805 44.0553 46.7703 44.6341C47.4602 45.2129 47.8021 46.2601 47.6086 47.6929C47.2216 50.5587 44.5437 51.8918 40.1541 52.6089C40.1225 52.6143 40.0911 52.6207 40.0599 52.6281L22.5817 56.6737L22.6567 56.659C17.4052 57.5888 14.0492 61.1316 13.8625 64.7503C13.7691 66.5597 14.6813 68.4192 16.4346 69.3901C18.1878 70.3609 20.5756 70.542 23.6214 69.8754L23.542 69.8901C45.5819 66.3101 61.1364 69.1969 79.2105 69.9077C80.025 69.9398 80.7116 69.306 80.7444 68.4915C80.7765 67.6764 80.1418 66.9897 79.3267 66.9576C61.5035 66.2567 45.5733 63.3198 23.0685 66.9753C23.0419 66.9794 23.0154 66.9844 22.9891 66.99C20.3816 67.5607 18.7172 67.2778 17.8655 66.8062C17.0138 66.3345 16.7676 65.7732 16.8125 64.9017C16.9025 63.1587 19.0054 60.3042 23.1729 59.5664C23.1981 59.5621 23.2231 59.5572 23.2479 59.5516L40.7261 55.506L40.6306 55.5251C46.3834 54.5853 49.9615 52.3362 50.5351 48.0885C50.8219 45.9646 50.3212 43.7585 48.6689 42.3722C47.8428 41.6791 46.8008 41.257 45.585 41.1178Z" fill="white"/>
<path d="M44.4065 25.429C43.9132 27.9946 43.2224 31.547 45.492 32.139C47.7615 32.7311 53.2875 33.2245 53.9782 31.7443C54.6689 30.2642 55.4583 24.9356 53.4848 24.3436C51.5113 23.7515 45.2946 22.4687 44.4065 25.429Z" fill="white"/>
<path d="M12.2764 46.869C11.8501 49.4655 11.2486 53.0613 14.6531 53.4723C18.0576 53.8832 20.2357 53.9385 21.0785 52.4084C21.9213 50.8783 22.4609 45.5041 19.4914 45.0698C16.522 44.6355 13.2368 43.8478 12.2764 46.869Z" fill="white"/>
<path d="M83.6398 26.8759C75.6368 26.5977 69.9677 26.6462 62.5127 27.0814C60.6354 27.2114 58.7561 27.3601 56.8763 27.5241C54.7562 27.7091 53.2804 29.4661 53.0381 31.8438C51.1376 50.4973 51.9353 67.6325 52.8136 84.7222C52.8886 86.1806 52.9636 87.639 53.0381 89.0976C53.1602 91.487 54.8051 92.8779 56.8768 93.4178C69.0065 96.5789 79.4717 94.7451 90.1059 93.4178C92.2194 93.154 93.7898 91.4846 93.9445 89.0976C94.0381 87.6536 94.1269 86.2079 94.2129 84.7611C95.2374 67.5399 95.6637 50.0943 93.9445 31.8438C93.7203 29.4639 92.2174 27.8079 90.1059 27.5241C87.9559 27.2352 85.8003 27.0244 83.6398 26.8759Z" fill="#171D8F"/>
<path d="M82.6676 30.1387L74.646 30.7188L63.5644 30.3246C61.867 30.4421 60.1678 30.5766 58.468 30.7249C56.551 30.8921 55.2162 32.4808 54.9972 34.6307C53.2787 51.4972 54.0003 66.9908 54.7945 82.4433C54.8623 83.762 54.9302 85.0807 54.9975 86.3996C55.1079 88.56 56.5952 89.8177 58.4684 90.3059C69.4362 93.1641 78.8987 91.506 88.5142 90.3059C90.4252 90.0673 91.8451 88.5578 91.9851 86.3996C92.0697 85.0939 92.1499 83.7867 92.2277 82.4785C93.154 66.9071 93.5396 51.1328 91.9851 34.6307C91.7823 32.4788 90.4234 30.9814 88.5142 30.7249C86.5701 30.4636 84.621 30.273 82.6676 30.1387Z" fill="#FFC517"/>
<path d="M75.4312 29.8872C71.4873 29.8753 67.5296 30.0499 63.5645 30.3244C63.6681 30.8647 63.776 32.2102 65.6954 32.5152C71.0995 33.3181 75.7625 32.8524 80.5004 32.5152C82.4987 32.5353 82.6389 30.6714 82.6674 30.1387C80.2613 29.9734 77.849 29.8945 75.4312 29.8872Z" fill="white"/>
<path d="M92.9765 64.301C90.6914 71.2654 86.6066 77.6002 79.3022 79.2144C69.3385 81.4163 60.4225 78.8584 54.4829 76.166C54.5818 78.2612 54.6872 80.3529 54.7947 82.4434C54.8624 83.7621 54.9303 85.0807 54.9977 86.3996C55.108 88.56 56.5953 89.8177 58.4685 90.3059C69.4363 93.1641 78.8989 91.5061 88.5143 90.3059C90.4254 90.0673 91.8453 88.5578 91.9852 86.3996C92.0698 85.0939 92.1501 83.7867 92.2279 82.4785C92.5859 76.46 92.8608 70.4105 92.9765 64.301Z" fill="#FFAC17"/>
<path d="M75.8973 86.8305C75.8973 87.1439 75.8356 87.4541 75.7157 87.7436C75.5958 88.0331 75.42 88.2961 75.1984 88.5177C74.9769 88.7393 74.7138 88.915 74.4244 89.0349C74.1349 89.1548 73.8246 89.2166 73.5113 89.2166C73.1979 89.2166 72.8877 89.1548 72.5982 89.0349C72.3087 88.915 72.0457 88.7393 71.8241 88.5177C71.6025 88.2961 71.4268 88.0331 71.3069 87.7436C71.187 87.4541 71.1252 87.1439 71.1252 86.8305C71.1252 86.5172 71.187 86.2069 71.3069 85.9174C71.4268 85.6279 71.6025 85.3649 71.8241 85.1433C72.0457 84.9218 72.3087 84.746 72.5982 84.6261C72.8877 84.5062 73.1979 84.4445 73.5113 84.4445C73.8246 84.4445 74.1349 84.5062 74.4244 84.6261C74.7138 84.746 74.9769 84.9218 75.1984 85.1433C75.42 85.3649 75.5958 85.6279 75.7157 85.9174C75.8356 86.2069 75.8973 86.5172 75.8973 86.8305Z" fill="white"/>
<path d="M80.8809 62.7353C74.2696 61.7485 63.0204 62.6366 67.2635 66.2877C71.5066 69.9387 80.0915 66.6824 82.1637 65.6956C84.2359 64.7088 80.8809 62.7353 80.8809 62.7353Z" fill="white"/>
<path d="M83.8166 84.4442C83.8166 84.4442 81.029 85.5543 81.0536 86.8124C81.0783 88.0706 83.8906 89.1314 84.6553 88.7613C85.4201 88.3913 82.4598 87.1085 83.3479 86.5411C84.236 85.9737 85.3954 83.6795 83.8166 84.4442Z" fill="white"/>
<path d="M63.1759 84.5673C63.1759 84.5673 61.4315 85.7535 61.5013 86.7303C61.5711 87.7072 63.0712 88.6491 63.769 88.5794C64.4667 88.5096 65.2692 87.2536 65.4087 86.4861C65.5483 85.7186 63.9434 84.044 63.1759 84.5673Z" fill="white"/>
<path d="M45.3997 19.1513C45.3997 27.0347 34.1289 42.9417 31.1255 42.9417C28.1222 42.9417 16.8513 27.0347 16.8513 19.1513C16.8513 11.2679 23.2421 4.87713 31.1255 4.87713C39.0089 4.87713 45.3997 11.2679 45.3997 19.1513Z" fill="#FF4B3D"/>
<path d="M36.7376 16.9553C36.7376 18.4437 36.1463 19.8712 35.0938 20.9236C34.0414 21.9761 32.6139 22.5674 31.1255 22.5674C30.3885 22.5674 29.6587 22.4222 28.9779 22.1402C28.297 21.8582 27.6783 21.4448 27.1572 20.9236C26.636 20.4025 26.2227 19.7838 25.9406 19.103C25.6586 18.4221 25.5134 17.6923 25.5134 16.9553C25.5134 16.2183 25.6586 15.4885 25.9406 14.8077C26.2227 14.1268 26.636 13.5081 27.1572 12.987C27.6783 12.4658 28.297 12.0524 28.9779 11.7704C29.6587 11.4884 30.3885 11.3432 31.1255 11.3432C32.6139 11.3432 34.0414 11.9345 35.0938 12.987C36.1463 14.0394 36.7376 15.4669 36.7376 16.9553Z" fill="white"/>
<g clip-path="url(#clip0_19_226)">
<path d="M73.6327 44.7266C69.2107 44.7266 65.625 48.3118 65.625 52.7347C65.625 57.1576 69.2107 60.7422 73.6327 60.7422C78.0551 60.7422 81.6406 57.1576 81.6406 52.7347C81.6406 48.3118 78.0551 44.7266 73.6327 44.7266ZM77.6369 58.7239C76.4908 59.4928 75.1135 59.9417 73.6327 59.9417C72.1521 59.9417 70.7749 59.4928 69.6287 58.7239V57.5391C69.6287 55.3318 71.4252 53.5353 73.6327 53.5353C75.8404 53.5353 77.6369 55.3318 77.6369 57.5391V58.7239ZM71.2305 50.3325C71.2305 49.0076 72.3081 47.93 73.6327 47.93C74.9575 47.93 76.0353 49.0076 76.0353 50.3325C76.0353 51.6571 74.9575 52.7347 73.6327 52.7347C72.3081 52.7347 71.2305 51.6571 71.2305 50.3325ZM78.4375 58.1018V57.5391C78.4375 55.4858 77.148 53.7327 75.3347 53.0453C76.2363 52.4787 76.8358 51.4756 76.8358 50.3325C76.8358 48.5633 75.4019 47.1292 73.6327 47.1292C71.8639 47.1292 70.4299 48.5634 70.4299 50.3325C70.4299 51.4756 71.0294 52.4787 71.931 53.0453C70.1177 53.7327 68.8283 55.4858 68.8283 57.5391V58.1018C67.3547 56.7811 66.426 54.8646 66.426 52.7347C66.426 48.7603 69.6587 45.5277 73.6327 45.5277C77.6071 45.5277 80.8397 48.7603 80.8397 52.7347C80.8397 54.8646 79.911 56.7811 78.4375 58.1018Z" fill="white"/>
</g>
<defs>
<clipPath id="clip0_19_226">
<rect width="16.0156" height="16.0156" fill="white" transform="translate(65.625 44.7266)"/>
</clipPath>
</defs>
</svg>
