<svg width="100" height="100" viewBox="0 0 100 100" fill="none" xmlns="http://www.w3.org/2000/svg">
<path d="M91.9951 57.8133C88.8378 83.6184 70.7736 97.8729 44.9685 94.7157C19.1634 91.5585 3.99953 72.6606 7.15676 46.8555C10.314 21.0504 29.5344 6.79286 55.3395 9.95008C81.1446 13.1073 95.1523 32.0082 91.9951 57.8133Z" fill="#FFC517"/>
<path d="M92.1063 54.856C84.5201 64.5755 73.5506 73.6903 58.2282 76.3621C34.776 80.4516 17.5441 71.7187 8.14404 64.8643C12.3391 81.0717 25.6496 92.1898 44.8864 94.5434C70.6446 97.6949 88.676 83.4659 91.8275 57.7077C91.945 56.747 92.0361 55.7972 92.1063 54.856Z" fill="#FFAC17"/>
<path d="M44.8318 9.08238C16.0918 9.28989 7.06501 38.1338 6.8575 41.5577C6.64999 44.9816 7.79131 45.5004 9.14012 48.4056C10.4889 51.3107 11.319 47.9903 12.5641 47.679C13.8091 47.3678 14.4315 47.7829 17.7517 47.8866C21.0718 47.9904 18.8932 49.0278 19.5157 52.0367C20.1382 55.0456 21.0718 54.4231 22.1093 57.5357C23.1469 60.6483 21.1756 60.4408 21.1756 62.9309C21.1756 65.421 22.9396 66.4585 23.7696 67.2886C24.5996 68.1186 25.222 73.6176 25.6371 74.9664C26.0521 76.3152 25.1185 79.2204 22.9397 80.6729C20.7608 82.1255 23.977 84.7193 26.7784 84.9268C29.5797 85.1343 31.6294 82.941 31.6294 82.941C31.6294 82.941 35.3901 80.0505 38.1915 77.5604C40.9929 75.0703 40.4738 76.0042 44.0015 73.5141C47.5291 71.024 44.9353 67.5999 45.2466 66.3548C45.5578 65.1098 48.567 61.8936 48.3595 59.2997C48.152 56.7059 47.9442 56.3944 46.3879 55.4606C44.8316 54.5269 44.209 55.1494 41.9264 52.3481C39.6438 49.5467 40.4739 45.8114 36.635 45.2926C32.7961 44.7739 29.8911 45.2928 28.0235 43.529C26.1559 41.7651 29.5799 40.9351 31.5512 39.1713C33.5225 37.4075 38.7103 38.6524 41.7192 36.7849C44.7281 34.9173 44.0018 35.7474 45.0394 33.6723C46.0769 31.5972 41.8228 27.447 42.2378 24.6456C42.6528 21.8442 44.5206 23.4005 48.2557 21.2217C51.9909 19.0428 49.2932 19.043 50.227 14.9965C51.1608 10.9501 45.4543 9.18614 44.8318 9.08238ZM79.6302 38.4249C76.2528 38.4144 72.6996 38.8049 71.2892 40.3126C68.2803 43.529 70.6666 45.2926 65.7902 46.4339C60.9137 47.5752 59.3572 48.3018 59.5647 50.5844C59.7722 52.867 63.0926 53.1783 63.7151 55.0459C64.3377 56.9134 63.6112 58.6771 64.1299 60.1297C64.6487 61.5823 73.1565 61.3746 73.779 63.0347C74.4015 64.6947 73.9866 66.8736 72.9491 68.6374C71.9115 70.4013 69.4213 72.3728 69.4213 74.6554C69.4213 76.938 68.9025 78.1828 71.6002 78.3903C74.2978 78.5978 75.7505 74.759 77.7219 75.3815C79.6932 76.0041 80.5233 76.7303 82.1833 75.3815C83.8434 74.0327 84.2584 70.6088 84.3622 69.675C84.4659 68.7412 83.7396 69.5714 86.541 67.9113C89.3424 66.2512 94.1599 63.0687 93.0775 60.4411C91.9951 57.8134 93.3888 50.0655 93.2851 47.8866C93.1813 45.7078 92.3511 39.7937 87.0596 38.9637C87.0596 38.9637 83.4579 38.4368 79.6302 38.4249Z" fill="#7738C7"/>
<path d="M87.4356 19.8886C87.4356 28.1776 75.5848 44.9031 72.4269 44.9031C69.269 44.9031 57.4182 28.1776 57.4182 19.8886C57.4182 11.5995 64.1378 4.87985 72.4269 4.87985C80.716 4.87985 87.4356 11.5995 87.4356 19.8886Z" fill="#FF4B3D"/>
<path d="M92.6247 54.1845C87.0242 61.5285 79.5145 68.6039 69.6796 72.9139C69.443 73.4319 69.2949 73.9664 69.2949 74.5194C69.2949 76.7978 68.7771 78.0404 71.4698 78.2475C74.1625 78.4547 75.6126 74.6228 77.5803 75.2442C79.5481 75.8656 80.3766 76.5906 82.0337 75.2442C83.6907 73.8979 84.105 70.4801 84.2086 69.548C84.3121 68.6159 83.5872 69.4446 86.3834 67.7876C89.1797 66.1305 93.9885 62.9538 92.908 60.3309C92.3882 59.0691 92.442 56.6241 92.6247 54.1845ZM25.3766 73.8925C25.4524 74.2774 25.5248 74.6171 25.5902 74.8298C26.0045 76.1762 25.0726 79.0761 22.8977 80.526C20.7229 81.9759 23.9332 84.565 26.7295 84.7721C29.5258 84.9793 31.5717 82.79 31.5717 82.79C31.5717 82.79 35.3256 79.9047 38.1219 77.4191C38.3298 77.2343 38.4873 77.1016 38.6616 76.9517C33.8113 76.3722 29.3749 75.2786 25.3766 73.8925Z" fill="#171D8F"/>
<path d="M37.2536 64.7882C37.2536 70.4031 29.2261 81.7325 27.087 81.7325C24.9479 81.7325 16.9204 70.4031 16.9204 64.7882C16.9204 59.1734 21.4721 54.6216 27.087 54.6216C32.7019 54.6216 37.2536 59.1734 37.2536 64.7882Z" fill="#FF4B3D"/>
<path d="M24.8406 60.854C26.5849 60.2958 28.5386 61.0633 28.3293 63.2263C28.12 65.3894 27.2827 75.5765 26.864 76.3441C26.4454 77.1116 24.5615 67.9013 24.8406 60.854Z" fill="#CF1531"/>
<path d="M31.0841 63.2241C31.0841 64.2842 30.663 65.3009 29.9134 66.0505C29.1637 66.8001 28.1471 67.2213 27.087 67.2213C26.5621 67.2213 26.0423 67.1179 25.5573 66.917C25.0724 66.7161 24.6317 66.4217 24.2606 66.0505C23.8894 65.6794 23.595 65.2387 23.3941 64.7538C23.1932 64.2688 23.0898 63.7491 23.0898 63.2241C23.0898 62.6992 23.1932 62.1795 23.3941 61.6945C23.595 61.2096 23.8894 60.7689 24.2606 60.3977C24.6317 60.0266 25.0724 59.7322 25.5573 59.5313C26.0423 59.3304 26.5621 59.227 27.087 59.227C28.1471 59.227 29.1637 59.6481 29.9134 60.3977C30.663 61.1474 31.0841 62.164 31.0841 63.2241Z" fill="white"/>
<path d="M30.8449 21.8063C30.4434 21.8055 30.0581 21.9642 29.7736 22.2475C29.4892 22.5308 29.3289 22.9155 29.328 23.317C29.3272 23.7182 29.4857 24.1033 29.7687 24.3877C30.0517 24.6722 30.436 24.8326 30.8372 24.8339C31.816 24.8365 32.7947 24.8688 33.7705 24.9313C34.1711 24.9571 34.5656 24.8227 34.8672 24.5577C35.1688 24.2926 35.3528 23.9187 35.3786 23.518C35.3914 23.3195 35.3649 23.1204 35.3007 22.9321C35.2365 22.7439 35.1358 22.5701 35.0044 22.4208C34.873 22.2714 34.7135 22.1494 34.5349 22.0618C34.3564 21.9741 34.1623 21.9225 33.9638 21.9099C32.9251 21.8433 31.8846 21.809 30.8449 21.8063ZM21.7806 22.6103C21.6939 22.6117 21.6075 22.6205 21.5224 22.6366C20.4923 22.8339 19.4663 23.0726 18.4499 23.3587C18.2585 23.4126 18.0796 23.5037 17.9234 23.6268C17.7672 23.7498 17.6368 23.9024 17.5396 24.0759C17.4424 24.2493 17.3803 24.4402 17.3569 24.6377C17.3334 24.8351 17.3491 25.0353 17.4031 25.2267C17.457 25.418 17.548 25.5969 17.6711 25.7531C17.7941 25.9093 17.9467 26.0398 18.1202 26.137C18.2936 26.2342 18.4845 26.2963 18.682 26.3197C18.8795 26.3431 19.0796 26.3274 19.271 26.2735C20.1977 26.0126 21.1389 25.7941 22.0914 25.6117C22.2868 25.5744 22.4729 25.4989 22.6391 25.3897C22.8053 25.2804 22.9484 25.1395 23.0601 24.9749C23.1718 24.8104 23.25 24.6254 23.2902 24.4306C23.3304 24.2358 23.3318 24.035 23.2944 23.8396C23.2274 23.4892 23.0387 23.1737 22.7618 22.9488C22.4848 22.7239 22.1373 22.604 21.7806 22.6103ZM42.7822 23.3928C42.4601 23.3988 42.1483 23.5075 41.8921 23.703C41.636 23.8985 41.4489 24.1706 41.3581 24.4798C41.2451 24.8651 41.2899 25.2795 41.4824 25.6318C41.6749 25.9841 41.9996 26.2455 42.3848 26.3585C43.3052 26.6286 44.2016 26.9418 45.0615 27.3126C45.2441 27.3913 45.4405 27.4333 45.6394 27.4362C45.8382 27.439 46.0357 27.4026 46.2205 27.3291C46.4053 27.2556 46.5738 27.1463 46.7164 27.0077C46.859 26.869 46.9729 26.7036 47.0515 26.5209C47.2101 26.1522 47.2158 25.7356 47.0673 25.3628C46.9188 24.9899 46.6284 24.6912 46.2598 24.5324C45.2658 24.1037 44.2531 23.7513 43.2368 23.4531C43.0892 23.41 42.9359 23.3897 42.7822 23.3928ZM10.7927 27.3667C10.4257 27.3743 10.0741 27.515 9.80307 27.7626C8.9846 28.5107 8.24253 29.3794 7.65528 30.3773C7.4518 30.7233 7.39402 31.1359 7.49464 31.5244C7.59525 31.9129 7.84603 32.2456 8.19184 32.4493C8.53779 32.6528 8.95038 32.7106 9.33892 32.61C9.72746 32.5094 10.0602 32.2586 10.2639 31.9128C10.6732 31.2171 11.216 30.5726 11.8457 29.9969C12.1419 29.726 12.3184 29.3486 12.3364 28.9475C12.3544 28.5465 12.2124 28.1548 11.9416 27.8584C11.7961 27.6994 11.6184 27.5733 11.4202 27.4885C11.2221 27.4037 11.0082 27.3622 10.7927 27.3667ZM51.4244 30.7577C51.2255 30.7555 51.0281 30.7925 50.8435 30.8666C50.6589 30.9407 50.4907 31.0505 50.3485 31.1896C50.2063 31.3288 50.093 31.4946 50.0149 31.6776C49.9369 31.8606 49.8956 32.0571 49.8936 32.2561C49.886 32.9377 49.6425 33.688 49.2395 34.41C49.0439 34.7607 48.9956 35.1747 49.1052 35.5609C49.2148 35.9472 49.4734 36.2741 49.824 36.4697C50.1747 36.6653 50.5886 36.7136 50.9749 36.604C51.3611 36.4944 51.688 36.2358 51.8837 35.8852C52.4607 34.8513 52.9063 33.6349 52.9212 32.2885C52.9257 31.8871 52.7705 31.5002 52.4898 31.2131C52.2091 30.9261 51.8259 30.7622 51.4244 30.7577ZM46.6124 41.5446C46.5252 41.5459 46.4383 41.5547 46.3526 41.5709C45.9583 41.6466 45.6102 41.8758 45.3849 42.2081C45.1596 42.5404 45.0755 42.9486 45.1511 43.3429C45.2016 43.6066 45.2735 43.8591 45.363 44.1006C45.3632 44.1013 45.3643 44.1015 45.3646 44.1022C45.3647 44.1026 45.3644 44.1033 45.3646 44.1038C45.7939 45.2651 46.6126 46.1081 47.4629 46.7093C47.6252 46.8241 47.8086 46.9059 48.0025 46.9499C48.1965 46.9938 48.3972 46.9992 48.5932 46.9656C48.7892 46.932 48.9766 46.8601 49.1449 46.754C49.3131 46.648 49.4587 46.5098 49.5736 46.3474C49.6884 46.1851 49.7702 46.0017 49.8142 45.8078C49.8581 45.6138 49.8635 45.4131 49.8299 45.2171C49.7963 45.0211 49.7244 44.8337 49.6183 44.6654C49.5123 44.4972 49.3741 44.3516 49.2117 44.2367C48.7158 43.8861 48.3526 43.4581 48.2035 43.0538C48.2035 43.0527 48.2035 43.0517 48.2035 43.0507C48.1683 42.9558 48.1416 42.8625 48.1246 42.7739C48.0577 42.4237 47.8693 42.1084 47.5926 41.8836C47.316 41.6587 46.9688 41.5387 46.6124 41.5446ZM72.1354 46.0644C72.079 46.0643 72.0228 46.0674 71.9668 46.0737C70.9878 46.1778 70.0002 46.2585 69.0057 46.3273C68.6053 46.355 68.2323 46.5407 67.9687 46.8434C67.7051 47.1461 67.5725 47.5411 67.6001 47.9416C67.6279 48.342 67.8136 48.715 68.1163 48.9786C68.419 49.2421 68.814 49.3747 69.2144 49.3471C70.2337 49.2767 71.2585 49.1936 72.2869 49.0843C72.6861 49.0418 73.0521 48.8425 73.3044 48.5302C73.5566 48.2179 73.6745 47.8181 73.6321 47.4189C73.5929 47.0486 73.4186 46.7057 73.1425 46.4558C72.8663 46.2059 72.5078 46.0665 72.1354 46.0644ZM56.9617 46.3319C56.5918 46.3437 56.2391 46.4906 55.9702 46.7447C55.7013 46.9988 55.5347 47.3426 55.502 47.7112C55.4664 48.111 55.591 48.5086 55.8485 48.8165C56.106 49.1245 56.4753 49.3176 56.8751 49.3533C57.9115 49.4463 58.9477 49.5072 59.9816 49.542C60.3828 49.5553 60.773 49.4086 61.0661 49.1343C61.3593 48.86 61.5315 48.4805 61.5448 48.0792C61.5582 47.6782 61.4117 47.2883 61.1377 46.9952C60.8638 46.702 60.4846 46.5297 60.0836 46.5159C59.1 46.4828 58.1199 46.4255 57.1457 46.3381C57.0845 46.3323 57.0231 46.3302 56.9617 46.3319Z" fill="white"/>
<path d="M62.8948 74.8686C62.5411 74.8609 62.1958 74.9773 61.919 75.1976C61.6422 75.4179 61.4513 75.7283 61.3794 76.0747C61.3389 76.2694 61.3372 76.4702 61.3744 76.6656C61.4116 76.861 61.4869 77.0472 61.596 77.2135C61.7051 77.3798 61.846 77.5229 62.0104 77.6347C62.1749 77.7466 62.3598 77.8249 62.5546 77.8653C63.4721 78.0556 64.3827 78.3128 65.2807 78.6245C65.4685 78.6897 65.6674 78.7172 65.8658 78.7056C66.0643 78.6939 66.2586 78.6433 66.4375 78.5565C66.6164 78.4698 66.7764 78.3487 66.9086 78.2001C67.0406 78.0515 67.1422 77.8784 67.2074 77.6905C67.2726 77.5027 67.3001 77.3039 67.2884 77.1054C67.2768 76.9069 67.2261 76.7127 67.1394 76.5338C67.0527 76.3549 66.9316 76.1948 66.783 76.0627C66.6344 75.9306 66.4612 75.829 66.2734 75.7639C65.2646 75.4137 64.2276 75.1192 63.1685 74.8995C63.0784 74.8809 62.9868 74.8705 62.8948 74.8686ZM53.8428 75.3371C53.6942 75.3428 53.5473 75.3705 53.4068 75.419C52.3615 75.7805 51.3579 76.2404 50.4039 76.7782C50.0544 76.9754 49.7976 77.3033 49.6897 77.6898C49.5819 78.0763 49.6318 78.4898 49.8287 78.8394C49.9262 79.0128 50.0569 79.1652 50.2134 79.2881C50.3698 79.4109 50.549 79.5017 50.7405 79.5552C50.9321 79.6088 51.1323 79.6241 51.3298 79.6002C51.5273 79.5764 51.7181 79.5138 51.8914 79.4162C52.6956 78.9628 53.5338 78.5795 54.3964 78.2812C54.7759 78.1502 55.0879 77.8738 55.2636 77.5127C55.4393 77.1517 55.4645 76.7356 55.3334 76.3561C55.2274 76.0487 55.0251 75.7836 54.7567 75.6001C54.4882 75.4165 54.1678 75.3243 53.8428 75.3371ZM73.9059 79.7255C73.6463 79.7226 73.3904 79.7865 73.1627 79.9111C72.9349 80.0356 72.743 80.2167 72.6054 80.4367C72.3928 80.7773 72.3242 81.1884 72.4147 81.5796C72.5052 81.9708 72.7473 82.31 73.0879 82.5227C73.9591 83.0666 74.7252 83.5419 75.2682 84.0829C75.409 84.2232 75.5762 84.3345 75.7601 84.4102C75.944 84.486 76.141 84.5247 76.3399 84.5243C76.5388 84.5239 76.7356 84.4843 76.9192 84.4078C77.1028 84.3312 77.2695 84.2193 77.4098 84.0784C77.5501 83.9375 77.6614 83.7703 77.7371 83.5864C77.8128 83.4025 77.8516 83.2055 77.8512 83.0066C77.8508 82.8077 77.8112 82.6109 77.7346 82.4273C77.6581 82.2438 77.5462 82.0771 77.4052 81.9368C76.5125 81.0473 75.5279 80.4766 74.6915 79.9544C74.4556 79.8075 74.1838 79.7282 73.9059 79.7255ZM43.8446 82C43.5719 82.0056 43.3059 82.0847 43.0745 82.2289C42.2779 82.7258 41.4484 83.1656 40.5943 83.5386C40.2265 83.6994 39.9376 83.9997 39.7911 84.3735C39.6447 84.7473 39.6527 85.1639 39.8134 85.5317C39.8929 85.714 40.0075 85.8788 40.1507 86.0168C40.2939 86.1547 40.4628 86.2631 40.6479 86.3358C40.833 86.4085 41.0306 86.4439 41.2294 86.4402C41.4282 86.4365 41.6243 86.3937 41.8065 86.3142C42.8024 85.8793 43.7605 85.3702 44.6765 84.7988C44.8452 84.6936 44.9916 84.5563 45.1073 84.3945C45.2229 84.2328 45.3056 84.0498 45.3505 83.8561C45.3955 83.6624 45.4018 83.4617 45.3692 83.2656C45.3366 83.0694 45.2657 82.8816 45.1604 82.7129C45.0217 82.4902 44.8274 82.3075 44.5967 82.1825C44.3661 82.0575 44.1069 81.9947 43.8446 82ZM29.3404 84.5375C29.0023 84.5399 28.6748 84.6554 28.4099 84.8655C28.1451 85.0757 27.9583 85.3685 27.8792 85.6972C27.8327 85.8905 27.8247 86.0911 27.8557 86.2875C27.8867 86.4839 27.9561 86.6723 28.0599 86.8418C28.1637 87.0114 28.2999 87.1589 28.4607 87.2758C28.6215 87.3928 28.8038 87.4769 28.9971 87.5234C30.0683 87.7812 31.1557 87.9391 32.2428 88.0104C32.6434 88.0367 33.0381 87.9027 33.34 87.6379C33.6419 87.3732 33.8262 86.9993 33.8525 86.5987C33.8787 86.198 33.7447 85.8033 33.4799 85.5015C33.2152 85.1996 32.8414 85.0153 32.4407 84.989C31.5138 84.9281 30.5968 84.7938 29.7053 84.5792C29.5858 84.5506 29.4633 84.5365 29.3404 84.5375ZM74.4981 89.0171C74.163 89.0135 73.8361 89.1211 73.5688 89.3232C72.828 89.8829 72.0437 90.381 71.2277 90.8046C70.8713 90.9895 70.603 91.3085 70.4818 91.6913C70.3606 92.074 70.3964 92.4893 70.5814 92.8457C70.7663 93.202 71.0853 93.4703 71.4681 93.5915C71.8508 93.7128 72.2661 93.677 72.6225 93.492C73.5977 92.9858 74.5241 92.3953 75.3934 91.7385C75.7136 91.4965 75.9246 91.1372 75.9799 90.7397C76.0353 90.3422 75.9306 89.9389 75.6887 89.6186C75.5494 89.4341 75.3696 89.2839 75.1632 89.1796C74.9568 89.0754 74.7293 89.0198 74.4981 89.0171Z" fill="white"/>
<path d="M70.824 19.8045C72.5683 19.2463 74.522 20.0138 74.3127 22.1768C74.1034 24.3398 73.2661 34.527 72.8475 35.2945C72.4288 36.062 70.5449 26.8517 70.824 19.8045Z" fill="#CF1531"/>
<path d="M78.3276 17.5795C78.3276 19.1445 77.7059 20.6454 76.5993 21.7521C75.4927 22.8587 73.9917 23.4804 72.4267 23.4804C71.6518 23.4804 70.8845 23.3278 70.1686 23.0312C69.4527 22.7347 68.8021 22.3 68.2542 21.7521C67.7063 21.2041 67.2716 20.5536 66.9751 19.8377C66.6785 19.1218 66.5259 18.3544 66.5259 17.5795C66.5259 16.8046 66.6785 16.0373 66.9751 15.3214C67.2716 14.6054 67.7063 13.9549 68.2542 13.407C68.8021 12.859 69.4527 12.4244 70.1686 12.1278C70.8845 11.8313 71.6518 11.6787 72.4267 11.6787C73.9917 11.6787 75.4927 12.3004 76.5993 13.407C77.7059 14.5136 78.3276 16.0145 78.3276 17.5795Z" fill="white"/>
</svg>
