<svg width="100" height="100" viewBox="0 0 100 100" fill="none" xmlns="http://www.w3.org/2000/svg">
<path d="M12.4221 77.3104C12.4221 77.3104 9.0563 83.8752 11.7941 84.6088C14.5319 85.3424 18.9112 84.9856 19.1205 82.9621C19.3298 80.9387 18.6321 76.6824 12.4221 77.3104Z" fill="#FF4B3D"/>
<path d="M68.1723 87.4975C68.1723 87.4975 64.8065 94.0624 67.5443 94.796C70.2821 95.5296 74.6614 95.1728 74.8707 93.1493C75.08 91.1258 74.3823 86.8696 68.1723 87.4975Z" fill="#FF4B3D"/>
<path d="M12.4219 80.6596C20.7949 83.1715 59.4502 90.7072 73.1262 91.5445C86.8021 92.3818 92.5574 86.0955 90.0117 83.4506C84.639 77.8686 60.5666 75.9149 44.0997 73.5425C27.6328 71.1702 11.8637 68.5187 8.37492 73.8216C4.88617 79.1245 12.4219 80.6596 12.4219 80.6596Z" fill="#171D8F"/>
<path d="M9.40112 15.3726C9.40112 15.3726 24.3686 9.50498 30.9832 9.15726C37.5977 8.80955 84.0691 17.6762 89.8356 20.284C95.6021 22.8918 94.7541 31.9323 95.0933 42.1898C95.4325 52.4472 94.5845 74.353 93.058 77.3085C91.5316 80.2641 79.6594 84.4366 77.2849 84.2628C74.9105 84.0889 9.40112 15.3726 9.40112 15.3726Z" fill="#FFAC17"/>
<path d="M11.9876 14.8306C12.8356 15.0044 73.7233 23.3495 79.829 29.2606C84.7254 34.5314 84.0401 81.1161 79.1506 84.1641C74.4017 86.7719 16.5669 72.8983 13.6837 71.3336C10.8004 69.7689 7.50656 69.4236 5.88189 61.7715C4.28905 54.2693 4.89461 22.7767 5.88189 19.5247C6.80155 16.4954 8.42594 15.0044 11.9876 14.8306Z" fill="#FFC517"/>
<path d="M11.9987 57.7403C14.7131 58.6084 72.167 71.5722 76.6909 73.4716C81.2149 75.3709 67.6431 72.5118 55.1269 70.2439C42.6106 67.976 20.5942 62.6082 15.7686 60.6809C10.9431 58.7537 10.1891 57.6965 11.9987 57.7403Z" fill="#FFAC17"/>
<path d="M11.9987 38.7944C14.7131 39.6624 72.167 52.6262 76.6909 54.5256C81.2149 56.425 67.6431 53.5658 55.1269 51.298C42.6106 49.0301 20.5942 43.6623 15.7686 41.735C10.9431 39.8077 10.1891 38.7505 11.9987 38.7944Z" fill="#FFAC17"/>
<path d="M11.9102 36.8568C11.8115 37.3626 11.5155 42.4201 11.8115 44.0891C12.1076 45.7581 22.0246 47.2248 23.0607 45.6569C24.0968 44.0891 23.8501 37.8683 23.8501 37.8683L11.9102 36.8568Z" fill="white"/>
<path d="M11.9987 23.2034C14.7131 24.0715 72.167 37.0353 76.6909 38.9347C81.2149 40.8341 67.6431 37.9749 55.1269 35.707C42.6106 33.4392 20.5942 28.0713 15.7686 26.144C10.9431 24.2168 10.1891 23.1596 11.9987 23.2034Z" fill="#FFAC17"/>
<path d="M18.5314 71.715C18.5314 71.715 19.0215 69.6314 16.326 68.9431C13.6305 68.2547 11.2688 67.4304 10.9983 66.1875C10.7278 64.9446 8.62506 61.1963 7.65248 59.8732C6.67991 58.5501 6.05671 59.275 5.17819 59.9245C4.29967 60.5741 5.45667 68.8419 6.40954 69.9637C7.3624 71.0856 10.662 72.3725 14.182 72.366C17.702 72.3599 18.4433 72.3341 18.5314 71.715Z" fill="#FF4B3D"/>
<path d="M46.9434 11.2017L36.7214 13.1887C31.7303 14.1589 24.9992 15.8351 24.0223 17.6947C23.0455 19.5544 22.0686 34.0022 21.5104 46.3044C20.9522 58.6066 24.7383 74.3078 25.0343 74.4848C25.3303 74.6618 26.8845 74.9147 26.8845 74.9147C26.8845 74.9147 26.4651 76.609 22.7154 76.0021C18.9657 75.3952 17.1895 74.7883 16.6961 72.7653C16.2027 70.7423 13.8345 62.3468 13.4398 47.4776C13.0451 32.6085 14.3279 19.5601 16.3014 16.2221C18.2749 12.8842 22.9139 11.591 27.091 10.3728C31.9043 8.96892 37.3195 8.43354 42.056 8.68642C46.7925 8.93929 49.1114 9.9508 49.9502 10.6083C50.7889 11.2658 51.381 11.9232 51.381 11.9232L46.9434 11.2017Z" fill="#7738C7"/>
<path d="M49.4675 4.8839C47.9012 4.76397 46.5768 4.72469 45.3565 5.01656C43.9748 5.34704 42.9663 6.29325 42.2905 7.27627C41.6148 8.25928 41.1925 9.33321 40.8839 10.3515C40.5754 11.3698 40.3901 12.336 40.2755 13.0936C40.1608 13.8512 40.1123 14.1146 40.1123 14.681C40.1118 15.7854 40.9844 16.6811 42.0612 16.6814C43.1386 16.6819 44.0122 15.786 44.0117 14.681C44.0117 15.0315 44.0352 14.3174 44.1278 13.7057C44.2204 13.0939 44.3773 12.3004 44.6084 11.5379C44.8394 10.7754 45.1558 10.047 45.477 9.57969C45.7983 9.1124 46.0452 8.95915 46.2428 8.91188C46.6019 8.82599 47.7913 8.76663 49.1765 8.87269C50.5616 8.97874 52.2046 9.2059 53.8166 9.4998C55.4286 9.7937 57.0162 10.1543 58.298 10.5158C59.5797 10.8774 60.6339 11.3262 60.7775 11.4173C60.6512 11.3372 60.933 11.5896 61.1229 12.2449C61.3129 12.9002 61.4436 13.8317 61.5036 14.7473C61.6235 16.5786 61.4933 18.2974 61.4933 18.2974C61.4065 19.3981 62.206 20.3625 63.2791 20.4516C64.3522 20.5407 65.2925 19.7207 65.3794 18.62C65.3794 18.62 65.5375 16.6697 65.3941 14.4805C65.3225 13.3859 65.1839 12.2207 64.8606 11.1053C64.5373 9.98985 64.0612 8.79811 62.8294 8.01644C61.8674 7.40604 60.764 7.06382 59.3313 6.65971C57.8985 6.2556 56.2164 5.87547 54.4986 5.56227C52.7808 5.24907 51.0338 5.00382 49.4675 4.8839Z" fill="#171D8F"/>
<path d="M49.9009 44.8477C49.8023 45.3535 49.5062 50.411 49.8023 52.08C50.0983 53.749 60.0153 55.2157 61.0514 53.6478C62.0875 52.08 61.8408 45.8592 61.8408 45.8592L49.9009 44.8477Z" fill="white"/>
<path d="M85.2478 19.3976L74.9909 21.4718C70.0073 22.4796 63.2687 24.1182 62.2919 25.9779C61.315 27.8375 60.3382 42.2854 59.78 54.5875C59.2218 66.8897 62.979 82.6558 63.3038 82.768C63.6609 82.8913 65.1889 83.1174 65.1889 83.1174C65.1889 83.1174 64.7346 84.8921 60.9849 84.2852C57.2352 83.6783 55.459 83.0714 54.9656 81.0484C54.4722 79.0254 52.104 70.6299 51.7093 55.7608C51.3146 40.8916 52.5974 27.8432 54.5709 24.5053C56.5445 21.1673 61.1834 19.8742 65.3605 18.6559C70.1738 17.252 75.5891 16.7167 80.3256 16.9695C85.062 17.2224 87.3809 18.2339 88.2197 18.8914C89.0584 19.5489 89.6505 20.2064 89.6505 20.2064L85.2478 19.3976Z" fill="#7738C7"/>
<path d="M13.4863 38.7944C13.4863 38.7944 12.8584 49.4515 11.1838 52.4555C9.50916 55.4595 8.67186 54.8873 9.02073 55.7456C9.36961 56.6039 15.44 58.3205 17.8124 57.3907C20.1847 56.4609 22.2082 41.3692 22.1384 39.7242C22.0687 38.0791 13.4863 38.7944 13.4863 38.7944Z" fill="#171D8F"/>
<path d="M11.8263 34.5027C11.8263 34.5027 11.5509 37.8602 11.7712 38.7879C11.9916 39.7156 22.6224 41.5077 23.4487 40.3565C24.2749 39.2054 24.2749 36.3822 22.5673 35.7989C20.8598 35.2155 12.1017 32.8392 11.8263 34.5027Z" fill="white"/>
<path d="M16.6962 43.4316C16.6962 43.4316 15.7587 42.0155 16.2521 39.3856C16.7455 36.7557 18.3737 37.9695 18.275 38.7787C18.1763 39.5879 18.2257 42.9764 17.7816 43.4822C17.3376 43.9879 16.7948 43.6845 16.6962 43.4316Z" fill="#FF4B3D"/>
<path d="M51.1087 46.4312C51.1087 46.4312 52.3053 57.0883 51.1451 60.0924C49.9848 63.0964 49.0495 62.5242 49.5453 63.3825C50.0412 64.2408 56.4055 65.9573 58.6186 65.0275C60.8318 64.0977 60.2714 49.0061 59.92 47.361C59.5686 45.716 51.1087 46.4312 51.1087 46.4312Z" fill="#171D8F"/>
<path d="M49.8168 42.4936C49.8168 42.4936 49.5414 45.8511 49.7617 46.7788C49.982 47.7064 60.6129 49.4986 61.4391 48.3474C62.2654 47.1962 62.2654 44.3731 60.5578 43.7898C58.8503 43.2064 50.0922 40.8301 49.8168 42.4936Z" fill="white"/>
<path d="M54.6866 51.4225C54.6866 51.4225 53.7492 50.0064 54.2426 47.3765C54.736 44.7466 56.3641 45.9604 56.2655 46.7696C56.1668 47.5788 56.2161 50.9673 55.7721 51.4731C55.328 51.9788 54.7853 51.6754 54.6866 51.4225Z" fill="#FF4B3D"/>
<path d="M71.2642 25.7303C71.2642 25.7303 70.5734 27.7533 73.1884 28.7142C75.8033 29.6751 78.0729 30.7372 78.2209 32.0016C78.3689 33.266 80.0957 37.2109 80.9345 38.627C81.7733 40.0431 82.464 39.3856 83.4014 38.8293C84.3389 38.2729 83.9935 29.928 83.1547 28.7142C82.316 27.5004 79.1583 25.882 75.6553 25.528C72.1523 25.174 71.4122 25.1234 71.2642 25.7303Z" fill="#FF4B3D"/>
<path d="M71.9731 84.84C71.9731 84.84 71.483 82.7564 74.1785 82.0681C76.874 81.3798 79.2357 80.5554 79.5062 79.3125C79.7767 78.0696 81.8794 74.3214 82.852 72.9982C83.8246 71.6751 84.4478 72.4 85.3263 73.0496C86.2048 73.6991 85.0478 81.9669 84.095 83.0888C83.1421 84.2106 79.8425 85.4975 76.3225 85.491C72.8025 85.485 72.0612 85.4591 71.9731 84.84Z" fill="#FF4B3D"/>
<path d="M4.90384 23.6567C4.90384 23.6567 4.55872 17.0819 6.23623 15.5647C7.91373 14.0474 12.9956 13.137 14.6238 13.5416C16.2519 13.9462 16.3013 15.5647 14.6238 15.9187C12.9462 16.2727 9.24587 16.3739 8.85116 19.0543C8.45646 21.7348 8.16068 23.9096 6.53226 24.8705C4.90384 25.8314 4.90384 23.6567 4.90384 23.6567Z" fill="#FF4B3D"/>
</svg>
