<svg width="100" height="100" viewBox="0 0 100 100" fill="none" xmlns="http://www.w3.org/2000/svg">
<path d="M46.9788 93.4679C46.9788 93.4679 24.6659 59.9985 17.4852 48.6163C15.8529 45.3512 15.6735 43.3043 17.136 40.2574C22.153 29.8473 35.8364 5.85418 38.9205 4.82614C42.7665 3.54413 57.7843 20.8055 57.7843 20.8055C57.7843 20.8055 61.9966 17.0968 64.9269 17.0968C67.8573 17.0968 94.5963 60.8682 95.1457 64.348C95.6952 67.8277 59.6158 90.6292 54.3046 93.9257C48.9934 97.2223 46.9788 93.4679 46.9788 93.4679Z" fill="#7738C7"/>
<path d="M55.2369 22.5616C55.2369 22.5616 23.628 43.5611 21.705 44.2937C19.782 45.0263 19.0494 42.096 20.0567 40.814C21.064 39.5319 40.2941 8.94688 41.9424 9.49631C43.5907 10.0457 55.2369 22.5616 55.2369 22.5616Z" fill="#171D8F"/>
<path d="M21.7861 44.1926C21.7861 44.1926 45.7585 5.41777 48.478 5.15877C51.1976 4.89976 61.1692 18.4517 61.1692 18.4517C61.1692 18.4517 26.0597 44.1926 21.7861 44.1926Z" fill="#FFC517"/>
<path d="M21.7861 44.1926C21.7861 44.1926 50.2754 12.4724 51.6032 11.694C52.931 10.9157 53.9841 9.03845 56.0902 10.9615C58.1964 12.8845 62.775 17.5547 62.775 17.5547C62.775 17.5547 41.9423 32.664 33.7466 37.9294C25.5509 43.1948 22.9204 44.8242 21.7861 44.1926Z" fill="#FF4B3D"/>
<path d="M53.3557 50.3184C47.1417 54.5919 45.6825 63.2508 50.0725 69.6341C54.4625 76.0174 63.0695 77.752 69.2836 73.4785C75.4976 69.2049 76.9574 60.547 72.5674 54.1637C68.1775 47.7804 59.5698 46.0448 53.3557 50.3184ZM53.7229 51.7341L55.975 55.0087C54.8687 55.8087 53.8798 56.6873 53.0221 57.6147C52.9446 57.2795 52.8806 56.9514 52.8305 56.6325C52.4794 54.3973 52.8115 52.672 53.7229 51.7341ZM51.8538 53.0316C51.5696 54.1212 51.5581 55.4133 51.7757 56.799C51.867 57.3803 52.0014 57.9834 52.1727 58.6007C51.2773 59.7222 50.568 60.895 50.0696 62.0699C49.5719 63.2429 49.2844 64.4277 49.2401 65.5619C47.8209 61.1775 48.8023 56.3706 51.8538 53.0316ZM56.4267 49.8866C60.636 48.2321 65.4754 49.0351 69.0616 51.9284C67.9873 51.5642 66.7788 51.4089 65.506 51.4539C64.2303 51.4989 62.8809 51.7418 61.5129 52.1768C60.9979 51.7961 60.4828 51.455 59.9727 51.1618C58.7566 50.4627 57.5459 50.0111 56.4267 49.8866ZM54.6106 51.141C55.8095 50.6633 57.5129 50.9795 59.4398 52.0871C59.7196 52.2479 60.003 52.425 60.2883 52.6173C59.1348 53.0786 57.98 53.6749 56.8551 54.4047L54.6106 51.141ZM56.5805 55.8891L61.4511 62.9713C59.9724 63.9447 58.4347 64.8339 56.8424 65.6459C56.7359 65.4975 56.6295 65.3486 56.525 65.1965C55.0525 63.0555 53.9875 60.8546 53.3594 58.8447C54.258 57.7931 55.3397 56.7893 56.5805 55.8891ZM57.4608 55.2854C58.7275 54.4666 60.0321 53.8285 61.3163 53.3725C62.9683 54.6782 64.6425 56.4602 66.115 58.6012C66.2342 58.7746 66.3502 58.9485 66.4641 59.1225C65.1509 60.2968 63.7735 61.3785 62.3362 62.3746L57.4608 55.2854ZM52.5663 59.8509C53.2449 61.7801 54.2794 63.8152 55.6454 65.8014C55.7209 65.9112 55.7979 66.0181 55.8744 66.1261C54.2452 66.9153 52.5622 67.629 50.8308 68.2755C50.0414 66.6737 50.1416 64.6336 51.0522 62.487C51.4246 61.6092 51.9344 60.7207 52.5663 59.8509ZM62.5396 52.992C63.5779 52.7131 64.59 52.555 65.543 52.5213C67.8559 52.4397 69.7863 53.0652 71.0014 54.3556C69.8271 55.807 68.5783 57.1501 67.26 58.3927C67.1723 58.2605 67.0852 58.1282 66.9945 57.9963C65.6285 56.0101 64.0984 54.3159 62.5396 52.992ZM71.6598 55.2399C72.6086 56.8805 72.5517 59.0353 71.5869 61.3096C71.2145 62.1874 70.7051 63.0762 70.0734 63.946C69.5436 62.4399 68.796 60.8697 67.8434 59.3081C69.1863 58.0552 70.4607 56.7023 71.6598 55.2399ZM51.4229 69.1949C53.1689 68.5358 54.8686 67.8063 56.5172 67C57.6487 68.4751 58.8649 69.7565 60.0996 70.8053C59.0613 71.0839 58.0491 71.2416 57.0962 71.2753C54.6407 71.362 52.6179 70.6517 51.4229 69.1949ZM57.4919 66.5125C59.0653 65.7028 60.5877 64.817 62.0553 63.8499L65.2359 68.4747C63.9514 69.3111 62.6271 69.962 61.3235 70.4246C60.0233 69.3972 58.7105 68.0737 57.4919 66.5125ZM67.0377 60.0413C68.0397 61.7158 68.7922 63.3916 69.28 64.9527C68.3949 65.9889 67.3323 66.9788 66.1147 67.8686L62.9403 63.253C64.3635 62.267 65.7312 61.1988 67.0377 60.0413ZM53.5765 71.8676C54.6513 72.232 55.8607 72.3874 57.1342 72.3424C58.4097 72.2973 59.7585 72.0547 61.126 71.6199C61.6414 72.001 62.1567 72.3424 62.6671 72.6358C63.8827 73.3345 65.0929 73.7861 66.2115 73.9106C62.0018 75.5651 57.1624 74.7617 53.5765 71.8676ZM73.3998 58.2359C74.8187 62.6197 73.8372 67.4257 70.7863 70.7644C71.0703 69.6753 71.0816 68.3836 70.8641 66.9985C70.7727 66.4169 70.6383 65.8135 70.4669 65.1959C71.3625 64.0743 72.0722 62.9013 72.5707 61.7263C73.0681 60.5536 73.3554 59.3694 73.3998 58.2359ZM62.3509 71.1793C63.5238 70.7103 64.6979 70.101 65.8408 69.3542L68.0935 72.6297C66.8914 73.1451 65.161 72.8371 63.1994 71.7095C62.9195 71.5486 62.6362 71.3716 62.3509 71.1793ZM69.6172 66.1821C69.6947 66.5173 69.7586 66.8452 69.8087 67.1641C70.1535 69.3597 69.8398 71.0642 68.9649 72.013L66.7197 68.7484C67.8037 67.9592 68.7737 67.0941 69.6172 66.1821Z" fill="white"/>
<path d="M36.5628 47.9347C36.5233 48.9203 37.6667 50.8522 39.1649 50.5368C40.6631 50.2214 56.9857 39.8128 57.5377 38.2357C58.0896 36.6587 56.3549 34.8451 54.8567 35.4759C53.3585 36.1067 36.681 46.5153 36.5628 47.9347Z" fill="white"/>
<path d="M53.7737 45.0426C51.8873 45.9303 47.0046 49.1484 46.2833 50.1471C45.562 51.1459 46.7272 51.5897 48.0033 50.8684C49.2795 50.1471 55.1054 46.5961 55.4938 45.7084C55.8822 44.8206 55.1054 44.0993 53.7737 45.0426Z" fill="white"/>
<path d="M65.0633 20.8592C64.9446 20.8587 64.826 20.8676 64.7099 20.8819C64.2452 20.9388 63.7404 21.0952 63.1568 21.3272C61.9894 21.7913 60.5199 22.5696 58.807 23.5763C55.3813 25.5897 51.0001 28.5196 46.4637 31.6247C41.9273 34.7298 37.2388 38.0084 33.2215 40.7094C29.2043 43.4104 25.8169 45.545 24.0714 46.2973C22.3435 47.0421 20.9608 46.9558 19.7475 46.4458C18.5342 45.9358 17.4892 44.9557 16.6469 43.8454C16.4758 43.6198 16.316 43.3892 16.1626 43.1579C16.0632 43.9609 16.1125 44.7456 16.3047 45.5724C17.1092 46.4506 18.0718 47.2257 19.2176 47.7073C20.7432 48.3486 22.5924 48.4242 24.6133 47.5532C26.6165 46.6897 29.9506 44.5575 33.9843 41.8455C38.018 39.1334 42.709 35.8523 47.2374 32.7526C51.7659 29.6529 56.1357 26.7324 59.5005 24.7548C61.183 23.7659 62.6194 23.0128 63.6622 22.5983C64.1836 22.391 64.6089 22.2729 64.876 22.2402C65.0486 22.2191 65.114 22.2383 65.1234 22.236C65.3228 22.4501 65.9648 23.3216 66.7776 24.5628C67.6177 25.8456 68.6906 27.5566 69.9093 29.5484C72.3468 33.5322 75.3707 38.6428 78.3172 43.7446C81.2637 48.8465 84.1334 53.9408 86.2631 57.8899C87.3279 59.8645 88.2075 61.5535 88.8161 62.8063C89.1205 63.4326 89.3574 63.951 89.5121 64.3307C89.65 64.6691 89.6824 64.8781 89.692 64.832C89.6527 64.8923 89.5867 64.9805 89.4821 65.0992C89.2519 65.3603 88.8811 65.7217 88.3966 66.1493C87.4276 67.0046 86.0037 68.1347 84.2593 69.439C80.7704 72.0476 75.988 75.3633 70.8602 78.7012C65.7323 82.0391 60.2568 85.4012 55.3809 88.1086C51.9856 89.994 48.8686 91.5602 46.3948 92.5771C46.446 92.654 46.8893 93.3201 46.8893 93.3201C46.8893 93.3201 46.9889 93.4971 47.1872 93.7361C49.7054 92.6851 52.736 91.1426 56.0458 89.3048C60.9619 86.575 66.4578 83.1984 71.6067 79.8468C76.7556 76.4951 81.5555 73.1692 85.0793 70.5344C86.8412 69.217 88.2826 68.074 89.3011 67.1751C89.8103 66.7256 90.2133 66.3395 90.5092 66.0037C90.6572 65.8358 90.7787 65.6827 90.8786 65.5198C90.9785 65.3569 91.0815 65.1926 91.0815 64.8935C91.0815 64.4661 90.953 64.2415 90.7789 63.8143C90.6049 63.3872 90.3596 62.8502 90.0476 62.2082C89.4237 60.9241 88.5374 59.2245 87.4673 57.2402C85.3272 53.2718 82.4523 48.1709 79.5009 43.0607C76.5496 37.9505 73.5218 32.8318 71.0754 28.8334C69.8522 26.8342 68.7748 25.1161 67.9218 23.8135C67.0688 22.5109 66.5022 21.6742 66.0626 21.2346C65.776 20.9481 65.4196 20.8609 65.0633 20.8592Z" fill="#171D8F"/>
<path d="M23.0254 65.8123C23.4752 65.4124 24.5249 62.5634 22.7255 59.4644C20.9261 56.3654 24.2989 46.6698 33.8219 50.2673C42.5517 53.5653 39.3201 61.2138 36.521 62.7633C33.6561 64.3492 32.9722 67.3118 32.7722 67.9616C32.5723 68.6114 23.0254 65.8123 23.0254 65.8123Z" fill="#FFC517"/>
<path d="M38.0076 91.0798C36.4001 95.5632 27.7385 96.5593 18.6616 93.3046C9.58459 90.05 3.52942 83.7771 5.13698 79.2937C5.93435 77.0699 4.51511 70.7029 13.9255 69.931C18.4595 66.7766 23.957 64.5821 28.5318 66.2224C32.8207 67.7603 35.531 72.3936 37.0274 77.3267C44.716 85.5421 38.8556 88.7149 38.0076 91.0798Z" fill="#FFC517"/>
<path d="M38.0076 91.0798C37.6253 92.1459 36.8217 93.0491 35.6426 93.7378C34.4635 94.4266 32.932 94.8874 31.1356 95.094C29.3391 95.3006 27.3129 95.2489 25.1726 94.9419C23.0323 94.6348 20.8198 94.0785 18.6615 93.3046C14.3026 91.7417 10.4289 89.3875 7.89253 86.7599C5.35618 84.1324 4.36496 81.4467 5.13693 79.2937C5.90891 77.1407 8.38085 75.6968 12.0089 75.2796C15.637 74.8623 20.1241 75.506 24.483 77.0689C28.8419 78.6319 32.7156 80.9861 35.252 83.6136C37.7883 86.2412 38.7796 88.9268 38.0076 91.0798Z" fill="#FF4B3D"/>
<path d="M18.4267 67.3734C19.5931 67.4088 22.9861 66.6312 27.5808 67.6208C32.1755 68.6105 33.872 72.569 35.3565 73.0638C36.8409 73.5586 37.8659 69.7768 35.4978 67.02C33.1298 64.2631 29.7368 62.3192 25.7783 62.6373C21.8197 62.9554 17.4017 63.5563 18.4267 67.3734Z" fill="#171D8F"/>
<path d="M13.9255 69.931C13.9255 69.931 20.2764 69.4611 25.7746 71.3605C31.2728 73.2599 27.574 70.9107 24.2751 69.761C20.9762 68.6114 13.9255 69.931 13.9255 69.931Z" fill="#FFAC17"/>
<path d="M23.3754 59.7143C24.1751 59.5143 26.7243 58.4147 30.673 58.9145C34.6217 59.4144 35.2715 62.7133 36.1712 62.3134C37.0709 61.9136 35.1216 57.8149 30.573 57.0651C26.0245 56.3154 23.2254 58.4647 23.3754 59.7143Z" fill="#FFAC17"/>
<path d="M31.5857 88.7772C31.3528 89.4267 30.8632 89.977 30.1448 90.3966C29.4264 90.8163 28.4933 91.097 27.3988 91.2229C26.3043 91.3488 25.0698 91.3173 23.7658 91.1302C22.4618 90.9432 21.1138 90.6042 19.7988 90.1327C17.143 89.1805 14.7829 87.7461 13.2376 86.1452C11.6923 84.5444 11.0884 82.9081 11.5587 81.5963C12.029 80.2846 13.5351 79.4048 15.7456 79.1506C17.9561 78.8964 20.6899 79.2886 23.3456 80.2408C26.0014 81.1931 28.3615 82.6274 29.9068 84.2283C31.4521 85.8292 32.056 87.4655 31.5857 88.7772Z" fill="#CF1531"/>
<path d="M79.7124 4.8839C75.6427 4.89832 71.7447 6.52509 68.8721 9.40787C65.9995 12.2907 64.3865 16.1944 64.3865 20.2641C64.3865 24.055 65.7866 27.7123 68.318 30.5342C70.8493 33.3561 74.3337 35.1437 78.1023 35.5539C77.6653 36.8871 76.5426 38.8143 73.8929 41.4192C71.0195 44.2441 74.2122 43.264 79.6747 39.2912C81.5783 37.9069 82.7224 36.4799 83.407 35.2075C86.7551 34.3919 89.7323 32.4756 91.8612 29.7659C93.99 27.0562 95.1473 23.7101 95.1473 20.2641C95.1472 16.185 93.5268 12.2731 90.6425 9.38871C87.7581 6.50437 83.8461 4.88395 79.7671 4.8839C79.7489 4.88387 79.7306 4.88387 79.7124 4.8839Z" fill="#FFC517"/>
<path d="M88.0594 11.8366C87.7477 11.8473 87.3997 11.9483 87.0571 12.1499C85.7611 12.9122 79.6744 18.0346 76.1197 21.8271C74.7891 20.5625 72.7256 18.7442 71.5597 18.0584C70.1895 17.2524 68.7388 18.0583 69.8269 19.7912C69.8269 19.7912 71.5092 24.6032 74.29 27.1422C74.4119 27.2534 74.5352 27.3486 74.6586 27.4368C75.1068 27.8997 75.7546 28.1181 76.472 27.9815C76.4724 27.9815 76.4726 27.9816 76.4735 27.9815C76.9333 27.9328 77.3466 27.7392 77.67 27.4332C77.7903 27.3455 77.9106 27.2513 78.0302 27.1422C80.811 24.6032 88.7908 13.8827 88.7908 13.8827C89.607 12.583 88.9946 11.8045 88.0594 11.8366Z" fill="white"/>
<path d="M94.7721 17.745C82.0877 30.0938 72.4041 30.1692 66.116 27.5269C67.298 29.714 68.9935 31.5812 71.0567 32.9682C73.1199 34.3552 75.489 35.2204 77.9604 35.4894C77.5242 36.8202 76.4034 38.7438 73.7585 41.344C70.8903 44.1637 74.0774 43.1854 79.5301 39.2198C81.4302 37.838 82.5722 36.4136 83.2556 35.1435C86.5975 34.3294 89.5693 32.4166 91.6943 29.7118C93.8193 27.007 94.9744 23.6669 94.9743 20.2272C94.9743 19.3957 94.9066 18.5655 94.7721 17.745Z" fill="#FFAC17"/>
</svg>
