<svg width="80" height="56" viewBox="0 0 80 56" fill="none" xmlns="http://www.w3.org/2000/svg">
<path fill-rule="evenodd" clip-rule="evenodd" d="M30.7449 28.5866C30.7449 29.4206 29.1563 31.751 28.6726 32.7323C28.5134 33.0552 28.3581 33.2557 28.1874 33.5641C28.017 33.872 27.9384 34.0641 27.7566 34.3642C27.5603 34.6883 27.4294 34.8665 27.3252 35.2411H38.4649L38.7625 35.094V35.2411H39.9713V32.6856H44.1278V35.2411H50.6165C50.2861 34.7184 47.0863 29.5055 47.028 29.1147C46.9543 28.621 47.1913 28.6505 46.5728 28.5673C40.2438 27.7159 44.0675 27.8902 36.0132 27.8902C35.1832 27.8902 33.182 28.2474 32.0917 28.3987C31.6355 28.462 31.1477 28.5791 30.7449 28.5866Z" fill="#F9B624"/>
<path fill-rule="evenodd" clip-rule="evenodd" d="M38.6935 2.74245C38.5592 2.67929 38.5956 2.70491 38.4162 2.66503C38.5116 3.00793 38.4814 3.11797 38.8783 3.2067V3.43886C38.3064 3.47868 37.6668 4.29204 37.4497 4.71885C37.1515 5.30488 37.0259 6.03327 37.0295 6.84322C37.037 8.51931 37.0298 10.1967 37.0298 11.873L36.9427 11.7138C36.9342 11.7007 36.9203 11.6774 36.9105 11.6633L36.6985 11.3765C36.644 11.2404 36.6601 11.2482 36.6601 11.0992H36.3829C36.3829 11.7511 36.1029 11.4041 36.1004 12.1781C36.0989 12.6428 36.1055 13.11 36.1055 13.5752C35.2788 13.5752 35.2616 13.665 35.552 14.425C35.6547 14.6939 35.5655 14.6565 35.9207 14.7359V17.5989C36.5735 17.5867 37.0222 17.3667 37.7692 17.3667V16.1287C37.4166 16.1041 37.3897 16.0829 37.2893 15.8238C37.186 15.5571 37.2455 15.47 37.3995 15.2775C37.8821 15.4238 37.426 15.5464 37.9541 15.6644C38.048 15.3697 38.7937 14.5 39.0632 14.349C39.249 14.5813 39.4329 14.8126 39.6177 15.0454C39.9104 15.4141 39.9364 15.591 40.2647 15.6644C40.3562 15.3776 40.358 15.5644 40.4495 15.2775C40.8028 15.3565 40.8184 15.4735 40.7433 15.7458C40.6566 16.0605 40.6128 16.1205 40.1723 16.1287V17.3667C40.5171 17.3732 41.8915 17.5872 42.1132 17.6762C42.1132 16.9682 41.9802 15.1893 42.228 14.5998L42.2757 14.4849C42.2831 14.4652 42.2883 14.4441 42.2957 14.4241C42.303 14.404 42.3075 14.3828 42.3149 14.3626C42.3223 14.3425 42.328 14.3219 42.3357 14.3018L42.3853 14.1845C42.6138 13.6337 42.5837 13.5752 41.836 13.5752C41.836 13.1102 41.8334 12.6451 41.8388 12.1802C41.8432 11.7933 41.8094 11.3097 41.4663 11.0992C41.1359 11.3018 41.3908 11.0955 41.2258 11.4395L41.0042 11.873L41.0079 8.15578C41.0012 7.70151 40.9069 7.52007 40.9105 6.99923C40.9172 6.0219 40.948 5.51604 40.5975 4.78523C40.35 4.26941 39.7996 3.56445 39.1556 3.43886V3.2067C39.564 3.1154 39.4417 2.97234 39.6177 2.66503C39.3444 2.72619 39.4679 2.69656 39.2481 2.8198C39.3149 2.57969 39.3661 2.59572 39.4329 2.35555H39.1556C39.1556 1.74036 39.3787 1.89883 39.0632 1.50439L38.7078 1.74973C38.9118 2.00946 38.8784 1.90467 38.8784 2.35555L38.6011 2.43296L38.6935 2.74245Z" fill="#F9B624"/>
<path fill-rule="evenodd" clip-rule="evenodd" d="M32.8708 23.8664C32.8708 25.2812 31.975 26.8224 31.9465 27.89C32.7693 27.8747 34.5054 27.4258 35.6435 27.4258H42.2058C42.6624 27.4258 45.5552 27.865 45.8104 27.9675C45.8104 27.6136 45.701 27.2868 45.6077 26.9765C45.5168 26.6743 45.4342 26.3172 45.3304 25.9706C45.1503 25.3695 44.8861 24.6201 44.8861 23.8664C43.9204 23.8485 41.9632 23.4022 40.727 23.4022C38.0683 23.4022 37.397 23.2745 34.8911 23.6234C34.2688 23.7101 33.5142 23.8664 32.8708 23.8664Z" fill="#F9B624"/>
<path fill-rule="evenodd" clip-rule="evenodd" d="M35.4586 18.4501C35.5501 18.7371 35.5519 18.5502 35.6434 18.837L35.3504 19.1346C35.4805 19.3275 35.5248 19.348 35.551 19.6108C35.2648 19.6313 35.3763 19.6099 35.1813 19.6882C35.2694 19.9644 35.3189 19.841 35.3307 20.016C35.3477 20.269 35.188 20.2955 35.1686 20.3517C35.0697 20.6366 35.5158 20.7688 34.9964 20.9262C35.0288 21.2515 35.1015 21.1812 35.1813 21.4679C35.0127 21.5379 35.0657 21.5275 34.8116 21.5452C34.851 21.9411 34.8818 21.6501 34.9964 22.0095C34.8618 22.1284 34.9031 22.139 34.6267 22.1642C34.6598 22.497 34.6136 22.3037 34.8116 22.5512C34.4198 22.7708 34.4419 22.6386 34.4419 23.1702C35.1361 23.1218 35.6713 22.9381 36.4753 22.9381H41.2814C42.1171 22.9381 42.7519 23.1562 43.4996 23.1702C43.4996 22.6386 43.5217 22.7708 43.1299 22.5512C43.3279 22.3037 43.2817 22.497 43.3148 22.1642C43.0384 22.139 43.0797 22.1284 42.945 22.0095C43.0541 21.837 43.0992 21.7765 43.2223 21.6227C42.8589 21.4767 42.5702 21.5879 43.0375 21.0036C42.8353 20.914 42.8151 20.9015 42.6678 20.7715C42.7512 20.4718 42.7379 20.74 42.7901 20.4849C42.8489 20.1975 42.6146 20.2719 42.6275 20.0256C42.6289 19.9985 42.7283 19.8031 42.7602 19.6882L42.3932 19.5292C42.5643 18.9088 42.7291 19.3759 42.2981 18.837C42.3895 18.5502 42.3915 18.7371 42.4829 18.4501C41.916 18.1324 42.3295 18.2073 41.4592 18.0691C39.9295 17.8262 37.9938 17.8098 36.4659 18.0554C35.6407 18.1881 35.9773 18.1594 35.4586 18.4501Z" fill="#F9B624"/>
<path fill-rule="evenodd" clip-rule="evenodd" d="M20.6706 29.4378C20.6706 30.4032 20.296 31.6161 20.0604 32.4862C19.9168 33.0164 19.3332 34.8332 19.0994 35.2411H25.2919C24.8837 33.7745 23.7207 31.363 23.7207 29.4378C21.4999 29.0047 22.8267 29.0173 20.6706 29.4378Z" fill="#F9B624"/>
<path fill-rule="evenodd" clip-rule="evenodd" d="M54.5907 29.4379C54.3385 30.3442 54.2909 31.1404 53.9067 32.4246C53.6484 33.288 53.3212 34.5535 52.927 35.2412H59.1195C58.6884 33.692 57.5483 31.3852 57.5483 29.4379C57.1015 29.3508 56.4373 29.1284 55.9771 29.1284C55.8363 29.1284 54.702 29.3932 54.5907 29.4379Z" fill="#F9B624"/>
<path fill-rule="evenodd" clip-rule="evenodd" d="M22.519 20.5393L22.4933 20.1905C22.4134 20.1691 22.5117 20.2139 22.3341 20.1524C22.3341 19.5491 22.6146 19.5622 22.1493 19.3013C21.8338 19.6958 22.0569 19.5372 22.0569 20.1524H21.7796C21.8464 20.3926 21.8976 20.3766 21.9644 20.6167C21.7446 20.4934 21.8682 20.5231 21.5948 20.462C21.7708 20.7692 21.6485 20.9123 22.0569 21.0036V21.1583C20.7766 21.4445 21.3853 24.335 21.1756 24.831C21.0213 25.1958 20.941 24.9626 20.9357 25.5723C20.9278 26.4723 21.3196 25.9145 22.1562 25.877C23.0005 25.8391 23.4308 26.4869 23.4546 25.6545C23.4902 24.4044 23.1507 25.6269 23.1652 24.0993C23.1739 23.1929 23.3282 22.3447 22.8944 21.6179C22.7466 21.3704 22.6798 21.2356 22.3341 21.1583V21.0036C22.7311 20.9149 22.7008 20.8048 22.7963 20.462C22.5516 20.5163 22.7203 20.4558 22.519 20.5393Z" fill="#F9B624"/>
<path fill-rule="evenodd" clip-rule="evenodd" d="M55.9772 19.8429C55.9772 20.5711 55.5543 19.7614 55.7923 20.6167C55.5724 20.4934 55.6961 20.5231 55.4226 20.462C55.4984 20.5819 55.5449 20.7083 55.6271 20.8324L55.7362 20.9732C55.8924 21.1694 55.7534 20.8546 55.8847 21.1583C55.078 21.6106 55.0498 22.2246 55.0528 23.3248C55.0585 25.4056 54.8874 24.6495 54.8618 25.3315C54.8526 25.5785 54.868 25.8588 54.868 26.1105C55.9588 25.6723 56.6098 25.9815 57.2711 26.1105C57.2711 23.7987 56.9935 26.2816 56.9938 23.3249C56.9939 22.8491 57.0281 22.2883 56.9074 21.9272C56.7156 21.3535 56.4725 21.3918 56.162 21.0036C56.5589 20.9149 56.5287 20.8048 56.6242 20.462C56.1798 20.5966 56.6987 20.4821 56.2544 20.6167C56.3553 20.4572 56.3827 20.4333 56.4393 20.2298C56.2751 20.1541 56.4154 20.3449 56.2557 20.1339C55.8601 19.6118 56.6803 19.6758 56.0696 19.3013C55.4579 19.6442 55.9772 19.6558 55.9772 19.8429Z" fill="#F9B624"/>
<path fill-rule="evenodd" clip-rule="evenodd" d="M54.5908 26.6522V28.896C55.9988 28.6214 55.5218 28.4482 56.8858 28.7598C57.7198 28.9503 57.5485 29.1325 57.5485 26.8843C57.5485 26.5974 56.5241 26.425 56.2063 26.3873C55.8028 26.3396 55.099 26.6167 54.5908 26.6522Z" fill="#F9B624"/>
<path fill-rule="evenodd" clip-rule="evenodd" d="M20.7629 26.6521V28.896C20.8734 28.8516 22.0291 28.5865 22.1493 28.5865C22.5094 28.5865 23.2718 28.8265 23.6281 28.896V26.6521C23.1887 26.6215 22.509 26.3832 22.2414 26.3785C21.9221 26.3729 21.2154 26.6206 20.7629 26.6521Z" fill="#F9B624"/>
<path fill-rule="evenodd" clip-rule="evenodd" d="M38.2314 16.0515V17.367H39.7103C39.7103 16.1671 39.8805 15.9933 39.3988 15.3838C39.2157 15.1521 39.2184 15.0443 38.8784 14.9683C38.7481 15.3769 38.2314 15.6245 38.2314 16.0515Z" fill="#F9B624"/>
<path fill-rule="evenodd" clip-rule="evenodd" d="M14.1264 31.4624L7.19988 47.017L0.17334 31.4624H3.09606L7.1799 40.7911L11.2637 31.4624H14.1264ZM17.7697 31.9228V34.5653H15.2073V31.9228H17.7697ZM17.8298 46.2562H15.2874V36.7674H17.8298V46.2562ZM26.8382 43.4536C26.8382 44.3078 26.4912 45.0417 25.7973 45.6557C25.1033 46.2696 24.1958 46.5498 23.0748 46.4965C21.6868 46.3897 20.5924 46.016 19.7916 45.3754L20.9127 43.6938C21.7135 44.0141 22.5142 44.2477 23.3149 44.3945C23.7954 44.301 24.1157 44.0809 24.2759 43.7339C24.2225 43.2267 23.8688 42.8464 23.2148 42.5928C22.0271 41.9656 21.3664 41.5985 21.233 41.4918C20.5257 40.9579 20.1721 40.324 20.1721 39.59C20.1721 38.8026 20.4857 38.142 21.1129 37.6081C21.7401 37.0743 22.4541 36.8074 23.2549 36.8074C23.9756 36.8074 24.5828 36.9809 25.0766 37.3279C25.5037 37.4614 25.904 37.7149 26.2777 38.0886L25.0766 39.4498C24.4894 39.1296 23.8421 38.9694 23.1348 38.9694C23.0147 38.9694 22.8979 39.0194 22.7844 39.1196C22.671 39.2197 22.6143 39.3364 22.6143 39.4699C22.6143 39.7101 22.9813 39.9837 23.7153 40.2906C24.7029 40.7044 25.3769 41.0513 25.7372 41.3316C26.4713 41.8921 26.8382 42.5995 26.8382 43.4536ZM38.4692 46.2762H35.9268V45.5356C35.1794 46.2295 34.2652 46.5765 33.1842 46.5765C31.7962 46.5765 30.6518 46.1028 29.751 45.1552C28.8501 44.2077 28.3997 43.0332 28.3997 41.6319C28.3997 40.2573 28.8535 39.1095 29.761 38.1887C30.6685 37.2678 31.8096 36.8074 33.1842 36.8074C34.8524 36.754 36.0602 37.1544 36.8076 38.0086L38.4692 37.0276V46.2762ZM35.9869 41.5918C35.9869 40.8312 35.7566 40.2039 35.2962 39.7101C34.8357 39.2163 34.2319 38.9694 33.4845 38.9694C32.7504 38.9694 32.1466 39.2297 31.6728 39.7502C31.199 40.2706 30.9621 40.8979 30.9621 41.6319C30.9621 42.3393 31.1824 42.9665 31.6228 43.5137C32.0899 44.1009 32.6704 44.3945 33.3644 44.3945C34.1652 44.3945 34.8024 44.1309 35.2762 43.6038C35.75 43.0765 35.9869 42.406 35.9869 41.5918ZM45.5758 39.1496H43.8342V46.2562H41.2918V39.1496L40.0106 39.1296L41.2918 36.8474V33.5443H43.8342V36.8474H45.5758V39.1496ZM57.7072 44.3345C57.2268 44.975 56.6529 45.5089 55.9856 45.9359C55.3183 46.363 54.2907 46.5498 52.9027 46.4965C50.9141 46.5498 49.4595 46.0693 48.5386 45.0551C47.6044 44.2009 47.1773 43.0266 47.2574 41.5318C47.124 40.4642 47.5911 39.3965 48.6587 38.3288C49.7264 37.2612 51.0609 36.7274 52.6624 36.7274C54.3173 36.6739 55.6652 37.2211 56.7062 38.3689C57.7472 39.5166 58.2677 40.8378 58.2677 42.3325H49.6197C49.9399 43.7205 51.0343 44.4679 52.9027 44.5746C54.1305 44.5746 55.038 44.1743 55.6252 43.3735L57.7072 44.3345ZM55.7053 40.731C55.1715 39.5566 54.1839 38.9161 52.7425 38.8093C51.1945 38.9161 50.1267 39.5566 49.5396 40.731H55.7053ZM68.0568 45.8959C67.0959 46.3229 66.1417 46.5365 65.1941 46.5365C63.7661 46.5365 62.5384 46.1028 61.5107 45.2353C60.403 44.3144 59.8492 43.1534 59.8492 41.752C59.8492 40.324 60.3896 39.1362 61.4707 38.1887C62.4983 37.2945 63.7395 36.8474 65.1941 36.8474C66.2218 36.8474 67.216 37.1277 68.1769 37.6882L66.8957 39.5299C66.6021 39.2229 65.9682 39.0695 64.994 39.0695C64.2999 39.0695 63.696 39.3197 63.1823 39.8202C62.6684 40.3207 62.4116 40.9179 62.4116 41.6119C62.4116 42.3726 62.6618 43.0098 63.1623 43.5237C63.6627 44.0375 64.2933 44.2944 65.054 44.2944C65.668 44.2944 66.2218 44.1409 66.7156 43.834L67.0159 43.6538L68.0568 45.8959ZM78.3664 46.2562H75.8241V40.3907C75.8241 39.7502 75.6973 39.3098 75.4437 39.0695C75.1901 38.8293 74.7364 38.7092 74.0825 38.7092C72.948 38.7092 72.3808 39.4966 72.3808 41.0714V46.2562H69.8385L69.8184 31.4424H72.3808V37.1877C72.9681 36.7073 73.7755 36.4671 74.8032 36.4671C77.1787 36.4671 78.3664 37.7749 78.3664 40.3907V46.2562Z" fill="#6347F9"/>
<path fill-rule="evenodd" clip-rule="evenodd" d="M17.5614 52.5242L15.8491 48.1149H16.483L17.6314 51.3179C17.7238 51.5746 17.8011 51.8159 17.8628 52.0396C17.9318 51.7994 18.011 51.5592 18.1015 51.3179L19.2952 48.1149H19.892L18.1612 52.5242H17.5614ZM20.2387 48.7381V48.1149H20.7821V48.7381H20.2387ZM20.2387 52.5242V49.3304H20.7821V52.5242H20.2387ZM21.3912 51.5705L21.9274 51.4863C21.9572 51.7008 22.0415 51.8651 22.1794 51.9801C22.3162 52.094 22.5087 52.1515 22.7567 52.1515C23.0057 52.1515 23.1909 52.1002 23.3113 51.9996C23.4317 51.898 23.4924 51.7789 23.4924 51.6434C23.4924 51.5202 23.439 51.4247 23.3319 51.3539C23.2578 51.3056 23.0726 51.2451 22.7773 51.1712C22.3801 51.0705 22.1033 50.9843 21.95 50.9104C21.7966 50.8375 21.6794 50.7359 21.6002 50.6065C21.5209 50.4771 21.4807 50.3344 21.4807 50.1784C21.4807 50.0357 21.5137 49.9043 21.5795 49.7832C21.6444 49.661 21.7338 49.5604 21.8461 49.4804C21.9304 49.4188 22.0456 49.3653 22.1908 49.3222C22.3369 49.2791 22.4933 49.2575 22.6599 49.2575C22.9111 49.2575 23.1313 49.2945 23.3216 49.3663C23.512 49.4383 23.6519 49.5358 23.7424 49.6589C23.833 49.7832 23.8947 49.9474 23.9287 50.1538L23.3988 50.2267C23.3741 50.0624 23.3042 49.9341 23.1888 49.8417C23.0736 49.7493 22.91 49.7031 22.699 49.7031C22.4501 49.7031 22.2721 49.7442 22.1661 49.8263C22.0591 49.9084 22.0055 50.0049 22.0055 50.1147C22.0055 50.1856 22.0281 50.2482 22.0724 50.3047C22.1166 50.3632 22.1856 50.4104 22.2802 50.4495C22.3348 50.4689 22.4942 50.5152 22.7598 50.587C23.1436 50.6896 23.4111 50.7728 23.5624 50.8385C23.7147 50.9032 23.834 50.9987 23.9205 51.1229C24.0069 51.2471 24.0501 51.4011 24.0501 51.5859C24.0501 51.7666 23.9967 51.9359 23.8917 52.0961C23.7857 52.2552 23.6334 52.3784 23.4348 52.4657C23.2362 52.5529 23.0108 52.596 22.7598 52.596C22.3431 52.596 22.0261 52.5098 21.808 52.3373C21.5898 52.1649 21.4509 51.9092 21.3912 51.5705ZM26.7842 52.1299C26.5825 52.3004 26.389 52.4205 26.2039 52.4913C26.0175 52.5612 25.8179 52.596 25.6049 52.596C25.253 52.596 24.9834 52.5108 24.7942 52.3394C24.6058 52.1679 24.5112 51.9483 24.5112 51.6823C24.5112 51.5253 24.5462 51.3826 24.6182 51.2532C24.6892 51.1239 24.7828 51.0202 24.8981 50.9422C25.0143 50.8642 25.144 50.8047 25.289 50.7646C25.395 50.7369 25.5556 50.7092 25.7706 50.6835C26.209 50.6311 26.5321 50.5695 26.7389 50.4967C26.741 50.4228 26.742 50.3755 26.742 50.356C26.742 50.1353 26.6906 49.9792 26.5877 49.89C26.4498 49.7668 26.243 49.7062 25.9702 49.7062C25.715 49.7062 25.5267 49.7503 25.4042 49.8396C25.2829 49.9289 25.1934 50.0871 25.1347 50.314L24.6047 50.2411C24.6522 50.0151 24.7324 49.8314 24.8425 49.6928C24.9526 49.5532 25.1131 49.4454 25.322 49.3705C25.5309 49.2955 25.7726 49.2575 26.0484 49.2575C26.3222 49.2575 26.5434 49.2904 26.7142 49.354C26.885 49.4188 27.0106 49.4988 27.0918 49.5964C27.1721 49.6939 27.2276 49.816 27.2605 49.9649C27.2781 50.0573 27.2874 50.2235 27.2874 50.4638V51.1855C27.2874 51.6895 27.2986 52.0078 27.3223 52.1403C27.345 52.2737 27.3913 52.402 27.4592 52.5242H26.8922C26.8367 52.4123 26.7996 52.2809 26.7842 52.1299ZM26.7389 50.9207C26.5413 51.0017 26.246 51.0695 25.8529 51.1259C25.6297 51.1578 25.4711 51.1937 25.3796 51.2338C25.287 51.2738 25.2149 51.3323 25.1656 51.4103C25.1151 51.4873 25.0894 51.5725 25.0894 51.667C25.0894 51.8117 25.145 51.9319 25.2541 52.0283C25.3631 52.1238 25.5237 52.172 25.7345 52.172C25.9434 52.172 26.1297 52.1269 26.2923 52.0355C26.4549 51.9442 26.5753 51.8189 26.6514 51.6608C26.7101 51.5387 26.7389 51.358 26.7389 51.1198V50.9207ZM32.3705 52.0037C32.1915 52.2028 31.9959 52.3517 31.7851 52.4503C31.5741 52.5499 31.3456 52.5991 31.1007 52.5991C30.6491 52.5991 30.2899 52.4472 30.0244 52.1423C29.8094 51.8939 29.7024 51.6156 29.7024 51.3087C29.7024 51.0367 29.7899 50.7903 29.9658 50.5706C30.1417 50.3509 30.4042 50.1579 30.754 49.9916C30.5554 49.7636 30.4227 49.5779 30.3568 49.4351C30.2899 49.2935 30.257 49.1559 30.257 49.0235C30.257 48.7586 30.361 48.5287 30.5688 48.3326C30.7766 48.1375 31.039 48.04 31.3538 48.04C31.6554 48.04 31.9023 48.1324 32.0947 48.3162C32.2861 48.5009 32.3818 48.7227 32.3818 48.9814C32.3818 49.4003 32.104 49.7585 31.5473 50.0552L32.3396 51.0624C32.4302 50.8857 32.5012 50.6815 32.5506 50.4495L33.1144 50.5695C33.0178 50.9545 32.8881 51.2707 32.7224 51.5191C32.9262 51.7881 33.1556 52.014 33.4129 52.1967L33.0486 52.6268C32.8294 52.4862 32.6031 52.2788 32.3705 52.0037ZM31.2664 49.7062C31.5021 49.5675 31.6543 49.4464 31.7233 49.3417C31.7932 49.238 31.8272 49.1231 31.8272 48.9958C31.8272 48.8459 31.7799 48.7227 31.6842 48.6283C31.5885 48.5327 31.4701 48.4845 31.3271 48.4845C31.1799 48.4845 31.0586 48.5317 30.9608 48.6262C30.863 48.7207 30.8147 48.8356 30.8147 48.9722C30.8147 49.0399 30.8322 49.1118 30.8671 49.1877C30.9021 49.2627 30.9557 49.3417 31.0256 49.4259L31.2664 49.7062ZM32.0299 51.5767L31.0349 50.3468C30.7417 50.5213 30.543 50.6835 30.4412 50.8323C30.3382 50.9823 30.2869 51.13 30.2869 51.2759C30.2869 51.4545 30.3589 51.6403 30.5009 51.8323C30.6439 52.0252 30.8456 52.1207 31.1069 52.1207C31.2695 52.1207 31.4382 52.0704 31.6122 51.9688C31.7861 51.8682 31.9249 51.7368 32.0299 51.5767ZM37.7666 52.1299C37.5648 52.3004 37.3714 52.4205 37.1862 52.4913C36.9999 52.5612 36.8003 52.596 36.5874 52.596C36.2354 52.596 35.9658 52.5108 35.7765 52.3394C35.5882 52.1679 35.4935 51.9483 35.4935 51.6823C35.4935 51.5253 35.5285 51.3826 35.6005 51.2532C35.6715 51.1239 35.7651 51.0202 35.8804 50.9422C35.9967 50.8642 36.1263 50.8047 36.2715 50.7646C36.3774 50.7369 36.5379 50.7092 36.753 50.6835C37.1913 50.6311 37.5144 50.5695 37.7212 50.4967C37.7235 50.4228 37.7244 50.3755 37.7244 50.356C37.7244 50.1353 37.6729 49.9792 37.57 49.89C37.4321 49.7668 37.2253 49.7062 36.9526 49.7062C36.6974 49.7062 36.509 49.7503 36.3866 49.8396C36.2652 49.9289 36.1758 50.0871 36.1171 50.314L35.5871 50.2411C35.6345 50.0151 35.7147 49.8314 35.8249 49.6928C35.935 49.5532 36.0954 49.4454 36.3044 49.3705C36.5133 49.2955 36.755 49.2575 37.0307 49.2575C37.3045 49.2575 37.5258 49.2904 37.6966 49.354C37.8674 49.4188 37.9929 49.4988 38.0742 49.5964C38.1544 49.6939 38.21 49.816 38.243 49.9649C38.2604 50.0573 38.2697 50.2235 38.2697 50.4638V51.1855C38.2697 51.6895 38.281 52.0078 38.3046 52.1403C38.3273 52.2737 38.3736 52.402 38.4415 52.5242H37.8746C37.819 52.4123 37.7819 52.2809 37.7666 52.1299ZM37.7212 50.9207C37.5237 51.0017 37.2283 51.0695 36.8353 51.1259C36.612 51.1578 36.4535 51.1937 36.3619 51.2338C36.2693 51.2738 36.1973 51.3323 36.1479 51.4103C36.0975 51.4873 36.0718 51.5725 36.0718 51.667C36.0718 51.8117 36.1273 51.9319 36.2365 52.0283C36.3455 52.1238 36.506 52.172 36.7169 52.172C36.9258 52.172 37.1121 52.1269 37.2747 52.0355C37.4372 51.9442 37.5577 51.8189 37.6338 51.6608C37.6925 51.5387 37.7212 51.358 37.7212 51.1198V50.9207ZM41.2002 51.3539L41.7332 51.4237C41.6756 51.7902 41.5264 52.0776 41.2856 52.285C41.0459 52.4923 40.7505 52.596 40.4007 52.596C39.9634 52.596 39.6104 52.4534 39.345 52.1679C39.0785 51.8826 38.9447 51.473 38.9447 50.9391C38.9447 50.5942 39.0022 50.2923 39.1166 50.0336C39.2318 49.775 39.4057 49.5809 39.6403 49.4515C39.8739 49.3222 40.129 49.2575 40.4038 49.2575C40.7516 49.2575 41.0365 49.3459 41.2568 49.5214C41.478 49.6969 41.62 49.9454 41.6828 50.2687L41.155 50.3499C41.1045 50.1353 41.0161 49.9741 40.8884 49.8653C40.7608 49.7575 40.6065 49.7031 40.4254 49.7031C40.1517 49.7031 39.9294 49.8006 39.7586 49.9967C39.5878 50.1918 39.5024 50.5007 39.5024 50.9237C39.5024 51.3528 39.5847 51.6649 39.7504 51.8599C39.915 52.054 40.1301 52.1515 40.3956 52.1515C40.6086 52.1515 40.7855 52.0859 40.9286 51.9555C41.0716 51.8251 41.1622 51.6249 41.2002 51.3539ZM44.2872 51.3539L44.8202 51.4237C44.7626 51.7902 44.6134 52.0776 44.3726 52.285C44.1329 52.4923 43.8375 52.596 43.4877 52.596C43.0503 52.596 42.6974 52.4534 42.432 52.1679C42.1654 51.8826 42.0317 51.473 42.0317 50.9391C42.0317 50.5942 42.0893 50.2923 42.2035 50.0336C42.3187 49.775 42.4926 49.5809 42.7273 49.4515C42.9609 49.3222 43.216 49.2575 43.4907 49.2575C43.8386 49.2575 44.1235 49.3459 44.3438 49.5214C44.5649 49.6969 44.707 49.9454 44.7698 50.2687L44.2419 50.3499C44.1914 50.1353 44.103 49.9741 43.9754 49.8653C43.8479 49.7575 43.6934 49.7031 43.5124 49.7031C43.2386 49.7031 43.0164 49.8006 42.8456 49.9967C42.6748 50.1918 42.5894 50.5007 42.5894 50.9237C42.5894 51.3528 42.6717 51.6649 42.8374 51.8599C43.002 52.054 43.217 52.1515 43.4826 52.1515C43.6955 52.1515 43.8725 52.0859 44.0155 51.9555C44.1586 51.8251 44.2491 51.6249 44.2872 51.3539ZM45.0826 50.9268C45.0826 50.3355 45.2473 49.8971 45.5776 49.6128C45.8522 49.3767 46.1878 49.2575 46.5839 49.2575C47.0243 49.2575 47.3845 49.4013 47.6634 49.6897C47.9432 49.9772 48.0821 50.3745 48.0821 50.8816C48.0821 51.2933 48.0203 51.6167 47.8969 51.8518C47.7734 52.0879 47.5934 52.2706 47.3577 52.401C47.121 52.5314 46.8638 52.596 46.5839 52.596C46.1363 52.596 45.7741 52.4534 45.4973 52.1659C45.2205 51.8795 45.0826 51.4668 45.0826 50.9268ZM45.6403 50.9268C45.6403 51.3364 45.7298 51.6424 45.9089 51.8456C46.0879 52.0499 46.3133 52.1515 46.5839 52.1515C46.8534 52.1515 47.0778 52.0489 47.2569 51.8446C47.4349 51.6403 47.5244 51.3282 47.5244 50.9093C47.5244 50.5141 47.4349 50.2143 47.2548 50.0111C47.0747 49.8078 46.8514 49.7062 46.5839 49.7062C46.3133 49.7062 46.0879 49.8078 45.9089 50.01C45.7298 50.2123 45.6403 50.5182 45.6403 50.9268ZM50.8171 52.5242V52.0551C50.5671 52.4164 50.2286 52.596 49.8006 52.596C49.6122 52.596 49.4352 52.5601 49.2716 52.4883C49.108 52.4164 48.9865 52.325 48.9074 52.2162C48.827 52.1064 48.7715 51.9729 48.7396 51.8148C48.718 51.708 48.7067 51.5397 48.7067 51.3087V49.3304H49.249V51.1013C49.249 51.3847 49.2603 51.5746 49.2819 51.6731C49.3169 51.8159 49.389 51.9267 49.499 52.0088C49.6101 52.09 49.747 52.1299 49.9096 52.1299C50.0721 52.1299 50.2245 52.0889 50.3674 52.0058C50.5105 51.9226 50.6114 51.8087 50.67 51.6659C50.7296 51.5222 50.7595 51.3138 50.7595 51.0418V49.3304H51.3018V52.5242H50.8171ZM52.1528 52.5242V49.3304H52.6405V49.7842C52.8761 49.4331 53.2157 49.2575 53.6591 49.2575C53.8526 49.2575 54.0296 49.2924 54.1911 49.3612C54.3537 49.4311 54.4742 49.5214 54.5544 49.6343C54.6356 49.7462 54.6912 49.8796 54.7242 50.0336C54.7437 50.1343 54.754 50.3098 54.754 50.5603V52.5242H54.2107V50.5808C54.2107 50.3611 54.1901 50.1959 54.1479 50.086C54.1058 49.9772 54.0306 49.8899 53.9236 49.8252C53.8156 49.7595 53.69 49.7267 53.5449 49.7267C53.3134 49.7267 53.1148 49.8006 52.9461 49.9464C52.7784 50.0932 52.695 50.3703 52.695 50.78V52.5242H52.1528ZM56.7708 52.0396L56.8489 52.518C56.6967 52.5499 56.5598 52.5663 56.4394 52.5663C56.2419 52.5663 56.0896 52.5355 55.9805 52.4728C55.8725 52.4112 55.7964 52.3291 55.7521 52.2275C55.7078 52.1269 55.6853 51.9134 55.6853 51.589V49.7513H55.287V49.3304H55.6853V48.5389L56.2254 48.2145V49.3304H56.7708V49.7513H56.2254V51.6188C56.2254 51.7737 56.2347 51.8723 56.2532 51.9164C56.2728 51.9606 56.3037 51.9955 56.3469 52.0222C56.3901 52.0479 56.4518 52.0612 56.5321 52.0612C56.5928 52.0612 56.672 52.054 56.7708 52.0396ZM57.3038 48.7381V48.1149H57.8471V48.7381H57.3038ZM57.3038 52.5242V49.3304H57.8471V52.5242H57.3038ZM58.6734 52.5242V49.3304H59.1611V49.7842C59.3968 49.4331 59.7364 49.2575 60.1799 49.2575C60.3733 49.2575 60.5502 49.2924 60.7118 49.3612C60.8744 49.4311 60.9948 49.5214 61.075 49.6343C61.1563 49.7462 61.2118 49.8796 61.2448 50.0336C61.2644 50.1343 61.2746 50.3098 61.2746 50.5603V52.5242H60.7314V50.5808C60.7314 50.3611 60.7108 50.1959 60.6686 50.086C60.6264 49.9772 60.5513 49.8899 60.4442 49.8252C60.3362 49.7595 60.2106 49.7267 60.0656 49.7267C59.8342 49.7267 59.6355 49.8006 59.4668 49.9464C59.299 50.0932 59.2157 50.3703 59.2157 50.78V52.5242H58.6734ZM62.0073 52.7891L62.5352 52.8671C62.5567 53.0293 62.6185 53.1473 62.7183 53.2223C62.8531 53.3219 63.0373 53.3722 63.2698 53.3722C63.5219 53.3722 63.7154 53.3219 63.8523 53.2223C63.9891 53.1217 64.0806 52.981 64.1291 52.8014C64.1579 52.6905 64.1702 52.4596 64.1682 52.1064C63.9315 52.3846 63.6362 52.5242 63.2822 52.5242C62.8418 52.5242 62.5013 52.3661 62.2605 52.0489C62.0197 51.7327 61.8982 51.3518 61.8982 50.9093C61.8982 50.6044 61.9538 50.3232 62.0639 50.0655C62.175 49.8078 62.3355 49.6087 62.5454 49.468C62.7554 49.3284 63.0023 49.2575 63.2853 49.2575C63.6629 49.2575 63.9747 49.4105 64.2196 49.7154V49.3304H64.7207V52.091C64.7207 52.5888 64.6693 52.941 64.5684 53.1483C64.4666 53.3557 64.3061 53.52 64.0858 53.6401C63.8656 53.7602 63.595 53.8207 63.2729 53.8207C62.8912 53.8207 62.5825 53.7346 62.3478 53.5631C62.1122 53.3916 61.999 53.134 62.0073 52.7891ZM62.4559 50.8703C62.4559 51.2892 62.5393 51.5951 62.707 51.7871C62.8737 51.9801 63.0826 52.0755 63.3337 52.0755C63.5826 52.0755 63.7915 51.9801 63.9603 51.7891C64.1291 51.5971 64.2134 51.2974 64.2134 50.8878C64.2134 50.4967 64.127 50.202 63.9531 50.0039C63.7792 49.8058 63.5694 49.7062 63.3244 49.7062C63.0836 49.7062 62.8789 49.8037 62.7091 49.9998C62.5403 50.1948 62.4559 50.4854 62.4559 50.8703Z" fill="#6347F9"/>
</svg>
