<svg width="158" height="158" viewBox="0 0 158 158" fill="none" xmlns="http://www.w3.org/2000/svg">
<path d="M118.343 130.762C113.489 130.762 108.978 128.333 106.242 124.463C105.997 124.507 105.745 124.53 105.487 124.53H50.7525C48.3547 127.91 44.6232 130.169 40.3853 130.662C39.8147 130.728 39.2352 130.762 38.6633 130.762C33.5922 130.762 28.8945 128.109 26.2048 123.932H4.70413C3.43273 123.932 2.22273 123.374 1.38428 122.401C0.14034 120.958 -0.610469 120.086 0.650754 103.505C1.24171 95.735 2.04776 87.9045 2.27272 86.401C5.25682 66.2245 18.7436 48.718 38.0165 39.5093C38.0057 39.359 38.0002 39.2078 38.0002 39.0553C38.0002 36.685 39.3463 34.6239 41.3142 33.5954C42.5035 29.8731 45.9894 27.238 50.0267 27.238H85.5526C89.6751 27.238 93.2332 29.9978 94.3429 33.8527C94.5602 34.2487 94.7175 34.6819 94.8043 35.1393C96.487 36.4199 97.5761 38.4437 97.5761 40.7174C97.5761 40.7174 97.5754 43.2257 97.5748 43.2664C98.1957 43.7626 98.7882 44.2662 99.3511 44.7754C101.915 47.0852 104.323 49.8219 106.706 53.1365C109.264 56.7158 111.486 60.5643 113.322 63.8579C113.844 64.793 114.364 65.7342 114.884 66.6748C115.745 68.2319 116.603 69.7863 117.482 71.3244C118.873 73.7508 120.281 76.0539 122.16 77.4857C123.971 78.8624 126.393 79.6231 128.958 80.4285C131.578 81.2509 134.286 82.1014 136.887 83.7042C139.765 85.4789 142.426 87.5339 144.822 89.8307L145.317 89.7635C145.508 89.7369 145.7 89.7243 145.889 89.7243C147.572 89.7243 149.12 90.7321 149.784 92.3186C150.22 93.3617 150.21 94.5016 149.815 95.5005C150.179 95.9946 150.53 96.4923 150.865 96.9932C155.311 103.631 157.844 111.669 157.999 119.627C158.021 120.761 157.586 121.857 156.791 122.667C155.997 123.476 154.91 123.933 153.776 123.933H130.834C128.464 127.644 124.548 130.141 120.066 130.662C119.495 130.728 118.914 130.762 118.343 130.762Z" fill="white"/>
<path d="M153.327 119.23H4.25483C2.65694 119.23 5.5642 89.4675 6.00055 86.5463C9.18925 64.9849 24.9081 47.9848 44.6464 40.6075C50.3692 38.4677 56.4371 37.1371 62.6318 36.7359C72.1137 36.1236 81.9267 38.1366 90.0288 42.9939C90.7398 43.4092 91.4366 43.8598 92.1266 44.3313C93.4992 45.2747 94.8228 46.3023 96.0686 47.4287C98.6237 49.7305 100.827 52.3421 102.826 55.1225C105.157 58.3816 107.205 61.8872 109.183 65.4351C110.584 67.9412 111.949 70.4612 113.364 72.9392C114.934 75.6773 116.638 78.451 119.151 80.3658C123.586 83.7375 129.527 83.9276 134.222 86.821C137.361 88.7568 140.304 91.1222 142.859 93.818C143.162 94.1346 143.45 94.4516 143.739 94.7753C144.886 96.0704 145.949 97.4363 146.907 98.8651C150.863 104.771 153.186 111.965 153.327 119.23Z" fill="#E4DCF3"/>
<path d="M109.183 65.4355H86.2769C86.9737 64.3443 87.9028 63.4012 89.0363 62.7886C89.3532 62.6127 89.684 62.4717 90.0287 62.3591C90.782 62.1057 91.5773 62.0002 92.3657 62.0563C93.0838 62.1057 93.7806 62.2955 94.4213 62.6405C94.8153 61.7607 95.3011 60.9442 95.8713 60.1909C96.0401 59.9514 96.2234 59.7194 96.4203 59.4941C98.1028 57.516 100.341 56.0449 102.826 55.1226C105.157 58.3819 107.205 61.8876 109.183 65.4355Z" fill="white"/>
<path d="M54.7447 67.8289H13.311C14.3106 66.3788 15.9156 65.3441 17.6684 65.1117C18.4288 65.0133 19.2521 65.0694 19.8788 65.52C22.617 61.6484 27.1221 58.9031 31.8597 58.8889C36.5972 58.8818 41.3628 61.9088 42.82 66.414C45.5443 64.6118 49.3032 64.3375 52.3022 65.6468C53.323 66.0903 54.3225 66.78 54.7379 67.8221L54.7447 67.8289Z" fill="white"/>
<path d="M27.1563 113.477H15.4144C15.4144 113.477 12.8981 94.1864 27.9954 92.0297C27.9954 92.0297 36.3827 75.1354 47.5257 74.2966C58.6687 73.4579 88.8631 72.9786 93.6558 76.3334C98.4486 79.6884 105.638 90.7117 105.638 90.7117C105.638 90.7117 126.344 90.4605 131.758 97.4214C136.79 103.892 137.03 118.15 137.03 118.15H130.021C130.021 118.15 130.799 104.131 118.218 104.131C105.638 104.131 105.038 119.827 105.038 119.827H49.9219C49.9219 119.827 51.0159 104.251 39.4976 104.251C27.9951 104.251 27.1563 113.477 27.1563 113.477Z" fill="#6347F9"/>
<path d="M128.207 117.973C129.601 112.285 126.12 106.544 120.431 105.15C114.743 103.756 109.002 107.238 107.608 112.926C106.214 118.614 109.696 124.355 115.384 125.749C121.072 127.143 126.813 123.662 128.207 117.973Z" fill="#63566D"/>
<path d="M126.189 114.491C126.721 119.066 123.442 123.207 118.867 123.739C114.291 124.271 110.15 120.993 109.618 116.417C109.086 111.841 112.365 107.701 116.94 107.169C121.516 106.637 125.657 109.915 126.189 114.491Z" fill="white"/>
<path d="M40.098 125.894C45.8619 124.857 49.6936 119.343 48.6564 113.58C47.6193 107.816 42.106 103.984 36.3421 105.021C30.5783 106.058 26.7465 111.572 27.7837 117.336C28.8209 123.099 34.3342 126.931 40.098 125.894Z" fill="#63566D"/>
<path d="M46.4796 114.491C47.0116 119.067 43.7334 123.207 39.1576 123.739C34.582 124.271 30.4413 120.993 29.9096 116.417C29.3776 111.841 32.6558 107.701 37.2316 107.169C41.8075 106.637 45.9479 109.916 46.4796 114.491Z" fill="white"/>
<path d="M21.2853 113.477H14.6718C13.6093 113.477 12.748 112.616 12.748 111.553V111.177C12.748 110.115 13.6093 109.253 14.6718 109.253H21.2853V113.477Z" fill="#63566D"/>
<path d="M137.434 118.15H129.841V113.927H137.434C138.601 113.927 139.546 114.872 139.546 116.038C139.546 117.205 138.601 118.15 137.434 118.15Z" fill="#63566D"/>
<path d="M39.5276 91.9998C39.5276 91.9998 39.5276 75.9144 61.5442 77.0824L61.634 92.0896L39.5276 91.9998Z" fill="white"/>
<path d="M64.8691 76.9926V91.6403H100.905C100.905 91.6403 94.2939 78.7139 89.6714 77.7113C82.2127 76.094 64.8691 76.9926 64.8691 76.9926Z" fill="white"/>
<path d="M132.267 105.03H130.56C129.368 105.03 128.403 104.064 128.403 102.873C128.403 101.682 129.368 100.717 130.56 100.717H132.267V105.03Z" fill="#FFA145"/>
<path d="M16.3729 106.108L18.5895 98.8594L18.6688 98.8655C20.9935 99.0467 22.5509 101.336 21.8652 103.565C21.3835 105.131 19.9146 106.183 18.2775 106.133C17.2548 106.102 16.3463 106.082 16.3729 106.108Z" fill="#FFA145"/>
<path d="M52.0785 118.358C52.0758 118.358 52.073 118.358 52.0702 118.358C52.0218 118.353 51.9863 118.31 51.9909 118.261C51.9974 118.192 52.6016 111.287 48.8334 106.342C45.0765 101.41 39.4466 102.172 39.3904 102.182C39.3654 102.185 39.3392 102.178 39.3203 102.161C39.3009 102.144 39.2898 102.12 39.2898 102.095V93.108C39.2898 93.0592 39.3293 93.02 39.3781 93.02C39.4268 93.02 39.4663 93.0592 39.4663 93.108V101.995C40.2508 101.916 45.432 101.587 48.9735 106.234C52.7843 111.236 52.173 118.208 52.1665 118.278C52.1619 118.323 52.1236 118.358 52.0785 118.358Z" fill="#152139"/>
<path d="M64.899 117.938C64.8503 117.938 64.8108 117.899 64.8108 117.85V92.9881C64.8108 92.9393 64.8503 92.9001 64.899 92.9001C64.9478 92.9001 64.987 92.9393 64.987 92.9881V117.85C64.9873 117.899 64.9478 117.938 64.899 117.938Z" fill="#152139"/>
<path d="M66.4565 101.555V106.648C66.4565 106.648 68.0742 105.509 68.1341 103.832C68.1939 102.154 66.4565 101.555 66.4565 101.555Z" fill="#152139"/>
<path d="M99.2513 71.3699L99.7663 68.126C97.9283 68.3617 96.3542 70.2979 95.7645 71.1153C88.2715 70.6426 77.1742 70.3426 64.7795 70.3426C42.2142 70.3426 23.9214 71.335 23.9214 72.5592C23.9214 73.7834 42.2142 74.7759 64.7795 74.7759C87.3448 74.7759 105.638 73.7834 105.638 72.5592C105.637 72.1213 103.289 71.7137 99.2513 71.3699Z" fill="#FFA145"/>
<path d="M90.121 45.4469C90.0238 45.4469 89.9451 45.3679 89.9451 45.2707C89.9451 45.1735 90.0238 45.0945 90.121 45.0945C91.4612 45.0945 92.5511 44.0045 92.5511 42.6646V40.2385C92.5511 38.8985 91.4612 37.8086 90.121 37.8086C90.0238 37.8086 89.9451 37.7296 89.9451 37.6324C89.9451 37.5352 90.0238 37.4562 90.121 37.4562C91.655 37.4562 92.9032 38.7044 92.9032 40.2385V42.6646C92.9032 44.199 91.655 45.4469 90.121 45.4469Z" fill="#152139"/>
<path d="M45.6384 38.5758C45.6384 39.6429 44.7734 40.5079 43.7063 40.5079C42.6392 40.5079 41.7742 39.6429 41.7742 38.5758C41.7742 37.5087 42.6392 36.6437 43.7063 36.6437C44.7734 36.6437 45.6384 37.5087 45.6384 38.5758Z" fill="#152139"/>
<path d="M45.6384 46.6637C45.6384 47.7308 44.7734 48.5958 43.7063 48.5958C42.6392 48.5958 41.7742 47.7308 41.7742 46.6637C41.7742 45.5966 42.6392 44.7316 43.7063 44.7316C44.7734 44.7316 45.6384 45.5966 45.6384 46.6637Z" fill="#152139"/>
<path d="M90.0311 50.3029H44.6499V35.9098C44.6499 33.1883 46.856 30.9822 49.5775 30.9822H85.1035C87.8249 30.9822 90.0311 33.1883 90.0311 35.9098V50.3029Z" fill="#6A7ABB"/>
<path d="M90.0312 35.6515H44.7399C44.6427 35.6515 44.564 35.5725 44.564 35.4753C44.564 35.3781 44.6427 35.2991 44.7399 35.2991H90.0312C90.1285 35.2991 90.2071 35.3781 90.2071 35.4753C90.2071 35.5725 90.1285 35.6515 90.0312 35.6515Z" fill="#152139"/>
<path d="M72.0583 41.8524H63.3414C62.7983 41.8524 62.3567 41.4105 62.3567 40.8674C62.3567 40.3249 62.7983 39.8827 63.3414 39.8827H72.0583C72.6011 39.8827 73.043 40.3246 73.043 40.8674C73.043 41.4102 72.6011 41.8524 72.0583 41.8524ZM63.3414 40.2351C62.9924 40.2351 62.7085 40.5184 62.7085 40.8671C62.7085 41.2164 62.9924 41.4997 63.3414 41.4997H72.0583C72.4073 41.4997 72.6909 41.2161 72.6909 40.8671C72.6909 40.5184 72.4073 40.2351 72.0583 40.2351H63.3414Z" fill="#152139"/>
<path d="M96.8639 70.1658L92.3658 70.201L91.0444 69.5959L90.0289 70.2223L47.7929 70.5531L46.5381 69.9473L45.4559 70.5744L40.6057 70.6096L41.7741 51.0191C41.7741 51.0191 42.9989 50.5615 45.4556 50.0054C46.1385 49.8505 46.9195 49.6885 47.7926 49.5197C52.4807 48.6467 59.9073 47.7669 70.0792 48.0554C79.4345 48.323 85.8965 48.9846 90.0285 49.59C90.4418 49.649 90.8306 50.634 91.1966 50.6923C91.616 50.7593 92.0048 49.8993 92.3658 49.9631C94.9281 50.4066 96.0545 50.7516 96.0545 50.7516L96.8639 70.1658Z" fill="#B97B8E"/>
<path d="M47.7928 49.5193V70.5527L45.4558 70.5737V50.0047C46.1384 49.8501 46.9198 49.6884 47.7928 49.5193Z" fill="white"/>
<path d="M92.3658 49.9629V70.2011L90.0288 70.2221V49.5898C90.9157 49.7167 91.69 49.8432 92.3658 49.9629Z" fill="white"/>
<path d="M96.4114 60.012H41.325V60.3644H96.4114V60.012Z" fill="#152139"/>
<path d="M52.7826 62.4346C52.2635 62.4346 51.8389 62.0099 51.8389 61.4909V58.795C51.8389 58.2759 52.2635 57.8513 52.7826 57.8513C53.3016 57.8513 53.7262 58.2759 53.7262 58.795V61.4909C53.7262 62.0099 53.3016 62.4346 52.7826 62.4346Z" fill="#FFA145"/>
<path d="M83.7855 62.4346C83.2664 62.4346 82.8418 62.0099 82.8418 61.4909V58.795C82.8418 58.2759 83.2664 57.8513 83.7855 57.8513C84.3045 57.8513 84.7288 58.2759 84.7288 58.795V61.4909C84.7292 62.0099 84.3045 62.4346 83.7855 62.4346Z" fill="#FFA145"/>
<path d="M75.9224 58.2934C75.8807 58.2934 75.8381 58.2863 75.7968 58.2702C69.8548 55.999 60.4584 58.0841 60.364 58.1051C60.1761 58.1505 59.986 58.0295 59.9431 57.84C59.9002 57.6506 60.019 57.4614 60.2088 57.4191C60.6019 57.3302 69.9085 55.2661 76.0483 57.6129C76.2297 57.6827 76.3208 57.886 76.2513 58.0672C76.1973 58.207 76.064 58.2934 75.9224 58.2934Z" fill="#152139"/>
<path d="M60.9151 57.7394C60.9151 58.4467 60.3417 59.0201 59.6344 59.0201C58.9271 59.0201 58.3538 58.4467 58.3538 57.7394C58.3538 57.0321 58.9271 56.4587 59.6344 56.4587C60.3417 56.4587 60.9151 57.0321 60.9151 57.7394Z" fill="#FFA145"/>
<path d="M77.5848 57.7394C77.5848 58.4467 77.0114 59.0201 76.3041 59.0201C75.5968 59.0201 75.0234 58.4467 75.0234 57.7394C75.0234 57.0321 75.5968 56.4587 76.3041 56.4587C77.0114 56.4587 77.5848 57.0321 77.5848 57.7394Z" fill="#FFA145"/>
<path d="M110.37 78.9695L112.637 73.9373L113.785 79.5688L119.237 81.3386L114.264 82.3844L114.807 89.2142L111.209 82.8038L105.857 86.5572L108.932 81.3062L104.229 77.8277L110.37 78.9695Z" fill="#FFA145"/>
<path d="M136.423 95.187L136.279 89.6697L139.759 94.2433L145.438 93.4691L141.413 96.5714L144.869 102.487L138.844 98.2764L135.653 103.982L136.142 97.9162L130.396 96.826L136.423 95.187Z" fill="#FFA145"/>
<path d="M16.3058 82.4303L19.5544 77.968L19.5257 83.7153L24.4999 86.563L19.4186 86.5694L18.5524 93.3656L16.3422 86.355L10.3354 88.9339L14.4203 84.4232L10.5286 80.056L16.3058 82.4303Z" fill="#FFA145"/>
</svg>
