<svg width="100" height="100" viewBox="0 0 100 100" fill="none" xmlns="http://www.w3.org/2000/svg">
<g clip-path="url(#clip0_19_754)">
<path d="M14.6444 82.7572C13.5678 82.7572 12.561 82.0914 12.1733 81.0253L9.11687 72.6128H8.01941C7.25339 72.6128 6.52566 72.2789 6.02624 71.6982C5.52683 71.1175 5.30515 70.348 5.41999 69.5906C5.68659 67.8283 5.95144 66.2068 6.22624 64.6566L0.158079 47.9542C-0.236842 46.8664 0.125462 45.648 1.05202 44.9535C4.76062 42.1718 9.58074 39.6753 15.3889 37.5273C16.2139 36.1537 17.0966 34.8281 18.029 33.5615C17.9538 33.3103 17.913 33.0447 17.913 32.7693C17.913 31.6517 18.5805 30.6871 19.5376 30.2531C19.6249 30.1072 19.7262 29.9681 19.8409 29.838C20.0698 29.5822 20.3385 29.3742 20.6321 29.2201C21.0413 28.2054 22.0356 27.4876 23.1948 27.4876C23.2462 27.4876 23.2971 27.4892 23.3479 27.4919C27.4544 23.5716 32.0272 20.7552 36.9733 19.1044C40.0135 18.0925 43.3069 17.4855 46.7643 17.2992C47.4489 17.2617 48.1477 17.2429 48.8395 17.2429C51.7009 17.2429 54.5723 17.5599 57.3913 18.1867C58.4495 17.7353 59.3809 17.6017 59.7553 17.564C59.7704 17.5621 59.7862 17.5601 59.8024 17.5585C60.9235 17.3929 62.2546 17.3125 63.8682 17.3125C71.4559 17.3125 82.8315 19.1314 87.3702 19.9134C89.3796 20.2591 90.8104 22.1218 90.6268 24.1537L90.5044 25.5115C90.5327 25.8277 90.5048 26.1486 90.4196 26.457L90.1526 29.4226C90.3844 29.7478 90.5432 30.1275 90.6079 30.5378C90.6413 30.7496 91.3887 35.6447 91.0491 45.8068C95.2643 48.0822 98.4466 52.7193 99.5171 58.2884C100.332 62.5234 99.9673 66.7486 99.5024 70.3228C99.3321 71.6328 98.2163 72.6128 96.8952 72.6128H85.4612C85.2083 72.6935 84.9401 72.7365 84.6635 72.7365H83.913C83.752 72.7671 83.5882 72.7826 83.4235 72.7826C83.2657 72.7826 83.1069 72.7683 82.9489 72.7394L82.9335 72.7367H54.7264C54.4509 72.7367 54.1831 72.6935 53.9309 72.613H45.3051L15.4805 82.6201C15.2036 82.7128 14.9218 82.7572 14.6444 82.7572Z" fill="white"/>
<path d="M96.9143 69.9839H84.6822L72.6328 67.0542L54.7455 69.9839H8.03809C9.4709 60.5108 11.4557 51.0378 15.7016 42.4632C20.3197 33.1392 27.9525 24.8931 37.8242 21.598C40.76 20.6208 43.8357 20.0907 46.9248 19.9241C58.8121 19.2757 71.3346 24.6212 77.482 34.8173C79.226 37.7136 80.4439 40.9208 82.3937 43.6812C83.0291 44.5794 83.7521 45.4425 84.6811 46.0341C85.8816 46.8009 87.3275 47.0638 88.6553 47.5808C93.177 49.3421 96.0383 54.0173 96.9541 58.7845C97.6635 62.4694 97.4006 66.2419 96.9143 69.9839Z" fill="#E4DCF3"/>
<path d="M2.64795 47.0565L14.663 80.1274L50.8269 67.9934L38.5739 34.4465C38.5739 34.4465 15.4956 37.4207 2.64795 47.0565Z" fill="#FFE3E1"/>
<path d="M48.8204 67.1024L28.5595 73.8991L15.7802 78.1868L15.6683 78.2253L15.6333 78.1345L13.0894 71.128L4.65381 47.9108C8.2915 45.1817 12.8204 43.0396 17.3491 41.3763C21.2349 39.947 25.1173 38.8776 28.4265 38.0983C33.745 36.8474 37.589 36.3511 37.589 36.3511L40.4964 44.3079L47.2478 62.7972L48.8204 67.1024Z" fill="#6A7ABB"/>
<g opacity="0.22">
<path d="M47.248 62.7971C45.9306 66.2881 42.5865 68.9893 38.8613 69.4051C37.5754 69.552 36.2615 69.4471 34.9929 69.7092C32.449 70.2405 30.506 72.1065 28.5597 73.8991L15.7804 78.1867C15.7314 78.1727 15.6826 78.1553 15.6338 78.1344L13.0898 71.128C13.3972 70.5723 13.7713 70.0481 14.1765 69.5764C15.4556 68.0772 17.0455 66.8192 18.024 65.1104C16.7101 64.6143 15.3228 65.8059 13.925 65.708C12.7927 65.6311 11.8597 64.6875 11.4894 63.6114C11.1224 62.5385 11.2168 61.3645 11.4195 60.2461C11.7969 58.1494 12.6146 55.9934 14.334 54.7354C15.1832 54.1133 16.2176 53.736 16.9199 52.9532C17.6222 52.1703 17.7656 50.7237 16.8465 50.2135C16.5179 50.0319 16.1265 50.0108 15.7701 49.9026C14.7008 49.5741 14.0193 48.4489 13.9494 47.3377C13.876 46.2229 14.3164 45.1362 14.9 44.1858C15.55 43.1164 16.3886 42.1764 17.3496 41.3762C21.2353 39.9469 25.1177 38.8776 28.4277 38.0983C29.4775 37.8526 31.057 38.4981 31.6806 39.3563C32.4621 40.4315 32.6691 41.5233 33.9283 42.2213C35.5267 43.1076 37.4222 43.1162 39.1236 43.7C39.6023 43.8643 40.0601 44.067 40.4969 44.308L47.248 62.7971Z" fill="#152139"/>
</g>
<g opacity="0.22">
<path d="M6.71158 50.598C6.61001 52.0775 7.3149 53.5877 8.51392 54.4602C8.73638 54.6221 9.00005 54.7689 9.27232 54.7281C9.68736 54.6662 9.9104 54.2209 10.0805 53.8371C10.3376 53.257 10.7051 52.6277 11.3258 52.4959C11.7833 52.3988 12.2706 52.6053 12.7211 52.4801C13.1919 52.3492 13.4969 51.8889 13.6549 51.4266C14.1983 49.8377 13.3715 47.9578 11.9229 47.1084C9.49556 45.6855 6.8772 48.1824 6.71158 50.598Z" fill="#152139"/>
</g>
<path d="M35.1621 52.986C35.1613 52.986 35.1605 52.986 35.1598 52.9856C35.1277 52.9844 35.1029 52.9576 35.1043 52.9258C35.1113 52.7504 35.0596 52.5492 34.9508 52.328C34.9367 52.2994 34.9484 52.2647 34.9773 52.2504C35.0056 52.2362 35.0406 52.2481 35.0547 52.2768C35.1719 52.5156 35.2275 52.7354 35.2199 52.9303C35.2185 52.9614 35.193 52.986 35.1621 52.986Z" fill="white"/>
<path d="M25.2284 72.8086C25.2269 72.8086 25.2255 72.8082 25.2239 72.8082C25.1944 72.8061 25.1648 72.8033 25.1353 72.8004C24.7231 72.7566 24.3103 72.6273 23.9415 72.4264C23.9134 72.4109 23.903 72.376 23.9185 72.3477C23.9337 72.3193 23.9685 72.309 23.997 72.3246C24.3526 72.5184 24.7505 72.6434 25.1474 72.6852C25.1755 72.6881 25.2042 72.6908 25.2329 72.693C25.2648 72.6953 25.2884 72.723 25.286 72.7551C25.2837 72.7852 25.2583 72.8086 25.2284 72.8086ZM26.5323 72.6396C26.5083 72.6396 26.4856 72.6242 26.4776 72.6002C26.4675 72.5701 26.4837 72.5373 26.5138 72.5272C26.938 72.383 27.322 72.1566 27.6241 71.8717C27.6476 71.8498 27.6837 71.851 27.706 71.8742C27.7278 71.8973 27.7267 71.934 27.7034 71.9559C27.3892 72.252 26.9907 72.4871 26.5509 72.6361C26.5446 72.6385 26.5386 72.6396 26.5323 72.6396ZM28.3503 70.8584C28.3446 70.8584 28.3388 70.8572 28.3331 70.8557C28.3026 70.8463 28.2855 70.8139 28.295 70.7834C28.397 70.4533 28.4466 70.0779 28.4466 69.6346C28.4466 69.5867 28.446 69.5395 28.4448 69.4924C28.444 69.4604 28.4692 69.4336 28.5013 69.433C28.5017 69.433 28.5022 69.433 28.5026 69.433C28.5339 69.433 28.5597 69.4582 28.5605 69.4895C28.5616 69.5381 28.5622 69.5861 28.5622 69.6348C28.5622 70.0897 28.5108 70.4766 28.4054 70.8174C28.3978 70.8422 28.3749 70.8584 28.3503 70.8584ZM28.4011 68.2299C28.3716 68.2299 28.3466 68.2072 28.3435 68.1775L28.3294 68.0273C28.3075 67.7861 28.2964 67.5555 28.2964 67.3426C28.2962 67.1703 28.3034 67.0027 28.3177 66.8451C28.3206 66.8131 28.3442 66.7916 28.3806 66.7928C28.4124 66.7957 28.4356 66.8236 28.4329 66.8557C28.4189 67.0096 28.4118 67.1736 28.412 67.3426C28.412 67.5522 28.423 67.7791 28.4446 68.0168L28.4587 68.1662C28.4616 68.1979 28.4386 68.2264 28.4067 68.2295C28.4048 68.2295 28.4028 68.2299 28.4011 68.2299ZM28.7224 65.64C28.7132 65.64 28.704 65.6377 28.6952 65.6332C28.6669 65.6182 28.6564 65.5832 28.6714 65.5549C28.8462 65.225 29.0853 64.9494 29.3823 64.7361C29.4521 64.6861 29.5265 64.6391 29.603 64.5957C29.6314 64.5811 29.6661 64.59 29.6819 64.618C29.6976 64.6457 29.6878 64.6809 29.6599 64.6967C29.5866 64.7377 29.5159 64.7828 29.4497 64.8303C29.1673 65.0326 28.9399 65.2949 28.7733 65.6092C28.763 65.6287 28.7431 65.64 28.7224 65.64ZM36.1548 65.1238L36.1026 65.1234C36.0708 65.1227 36.0454 65.0959 36.0462 65.0645C36.047 65.0324 36.0759 65.0043 36.1054 65.0076L36.1548 65.008C36.5698 65.008 36.9911 64.9643 37.4067 64.8777C37.4392 64.8688 37.4689 64.8912 37.4753 64.9225C37.4817 64.9537 37.4618 64.9842 37.4306 64.9906C37.0069 65.0789 36.5778 65.1238 36.1548 65.1238ZM34.7915 64.9729C34.7878 64.9729 34.7839 64.9725 34.7798 64.9713C34.4185 64.8975 34.056 64.8031 33.7054 64.7121L33.4911 64.6568C33.4603 64.649 33.4417 64.6174 33.4497 64.5865C33.4575 64.5553 33.4874 64.5369 33.52 64.5447L33.7343 64.6004C34.0835 64.691 34.4444 64.7852 34.803 64.8586C34.8343 64.865 34.8544 64.8955 34.848 64.9268C34.8425 64.9541 34.8185 64.9729 34.7915 64.9729ZM38.678 64.5918C38.6556 64.5918 38.6345 64.5787 38.6249 64.5568C38.6124 64.5275 38.6257 64.4936 38.655 64.4809C39.0595 64.3051 39.4433 64.0893 39.7956 63.8387C39.821 63.8203 39.8573 63.8262 39.8761 63.8522C39.8946 63.8781 39.8886 63.9143 39.8626 63.9326C39.5036 64.1881 39.1128 64.4082 38.7009 64.5869C38.6937 64.5902 38.6858 64.5918 38.678 64.5918ZM32.2122 64.3787C32.2095 64.3787 32.2067 64.3783 32.2038 64.3779C31.9106 64.335 31.6245 64.3133 31.3532 64.3133C31.3511 64.3133 31.3489 64.3133 31.3466 64.3133C31.1923 64.3133 31.0415 64.3205 30.8983 64.3344C30.8683 64.3373 30.8386 64.3141 30.8351 64.2824C30.8321 64.2508 30.8552 64.2223 30.887 64.2191C31.036 64.2045 31.1987 64.1992 31.3534 64.1973C31.6302 64.1973 31.922 64.2195 32.2206 64.2635C32.2521 64.268 32.2741 64.2973 32.2694 64.3289C32.2653 64.358 32.2403 64.3787 32.2122 64.3787ZM40.8114 63.0611C40.798 63.0611 40.7843 63.0563 40.7733 63.0469C40.7493 63.0258 40.7468 62.9893 40.7679 62.9652C40.9593 62.7463 41.1294 62.5145 41.2733 62.2764C41.3446 62.1582 41.4136 62.0234 41.4786 61.8756C41.4915 61.8471 41.5257 61.8346 41.5546 61.8459C41.5839 61.8586 41.5972 61.893 41.5843 61.9223C41.5175 62.0742 41.4462 62.2135 41.3722 62.3357C41.2249 62.5799 41.0507 62.8174 40.8546 63.0412C40.8433 63.0543 40.8272 63.0611 40.8114 63.0611ZM19.2808 62.2578C19.2431 62.2578 19.2056 62.257 19.1679 62.2559C19.1358 62.2547 19.1108 62.2279 19.112 62.1961C19.1132 62.1641 19.1405 62.1363 19.1716 62.14C19.2153 62.142 19.2595 62.1438 19.3034 62.142C19.6446 62.142 20.0175 62.1059 20.4769 62.0279C20.5091 62.0223 20.538 62.0438 20.5435 62.075C20.5487 62.1066 20.5276 62.1363 20.496 62.1416C20.0198 62.2229 19.6401 62.2645 19.2808 62.2578ZM17.8898 61.9621C17.8815 61.9621 17.8731 61.9602 17.8653 61.9564C17.4314 61.7543 17.054 61.5105 16.7439 61.2318C16.72 61.2107 16.7181 61.1738 16.7394 61.1502C16.761 61.1273 16.7976 61.1242 16.821 61.1461C17.1228 61.417 17.4905 61.6545 17.9142 61.852C17.9431 61.8654 17.9556 61.8998 17.9421 61.9287C17.9321 61.9496 17.9114 61.9621 17.8898 61.9621ZM21.7837 61.8807C21.7571 61.8807 21.7335 61.8623 21.7272 61.8355C21.7202 61.8043 21.7398 61.7734 21.771 61.7664C22.2103 61.6674 22.6411 61.5594 23.0521 61.4455C23.0825 61.4373 23.1148 61.4553 23.1231 61.4857C23.1315 61.5166 23.1138 61.5482 23.0829 61.5568C22.6704 61.6713 22.2374 61.7799 21.7966 61.8793C21.7921 61.8801 21.7878 61.8807 21.7837 61.8807ZM24.3325 61.1689C24.3085 61.1689 24.286 61.1535 24.2778 61.1299C24.2677 61.0994 24.2837 61.0666 24.314 61.0564C24.7347 60.9131 25.1503 60.757 25.5493 60.5922C25.5782 60.5791 25.6126 60.5941 25.6247 60.6234C25.637 60.6531 25.6228 60.6871 25.5933 60.699C25.1921 60.8647 24.7741 61.0215 24.3513 61.1656C24.3448 61.1678 24.3388 61.1689 24.3325 61.1689ZM41.9128 60.6918C41.9093 60.6918 41.9056 60.6914 41.9021 60.6906C41.8706 60.6846 41.8501 60.6545 41.856 60.6232C41.9314 60.2236 41.9696 59.8232 41.9696 59.4334C41.9696 59.3947 41.9692 59.3563 41.9685 59.318C41.9679 59.2859 41.9931 59.2596 42.0251 59.259C42.0255 59.259 42.0259 59.259 42.0263 59.259C42.0577 59.259 42.0835 59.2842 42.0841 59.3158C42.0849 59.3549 42.0853 59.3941 42.0853 59.4336C42.0853 59.8305 42.0466 60.2381 41.9698 60.6443C41.9644 60.6723 41.9401 60.6918 41.9128 60.6918ZM15.9974 60.1932C15.9755 60.1932 15.9544 60.1803 15.9446 60.1594C15.7612 59.7564 15.6661 59.3166 15.6626 58.8518C15.6622 58.8197 15.688 58.7938 15.72 58.7934H15.7204C15.7523 58.7934 15.778 58.8189 15.7782 58.851C15.7817 59.299 15.8731 59.7232 16.0501 60.1111C16.0632 60.1404 16.0505 60.1748 16.0214 60.1879C16.0134 60.1914 16.0054 60.1932 15.9974 60.1932ZM26.7769 60.159C26.7556 60.159 26.7351 60.1469 26.7249 60.1266C26.7108 60.098 26.7226 60.0633 26.7513 60.049C27.1429 59.8564 27.5345 59.6477 27.9151 59.4275C27.9433 59.4109 27.9782 59.4207 27.9942 59.4486C28.0103 59.4764 28.0009 59.5119 27.9731 59.5275C27.5901 59.7488 27.1964 59.9592 26.8026 60.1529C26.7942 60.157 26.7855 60.159 26.7769 60.159ZM29.071 58.842C29.0519 58.842 29.0329 58.8322 29.0222 58.8148C29.0052 58.7877 29.0134 58.752 29.0403 58.7352C29.4298 58.4906 29.8114 58.26 30.1747 58.0492C30.2017 58.033 30.2378 58.0424 30.2538 58.0703C30.2698 58.0979 30.2605 58.1332 30.2327 58.1494C29.8706 58.3594 29.4899 58.5893 29.1017 58.833C29.0923 58.8391 29.0815 58.842 29.071 58.842ZM41.8335 58.0691C41.8085 58.0691 41.7855 58.0525 41.7782 58.0277C41.6478 57.5887 41.4509 57.2004 41.1931 56.8742C41.1733 56.8494 41.1774 56.8129 41.2026 56.793C41.2274 56.7734 41.2638 56.7775 41.2837 56.8027C41.5505 57.1402 41.7542 57.5414 41.8888 57.9947C41.898 58.0256 41.8806 58.0576 41.8499 58.0666C41.8444 58.0684 41.839 58.0691 41.8335 58.0691ZM15.9411 57.6102C15.9349 57.6102 15.9286 57.609 15.9224 57.6068C15.8921 57.5963 15.8761 57.5637 15.8866 57.5334C16.0337 57.1078 16.2503 56.6996 16.5126 56.3527C16.5315 56.3272 16.5683 56.3223 16.5935 56.3418C16.619 56.3609 16.6239 56.3971 16.6048 56.4227C16.3497 56.7598 16.1392 57.1566 15.9958 57.5711C15.9874 57.5951 15.9651 57.6102 15.9411 57.6102ZM31.3644 57.5205C31.3435 57.5205 31.3233 57.5088 31.313 57.4893C31.2983 57.4607 31.3095 57.426 31.3378 57.4113C31.7417 57.2025 32.144 57.0088 32.5333 56.8355C32.5624 56.8229 32.5968 56.8352 32.6097 56.8648C32.6226 56.8938 32.6095 56.9281 32.5804 56.9408C32.1929 57.1131 31.7927 57.3059 31.3907 57.5135C31.3823 57.5184 31.3733 57.5205 31.3644 57.5205ZM33.7841 56.452C33.7605 56.452 33.7382 56.4373 33.7298 56.4135C33.7189 56.3838 33.7345 56.3502 33.7644 56.3396C34.1876 56.1861 34.6134 56.051 35.03 55.9379C35.0612 55.9297 35.0927 55.9477 35.1009 55.9785C35.1093 56.0094 35.0911 56.041 35.0605 56.0492C34.6468 56.1617 34.2239 56.2961 33.8038 56.4481C33.7972 56.451 33.7905 56.452 33.7841 56.452ZM40.2235 56.0641C40.2146 56.0641 40.2056 56.0617 40.197 56.0572C39.8366 55.8709 39.4202 55.7393 38.9593 55.667C38.9278 55.6621 38.9062 55.6324 38.9112 55.6008C38.9161 55.5691 38.9462 55.5492 38.9773 55.5525C39.4505 55.627 39.8786 55.7625 40.2499 55.9547C40.2784 55.9693 40.2894 56.0039 40.2747 56.0326C40.2646 56.0523 40.2444 56.0641 40.2235 56.0641ZM36.3356 55.7623C36.3079 55.7623 36.2837 55.7424 36.2786 55.7141C36.2731 55.6828 36.2942 55.6527 36.3257 55.6475C36.4899 55.6186 36.6554 55.5926 36.8214 55.5699C37.1054 55.5305 37.3831 55.5041 37.6464 55.4916C37.6474 55.4912 37.6483 55.4912 37.6491 55.4912C37.6798 55.4912 37.7054 55.5152 37.7069 55.5465C37.7085 55.5781 37.6839 55.6053 37.6521 55.6066C37.3921 55.6193 37.1179 55.6453 36.8372 55.6842C36.6722 55.7068 36.5083 55.7328 36.3456 55.7609C36.3423 55.7619 36.339 55.7623 36.3356 55.7623ZM17.522 55.5449C17.5042 55.5449 17.4868 55.5367 17.4753 55.5213C17.4565 55.4957 17.462 55.4592 17.4878 55.4404C17.8356 55.1854 18.2165 54.9494 18.6198 54.7398C18.6483 54.7252 18.6833 54.7361 18.698 54.7643C18.7126 54.7926 18.7015 54.8275 18.6733 54.8422C18.2753 55.0492 17.8993 55.282 17.5564 55.5338C17.5458 55.541 17.5337 55.5449 17.522 55.5449ZM19.8587 54.3193C19.8351 54.3193 19.8128 54.3047 19.8044 54.2809C19.7935 54.2512 19.8091 54.2176 19.839 54.207C20.2466 54.0592 20.6759 53.932 21.1144 53.8285C21.1452 53.8221 21.1765 53.8406 21.1837 53.8717C21.1911 53.9025 21.1718 53.9338 21.1405 53.9412C20.7065 54.0432 20.2817 54.1693 19.8784 54.3152C19.8718 54.3182 19.8653 54.3193 19.8587 54.3193ZM31.6749 54.1613H31.6745C31.2722 54.159 30.838 54.1455 30.348 54.1191C30.3159 54.1176 30.2915 54.0906 30.2933 54.0586C30.295 54.027 30.3261 53.9965 30.354 54.0041C30.8423 54.0301 31.2745 54.0436 31.6753 54.0455C31.7071 54.0459 31.7329 54.0719 31.7327 54.1039C31.7325 54.1354 31.7067 54.1613 31.6749 54.1613ZM32.9976 54.115C32.9679 54.115 32.9427 54.092 32.9399 54.0619C32.9372 54.0303 32.9606 54.0022 32.9925 53.9994C33.5161 53.9543 33.948 53.8734 34.2765 53.7594C34.3077 53.7484 34.3397 53.765 34.3501 53.7951C34.3606 53.8252 34.3446 53.858 34.3146 53.8686C33.9769 53.9856 33.5355 54.0684 33.0026 54.1146C33.0011 54.1146 32.9993 54.115 32.9976 54.115ZM29.0292 54.0285C29.0276 54.0285 29.0261 54.0281 29.0245 54.0281C28.6231 53.9953 28.1915 53.9563 27.7046 53.9084C27.6728 53.9055 27.6497 53.8768 27.6526 53.8451C27.656 53.8135 27.686 53.7939 27.7159 53.7932C28.2021 53.841 28.6333 53.8801 29.0339 53.9129C29.0657 53.9156 29.0894 53.9434 29.0868 53.9754C29.0843 54.0055 29.0591 54.0285 29.0292 54.0285ZM26.3919 53.7772C26.3899 53.7772 26.3882 53.7768 26.386 53.7768C25.9439 53.7324 25.4782 53.6865 25.0681 53.6537C25.0362 53.6512 25.0126 53.6232 25.0151 53.5916C25.0177 53.5596 25.0435 53.543 25.0774 53.5385C25.4888 53.5713 25.9548 53.6172 26.3978 53.6615C26.4296 53.6648 26.4526 53.6932 26.4495 53.7248C26.4466 53.7549 26.4214 53.7772 26.3919 53.7772ZM22.43 53.709C22.4013 53.709 22.3765 53.6875 22.3726 53.6582C22.3687 53.6266 22.3909 53.5977 22.4226 53.5939C22.8567 53.5391 23.3026 53.5051 23.748 53.4932C23.7485 53.4932 23.7489 53.4932 23.7495 53.4932C23.7808 53.4932 23.8065 53.5184 23.8073 53.5496C23.8083 53.5816 23.7831 53.608 23.7511 53.609C23.3097 53.6207 22.8677 53.6541 22.4374 53.7084C22.4349 53.7086 22.4323 53.709 22.43 53.709Z" fill="white"/>
<path d="M22.9554 71.5286C22.9371 71.5286 22.9187 71.5196 22.9074 71.503C22.7785 71.3118 22.6798 71.1098 22.614 70.9024C22.6044 70.8723 22.6212 70.8395 22.6517 70.8302C22.6828 70.8204 22.7146 70.8374 22.7244 70.8678C22.7867 71.0643 22.8804 71.2565 23.0033 71.4384C23.0212 71.4647 23.014 71.5009 22.9876 71.5184C22.9777 71.5253 22.9666 71.5286 22.9554 71.5286Z" fill="white"/>
<path d="M36.4616 47.3888L36.4493 47.3944C36.4083 47.2204 36.3552 47.0474 36.2825 46.8774C35.5987 45.2757 33.746 44.5315 32.1444 45.2153C30.5427 45.8991 29.7985 47.7519 30.4823 49.3534C30.5848 49.5937 30.7163 49.812 30.8667 50.0116L30.854 50.0177C30.854 50.0177 31.7532 51.5733 35.003 52.3021C35.003 52.3021 36.3622 50.631 36.5073 48.5161C36.5483 48.1991 36.5421 47.8741 36.4829 47.5505C36.4761 47.4968 36.47 47.4429 36.4616 47.3888Z" fill="#E35F5C"/>
<path d="M34.9031 47.5249C35.2488 48.3349 34.8724 49.2718 34.0625 49.6177C33.2525 49.9634 32.3156 49.5872 31.9697 48.7771C31.624 47.9671 32.0004 47.0302 32.8103 46.6843C33.6205 46.3386 34.5574 46.715 34.9031 47.5249Z" fill="white"/>
<path d="M24.03 65.7435L24.0177 65.7494C23.8474 65.0281 23.4706 64.3226 22.3544 63.784C20.5718 62.9238 18.3698 63.7885 17.8905 65.7088C17.73 66.3521 17.7702 67.0514 18.0507 67.7082C18.1532 67.9484 18.2847 68.1668 18.4351 68.3664L18.4224 68.3725C18.4224 68.3725 19.3216 69.9281 22.5714 70.6568C22.5714 70.6568 23.9306 68.9857 24.0757 66.8709C24.1167 66.5539 24.1105 66.2289 24.0513 65.9053C24.0446 65.8516 24.0386 65.7978 24.03 65.7435Z" fill="#E35F5C"/>
<path d="M22.4718 65.8798C22.8175 66.6898 22.4411 67.6267 21.6312 67.9726C20.8212 68.3183 19.8843 67.9419 19.5384 67.132C19.1925 66.322 19.5691 65.3851 20.379 65.0392C21.1892 64.6935 22.1261 65.0697 22.4718 65.8798Z" fill="white"/>
<path d="M88.0273 23.9169L87.532 29.4245C87.4675 30.1415 86.8384 30.6732 86.1208 30.6173L61.2281 28.679C61.2281 28.679 60.7763 28.6937 60.1306 28.6177C60.1306 28.6177 60.1306 28.6206 60.1271 28.6177C58.6591 28.4569 58.3015 25.2812 58.3015 25.2812L60.0849 20.1753C60.1025 20.1724 60.1167 20.1694 60.1343 20.1694C66.6824 19.1687 82.4791 21.7349 86.9429 22.5038C87.6177 22.6202 88.0886 23.2347 88.0273 23.9169Z" fill="#6A7ABB"/>
<path d="M62.0078 25.0248C61.9689 26.1291 61.8242 27.3296 60.9103 28.133C60.6845 28.3316 60.4199 28.4923 60.1304 28.6179C60.1304 28.6179 60.1304 28.6209 60.1269 28.6179C58.659 28.4572 56.1994 27.8466 55.8816 25.5974C55.1582 20.5261 60.0845 20.1755 60.0845 20.1755C60.1021 20.1726 60.1164 20.1697 60.134 20.1697C60.9562 20.5611 61.482 21.531 61.7148 22.2087C62.0291 23.1171 62.0396 24.0783 62.0078 25.0248Z" fill="#63566D"/>
<path d="M87.8657 25.7863C87.862 25.7863 87.8581 25.7855 87.8544 25.7843C80.527 23.6234 61.7467 23.9661 61.5577 23.971H61.5569C61.535 23.971 61.5173 23.9535 61.5169 23.9316C61.5163 23.9093 61.534 23.8913 61.5561 23.8906C61.7448 23.888 80.5378 23.5425 87.877 25.7076C87.8983 25.7136 87.9106 25.7361 87.9044 25.7572C87.8991 25.7749 87.8831 25.7863 87.8657 25.7863Z" fill="#63566D"/>
<path d="M60.0751 28.0893C59.4809 28.0893 58.86 27.9159 58.3682 27.5796C57.6331 27.0772 57.1524 26.2596 57.0147 25.2772C56.8774 24.296 57.087 23.2653 57.6051 22.3755L57.6176 22.3544L57.642 22.3559L61.7999 22.5983L61.7954 22.678L57.6623 22.4372C57.1623 23.3067 56.9606 24.3102 57.0944 25.2659C57.229 26.2257 57.6973 27.0237 58.4135 27.5134C59.2557 28.0895 60.4856 28.1753 61.2743 27.7143L61.3149 27.7835C60.9631 27.9887 60.5268 28.0893 60.0751 28.0893Z" fill="white"/>
<path d="M88.3912 47.043C88.3594 47.8259 88.3133 48.6159 88.2531 49.4057V49.4093C88.2496 49.4659 88.2461 49.5225 88.2389 49.5829C87.4561 59.7813 84.6824 70.1075 84.6824 70.1075H54.7457C54.7457 70.1075 53.9309 66.5794 53.4563 57.3762C52.9781 48.1731 56.9172 29.2286 56.9172 29.2286V28.8637C57.5158 28.7397 58.1287 28.6335 58.7522 28.5415C58.816 28.5309 58.8832 28.5237 58.9506 28.5132C59.5279 28.4317 60.1125 28.3608 60.7041 28.3042C60.7678 28.2971 60.8317 28.2899 60.8953 28.2864C73.166 27.1387 88.0299 30.9468 88.0299 30.9468C88.0299 30.9468 88.841 36.1005 88.3912 47.043Z" fill="#FFA145"/>
<path d="M79.0578 30.6302C78.6742 28.5085 76.8541 26.7001 74.73 26.3306C72.6084 25.9616 70.282 27.0478 69.2037 28.9151L68.8972 28.738C70.047 26.7462 72.525 25.588 74.791 25.9815C77.0562 26.3759 78.9972 28.3044 79.4064 30.5673L79.0578 30.6302Z" fill="#FFA145"/>
<path d="M57.3599 70.1073H57.1792C55.5462 56.1786 56.7613 41.7612 60.7038 28.3038C60.7675 28.2968 60.8314 28.2895 60.8951 28.286C59.0423 34.588 57.7884 41.1059 57.1507 47.6841C57.1437 47.7442 57.1402 47.8046 57.1329 47.8612C56.4247 55.2719 56.4956 62.7569 57.3599 70.1073Z" fill="#152139"/>
<path d="M56.1768 70.1074H55.9961C53.6121 56.2531 54.5508 41.9845 58.752 28.5411C58.8158 28.5306 58.883 28.5234 58.9504 28.5128C54.7279 41.9597 53.7858 56.2425 56.1768 70.1074Z" fill="#152139"/>
<path d="M88.2528 49.4058V49.4093C88.2493 49.4659 88.2458 49.5226 88.2386 49.5829L57.1329 47.8614L57.062 47.8579L57.0728 47.6808L57.1507 47.6843L88.2528 49.4058Z" fill="#152139"/>
<path d="M85.4404 58.669C85.4369 58.7291 85.4297 58.786 85.4191 58.8461C85.4156 58.8922 85.4086 58.9346 85.4014 58.9807L83.4424 70.1533L83.2687 70.1215L85.2277 58.9524C85.2348 58.9063 85.242 58.8567 85.2455 58.8106C85.2561 58.7504 85.2633 58.6901 85.2633 58.6334C85.3447 57.266 84.3883 56.0227 83.0103 55.7746C81.342 55.4772 79.1244 55.1865 76.4109 54.9104C70.8176 54.3436 65.2914 54.7119 62.4965 54.9848C61.1361 55.1158 60.0699 56.2494 60.0203 57.6168L60.0096 57.8895L60.0025 58.0666L59.5668 70.0186L59.3896 70.0151L59.8254 58.0809L59.8324 57.9002L59.843 57.6098C59.8961 56.1539 61.0297 54.9494 62.4785 54.8078C65.2805 54.535 70.8207 54.1666 76.4318 54.7334C79.1453 55.0098 81.3699 55.3002 83.042 55.6012C84.5193 55.867 85.5394 57.2059 85.4404 58.669Z" fill="#152139"/>
<path d="M85.4405 58.669C85.437 58.7292 85.4297 58.786 85.4192 58.8462C85.3626 58.8321 85.3024 58.8214 85.2456 58.8108C76.8502 57.068 68.2104 57.4434 60.0026 58.0669C59.9424 58.0704 59.8821 58.0739 59.8254 58.0811L59.8325 57.9005C59.8926 57.897 59.9495 57.8899 60.0096 57.8899C68.2174 57.2665 76.8608 56.8874 85.2631 58.6339C85.3235 58.6442 85.3801 58.6548 85.4405 58.669Z" fill="#152139"/>
<path d="M65.8999 52.6517C65.0174 52.6517 64.302 51.9363 64.302 51.0538V47.014C64.302 46.1316 65.0174 45.4161 65.8999 45.4161C66.7823 45.4161 67.4977 46.1316 67.4977 47.014V51.0538C67.4977 51.9364 66.7825 52.6517 65.8999 52.6517Z" fill="white"/>
<path d="M81.8889 53.5391C81.0106 53.4534 80.368 52.6719 80.4537 51.7938L80.8459 47.7731C80.9316 46.8948 81.7131 46.2524 82.5912 46.338C83.4695 46.4237 84.1121 47.2052 84.0264 48.0835L83.6342 52.1042C83.5486 52.9823 82.767 53.6247 81.8889 53.5391Z" fill="white"/>
<path d="M55.3164 69.1122C52.3625 67.9235 49.8981 65.7797 48.3762 63.076C47.4549 61.4385 46.8242 59.5135 46.4483 57.1915C45.6596 52.3217 46.2186 47.3165 48.0654 42.7168C49.9113 38.1198 52.9953 34.0477 56.984 30.9407L57.6233 31.7608C53.7789 34.7553 50.8076 38.6776 49.0305 43.1041C47.2537 47.5282 46.7158 52.342 47.4748 57.025C47.8307 59.2245 48.4221 61.037 49.2822 62.5659C50.6881 65.0643 52.969 67.0467 55.7041 68.1475L55.3164 69.1122Z" fill="#FFA145"/>
<path d="M18.6302 44.6982C18.7007 44.7566 18.779 44.8344 18.8651 44.9312C18.9511 45.0283 19.0212 45.1355 19.0755 45.2531C19.1298 45.3707 19.1579 45.4914 19.1601 45.6148C19.162 45.7388 19.114 45.8611 19.0163 45.9818C18.8868 46.142 18.7425 46.2236 18.5817 46.2277C18.4208 46.2316 18.2587 46.1982 18.0962 46.1275C17.9339 46.0568 17.7794 45.9693 17.6339 45.8656C17.4886 45.7619 17.3724 45.6803 17.286 45.6195C17.0751 45.9767 16.8657 46.3279 16.6581 46.6719C16.7353 46.7447 16.8247 46.8426 16.9269 46.9654C17.0292 47.0885 17.1153 47.2232 17.1853 47.3703C17.2552 47.5179 17.2966 47.6713 17.3097 47.8303C17.3228 47.99 17.2784 48.1388 17.1765 48.2791C17.0976 48.3877 17.004 48.4492 16.8948 48.4638C16.7858 48.4785 16.6747 48.4701 16.5626 48.4383C16.4505 48.4066 16.3442 48.3605 16.2442 48.2996C16.1444 48.2388 16.0624 48.1861 15.9989 48.141C15.7864 47.9898 15.5915 47.8193 15.4151 47.6293C15.2386 47.4396 15.0687 47.2402 14.905 47.039C14.8188 46.9332 14.7185 46.8043 14.6083 46.6519C14.4979 46.5 14.3913 46.3334 14.2884 46.1517C14.1854 45.9707 14.0937 45.7779 14.0134 45.574C13.9331 45.3701 13.8794 45.1636 13.8521 44.9553C13.8247 44.7469 13.8333 44.5371 13.8774 44.3271C13.9218 44.1174 14.0167 43.9179 14.1616 43.7308C14.3032 43.548 14.4573 43.4144 14.6235 43.3295C14.7896 43.2449 14.9624 43.1933 15.1417 43.1746C15.3206 43.1562 15.4999 43.1658 15.6786 43.2031C15.8575 43.2404 16.0298 43.2902 16.1946 43.3521C16.3593 43.414 16.5161 43.481 16.6644 43.5531C16.8126 43.6252 16.9435 43.689 17.0573 43.7449C17.3354 43.8754 17.6079 44.0178 17.8753 44.1722C18.1433 44.3267 18.3942 44.5025 18.6302 44.6982ZM16.2876 44.9459C16.2444 44.9119 16.1706 44.8597 16.0661 44.7888C15.9614 44.7183 15.8507 44.6556 15.7333 44.6015C15.6159 44.5472 15.4995 44.5142 15.3833 44.5031C15.2679 44.4918 15.1767 44.5287 15.1112 44.6135C15.0747 44.6607 15.0653 44.7244 15.0817 44.8041C15.0981 44.884 15.1312 44.9691 15.1806 45.059C15.2298 45.1492 15.2903 45.2418 15.362 45.3365C15.4335 45.4316 15.504 45.5203 15.5735 45.6027C15.6433 45.6851 15.7085 45.7562 15.769 45.8166C15.8294 45.8773 15.8724 45.9207 15.8981 45.9474C16.0903 45.6553 16.2722 45.3631 16.4442 45.0689C16.3815 45.0195 16.3503 44.9949 16.2876 44.9459Z" fill="#152139"/>
<path d="M21.4649 43.2894C21.4012 43.3586 21.3248 43.3896 21.235 43.3828C21.1456 43.3756 21.0577 43.3518 20.9711 43.3109C20.8846 43.2699 20.8038 43.2213 20.7286 43.1644C20.6536 43.1076 20.5973 43.0623 20.5598 43.0283C20.4582 42.9363 20.3629 42.8369 20.2747 42.7299C20.186 42.6232 20.0997 42.5141 20.0153 42.4025C19.9307 42.2916 19.8446 42.1822 19.7567 42.0748C19.6684 41.9678 19.5737 41.8678 19.4723 41.7752C19.4319 41.7383 19.386 41.7004 19.3348 41.6613C19.2836 41.6223 19.2301 41.591 19.1741 41.5676C19.118 41.5441 19.0612 41.5371 19.0026 41.5471C18.9442 41.5566 18.8897 41.5898 18.8389 41.6461C18.8039 41.6848 18.7895 41.7504 18.7961 41.8424C18.8028 41.9344 18.8198 42.0287 18.8461 42.1264C18.8725 42.2238 18.9053 42.3146 18.9438 42.3988C18.9825 42.4832 19.0172 42.5387 19.0481 42.566C19.1235 42.6328 19.2006 42.6992 19.2795 42.7654C19.3584 42.8316 19.4373 42.8996 19.5161 42.9693C19.6352 43.075 19.6948 43.1277 19.8141 43.2334C19.8721 43.2922 19.9297 43.3551 19.9875 43.4209C20.0454 43.4869 20.0967 43.5592 20.1446 43.6268C20.1916 43.6936 20.2377 43.7652 20.2723 43.84C20.3069 43.9146 20.328 43.9916 20.3362 44.0687C20.3442 44.1463 20.3383 44.2244 20.3186 44.3027C20.2987 44.3811 20.2565 44.4578 20.1913 44.5334C20.1186 44.6176 20.0362 44.6676 19.9442 44.684C19.8522 44.7002 19.7559 44.6947 19.6553 44.6682C19.5551 44.6414 19.4539 44.5978 19.352 44.5375C19.2504 44.4769 19.1539 44.4141 19.0629 44.3478C18.9719 44.2818 18.8914 44.2176 18.8217 44.1547C18.7518 44.092 18.6959 44.0428 18.6541 44.0074C18.5555 43.924 18.5063 43.8824 18.4079 43.799C18.275 43.6867 18.1413 43.5791 18.0065 43.4764C17.8717 43.3736 17.7393 43.268 17.61 43.1586C17.5401 43.0994 17.4518 43.0225 17.3457 42.9289C17.2397 42.8353 17.1475 42.7291 17.0711 42.6103C16.9948 42.4918 16.9506 42.3648 16.9393 42.2303C16.9276 42.0959 16.9821 41.9584 17.1028 41.8185C17.1571 41.7557 17.2213 41.7131 17.2954 41.6908C17.369 41.6689 17.4452 41.6584 17.5229 41.66C17.601 41.6611 17.6764 41.6723 17.7495 41.6934C17.8225 41.7143 17.8836 41.7348 17.9329 41.7549C17.9237 41.6687 17.9235 41.5756 17.9317 41.4766C17.9401 41.3775 17.9604 41.2756 17.9936 41.1701C18.0266 41.0646 18.0747 40.9564 18.1379 40.8457C18.2008 40.7353 18.2866 40.6209 18.3946 40.5031C18.5991 40.2805 18.8006 40.1469 18.9977 40.101C19.1948 40.0551 19.3809 40.0617 19.5563 40.1197C19.7317 40.1777 19.8952 40.2668 20.0459 40.3873C20.1969 40.5072 20.3286 40.6215 20.4411 40.7289C20.4973 40.7828 20.5748 40.8687 20.6737 40.9873C20.7729 41.1055 20.8764 41.2422 20.9852 41.3967C21.094 41.5512 21.1973 41.7182 21.2961 41.8967C21.3948 42.0754 21.4735 42.2504 21.5329 42.4209C21.592 42.5912 21.6202 42.7523 21.6166 42.9039C21.6122 43.0555 21.562 43.1838 21.4649 43.2894Z" fill="#152139"/>
<path d="M25.8295 37.4894C25.8828 37.5523 25.9492 37.637 26.0285 37.7437C26.1082 37.8503 26.1736 37.9642 26.2258 38.0851C26.2779 38.206 26.3022 38.328 26.2992 38.4511C26.2959 38.5743 26.2385 38.6841 26.1268 38.781C25.9731 38.9144 25.8195 38.9759 25.6645 38.9661C25.509 38.9568 25.3787 38.8888 25.2734 38.7618C25.2254 38.9757 25.1434 39.1839 25.0268 39.3882C24.91 39.5925 24.7676 39.7726 24.5977 39.93C24.4803 40.0388 24.3475 40.1189 24.1992 40.1706C24.051 40.2224 23.902 40.2503 23.7522 40.2538C23.6026 40.2577 23.4598 40.2376 23.3242 40.1935C23.1887 40.1493 23.0777 40.0831 22.9918 39.9941C22.8393 39.8363 22.7654 39.64 22.7719 39.4054C22.7787 39.1706 22.8315 38.9261 22.9307 38.6732C23.0297 38.42 23.1592 38.1738 23.3182 37.9355C23.4772 37.6972 23.6313 37.497 23.7789 37.3347C23.7639 37.3177 23.751 37.3013 23.741 37.2859C23.7311 37.2702 23.7184 37.2538 23.7029 37.2368C23.6086 37.131 23.4959 37.078 23.3647 37.0788C23.2332 37.0798 23.1004 37.1406 22.9672 37.2615C22.8598 37.3589 22.7811 37.4575 22.7307 37.5568C22.6801 37.6562 22.6371 37.7548 22.6018 37.8532C22.5668 37.9513 22.5287 38.0464 22.4881 38.1376C22.4471 38.2292 22.3848 38.3146 22.301 38.3939C22.2086 38.4814 22.1082 38.5327 21.9992 38.5488C21.8902 38.5642 21.8008 38.5359 21.7311 38.4634C21.6264 38.3546 21.5715 38.2161 21.5688 38.0484C21.566 37.8804 21.5985 37.7056 21.6662 37.5253C21.7344 37.3448 21.827 37.1673 21.9432 36.9943C22.0598 36.8208 22.1817 36.6767 22.3084 36.5616C22.4262 36.4548 22.5545 36.3591 22.6928 36.2753C22.8309 36.1915 22.9738 36.1259 23.1205 36.0792C23.2672 36.0323 23.4127 36.0052 23.5572 35.9978C23.7018 35.9902 23.8406 36.0107 23.9703 36.0532C24.1574 36.1146 24.341 36.195 24.5127 36.298C24.6846 36.4011 24.8475 36.5175 25.0026 36.647C25.1578 36.7765 25.3039 36.9134 25.4412 37.0579C25.5783 37.2025 25.708 37.3462 25.8295 37.4894ZM24.6684 38.2066C24.5369 38.0736 24.4711 38.0072 24.3395 37.8743C24.3307 37.8822 24.3217 37.8886 24.3117 37.8943C24.3016 37.9003 24.2924 37.907 24.284 37.9144C24.2289 37.9634 24.1701 38.0361 24.108 38.132C24.0459 38.228 23.9949 38.3298 23.9549 38.4372C23.9151 38.5447 23.8906 38.646 23.882 38.7409C23.8735 38.8359 23.8926 38.9083 23.9391 38.9589C23.9826 39.0062 24.0326 39.0191 24.0893 38.998C24.1463 38.9769 24.2016 38.9417 24.2553 38.8927C24.3465 38.8095 24.426 38.7019 24.4953 38.5685C24.5645 38.4357 24.6221 38.3152 24.6684 38.2066Z" fill="#152139"/>
<path d="M26.9615 32.0769C27.1591 32.3463 27.3423 32.6232 27.5116 32.9078C27.681 33.1923 27.8652 33.4689 28.0632 33.7379C28.2234 33.9554 28.39 34.1652 28.563 34.3673C28.7365 34.5693 28.9027 34.7795 29.0624 34.997C29.1058 35.0562 29.1558 35.1287 29.2122 35.215C29.2689 35.3011 29.313 35.3923 29.3454 35.4877C29.3779 35.5832 29.387 35.6787 29.3726 35.7748C29.3581 35.8709 29.3003 35.9566 29.1991 36.0324C29.0671 36.1312 28.9277 36.172 28.7798 36.1548C28.632 36.1379 28.5081 36.0873 28.4081 36.0023C28.4245 36.197 28.389 36.4004 28.3031 36.6121C28.2167 36.824 28.0837 37.0011 27.9032 37.1449C27.7101 37.2986 27.5001 37.3767 27.2716 37.38C27.0433 37.383 26.8191 37.3453 26.5982 37.2664C26.3775 37.1877 26.1738 37.083 25.988 36.9523C25.8021 36.8216 25.6574 36.6949 25.5544 36.572C25.481 36.4843 25.4034 36.3789 25.3228 36.2556C25.2421 36.1326 25.1699 35.9986 25.1062 35.855C25.0425 35.7115 24.9917 35.5619 24.9532 35.4064C24.9148 35.2509 24.9007 35.0949 24.9115 34.9379C24.9224 34.781 24.9642 34.6285 25.037 34.481C25.1099 34.3336 25.2222 34.1988 25.3736 34.0781C25.5388 33.9463 25.7281 33.8584 25.9394 33.8154C26.1511 33.772 26.3394 33.7769 26.5044 33.8289C26.263 33.4638 26.1423 33.281 25.9019 32.9152C25.8536 32.8427 25.7986 32.7564 25.7372 32.6566C25.6759 32.557 25.6281 32.4533 25.5952 32.3461C25.5624 32.239 25.5566 32.1308 25.5794 32.0213C25.6021 31.9123 25.6782 31.8086 25.8083 31.7107C25.9476 31.606 26.0759 31.5506 26.1911 31.5447C26.3062 31.5388 26.4115 31.5627 26.5062 31.6152C26.6005 31.6679 26.6853 31.7379 26.7601 31.8248C26.8347 31.9117 26.9019 31.9957 26.9615 32.0769ZM27.6634 35.3625C27.5991 35.2793 27.5341 35.1992 27.4683 35.1228C27.4025 35.0464 27.3396 34.965 27.2798 34.8781C27.2163 34.8519 27.145 34.8246 27.0656 34.7963C26.9857 34.7683 26.9005 34.75 26.8111 34.7416C26.7214 34.7332 26.6316 34.7379 26.5427 34.7552C26.454 34.7724 26.3736 34.8095 26.3013 34.8668C26.22 34.931 26.1704 35.0027 26.1523 35.0814C26.1343 35.1603 26.1363 35.2363 26.1583 35.3095C26.1804 35.383 26.214 35.4543 26.2587 35.524C26.3036 35.5935 26.3449 35.6515 26.3822 35.6978C26.4165 35.7406 26.4718 35.8006 26.5482 35.8769C26.6243 35.9539 26.7087 36.0255 26.8017 36.0918C26.8947 36.1582 26.9886 36.206 27.0839 36.2351C27.1792 36.2644 27.264 36.2498 27.3386 36.1906C27.3956 36.1455 27.445 36.0908 27.4866 36.0259C27.5282 35.9611 27.5626 35.8937 27.5896 35.8234C27.6165 35.7529 27.6386 35.6808 27.656 35.6064C27.673 35.5326 27.6872 35.4654 27.6976 35.4052C27.6835 35.3886 27.6767 35.3798 27.6634 35.3625Z" fill="#152139"/>
<path d="M31.7088 31.3364C31.7512 31.6831 31.7907 32.0482 31.8292 32.4314C31.8674 32.8144 31.8846 33.1851 31.8807 33.5431C31.8788 33.763 31.8499 33.9644 31.7934 34.1474C31.7368 34.3308 31.6295 34.4753 31.4711 34.5827C31.344 34.6689 31.184 34.6993 30.9901 34.6743C30.7963 34.6495 30.5965 34.5989 30.3907 34.5222C30.1848 34.4456 29.9907 34.3585 29.8085 34.2603C29.6258 34.1622 29.4805 34.0829 29.3833 34.0191C29.2756 33.9485 29.1565 33.8661 29.0276 33.7837C28.8987 33.7017 28.7731 33.6144 28.6504 33.5224C28.5274 33.4304 28.4122 33.3345 28.3042 33.2345C28.1963 33.1347 28.1047 33.0327 28.0295 32.929C27.9249 32.7845 27.8717 32.6421 27.8713 32.5013C27.8706 32.3609 27.9676 32.22 28.1635 32.081C28.2401 32.0267 28.3219 31.9956 28.409 31.9874C28.4963 31.9794 28.5885 31.9888 28.6858 32.0157C28.7831 32.0427 28.885 32.0819 28.9911 32.1335C29.0977 32.1851 29.2079 32.248 29.3204 32.3191C29.4293 32.388 29.5413 32.4616 29.6512 32.5413C29.7616 32.6212 29.8694 32.697 29.9741 32.7696C30.0788 32.8423 30.1829 32.9112 30.2856 32.9771C30.3883 33.0429 30.5034 33.0989 30.6303 33.1456C30.617 33.0554 30.602 32.9525 30.5856 32.8364C30.5692 32.7208 30.5526 32.5966 30.5362 32.4648C30.5198 32.3329 30.5057 32.195 30.4936 32.0521C30.4815 31.9091 30.4764 31.7659 30.4782 31.6222C30.4727 31.33 30.4973 31.0626 30.5522 30.82C30.6073 30.5777 30.7098 30.4089 30.8583 30.315C30.9969 30.2273 31.1167 30.1982 31.2172 30.2269C31.318 30.2558 31.4008 30.3228 31.4663 30.4276C31.5317 30.5325 31.5835 30.6652 31.6217 30.8243C31.66 30.9833 31.6887 31.1544 31.7088 31.3364Z" fill="#152139"/>
<path d="M35.9 30.3272C35.9735 30.4643 35.9922 30.627 35.9577 30.8145C35.9229 31.0024 35.8549 31.1903 35.7538 31.3791C35.6524 31.568 35.5309 31.743 35.3883 31.9047C35.2457 32.0662 35.1012 32.1897 34.9538 32.2744C34.7016 32.4197 34.4475 32.4987 34.1893 32.511C33.9309 32.5237 33.6866 32.4903 33.4567 32.4106C33.2266 32.3309 33.0166 32.2168 32.8288 32.0664C32.6409 31.9162 32.4897 31.75 32.3764 31.567C32.2559 31.3725 32.1608 31.1436 32.0922 30.8793C32.0237 30.6151 32.0028 30.3459 32.0303 30.0721C32.0575 29.7987 32.1432 29.533 32.2877 29.2768C32.4323 29.0207 32.6584 28.8028 32.9649 28.627C33.1381 28.5274 33.3176 28.4561 33.5028 28.4125C33.6875 28.3692 33.862 28.3572 34.0266 28.3764C34.1911 28.3953 34.3409 28.444 34.4758 28.5215C34.6108 28.5992 34.7174 28.7108 34.7957 28.8555C34.8983 29.0448 34.9438 29.2492 34.9332 29.4686C34.9225 29.6881 34.868 29.9033 34.7707 30.1143C34.6737 30.325 34.5409 30.5272 34.3717 30.7209C34.2028 30.9149 34.012 31.0793 33.7977 31.2155C33.8844 31.3186 33.9901 31.368 34.1143 31.3645C34.2385 31.361 34.3661 31.3213 34.4969 31.2463C34.5942 31.1905 34.6778 31.1168 34.7477 31.0244C34.8178 30.9324 34.8831 30.8365 34.9434 30.7371C35.004 30.6381 35.0663 30.5444 35.1303 30.4565C35.1942 30.369 35.2713 30.3004 35.3604 30.2518C35.4594 30.1979 35.5629 30.1756 35.6702 30.1854C35.7784 30.1947 35.8545 30.2424 35.9 30.3272ZM33.8774 29.5213C33.8481 29.4696 33.8002 29.4256 33.7334 29.3899C33.6666 29.3541 33.5954 29.3578 33.5196 29.401C33.409 29.4641 33.3293 29.5406 33.2803 29.6299C33.2317 29.7188 33.2028 29.8127 33.193 29.9108C33.1834 30.0092 33.1883 30.1057 33.2075 30.2006C33.2266 30.2957 33.2536 30.378 33.2881 30.4479C33.35 30.3955 33.4237 30.3313 33.5084 30.2553C33.5934 30.1793 33.6696 30.0996 33.7373 30.0158C33.8051 29.9322 33.8553 29.8469 33.8881 29.7596C33.9215 29.6727 33.9178 29.5932 33.8774 29.5213Z" fill="#152139"/>
<path d="M38.9431 30.3705C38.8589 30.4107 38.7771 30.4107 38.6966 30.3706C38.6165 30.3304 38.5443 30.2755 38.4794 30.205C38.4146 30.1347 38.3577 30.0593 38.3093 29.9785C38.2609 29.8976 38.2257 29.8347 38.2036 29.7892C38.1437 29.666 38.0923 29.5378 38.0499 29.406C38.0075 29.2742 37.9679 29.1404 37.9308 29.0058C37.8939 28.8716 37.8544 28.7376 37.8126 28.6056C37.7708 28.4736 37.7199 28.3455 37.6601 28.2218C37.6363 28.1724 37.6079 28.1203 37.5749 28.065C37.5419 28.0097 37.504 27.9607 37.4609 27.9179C37.4177 27.8753 37.3679 27.8474 37.3101 27.8347C37.2527 27.8218 37.1902 27.832 37.1228 27.865C37.0763 27.8876 37.039 27.9429 37.0113 28.0306C36.9837 28.1183 36.9646 28.2119 36.9532 28.3121C36.9419 28.4122 36.9388 28.5083 36.9435 28.6007C36.9482 28.6933 36.9599 28.7576 36.9784 28.7945C37.0236 28.8845 37.0702 28.9749 37.1189 29.0658C37.1673 29.1566 37.2154 29.2492 37.2622 29.3433C37.3335 29.4857 37.3691 29.557 37.4404 29.6994C37.4724 29.7755 37.5025 29.8552 37.5316 29.938C37.5607 30.0206 37.5816 30.1068 37.6009 30.1874C37.6199 30.2669 37.6361 30.3505 37.6406 30.4326C37.645 30.5146 37.6363 30.5935 37.6156 30.6681C37.5945 30.7429 37.5607 30.8128 37.5136 30.8779C37.4665 30.9429 37.3995 30.9978 37.3118 31.0431C37.214 31.0935 37.1199 31.1089 37.029 31.0894C36.9382 31.0697 36.8517 31.0285 36.7687 30.9662C36.6861 30.9037 36.6089 30.8253 36.5368 30.7312C36.4656 30.6371 36.3995 30.5425 36.3398 30.4472C36.28 30.3519 36.2294 30.2622 36.188 30.1781C36.1466 30.0939 36.113 30.0275 36.0874 29.9789C36.0271 29.8648 35.997 29.8078 35.9366 29.6937C35.8552 29.54 35.7714 29.3902 35.6847 29.2445C35.598 29.0988 35.5146 28.9513 35.4353 28.8017C35.3925 28.7206 35.3394 28.6164 35.2757 28.49C35.212 28.3638 35.1661 28.2308 35.139 28.0923C35.112 27.954 35.1177 27.8203 35.1564 27.6913C35.1947 27.5628 35.2952 27.4562 35.4577 27.3724C35.5308 27.3347 35.6056 27.3195 35.682 27.3267C35.7579 27.3341 35.832 27.3531 35.9033 27.3835C35.9749 27.414 36.0404 27.4527 36.0999 27.4996C36.1595 27.5464 36.2087 27.5882 36.2466 27.6253C36.2697 27.5421 36.3036 27.456 36.3476 27.3675C36.3915 27.2792 36.448 27.1923 36.5171 27.1072C36.5863 27.022 36.6702 26.94 36.7693 26.8613C36.8679 26.7828 36.989 26.7089 37.132 26.6406C37.4027 26.5111 37.6382 26.4628 37.837 26.4943C38.0359 26.5255 38.2056 26.6015 38.3464 26.7206C38.4872 26.84 38.6054 26.9839 38.7005 27.1517C38.7956 27.3193 38.8755 27.4744 38.9398 27.616C38.972 27.6869 39.0118 27.7958 39.0595 27.9423C39.1072 28.0888 39.1529 28.2542 39.1964 28.438C39.24 28.6218 39.2741 28.8154 39.2993 29.0175C39.3247 29.2197 39.3329 29.4117 39.3249 29.5915C39.3169 29.7716 39.2835 29.9312 39.2245 30.0703C39.1652 30.2091 39.0716 30.3091 38.9431 30.3705Z" fill="#152139"/>
<path d="M42.1793 29.0048C41.8178 29.1509 41.5219 29.229 41.2891 29.2355C41.0564 29.2421 40.8596 29.196 40.6988 29.096C40.5381 28.996 40.4031 28.8503 40.2945 28.6581C40.1859 28.4657 40.0775 28.246 39.9693 27.9986C39.8832 27.8015 39.8041 27.5997 39.733 27.3939C39.6617 27.188 39.5922 26.9646 39.5254 26.7241C39.4514 26.7564 39.3934 26.7829 39.3521 26.8036C39.3103 26.8245 39.2766 26.8406 39.2504 26.8521C39.0809 26.9269 38.9217 26.9632 38.7713 26.9607C38.6209 26.9583 38.5182 26.8972 38.4631 26.7763C38.4289 26.7013 38.4342 26.6181 38.4795 26.5275C38.525 26.4366 38.5947 26.3449 38.6881 26.2531C38.7814 26.1613 38.8887 26.0736 39.0092 25.9906C39.1297 25.9075 39.2478 25.8365 39.3629 25.7767C39.3121 25.6589 39.2668 25.524 39.2269 25.3716C39.1871 25.2199 39.1689 25.0691 39.1734 24.9202C39.1779 24.7716 39.2117 24.6339 39.2754 24.5075C39.3391 24.3814 39.4488 24.2853 39.6037 24.221C39.6926 24.1841 39.7799 24.1716 39.8658 24.1833C39.9518 24.195 40.0295 24.223 40.0986 24.2661C40.168 24.3093 40.2295 24.3652 40.2822 24.4324C40.335 24.4995 40.3764 24.5695 40.4055 24.6415C40.4398 24.7265 40.4672 24.8167 40.4867 24.9122C40.5062 25.0077 40.5207 25.1306 40.5307 25.2796C40.6199 25.2335 40.6807 25.2031 40.7125 25.1876C40.7443 25.1724 40.7736 25.1593 40.801 25.1484C40.8939 25.1111 40.9934 25.0786 41.0996 25.0515C41.2059 25.0243 41.3074 25.0091 41.4037 25.006C41.5004 25.0029 41.5857 25.0152 41.6594 25.0431C41.7326 25.071 41.7828 25.1197 41.809 25.188C41.8385 25.265 41.8252 25.3484 41.7693 25.4388C41.7139 25.529 41.6348 25.6187 41.5326 25.7075C41.4303 25.797 41.3166 25.8802 41.1914 25.9572C41.0662 26.0343 40.9465 26.1013 40.8318 26.1579C40.8705 26.3449 40.9135 26.514 40.9598 26.6656C41.0062 26.8169 41.0564 26.9728 41.0973 27.1249C41.1172 27.1993 41.1369 27.2782 41.1596 27.3554C41.1822 27.4327 41.2092 27.5093 41.2406 27.5855C41.2633 27.6408 41.2924 27.7042 41.3279 27.7761C41.3635 27.8482 41.4111 27.9115 41.4699 27.9665C41.5287 28.0214 41.6016 28.0599 41.6887 28.081C41.7758 28.1025 41.8787 28.0892 41.998 28.0413C42.0705 28.0124 42.1437 27.9771 42.2172 27.9357C42.291 27.8941 42.3668 27.8581 42.4451 27.8275C42.5803 27.7747 42.693 27.7753 42.7824 27.8292C42.8719 27.8831 42.9394 27.97 42.9851 28.0898C43.0195 28.1796 43.017 28.2698 42.9781 28.3609C42.9387 28.4521 42.8787 28.5365 42.7971 28.615C42.7154 28.6935 42.6185 28.7671 42.5074 28.8359C42.3951 28.9056 42.2859 28.9618 42.1793 29.0048Z" fill="#152139"/>
<path d="M46.1049 25.2647C46.1791 25.5053 46.2225 25.7526 46.2361 26.0072C46.25 26.2617 46.2162 26.5035 46.1365 26.7326C46.0568 26.9621 45.9203 27.1701 45.7283 27.358C45.5363 27.5459 45.2713 27.6969 44.9322 27.8137C44.5986 27.9287 44.3016 27.9727 44.0383 27.9438C43.775 27.9151 43.5438 27.836 43.3432 27.7057C43.143 27.5752 42.9715 27.4076 42.8303 27.202C42.6893 26.9963 42.5732 26.7758 42.4836 26.5403C42.3859 26.2838 42.3262 26.0151 42.3063 25.7338C42.2969 25.6592 42.2918 25.552 42.292 25.4125C42.2922 25.2731 42.3074 25.1305 42.3375 24.985C42.3676 24.8397 42.4147 24.7059 42.4797 24.5844C42.5447 24.4629 42.6357 24.3809 42.7524 24.3387C42.8631 24.2987 42.9607 24.2904 43.0443 24.3143C43.1274 24.3381 43.2014 24.3787 43.2652 24.4362C43.3291 24.4938 43.3807 24.561 43.4197 24.6365C43.4588 24.7123 43.49 24.7826 43.5127 24.8475C43.5477 24.9469 43.5721 25.0477 43.5863 25.149C43.6006 25.2508 43.6111 25.3565 43.6254 25.4557C43.6445 25.5895 43.6748 25.7295 43.7018 25.8654C43.7287 26.0014 43.7652 26.1344 43.8113 26.2639C43.8344 26.3285 43.8643 26.399 43.9006 26.4762C43.9369 26.5533 43.9842 26.6227 44.0422 26.6848C44.1 26.7469 44.1668 26.7924 44.2428 26.8215C44.3188 26.8506 44.4092 26.8467 44.5154 26.81C44.6539 26.7621 44.7537 26.6944 44.816 26.6053C44.8779 26.5168 44.9137 26.4199 44.9234 26.3154C44.9332 26.211 44.9262 26.1045 44.9024 25.9967C44.8785 25.8891 44.8518 25.7916 44.8227 25.7047C44.759 25.5137 44.6803 25.3315 44.5856 25.1578C44.491 24.9844 44.3977 24.8069 44.3057 24.6252C44.293 24.6055 44.2801 24.5762 44.267 24.5371C44.2451 24.4721 44.2367 24.4024 44.2428 24.3279C44.2488 24.2535 44.268 24.1819 44.3006 24.1131C44.3336 24.0442 44.3811 23.9813 44.443 23.9246C44.5049 23.8682 44.5807 23.825 44.6705 23.7957C44.7936 23.7557 44.9145 23.7541 45.0311 23.7914C45.1481 23.8285 45.2561 23.8904 45.3535 23.9774C45.4516 24.0641 45.5424 24.1676 45.6256 24.2879C45.7088 24.4082 45.7828 24.5291 45.8477 24.6502C45.9127 24.7715 45.9668 24.8879 46.0102 24.9988C46.0531 25.1102 46.0848 25.199 46.1049 25.2647Z" fill="#152139"/>
<path d="M49.3454 23.7421C49.2681 23.7644 49.1981 23.7773 49.1382 23.7757C49.0778 23.7742 49.0163 23.7724 48.9565 23.7679C48.9017 23.7638 48.8464 23.7593 48.7915 23.7568C48.737 23.7541 48.6786 23.7642 48.6181 23.7834C48.5087 23.8179 48.4132 23.8673 48.338 23.9345C48.2624 24.0017 48.1987 24.0777 48.1466 24.1628C48.0944 24.2478 48.0544 24.3382 48.0265 24.4334C47.9983 24.5287 47.9798 24.6212 47.9753 24.707C47.9724 24.7632 47.9827 24.8486 48.004 24.9587C48.0255 25.0693 48.0567 25.1882 48.087 25.3097C48.1184 25.4357 48.1468 25.5615 48.1782 25.6761C48.2097 25.791 48.2267 25.8861 48.2366 25.9519C48.2472 26.0216 48.2599 26.1109 48.2643 26.2113C48.269 26.3119 48.2599 26.4111 48.2376 26.5072C48.2151 26.6035 48.1743 26.6912 48.1157 26.7691C48.0571 26.8472 47.9694 26.9031 47.8522 26.9367C47.7618 26.9626 47.6772 26.963 47.5981 26.9386C47.5188 26.9138 47.4458 26.8722 47.3796 26.813C47.3126 26.7539 47.2505 26.6804 47.1925 26.5927C47.1345 26.505 47.0819 26.4128 47.0362 26.3169C46.9888 26.2171 46.9452 26.1148 46.9058 26.0119C46.8663 25.9089 46.8313 25.8105 46.8003 25.7173C46.7692 25.6242 46.7433 25.5371 46.7227 25.4576C46.7022 25.3781 46.6849 25.3126 46.6698 25.2654C46.6222 25.1154 46.5626 24.9617 46.5024 24.8103C46.4421 24.6589 46.3886 24.5064 46.3427 24.3529C46.3138 24.2564 46.2874 24.1472 46.2632 24.0255C46.239 23.9041 46.2366 23.7839 46.2567 23.6656C46.2765 23.5476 46.3255 23.4386 46.4042 23.3394C46.4827 23.2402 46.6102 23.1648 46.7864 23.1144C46.8833 23.0867 46.9726 23.0876 47.0544 23.1169C47.1364 23.1462 47.2087 23.1904 47.2706 23.249C47.3327 23.3076 47.3864 23.3736 47.4308 23.4466C47.4751 23.5195 47.5095 23.5888 47.5333 23.6533C47.6212 23.4441 47.7362 23.2623 47.878 23.1082C48.02 22.9543 48.228 22.8367 48.5005 22.7576C48.637 22.7181 48.7761 22.6939 48.9171 22.6847C49.0581 22.6757 49.1913 22.6857 49.3171 22.7142C49.4425 22.7429 49.5513 22.7935 49.6438 22.8656C49.7366 22.9378 49.7987 23.0359 49.8339 23.1523C49.8757 23.2908 49.8501 23.414 49.7487 23.5179C49.6479 23.6216 49.5102 23.6943 49.3454 23.7421Z" fill="#152139"/>
<path d="M53.883 24.1791C53.9088 24.3324 53.8734 24.4927 53.7785 24.6597C53.6832 24.8269 53.556 24.9838 53.3969 25.131C53.2371 25.2783 53.0629 25.4058 52.8728 25.5142C52.6828 25.6226 52.5033 25.6937 52.3338 25.7277C52.0437 25.7859 51.7736 25.7804 51.5217 25.7105C51.2693 25.6408 51.0457 25.5322 50.851 25.3838C50.6558 25.2355 50.492 25.0607 50.3605 24.8586C50.2293 24.6564 50.1383 24.451 50.0892 24.2414C50.0371 24.0185 50.0203 23.7711 50.0406 23.4986C50.0609 23.226 50.1285 22.9638 50.2443 22.7125C50.3595 22.4615 50.5285 22.2363 50.751 22.0388C50.9734 21.8414 51.2621 21.706 51.6142 21.6361C51.8135 21.5965 52.0095 21.5855 52.2019 21.6027C52.3939 21.6201 52.566 21.664 52.7181 21.7342C52.8703 21.8043 52.9988 21.8978 53.1033 22.0142C53.208 22.1308 53.274 22.2703 53.3019 22.4326C53.3386 22.6447 53.3154 22.8533 53.2332 23.058C53.1508 23.2629 53.0279 23.45 52.8648 23.6195C52.7023 23.789 52.5082 23.9386 52.282 24.0691C52.056 24.1998 51.8187 24.2955 51.5683 24.357C51.6181 24.4822 51.7033 24.5627 51.824 24.5986C51.9447 24.6345 52.0801 24.6373 52.2306 24.6074C52.3426 24.5851 52.4471 24.5416 52.5447 24.4761C52.6424 24.4109 52.7365 24.3406 52.8271 24.2654C52.9178 24.1904 53.0086 24.1213 53.0992 24.0582C53.1894 23.9953 53.2863 23.9547 53.3881 23.9369C53.5012 23.917 53.6082 23.9289 53.7084 23.972C53.809 24.015 53.867 24.0843 53.883 24.1791ZM52.1988 22.774C52.1875 22.7156 52.156 22.6588 52.1035 22.6037C52.051 22.5486 51.981 22.5295 51.8941 22.5467C51.7672 22.5717 51.6656 22.6189 51.5892 22.6883C51.5135 22.7574 51.4549 22.8373 51.4135 22.9273C51.372 23.0177 51.3453 23.1109 51.3326 23.207C51.3199 23.3033 51.3189 23.39 51.3295 23.4674C51.406 23.4373 51.4978 23.3996 51.6043 23.3543C51.7107 23.3092 51.8101 23.2576 51.9027 23.1994C51.9953 23.1414 52.0715 23.0763 52.1318 23.0037C52.1918 22.9316 52.2144 22.8549 52.1988 22.774Z" fill="#152139"/>
<path d="M25.6208 44.511C25.6665 44.5561 25.7146 44.6035 25.765 44.6533C25.8154 44.7031 25.8617 44.7527 25.9037 44.801C25.9548 44.8596 26.0275 44.9346 26.1203 45.026C26.2132 45.1178 26.3099 45.2201 26.4105 45.3334C26.5107 45.4467 26.6087 45.5658 26.7037 45.6912C26.799 45.8162 26.8746 45.9416 26.9316 46.0664C26.9884 46.1914 27.0171 46.3111 27.0179 46.425C27.0187 46.5387 26.9775 46.6414 26.8966 46.733C26.8353 46.8026 26.7564 46.8365 26.6593 46.8322C26.5622 46.8279 26.4568 46.801 26.3433 46.7514C26.2294 46.7018 26.1132 46.6348 25.9951 46.5502C25.8763 46.4658 25.7646 46.3809 25.6593 46.2959C25.5542 46.2106 25.4599 46.1287 25.3767 46.0504C25.2933 45.9721 25.2318 45.9139 25.1917 45.8764C25.1384 45.8262 25.0626 45.7549 24.9642 45.6621C24.866 45.5697 24.7636 45.4664 24.6572 45.3524C24.5513 45.2381 24.4494 45.1158 24.3525 44.985C24.2558 44.8543 24.1779 44.7235 24.1195 44.592C24.0611 44.4608 24.0329 44.3342 24.0353 44.2123C24.0376 44.0904 24.0867 43.9801 24.182 43.8815C24.2814 43.7787 24.4011 43.7444 24.541 43.7783C24.681 43.8119 24.8222 43.874 24.9656 43.9633C25.1085 44.0529 25.2394 44.1533 25.3589 44.2635C25.4783 44.3736 25.5656 44.4563 25.6208 44.511ZM23.915 42.9166C23.9607 42.9615 23.9872 43.0162 23.9949 43.0799C24.0029 43.1438 23.9982 43.2123 23.981 43.2854C23.964 43.3584 23.9371 43.4287 23.8999 43.4965C23.8626 43.5647 23.822 43.6215 23.7777 43.6676C23.7038 43.7444 23.6228 43.7957 23.5347 43.8219C23.4462 43.8485 23.3671 43.8285 23.2974 43.7623C23.2478 43.7151 23.2175 43.6586 23.2072 43.5932C23.1968 43.5279 23.1999 43.4617 23.216 43.3951C23.232 43.3289 23.2595 43.2621 23.2988 43.1947C23.3378 43.1277 23.3818 43.0692 23.4306 43.019C23.5019 42.9455 23.5828 42.8924 23.6726 42.8596C23.7624 42.827 23.8433 42.8459 23.915 42.9166Z" fill="#152139"/>
<path d="M26.7531 41.5959C26.8426 41.6941 26.8713 41.8009 26.8394 41.917C26.8074 42.0334 26.7652 42.1547 26.7125 42.2816C26.6597 42.4086 26.623 42.5353 26.6027 42.6613C26.5824 42.7873 26.626 42.907 26.7328 43.0201C26.7892 43.0798 26.8541 43.1164 26.9265 43.1298C26.9992 43.1429 27.0754 43.1453 27.1549 43.1363C27.2344 43.1275 27.3193 43.1156 27.4095 43.1006C27.5002 43.0851 27.5904 43.0797 27.6804 43.0836C27.7707 43.0877 27.8627 43.1086 27.956 43.1472C28.0498 43.1855 28.1412 43.2541 28.2306 43.3519C28.3603 43.4937 28.448 43.6693 28.4947 43.8783C28.5414 44.0875 28.5533 44.3006 28.5314 44.5187C28.509 44.7369 28.4537 44.9482 28.3648 45.1533C28.276 45.3584 28.1605 45.5306 28.0174 45.6709C27.9578 45.7291 27.8945 45.7834 27.8273 45.8339C27.7599 45.8843 27.6918 45.9214 27.6224 45.9455C27.5531 45.9695 27.4824 45.9771 27.4103 45.9681C27.3388 45.9591 27.2703 45.9224 27.2052 45.8578C27.1144 45.7675 27.0631 45.6781 27.0513 45.5892C27.0398 45.5004 27.0492 45.4115 27.0802 45.3226C27.1109 45.234 27.1531 45.147 27.2066 45.0623C27.2599 44.9779 27.3051 44.8937 27.342 44.8097C27.3787 44.7261 27.3976 44.6455 27.3992 44.5675C27.4008 44.4898 27.3668 44.4146 27.2969 44.342C27.2303 44.2728 27.1312 44.2297 26.9996 44.2138C26.8679 44.198 26.725 44.1838 26.5707 44.1716C26.4162 44.1593 26.2625 44.1359 26.1088 44.1011C25.9552 44.0664 25.8219 43.9923 25.709 43.8789C25.5703 43.7392 25.474 43.5785 25.4217 43.3953C25.3693 43.2121 25.3553 43.0218 25.3801 42.825C25.4051 42.6281 25.4656 42.4343 25.5621 42.2439C25.6582 42.0537 25.7879 41.8822 25.9504 41.7302C26.0125 41.6722 26.0779 41.6205 26.1476 41.5748C26.217 41.5293 26.2871 41.4974 26.3572 41.4798C26.4271 41.4621 26.4957 41.4613 26.5635 41.4769C26.6316 41.4916 26.6945 41.5316 26.7531 41.5959Z" fill="#152139"/>
<path d="M31.3837 39.2349C31.394 39.2525 31.41 39.274 31.421 39.2972C31.4321 39.3203 31.4405 39.3441 31.4462 39.3685C31.4727 39.4804 31.4688 39.5935 31.435 39.7086C31.4006 39.8238 31.3317 39.9211 31.2272 40.0015C31.0702 40.1226 30.9096 40.1349 30.7434 40.0382C30.7212 40.0267 30.7008 40.0091 30.6825 39.9855C30.6641 39.9621 30.643 39.9394 30.6194 39.9173C30.5704 39.8547 30.5458 39.8234 30.4965 39.7607C30.4487 39.7168 30.4038 39.688 30.3608 39.6752C30.3178 39.6623 30.2721 39.675 30.2235 39.7132C30.1545 39.7677 30.1192 39.8584 30.1182 39.9849C30.117 40.1119 30.136 40.2463 30.1745 40.3882C30.2131 40.5304 30.2635 40.6677 30.3251 40.8004C30.3866 40.933 30.4448 41.0332 30.4995 41.1007C30.5426 41.1541 30.5991 41.216 30.669 41.2859C30.7385 41.3562 30.8139 41.4173 30.8948 41.4697C30.9753 41.5224 31.0573 41.558 31.1393 41.5771C31.2212 41.5963 31.2952 41.5798 31.3612 41.5273C31.4272 41.4748 31.4735 41.4074 31.5003 41.3252C31.5268 41.2429 31.5467 41.1529 31.5635 41.0617C31.5786 40.9798 31.6014 40.8898 31.6262 40.7953C31.6508 40.7009 31.7028 40.623 31.7825 40.5619C31.8817 40.4857 31.9852 40.4588 32.0926 40.4808C32.2003 40.5025 32.2856 40.5558 32.3489 40.6398C32.4428 40.764 32.4948 40.9068 32.5057 41.0677C32.5169 41.2289 32.4999 41.3886 32.4553 41.547C32.4106 41.7058 32.3426 41.8568 32.2516 42.0007C32.1602 42.1451 32.0581 42.2623 31.9442 42.3533C31.7393 42.5168 31.528 42.6091 31.3081 42.6295C31.0883 42.65 30.8741 42.624 30.6653 42.5507C30.4565 42.4777 30.2606 42.3718 30.0782 42.2324C29.8954 42.0931 29.7387 41.947 29.6086 41.7931C29.4581 41.615 29.3217 41.399 29.2014 41.1443C29.0809 40.89 29.0034 40.6246 28.9698 40.3492C28.9364 40.0734 28.9628 39.7994 29.0501 39.5279C29.137 39.2568 29.3112 39.0166 29.5717 38.8113C29.7333 38.6841 29.8975 38.6058 30.0637 38.5757C30.2299 38.5459 30.3899 38.5517 30.5428 38.5933C30.6954 38.6347 30.8389 38.7035 30.9717 38.798C31.1049 38.8923 31.2169 39.0002 31.3077 39.1209C31.3215 39.1392 31.3352 39.1574 31.3489 39.1755C31.3626 39.1935 31.3729 39.217 31.3837 39.2349Z" fill="#152139"/>
<path d="M34.5389 40.4479C34.3361 40.5897 34.1246 40.6645 33.9024 40.6719C33.6801 40.6795 33.4608 40.6438 33.244 40.5643C33.0274 40.4846 32.8227 40.3699 32.6305 40.219C32.4381 40.068 32.2733 39.9014 32.1367 39.7178C31.992 39.5233 31.8688 39.3026 31.7682 39.0553C31.6676 38.8078 31.6102 38.5571 31.5977 38.3026C31.5848 38.0483 31.6281 37.8016 31.7281 37.5639C31.8281 37.326 32.0035 37.1188 32.2533 36.9449C32.4947 36.7772 32.7416 36.6932 32.9912 36.693C33.2404 36.6932 33.4746 36.7463 33.6932 36.8512C33.9119 36.9563 34.1102 37.0987 34.2885 37.2772C34.4666 37.4561 34.6088 37.643 34.7164 37.834C34.8354 38.0449 34.9358 38.2729 35.0154 38.5164C35.0951 38.7598 35.136 38.9989 35.1387 39.2334C35.141 39.4682 35.0965 39.6908 35.0047 39.9026C34.9123 40.1139 34.7574 40.2949 34.5389 40.4479ZM32.8238 37.8608C32.7606 37.9049 32.7258 37.974 32.7195 38.068C32.7133 38.1619 32.725 38.2631 32.7543 38.3709C32.7836 38.4789 32.8242 38.5865 32.875 38.6936C32.9262 38.8004 32.9772 38.8893 33.0274 38.9602C33.091 39.0496 33.1692 39.1405 33.2615 39.2315C33.3539 39.3233 33.4475 39.4014 33.5424 39.466C33.6369 39.5311 33.7278 39.5762 33.8152 39.6014C33.9028 39.6266 33.977 39.618 34.0377 39.5756C34.1024 39.5305 34.1389 39.4633 34.1469 39.3744C34.1545 39.2858 34.1432 39.1879 34.1123 39.0815C34.0815 38.975 34.0369 38.8657 33.9783 38.7532C33.9195 38.641 33.859 38.5393 33.7971 38.4487C33.7404 38.3658 33.6694 38.2797 33.584 38.1912C33.4988 38.1026 33.4106 38.0256 33.3194 37.9606C33.2279 37.8957 33.1385 37.8516 33.051 37.8289C32.9629 37.8059 32.8873 37.8164 32.8238 37.8608Z" fill="#152139"/>
<path d="M38.8225 34.9552C38.8629 35.0322 38.918 35.1365 38.9872 35.2679C39.0565 35.3995 39.1284 35.5441 39.203 35.7013C39.2776 35.8587 39.3446 36.0212 39.4049 36.1884C39.4653 36.356 39.5061 36.5146 39.5272 36.6638C39.5483 36.813 39.5457 36.9468 39.5202 37.0644C39.4944 37.182 39.4286 37.2693 39.3217 37.3275C39.2276 37.3787 39.136 37.3806 39.0461 37.3333C38.9561 37.2863 38.8729 37.2185 38.7959 37.1302C38.7192 37.0421 38.6506 36.9466 38.5907 36.8437C38.5309 36.7408 38.4844 36.6593 38.451 36.5992C38.3512 36.4189 38.2604 36.239 38.1782 36.0597C38.0963 35.8802 38.0053 35.7001 37.9057 35.5199C37.8948 35.4999 37.8748 35.4638 37.8459 35.4117C37.8172 35.3599 37.784 35.3101 37.7461 35.2632C37.7084 35.216 37.6682 35.1779 37.6262 35.149C37.5842 35.1203 37.5424 35.1169 37.5018 35.1396C37.4211 35.1845 37.377 35.2579 37.3694 35.3595C37.3618 35.4609 37.3707 35.5701 37.3961 35.6872C37.4215 35.8044 37.4551 35.9158 37.4973 36.0204C37.5395 36.1253 37.5747 36.2042 37.5948 36.2533C37.6168 36.3072 37.6522 36.3917 37.7045 36.4988C37.7567 36.6062 37.8127 36.7245 37.8721 36.8536C37.9315 36.9833 37.986 37.1195 38.0366 37.2619C38.0868 37.4044 38.1237 37.5388 38.1483 37.6646C38.1727 37.7904 38.1768 37.9027 38.1612 38.0017C38.1454 38.1005 38.0977 38.1732 38.0182 38.2197C37.9176 38.2785 37.8161 38.2826 37.7127 38.232C37.6094 38.1814 37.5122 38.1087 37.4213 38.0138C37.3305 37.9187 37.2481 37.8161 37.1735 37.706C37.0993 37.5958 37.0432 37.5091 37.0057 37.4464C36.9659 37.3796 36.9282 37.3142 36.8928 37.2501C36.8575 37.1861 36.8198 37.1204 36.7797 37.0535C36.7633 37.0261 36.7364 36.9808 36.6989 36.9179C36.6614 36.855 36.6186 36.7859 36.5707 36.7107C36.5229 36.6351 36.4711 36.5583 36.4153 36.4796C36.3592 36.4011 36.3043 36.3314 36.2502 36.2703C36.1957 36.2095 36.1426 36.1656 36.0903 36.138C36.0379 36.1105 35.9944 36.1074 35.9594 36.1285C35.9024 36.1628 35.8694 36.2271 35.8604 36.3206C35.8514 36.4146 35.8567 36.5158 35.8754 36.6251C35.8946 36.7341 35.9207 36.8376 35.954 36.9353C35.9873 37.0327 36.0159 37.1013 36.0399 37.1402C36.0485 37.1542 36.0528 37.1613 36.0614 37.1753C36.1764 37.3626 36.302 37.538 36.4373 37.7017C36.5729 37.8658 36.6975 38.0415 36.8123 38.229C36.8791 38.3382 36.9032 38.4619 36.8848 38.5994C36.8665 38.7369 36.7915 38.8464 36.6594 38.929C36.5649 38.9882 36.4653 39.0036 36.361 38.9751C36.2567 38.9466 36.1489 38.8915 36.0387 38.8097C35.9286 38.7283 35.8206 38.6302 35.7149 38.5158C35.6092 38.4013 35.5122 38.2843 35.4231 38.1648C35.3344 38.0451 35.2563 37.9349 35.1885 37.8341C35.1206 37.7337 35.0709 37.6581 35.0385 37.6079C35.0014 37.5501 34.9456 37.4665 34.8717 37.3564C34.7977 37.246 34.7219 37.1234 34.6444 36.9882C34.5666 36.8533 34.4922 36.712 34.4219 36.564C34.3516 36.416 34.3 36.2736 34.268 36.1367C34.236 35.9997 34.2295 35.8747 34.2481 35.7628C34.2666 35.6507 34.3274 35.5622 34.4297 35.4982C34.5454 35.4257 34.6573 35.3939 34.7645 35.4027C34.8715 35.4119 34.9588 35.471 35.026 35.5802C35.0405 35.6037 35.0538 35.6277 35.0659 35.6525C35.0778 35.6775 35.0875 35.7009 35.0952 35.723C35.1057 35.6308 35.1266 35.5306 35.1584 35.4224C35.1903 35.3146 35.2317 35.2091 35.2829 35.1062C35.3338 35.0031 35.3971 34.9066 35.4719 34.8165C35.5469 34.7265 35.6321 34.6537 35.727 34.5978C35.818 34.5443 35.9125 34.5183 36.0102 34.5197C36.1082 34.521 36.2034 34.5388 36.2956 34.573C36.3877 34.607 36.4735 34.6515 36.5528 34.7062C36.6321 34.7611 36.6977 34.8185 36.7498 34.8783C36.7539 34.7812 36.768 34.6771 36.7924 34.566C36.8165 34.4552 36.852 34.3499 36.8979 34.2507C36.9444 34.1513 37.0047 34.0576 37.0793 33.9695C37.1536 33.8814 37.2413 33.8097 37.343 33.7542C37.4401 33.7013 37.5399 33.6867 37.6416 33.7099C37.7432 33.7329 37.8448 33.7788 37.9461 33.8466C38.0475 33.9146 38.1436 34.0009 38.2344 34.1056C38.3252 34.2103 38.4098 34.316 38.4889 34.4214C38.5678 34.5273 38.6358 34.6285 38.6926 34.7253C38.7493 34.8218 38.7926 34.8986 38.8225 34.9552Z" fill="#152139"/>
<path d="M40.3684 33.9594C40.3963 34.0172 40.4258 34.078 40.4567 34.1418C40.4875 34.2057 40.5145 34.268 40.5381 34.3274C40.5668 34.3996 40.6102 34.4946 40.667 34.6119C40.7239 34.7295 40.7811 34.8584 40.8377 34.9987C40.8944 35.1387 40.9467 35.2844 40.9946 35.4338C41.0424 35.5832 41.0725 35.727 41.0844 35.8633C41.0965 35.9998 41.0836 36.1223 41.0469 36.2295C41.0102 36.3367 40.9373 36.4196 40.8313 36.4783C40.7506 36.5231 40.6655 36.5285 40.5758 36.4916C40.4862 36.4549 40.3961 36.3942 40.3061 36.3092C40.2156 36.2242 40.1289 36.1221 40.0457 36.0028C39.9621 35.8834 39.8856 35.766 39.8147 35.6506C39.7442 35.535 39.6828 35.4262 39.6305 35.3244C39.5781 35.2227 39.5397 35.1475 39.5145 35.0985C39.4811 35.0334 39.4334 34.9407 39.3717 34.8205C39.3102 34.7004 39.2479 34.569 39.186 34.4258C39.1242 34.283 39.0692 34.1334 39.0215 33.9778C38.9739 33.8223 38.9442 33.6731 38.9326 33.5299C38.9213 33.3869 38.9365 33.2584 38.9791 33.1448C39.0217 33.0311 39.1039 32.9436 39.2262 32.883C39.3533 32.8199 39.4772 32.828 39.5973 32.9069C39.7176 32.9856 39.8297 33.0914 39.9346 33.2237C40.0393 33.3561 40.1291 33.4948 40.2045 33.6383C40.2801 33.7821 40.3346 33.8895 40.3684 33.9594ZM39.2946 31.886C39.3225 31.9438 39.3293 32.0039 39.3156 32.0664C39.302 32.1291 39.2748 32.1922 39.2348 32.2549C39.1947 32.318 39.1461 32.375 39.0889 32.4262C39.0313 32.4778 38.9744 32.5176 38.9176 32.5459C38.8231 32.5932 38.7301 32.6143 38.6387 32.6092C38.5469 32.6043 38.4793 32.559 38.4358 32.4733C38.4047 32.4123 38.3951 32.3489 38.4071 32.2838C38.419 32.219 38.4436 32.1578 38.4807 32.1006C38.5176 32.0438 38.5655 31.9903 38.6246 31.9401C38.6834 31.8903 38.7442 31.85 38.8065 31.8192C38.8977 31.774 38.991 31.7512 39.0864 31.7506C39.1809 31.7504 39.2506 31.7953 39.2946 31.886Z" fill="#152139"/>
<path d="M43.8801 35.2777C43.8037 35.3099 43.7295 35.3029 43.6567 35.2568C43.5842 35.2105 43.5188 35.1505 43.46 35.0759C43.4012 35.0015 43.3498 34.9228 43.3061 34.8394C43.2623 34.756 43.2305 34.6913 43.2104 34.645C43.1561 34.5191 43.1096 34.3896 43.0715 34.2564C43.033 34.1234 42.9975 33.9892 42.9641 33.854C42.9305 33.7193 42.8951 33.5849 42.8576 33.4517C42.8197 33.3185 42.774 33.1888 42.7201 33.0624C42.6986 33.012 42.6731 32.9583 42.6432 32.9015C42.6133 32.8445 42.5791 32.7933 42.5399 32.7478C42.5006 32.7023 42.4553 32.6708 42.4027 32.6535C42.3504 32.6359 42.2934 32.6408 42.232 32.6673C42.1897 32.6857 42.1553 32.7367 42.1299 32.8202C42.1045 32.9038 42.0867 32.9939 42.0762 33.0911C42.0656 33.1884 42.0625 33.2822 42.0664 33.373C42.0705 33.464 42.0811 33.5281 42.0979 33.5658C42.1387 33.6577 42.1811 33.7503 42.2252 33.8435C42.2692 33.9365 42.3127 34.0312 42.3553 34.1275C42.4199 34.273 42.4522 34.3458 42.5168 34.4913C42.5457 34.5687 42.5731 34.6493 42.5994 34.7327C42.6258 34.8161 42.6447 34.9023 42.6621 34.9827C42.6793 35.0624 42.694 35.1454 42.6981 35.2261C42.7022 35.3068 42.6942 35.3833 42.6754 35.4544C42.6563 35.5257 42.6254 35.5913 42.5828 35.6507C42.5402 35.7101 42.4793 35.7581 42.3996 35.7947C42.3108 35.8355 42.2252 35.8421 42.1428 35.815C42.0602 35.7878 41.9815 35.7398 41.9059 35.6716C41.8307 35.6033 41.7604 35.5201 41.6947 35.4218C41.6297 35.3236 41.5695 35.2253 41.5151 35.1271C41.4606 35.0288 41.4145 34.9368 41.3768 34.8507C41.3391 34.7648 41.3084 34.697 41.285 34.6472C41.2299 34.5304 41.2024 34.4722 41.1475 34.3554C41.0733 34.198 40.9967 34.0445 40.9178 33.8945C40.8389 33.7445 40.7627 33.5933 40.6904 33.4402C40.6514 33.3574 40.6029 33.2507 40.5449 33.1216C40.4869 32.9927 40.4449 32.8589 40.4205 32.721C40.3961 32.5835 40.4014 32.4531 40.4371 32.3304C40.4725 32.2079 40.5647 32.112 40.7133 32.0439C40.7803 32.0132 40.8486 32.0046 40.9186 32.0181C40.9879 32.0318 41.0557 32.0566 41.1205 32.0925C41.186 32.1283 41.2455 32.1718 41.2998 32.2228C41.3541 32.2736 41.3988 32.3189 41.4334 32.3583C41.4547 32.2788 41.4861 32.1972 41.5264 32.1142C41.5668 32.0314 41.6186 31.9509 41.682 31.8732C41.7455 31.7954 41.8225 31.722 41.9133 31.6531C42.0037 31.5841 42.1145 31.5218 42.2453 31.4665C42.493 31.3618 42.7078 31.3339 42.8891 31.381C43.0701 31.4281 43.2242 31.5163 43.3518 31.6452C43.4793 31.774 43.586 31.9249 43.6715 32.0978C43.7572 32.2702 43.8287 32.4292 43.8865 32.5738C43.9154 32.646 43.951 32.7566 43.9938 32.9042C44.0365 33.0521 44.0772 33.2183 44.1158 33.4025C44.1545 33.5867 44.1848 33.7794 44.207 33.98C44.2293 34.1806 44.236 34.3697 44.2283 34.5456C44.2205 34.7216 44.1899 34.8755 44.1361 35.0068C44.0815 35.1384 43.9967 35.2284 43.8801 35.2777Z" fill="#152139"/>
<path d="M47.5573 31.227C47.6276 31.4496 47.6942 31.6736 47.7573 31.8982C47.8202 32.1229 47.8768 32.351 47.9294 32.5783C47.9747 32.774 48.0221 32.9859 48.068 33.2113C48.1139 33.4369 48.1458 33.6658 48.1641 33.8979C48.1823 34.1299 48.1823 34.3582 48.1645 34.583C48.1468 34.8078 48.0964 35.0182 48.0141 35.2146C47.9317 35.4109 47.8132 35.5863 47.6573 35.7414C47.5016 35.8969 47.296 36.0199 47.0401 36.1123C46.9212 36.1553 46.7811 36.1855 46.6198 36.2039C46.4589 36.2221 46.3003 36.2217 46.1448 36.2029C45.9888 36.184 45.8462 36.142 45.7165 36.0773C45.5872 36.0123 45.496 35.9141 45.444 35.7822C45.4055 35.6842 45.4071 35.5791 45.4483 35.4674C45.4895 35.3557 45.5688 35.2768 45.6856 35.232C45.7573 35.2045 45.8305 35.1902 45.9046 35.1891C45.979 35.1877 46.0542 35.19 46.1307 35.1957C46.2071 35.2014 46.28 35.2049 46.3493 35.2061C46.419 35.207 46.485 35.1965 46.5481 35.1734C46.7147 35.1127 46.8401 35.0229 46.9253 34.9029C47.0102 34.7828 47.0659 34.6492 47.0915 34.5023C47.1173 34.3555 47.1229 34.2033 47.1075 34.0465C47.0923 33.8896 47.0696 33.7439 47.0388 33.6092C46.9798 33.7408 46.8954 33.8461 46.7858 33.9254C46.6759 34.0053 46.5546 34.0687 46.4208 34.1166C46.1764 34.2043 45.9557 34.2408 45.7561 34.2248C45.5565 34.209 45.3774 34.1523 45.218 34.0541C45.0591 33.9559 44.918 33.8252 44.7954 33.6617C44.6729 33.4984 44.5696 33.3102 44.4862 33.0971C44.4345 32.965 44.3917 32.8096 44.3575 32.6313C44.3235 32.4529 44.3046 32.2664 44.3009 32.0715C44.2972 31.8768 44.3116 31.6799 44.3442 31.4813C44.3768 31.2828 44.4339 31.0973 44.5149 30.9252C44.596 30.7533 44.7032 30.5988 44.836 30.4627C44.9688 30.3266 45.1329 30.2238 45.3278 30.1551C45.5173 30.0883 45.703 30.0773 45.8825 30.1225C46.0624 30.1674 46.1938 30.273 46.277 30.4381C46.3013 30.3287 46.343 30.2145 46.4036 30.0955C46.4641 29.9768 46.5596 29.8957 46.6907 29.8533C46.7608 29.8305 46.83 29.842 46.8973 29.8877C46.9645 29.9336 47.0272 30.001 47.0862 30.0904C47.145 30.1797 47.2003 30.2801 47.2516 30.3908C47.3034 30.5018 47.3491 30.6119 47.3891 30.7217C47.4292 30.8314 47.4641 30.932 47.493 31.0236C47.5221 31.1156 47.5436 31.1834 47.5573 31.227ZM46.5895 32.0143C46.5675 31.9494 46.528 31.8684 46.4706 31.7719C46.4132 31.6754 46.3477 31.5865 46.2739 31.5055C46.2001 31.4244 46.1192 31.3602 46.0319 31.3129C45.9442 31.2658 45.8565 31.2576 45.7686 31.2885C45.6563 31.3279 45.57 31.3977 45.5095 31.4971C45.4491 31.5965 45.4079 31.7053 45.385 31.823C45.3622 31.9408 45.3554 32.0604 45.3643 32.1813C45.3733 32.3023 45.3925 32.4014 45.4208 32.4787C45.4413 32.5346 45.4735 32.608 45.5177 32.699C45.5616 32.79 45.6157 32.875 45.6794 32.9541C45.743 33.0332 45.8126 33.0955 45.8878 33.1414C45.9626 33.1873 46.0425 33.1949 46.127 33.1646C46.2538 33.1193 46.3544 33.0521 46.429 32.9631C46.5036 32.874 46.5583 32.7752 46.5929 32.6662C46.627 32.5576 46.6432 32.4455 46.6413 32.3301C46.6395 32.215 46.622 32.1098 46.5895 32.0143Z" fill="#152139"/>
<path d="M48.1046 58.5227C48.0316 58.5227 47.9724 58.4637 47.9724 58.3906V53.3498C47.9724 53.2768 48.0316 53.2178 48.1046 53.2178C48.1777 53.2178 48.2369 53.2768 48.2369 53.3498V58.3906C48.2369 58.4635 48.1777 58.5227 48.1046 58.5227Z" fill="white"/>
<path d="M50.6252 56.0023H45.5844C45.5113 56.0023 45.4521 55.9434 45.4521 55.8703C45.4521 55.7973 45.5113 55.7383 45.5844 55.7383H50.6252C50.6982 55.7383 50.7574 55.7973 50.7574 55.8703C50.7574 55.9434 50.6982 56.0023 50.6252 56.0023Z" fill="white"/>
<path d="M46.9796 57.2475C46.9469 57.2475 46.9143 57.2358 46.8887 57.2114C46.8356 57.1614 46.8335 57.0774 46.8837 57.0242L49.269 54.5037C49.3192 54.4506 49.4028 54.4481 49.4557 54.4989C49.5089 54.5489 49.511 54.6328 49.4608 54.6858L47.0755 57.2063C47.0497 57.234 47.0145 57.2475 46.9796 57.2475Z" fill="white"/>
<path d="M49.3649 57.1424C49.3339 57.1424 49.3026 57.1315 49.2774 57.1094L46.7337 54.8653C46.679 54.817 46.6737 54.7336 46.722 54.6789C46.7702 54.6244 46.854 54.6196 46.9085 54.6672L49.4522 56.9114C49.5069 56.9596 49.5122 57.043 49.464 57.0977C49.438 57.1274 49.4015 57.1424 49.3649 57.1424Z" fill="white"/>
<path d="M91.734 63.1092C91.661 63.1092 91.6018 63.0502 91.6018 62.9772V57.9364C91.6018 57.8633 91.661 57.8043 91.734 57.8043C91.8071 57.8043 91.8663 57.8633 91.8663 57.9364V62.9772C91.8665 63.0502 91.8071 63.1092 91.734 63.1092Z" fill="white"/>
<path d="M94.2546 60.5891H89.2138C89.1407 60.5891 89.0815 60.5302 89.0815 60.4571C89.0815 60.3841 89.1407 60.3251 89.2138 60.3251H94.2546C94.3276 60.3251 94.3868 60.3841 94.3868 60.4571C94.3868 60.53 94.3276 60.5891 94.2546 60.5891Z" fill="white"/>
<path d="M90.609 61.834C90.5761 61.834 90.5437 61.8219 90.5181 61.7979C90.465 61.7479 90.4629 61.6639 90.5131 61.6108L92.8984 59.0904C92.9484 59.0373 93.0322 59.0359 93.0851 59.0856C93.1383 59.1356 93.1404 59.2195 93.0902 59.2725L90.7049 61.7928C90.6791 61.8205 90.6441 61.834 90.609 61.834Z" fill="white"/>
<path d="M92.9943 61.7291C92.9633 61.7291 92.932 61.7182 92.9068 61.6961L90.3631 59.452C90.3084 59.4037 90.3031 59.3203 90.3514 59.2657C90.3998 59.2108 90.4836 59.2059 90.5379 59.2539L93.0816 61.4981C93.1363 61.5463 93.1416 61.6297 93.0934 61.6844C93.0674 61.7141 93.0309 61.7291 92.9943 61.7291Z" fill="white"/>
<path d="M45.5878 42.5811C45.5147 42.5811 45.4556 42.5221 45.4556 42.4491V37.4083C45.4556 37.3352 45.5147 37.2762 45.5878 37.2762C45.6608 37.2762 45.72 37.3354 45.72 37.4083V42.4491C45.72 42.5219 45.6608 42.5811 45.5878 42.5811Z" fill="white"/>
<path d="M48.1083 40.0608H43.0673C42.9942 40.0608 42.9351 40.0018 42.9351 39.9288C42.9351 39.8557 42.9942 39.7968 43.0673 39.7968H48.1083C48.1813 39.7968 48.2405 39.8559 48.2405 39.9288C48.2405 40.0018 48.1812 40.0608 48.1083 40.0608Z" fill="white"/>
<path d="M44.4627 41.306C44.4301 41.306 44.3975 41.2943 44.3719 41.2699C44.3188 41.2199 44.3166 41.1359 44.3668 41.0827L46.7522 38.5622C46.8022 38.5091 46.8856 38.5062 46.9389 38.5574C46.992 38.6074 46.9942 38.6913 46.944 38.7445L44.5586 41.265C44.5326 41.2925 44.4977 41.306 44.4627 41.306Z" fill="white"/>
<path d="M46.8478 41.2011C46.8168 41.2011 46.7855 41.1901 46.7603 41.1681L44.2166 38.9239C44.1619 38.8757 44.1566 38.7923 44.2049 38.7376C44.2533 38.6827 44.3369 38.6778 44.3916 38.7259L46.9353 40.97C46.99 41.0182 46.9953 41.1016 46.9471 41.1563C46.9209 41.186 46.8844 41.2011 46.8478 41.2011Z" fill="white"/>
<path d="M64.9774 31.9155C64.9044 31.9155 64.8452 31.8565 64.8452 31.7834V26.7426C64.8452 26.6696 64.9044 26.6106 64.9774 26.6106C65.0505 26.6106 65.1097 26.6698 65.1097 26.7426V31.7834C65.1097 31.8565 65.0505 31.9155 64.9774 31.9155Z" fill="white"/>
<path d="M67.4979 29.3954H62.4569C62.3839 29.3954 62.3247 29.3364 62.3247 29.2634C62.3247 29.1903 62.3839 29.1313 62.4569 29.1313H67.4979C67.571 29.1313 67.6302 29.1903 67.6302 29.2634C67.6302 29.3362 67.5708 29.3954 67.4979 29.3954Z" fill="white"/>
<path d="M63.8524 30.6403C63.8197 30.6403 63.7871 30.6286 63.7615 30.6042C63.7084 30.5542 63.7063 30.4702 63.7565 30.4171L66.1418 27.8966C66.1916 27.8431 66.2754 27.8409 66.3287 27.8917C66.3819 27.9417 66.384 28.0257 66.3338 28.0786L63.9485 30.5991C63.9223 30.6269 63.8873 30.6403 63.8524 30.6403Z" fill="white"/>
<path d="M66.2375 30.5354C66.2064 30.5354 66.1752 30.5245 66.15 30.5024L63.6062 28.2583C63.5516 28.21 63.5463 28.1266 63.5945 28.0719C63.6432 28.017 63.7264 28.0122 63.7812 28.0602L66.325 30.3044C66.3797 30.3526 66.385 30.436 66.3367 30.4907C66.3105 30.5204 66.274 30.5354 66.2375 30.5354Z" fill="white"/>
<path d="M11.2406 53.0819C11.1676 53.0819 11.1084 53.0229 11.1084 52.9498V47.909C11.1084 47.836 11.1676 47.777 11.2406 47.777C11.3137 47.777 11.3729 47.8362 11.3729 47.909V52.9498C11.3729 53.0227 11.3137 53.0819 11.2406 53.0819Z" fill="white"/>
<path d="M13.7611 50.5616H8.72012C8.64707 50.5616 8.58789 50.5026 8.58789 50.4295C8.58789 50.3565 8.64727 50.2975 8.72012 50.2975H13.7611C13.8342 50.2975 13.8934 50.3567 13.8934 50.4295C13.8934 50.5026 13.834 50.5616 13.7611 50.5616Z" fill="white"/>
<path d="M10.1156 51.8067C10.0827 51.8067 10.0503 51.7946 10.0247 51.7706C9.97161 51.7206 9.96946 51.6366 10.0197 51.5837L12.405 49.0633C12.4552 49.0102 12.5388 49.0088 12.5919 49.0585C12.645 49.1085 12.6472 49.1924 12.597 49.2454L10.2116 51.7657C10.1855 51.7932 10.1505 51.8067 10.1156 51.8067Z" fill="white"/>
<path d="M12.5007 51.7018C12.4696 51.7018 12.4384 51.6908 12.4132 51.6689L9.86943 49.4254C9.81474 49.3768 9.80947 49.2934 9.85771 49.2387C9.90634 49.1838 9.98954 49.1797 10.0444 49.2266L12.5882 51.4703C12.6429 51.5189 12.6481 51.6023 12.5999 51.657C12.5737 51.6867 12.5372 51.7018 12.5007 51.7018Z" fill="white"/>
</g>
<defs>
<clipPath id="clip0_19_754">
<rect width="100" height="100" fill="white"/>
</clipPath>
</defs>
</svg>
