<svg width="80" height="80" viewBox="0 0 80 80" fill="none" xmlns="http://www.w3.org/2000/svg">
<g clip-path="url(#clip0_19_1024)">
<path d="M35.9885 75.6333L35.9821 75.6351C34.4579 76.1027 32.8706 76.4235 31.2636 76.5883L35.9885 75.6333ZM35.9885 75.6333L36.1346 75.5906C36.1352 75.5904 36.1358 75.5903 36.1364 75.5901C36.1708 75.5797 36.207 75.5676 36.2469 75.5536L36.2538 75.5512M35.9885 75.6333L36.2538 75.5512M36.2538 75.5512L36.2607 75.549M36.2538 75.5512L36.2607 75.549M36.2607 75.549C37.1525 75.2658 38.047 74.922 38.9187 74.5277C40.1844 73.9524 41.4009 73.2729 42.5387 72.5062L42.5492 72.4991M36.2607 75.549L42.5492 72.4991M42.5492 72.4991L42.5601 72.4926M42.5492 72.4991L42.5601 72.4926M42.5601 72.4926C43.412 71.9793 44.2435 71.4311 45.0579 70.8941L45.0586 70.8937L45.0586 70.8936L45.0893 70.8734C47.1289 69.528 49.1343 68.2052 51.3393 67.5404L51.3801 67.5281M42.5601 72.4926L51.3801 67.5281M51.3801 67.5281L51.4225 67.5229M51.3801 67.5281L51.4225 67.5229M51.4225 67.5229C52.1152 67.4377 52.7964 67.3585 53.4652 67.2807L53.5684 67.2687L53.5691 67.2686L55.0278 67.0968C57.2727 66.8311 59.8212 66.5024 62.1678 65.9079L62.1687 65.9077M51.4225 67.5229L62.1687 65.9077M62.1687 65.9077C68.0309 64.4342 72.0495 61.4279 75.2407 56.1161M62.1687 65.9077L75.2407 56.1161M75.2407 56.1161C76.0675 54.7057 76.7826 53.2253 77.3773 51.6965C77.7861 50.6454 78.1441 49.543 78.4408 48.4203C80.6834 39.9349 79.3314 30.2791 74.7089 21.9368C70.044 13.5185 62.4802 7.27454 53.9748 4.7894L53.9747 4.78943L53.9688 4.78761C50.7095 3.79105 47.2836 3.28149 43.8115 3.28149C40.438 3.28149 37.0059 3.76143 33.6108 4.70948C30.0463 5.70919 26.5442 7.21882 23.2002 9.19832L23.2 9.1984C14.2794 14.4753 7.02766 22.8424 3.30664 32.1409C2.66563 33.7452 2.12409 35.3897 1.69696 37.0294C-0.156433 44.1594 0.148689 51.407 2.57052 57.993L2.57162 57.996C2.74419 58.4749 2.91898 58.924 3.10157 59.3572L3.10397 59.3631C3.60273 60.5904 4.22134 61.8321 4.93235 63.0276C9.90348 71.3474 19.2382 76.7187 28.697 76.7187H28.6971H28.6971H28.6972H28.6973H28.6973H28.6974H28.6974H28.6975H28.6976H28.6976H28.6977H28.6977H28.6978H28.6979H28.6979H28.698H28.6981H28.6981H28.6982H28.6982H28.6983H28.6984H28.6984H28.6985H28.6985H28.6986C29.5559 76.7185 30.4189 76.6747 31.2635 76.5883L75.2407 56.1161Z" fill="white" stroke="#EDEDED"/>
<path d="M3.99809 57.1212C4.15402 57.5537 8.38684 59.0873 8.56777 59.5164C9.06059 60.7289 5.57574 60.7836 6.23167 61.8861C11.4042 70.5436 21.3203 75.6487 30.9989 74.6597C34.1011 74.3426 31.5842 68.5186 34.3048 66.9992C36.9409 65.527 32.9753 59.3645 35.6173 57.9022C36.5542 57.3836 40.4276 52.4542 41.4557 52.1544C43.2912 51.619 54.1031 59.6551 55.9837 59.3958C57.8604 59.1369 59.8307 64.4859 61.6689 64.0205C66.3806 62.8364 70.3937 60.5497 73.7476 54.9659C74.5417 53.6115 75.2082 52.2183 75.7614 50.7967C75.9559 50.2965 73.04 48.9498 73.2046 48.4433C73.3762 47.9158 76.6271 48.2281 76.7682 47.6947C81.2281 30.8189 70.539 11.0434 53.419 6.04107C46.9136 4.05217 40.2448 4.20811 33.9486 5.96654C32.2401 6.44576 34.2256 7.72951 32.585 8.43436C30.8754 9.16873 25.5432 9.33311 23.9295 10.2883C15.3712 15.3509 8.35512 23.3454 4.71777 32.4354C4.41106 33.2029 6.14027 34.4448 5.8823 35.2273C5.62434 36.01 3.37933 36.3334 3.17199 37.1294C1.48465 43.6208 1.55902 50.488 3.99809 57.1212Z" fill="#9490F1"/>
<path d="M27.2444 37.1296H26.9856C27.0033 37.1403 27.0211 37.1473 27.0388 37.1581C27.0388 37.1581 27.0388 37.1581 27.0424 37.1581C27.0708 37.1509 27.2161 37.1367 27.2444 37.1296Z" fill="#F7EDE5"/>
<path d="M3.17216 37.1297H26.9856C24.9861 36.1441 22.7526 35.1478 20.6183 35.7719C19.7 36.0413 18.8668 36.6014 17.9203 36.7291C16.5553 36.9134 15.2578 36.1795 14.0417 35.5272C11.1559 33.978 7.94731 32.7406 4.71762 32.4358C4.1045 33.9708 3.58685 35.5378 3.17216 37.1297Z" fill="#F7EDE5"/>
<path d="M54.1741 10.2883H53.9081C53.9294 10.299 53.9472 10.3096 53.9684 10.3202C53.9684 10.3202 53.9684 10.3202 53.972 10.3202C54.0003 10.3132 54.1458 10.2955 54.1741 10.2883Z" fill="#F7EDE5"/>
<path d="M23.9296 10.2884H53.9082C51.9123 9.30273 49.6787 8.31008 47.548 8.93414C46.6298 9.20352 45.7966 9.76023 44.8465 9.88789C43.4851 10.0723 42.184 9.34195 40.9715 8.68961C38.7734 7.50898 36.391 6.51289 33.9518 5.9668C33.9518 5.9668 33.9518 5.9668 33.9482 5.9668C30.4599 6.94523 27.092 8.41648 23.9296 10.2884Z" fill="#F7EDE5"/>
<path d="M27.6521 61.8862H27.3933C27.411 61.8969 27.4288 61.9039 27.4465 61.9145C27.4465 61.9145 27.4465 61.9145 27.4501 61.9145C27.4783 61.9075 27.6237 61.8933 27.6521 61.8862Z" fill="#F7EDE5"/>
<path d="M3.99816 57.1213C4.1541 57.5538 4.32081 57.9863 4.50159 58.4154C4.99441 59.6279 5.57581 60.7837 6.23175 61.8862H27.3933C25.3938 60.9006 23.1603 59.9043 21.026 60.5284C20.1077 60.7977 19.2746 61.3579 18.328 61.4856C16.963 61.6699 15.6619 60.936 14.4494 60.2837C11.2271 58.5535 7.60019 57.2135 3.99816 57.1213Z" fill="#F7EDE5"/>
<path d="M45.1479 50.7965H75.7612C76.1582 49.7754 76.4915 48.7402 76.7681 47.6944C75.3924 46.9711 73.8963 46.5529 72.379 46.7974C70.0143 47.1804 68.0609 49.1054 65.6679 49.233C64.3029 49.3039 62.9912 48.7757 61.6867 48.3644C58.4746 47.3539 55.0109 47.0349 51.7103 47.7227C49.3243 48.2191 47.034 49.2649 45.1479 50.7965Z" fill="#F7EDE5"/>
<path d="M68.2827 38.4988C69.2887 38.4988 70.2705 38.0618 70.8647 37.3117L69.7533 36.4309C69.3541 36.9345 68.5852 37.1852 67.8821 37.0404C67.1954 36.8992 66.5318 36.4042 66.1074 35.7167C65.9066 35.3915 65.7516 35.0248 65.5877 34.6362C65.4893 34.4032 65.3905 34.1702 65.2816 33.9426C64.8294 32.9985 63.9915 31.7323 62.5663 31.0601C61.1824 30.4074 59.5313 30.5606 58.4583 31.4404L59.3579 32.5368C60.006 32.0054 61.0765 31.9256 61.9616 32.3427C62.7794 32.7282 63.5041 33.5138 64.0027 34.5548C64.1021 34.7626 64.1916 34.9752 64.2815 35.1879C64.4593 35.6087 64.6429 36.0437 64.901 36.4617C65.5362 37.4902 66.5185 38.2074 67.5963 38.4295C67.8235 38.4762 68.0537 38.4988 68.2827 38.4988Z" fill="#FFC063"/>
<path d="M43.0945 20.7455L43.7776 20.555L42.7696 16.94C42.5343 16.0958 42.339 15.2186 42.7498 14.5874C42.8118 14.4922 42.9126 14.3689 43.0415 14.3222C43.3946 14.1941 43.8409 14.6666 44.0165 14.8758C45.1231 16.1916 45.9657 17.7588 46.4535 19.4077L47.1335 19.2066C46.6182 17.465 45.7281 15.8095 44.5595 14.4195C43.8125 13.5311 43.19 13.5144 42.7996 13.6558C42.5517 13.7458 42.3292 13.9344 42.1557 14.2008C41.5839 15.0797 41.8203 16.1739 42.0868 17.1306L43.0945 20.7455Z" fill="#FFC063"/>
<path d="M33.6721 22.9166C33.6721 22.9166 45.8925 63.6516 47.612 64.825C49.3314 66.0021 64.81 61.2975 66.0758 58.6705C67.345 56.0471 65.0795 46.6344 63.6331 40.7493C63.5339 40.3522 63.4311 39.941 63.3211 39.5155C63.3035 39.4552 63.2892 39.395 63.275 39.3347C61.7435 33.5063 59.0633 25.5082 55.3053 20.7435C53.6497 18.6447 50.7958 18.1341 47.9914 18.2689C47.9028 18.2725 47.8141 18.276 47.7255 18.2832C46.5875 18.3505 45.46 18.5243 44.4355 18.7335C44.4319 18.7371 44.4319 18.7371 44.4319 18.7335C44.3539 18.7477 44.276 18.7653 44.1978 18.7832C41.7445 19.3043 39.9152 20.0205 39.9152 20.0205C39.2842 20.201 33.6721 22.9166 33.6721 22.9166Z" fill="#FFC063"/>
<path d="M44.1978 18.7829C44.8856 19.2154 48.1614 21.4737 50.129 26.2067C52.3342 31.5103 58.035 53.6717 58.0917 53.8951C58.1023 53.9306 58.1342 53.9554 58.1697 53.9554H58.1909C58.237 53.9412 58.2618 53.8987 58.2512 53.8526C58.2228 53.7428 56.8543 48.4178 55.2023 42.3661C55.1881 42.3164 55.1739 42.2668 55.1598 42.2171C53.4297 35.9031 51.4054 28.8445 50.2815 26.1429C48.4097 21.6511 45.3678 19.3609 44.4354 18.7334C44.4318 18.737 44.4319 18.737 44.4319 18.7334C44.3539 18.7475 44.2759 18.7651 44.1978 18.7829Z" fill="#302945"/>
<path d="M47.7255 18.283C49.1933 19.2793 52.4264 21.7822 54.2346 25.4869C56.6171 30.3724 58.9746 39.2638 58.9958 39.3524C58.9994 39.363 59.0028 39.3736 59.01 39.3808C59.0242 39.3985 59.0491 39.4127 59.0774 39.4127C59.0844 39.4127 59.0916 39.4127 59.0986 39.4091C59.1305 39.3985 59.1517 39.3736 59.1589 39.3418C59.1589 39.3311 59.1589 39.3205 59.1553 39.3099C59.1341 39.2213 56.773 30.3155 54.3835 25.416C52.6286 21.8211 49.5407 19.3465 47.9914 18.2688C47.9027 18.2722 47.8141 18.2758 47.7255 18.283Z" fill="#302945"/>
<path d="M55.1706 42.3551C55.1848 42.3657 55.1989 42.3693 55.2131 42.3693C55.2415 42.3693 55.2662 42.3551 55.284 42.3339C57.7125 38.5937 61.8925 39.1821 63.321 39.5154C63.3034 39.4551 63.2892 39.3949 63.275 39.3346C61.7364 38.9943 57.5814 38.4909 55.1457 42.2418C55.1209 42.2807 55.1315 42.3303 55.1706 42.3551Z" fill="#302945"/>
<path d="M52.1358 57.3729L52.3379 58.0856L52.4122 58.3443L50.3491 63.2199L54.6638 65.0604C54.7914 65.0462 54.6246 65.1831 54.7522 65.1689C57.2091 64.8781 59.5135 64.5662 61.6689 64.0201L60.928 61.7689L58.7371 55.1109L58.7016 55.0045L58.6519 54.8556L58.1697 53.3914L58.1379 53.4126L57.9925 53.5084L52.1358 57.3729Z" fill="#FFA78F"/>
<path d="M28.2406 61.9001L28.4675 62.9531L30.9987 74.6595C32.4842 74.507 33.9627 74.2128 35.4161 73.766C35.4658 73.7518 35.5153 73.7378 35.5614 73.7235C35.5969 73.7129 35.6323 73.6987 35.6678 73.6881C36.5045 73.4221 36.9894 66.734 37.8047 66.3653L32.9167 61.8395L32.5848 60.2101L32.5941 60.1665L28.2406 61.9001Z" fill="#FFA78F"/>
<path d="M26.2484 63.2864L28.4678 62.9531L32.8496 62.2937H32.8567L33.5054 65.0306C33.509 65.0448 33.5125 65.0589 33.5125 65.0731L34.8775 70.8482C34.8845 70.8659 34.8881 70.8873 34.8917 70.9049L35.5617 73.7234C35.5971 73.7128 35.6326 73.6985 35.6681 73.6879C36.5048 73.422 37.3343 73.1029 38.1498 72.7342C39.3198 72.2023 40.4648 71.5678 41.5745 70.8162C44.6518 68.9692 47.5021 66.6045 50.9517 65.6188C52.1217 65.4735 53.2596 65.3459 54.3693 65.2146C54.497 65.2004 54.6246 65.1828 54.7523 65.1685L54.3942 63.949L52.6995 58.1985L52.6782 58.1276L58.7017 55.0042L62.4561 53.0578C62.4418 53.0187 62.4242 52.9762 62.41 52.9373C60.7259 48.5128 58.1628 45.2085 55.2592 42.3512C55.2309 42.3228 55.2025 42.2945 55.1742 42.266C55.1636 42.259 55.1529 42.2484 55.1457 42.2412C55.0784 42.1738 55.0075 42.1065 54.9401 42.0392C53.2314 40.3906 51.4162 38.8874 49.6009 37.3984C47.2575 35.4734 44.7617 34.6898 42.7515 34.4062C42.7125 34.3992 42.67 34.3956 42.6311 34.392C42.585 34.3849 42.5353 34.3778 42.4892 34.3707C40.2911 34.0978 38.7418 34.4132 38.7418 34.4132L38.6212 34.4593L38.5078 34.5054L38.3412 34.5728L37.3486 34.9628L34.9342 35.9129H34.9306L32.7645 36.7673C32.7645 36.7673 32.69 36.817 32.5553 36.9056C32.5056 36.9374 32.4489 36.9765 32.3815 37.0226C32.0306 37.2601 31.4668 37.6465 30.8109 38.1253C29.7437 38.9053 28.432 39.9262 27.4217 40.919V40.9224C26.8367 41.4932 26.3475 42.057 26.0675 42.5604C24.8018 44.8226 26.2484 63.2864 26.2484 63.2864Z" fill="#E38066"/>
<path d="M31.1769 30.7683C23.2755 30.1804 17.1572 25.8444 17.5115 21.0836C17.8657 16.3228 24.5583 12.94 32.4597 13.528C40.3612 14.1159 46.4794 18.4519 46.1252 23.2127C45.7709 27.9735 39.0784 31.3563 31.1769 30.7683Z" fill="#F7EDE5"/>
<path d="M32.5838 37.5371C32.5838 37.5371 31.5912 42.0609 33.9877 42.4225C36.3879 42.784 38.7419 34.4137 38.7419 34.4137L37.1573 29.4326L36.4127 29.9254L33.4904 33.7792L32.4598 37.2251L32.5838 37.5371Z" fill="#FFA78F"/>
<path d="M31.0026 33.5062L32.4597 37.2252C32.7893 37.1968 33.1226 37.1012 33.4275 36.9699C34.6329 36.4488 35.5511 35.3887 36.0829 34.1869C36.5226 33.1837 36.9337 31.7194 36.7423 30.6134C36.6998 30.3546 36.5792 30.1241 36.4126 29.9255L31.0026 33.5062Z" fill="#302945"/>
<path d="M32.0118 16.9732C32.0118 16.9732 23.292 15.6758 22.6283 17.3654C21.9645 19.0551 23.8351 21.2879 23.8351 21.2879C23.8351 21.2879 21.7231 22.4947 22.4472 24.4258C23.1714 26.3569 30.292 26.2965 30.292 26.2965L34.2747 23.5205L32.0118 16.9732Z" fill="#302945"/>
<path d="M24.8612 24.9689C24.8612 21.2528 27.8735 18.2405 31.5896 18.2405C35.3057 18.2405 38.318 21.2528 38.318 24.9689C38.318 25.1424 38.3094 25.3136 38.2965 25.4838C38.6418 25.4088 39.0055 25.4303 39.2751 25.6455C39.4757 25.8056 39.5916 26.0492 39.6674 26.2945C39.8921 27.0217 39.8074 27.8392 39.4382 28.5049C39.069 29.1705 38.4207 29.6753 37.6848 29.87C37.5958 29.8936 37.5037 29.9099 37.411 29.9208C37.4016 30.0152 37.3937 30.108 37.3827 30.2039C36.9302 34.1867 32.8116 35.5444 32.8116 35.5444C32.8116 35.5444 29.8699 35.9517 27.2901 32.5574C25.8316 30.6384 24.9818 26.3117 24.9818 26.3117L24.9932 26.295C24.9076 25.8661 24.8612 25.423 24.8612 24.9689Z" fill="#FFA78F"/>
<path d="M39.2383 25.6327C39.2383 25.6327 39.7663 20.9258 38.4086 19.055C37.0508 17.1844 32.0121 16.9731 32.0121 16.9731C32.0121 16.9731 31.4086 18.2705 31.65 19.6283C31.8914 20.9861 33.2492 21.831 33.2492 21.831C33.2492 21.831 32.5553 22.4344 33.0078 24.0335C33.4605 25.6327 35.3613 26.0852 35.3613 26.0852L36.0855 28.3481C36.0852 28.3481 36.8849 24.456 39.2383 25.6327Z" fill="#302945"/>
<path d="M31.2565 27.1765C31.4217 27.6312 31.7712 27.9215 32.0373 27.8249C32.3032 27.7284 32.385 27.2813 32.2198 26.8266C32.0545 26.372 31.7051 26.0816 31.439 26.1782C31.1731 26.2748 31.0914 26.7218 31.2565 27.1765Z" fill="#302945"/>
<path d="M26.7797 28.4658C26.9449 28.9205 27.2944 29.2108 27.5605 29.1142C27.8264 29.0177 27.9082 28.5706 27.743 28.1159C27.5778 27.6613 27.2283 27.3709 26.9622 27.4675C26.6961 27.5641 26.6144 28.0109 26.7797 28.4658Z" fill="#302945"/>
<path d="M29.4909 30.1955C29.4914 30.1955 29.492 30.1955 29.4927 30.1955L30.5277 30.1742C30.573 30.1733 30.6092 30.1358 30.6081 30.0903C30.6073 30.0455 30.5706 30.0099 30.5259 30.0099C30.5255 30.0099 30.5248 30.0099 30.5242 30.0099L29.5534 30.0299L28.6594 26.7427C28.6475 26.6991 28.6033 26.6727 28.5583 26.6849C28.5145 26.6967 28.4884 26.7419 28.5005 26.786L29.4116 30.135C29.4214 30.1708 29.4539 30.1955 29.4909 30.1955Z" fill="#302945"/>
<path d="M30.9769 31.2553C30.9875 31.2553 30.9986 31.2531 31.0091 31.2485C31.5097 31.0353 31.8961 30.5515 31.9938 30.0162C32.0019 29.9715 31.9724 29.9285 31.9275 29.9204C31.8841 29.9128 31.8399 29.9417 31.8317 29.9867C31.7439 30.469 31.3956 30.9048 30.9447 31.0971C30.9028 31.1149 30.8835 31.1632 30.9013 31.2049C30.9146 31.2364 30.9447 31.2553 30.9769 31.2553Z" fill="#302945"/>
<path d="M30.6121 24.7403C30.638 24.7403 30.6643 24.7327 30.6874 24.7167C31.0243 24.4842 31.4716 24.4288 31.8546 24.5719C31.9232 24.5991 31.9999 24.5628 32.0257 24.4939C32.0515 24.425 32.0165 24.3486 31.9477 24.323C31.4843 24.1497 30.9435 24.2167 30.5363 24.498C30.4759 24.5397 30.4607 24.6225 30.5024 24.6828C30.5284 24.7203 30.5699 24.7403 30.6121 24.7403Z" fill="#302945"/>
<path d="M25.9738 26.7395C26.0468 26.7395 26.1062 26.6808 26.1068 26.6078C26.1084 26.4372 26.2673 26.2958 26.4026 26.2266C26.5914 26.1305 26.8087 26.0997 27.016 26.142C27.0885 26.1556 27.1582 26.1097 27.1724 26.0378C27.1868 25.9658 27.1403 25.8956 27.0682 25.8812C26.8024 25.8272 26.5231 25.8659 26.2817 25.9895C26.0703 26.0973 25.8435 26.3159 25.8407 26.6051C25.8401 26.6786 25.8992 26.7386 25.9724 26.7392C25.9731 26.7395 25.9735 26.7395 25.9738 26.7395Z" fill="#302945"/>
<path d="M37.4806 28.8597C37.4814 28.8597 37.4824 28.8597 37.4831 28.8597C37.5286 28.8583 37.5644 28.8203 37.563 28.775C37.5366 27.9008 37.9605 27.0399 38.6694 26.5275C38.8556 26.3935 39.0008 26.3436 39.1294 26.3724C39.1742 26.3827 39.2175 26.3544 39.2275 26.3099C39.2374 26.2655 39.2094 26.2216 39.165 26.2117C38.9317 26.1603 38.7158 26.2913 38.5731 26.3944C37.8205 26.938 37.3703 27.8522 37.3986 28.78C37.3999 28.8246 37.4364 28.8597 37.4806 28.8597Z" fill="#302945"/>
<path d="M38.706 27.9328C38.734 27.9328 38.7615 27.9183 38.7768 27.8924C38.8001 27.8531 38.7869 27.8028 38.7479 27.7797C38.5491 27.6621 38.3691 27.5988 38.1977 27.5867C37.973 27.5721 37.7616 27.6488 37.6309 27.7941C37.6004 27.8278 37.6032 27.8799 37.637 27.9102C37.6705 27.941 37.723 27.9378 37.753 27.9041C37.8504 27.7961 38.0113 27.7381 38.1862 27.7506C38.3315 27.761 38.4877 27.8167 38.6641 27.9211C38.6773 27.9291 38.6916 27.9328 38.706 27.9328Z" fill="#302945"/>
<path d="M27.8782 51.2038C29.0127 55.7311 32.7219 58.4436 32.7219 58.4436L32.0413 54.1007C31.2719 52.516 30.141 47.7193 30.2332 42.6035C30.2793 39.9658 30.928 37.3636 31.5449 35.4633C31.1479 35.3924 30.3133 35.1255 29.615 34.679C28.6968 35.6079 28.2025 37.22 27.7877 38.7125C27.3127 40.4143 26.7472 46.6766 27.8782 51.2038Z" fill="#FFC063"/>
<path d="M51.8953 58.5934C51.9161 58.5934 51.9368 58.5886 51.9559 58.5789L62.5162 53.1779C62.5815 53.1445 62.6075 53.0643 62.574 52.999C62.5404 52.9339 62.4611 52.9079 62.3951 52.9412L51.9578 58.2793L46.4039 46.3356C46.3729 46.2689 46.2937 46.2398 46.2273 46.2712C46.1609 46.302 46.132 46.3812 46.1629 46.4478L51.775 58.5167C51.7903 58.5493 51.8181 58.5745 51.8521 58.5862C51.8661 58.5909 51.8807 58.5934 51.8953 58.5934Z" fill="#302945"/>
<path d="M31.7895 52.5586C31.7895 52.5799 31.8356 53.0514 31.91 53.8066V53.8102C32.0164 54.8561 32.1794 56.4479 32.3673 58.1602C32.4383 58.8196 32.5163 59.4968 32.5942 60.1668C32.6794 60.8935 32.7644 61.6168 32.8495 62.2939C33.0303 63.7085 33.2077 64.9458 33.36 65.7258C33.8564 68.2749 35.0334 72.4371 35.4163 73.7664C35.4659 73.7522 35.5155 73.7382 35.5616 73.7239C35.597 73.7133 35.6325 73.6991 35.668 73.6885C35.5084 73.1389 35.2177 72.1072 34.8916 70.9055C34.888 70.8879 34.8845 70.8664 34.8773 70.8488C34.42 69.1577 33.9095 67.1475 33.6223 65.6763C33.5869 65.4991 33.5514 65.2969 33.5125 65.0736C33.5125 65.0594 33.5089 65.0452 33.5055 65.0311C33.3034 63.7974 33.0694 61.9574 32.8495 60.0643C32.7858 59.5077 32.7219 58.9474 32.6616 58.398C32.6225 58.0399 32.5836 57.6854 32.5481 57.338C32.5481 57.3344 32.5481 57.3344 32.5481 57.331C32.268 54.7288 32.0589 52.5804 32.0553 52.5343C32.0447 52.4597 31.9844 52.403 31.91 52.4136C31.8356 52.4204 31.7823 52.4877 31.7895 52.5586Z" fill="#302945"/>
<path d="M44.3071 30.6564C44.3071 30.6564 42.6326 32.0593 42.542 35.499C42.4515 38.9387 43.417 42.9517 45.9817 48.3978C47.2159 51.0186 50.417 55.2545 50.417 55.2545C50.417 55.2545 47.9731 56.499 45.8911 54.9603C44.1815 53.6967 43.0426 51.3817 42.079 49.5515C40.7426 47.0134 39.6767 44.4062 39.1728 41.5781C38.9271 40.1993 38.5057 38.3917 38.4234 36.9926C38.2618 34.2467 38.8948 32.1567 40.1432 29.7061L44.3071 30.6564Z" fill="#FFC063"/>
<path d="M50.2814 55.1838C50.3091 55.1838 50.3372 55.1752 50.3611 55.1571C50.4199 55.1131 50.4318 55.0297 50.3877 54.971C50.3769 54.9566 49.3035 53.5231 48.9505 52.8611C48.8682 52.7067 48.7447 52.5285 48.5738 52.2817C47.9847 51.4316 46.7593 49.6624 44.7454 45.1753C42.2118 39.53 42.7289 34.6277 42.7346 34.5786C42.911 32.2297 44.4388 30.383 44.4543 30.3647C44.4846 30.3285 44.4935 30.2792 44.4778 30.2349C44.4621 30.1905 44.4243 30.1577 44.378 30.1486L44.05 30.0846L40.161 29.5742C40.1055 29.5666 40.0521 29.5949 40.0261 29.6441C39.9721 29.7464 38.7002 32.1716 38.4283 33.8485C38.1572 35.5203 38.3797 37.9761 38.3819 38.0006C38.3886 38.0739 38.4553 38.1256 38.5266 38.1208C38.5996 38.1141 38.6535 38.0494 38.6468 37.9761C38.6446 37.9519 38.4252 35.5292 38.6908 33.8911C38.9285 32.4253 39.9925 30.2924 40.2189 29.85L44.1143 30.368C43.7218 30.8906 42.6225 32.521 42.47 34.5539C42.4649 34.5985 41.938 39.5691 44.5029 45.2841C46.5271 49.7938 47.7619 51.5766 48.3554 52.4333C48.5211 52.6725 48.641 52.8455 48.716 52.9863C49.0786 53.6664 50.1307 55.0713 50.1754 55.1308C50.201 55.1653 50.241 55.1838 50.2814 55.1838Z" fill="#302945"/>
<path d="M13.8438 48.0461L12.5537 49.0031C12.3277 49.1708 12.4535 49.5295 12.7346 49.5195L14.2171 49.4661C14.3054 49.463 14.3902 49.5006 14.4471 49.5684L15.7855 51.1669C15.9623 51.378 16.306 51.2425 16.2912 50.9675L16.1963 49.2137C16.191 49.1165 16.2354 49.0234 16.3141 48.9664L17.8545 47.8497C18.083 47.6839 17.9593 47.3223 17.6771 47.3314L15.8618 47.39C15.764 47.3931 15.6713 47.3462 15.616 47.2653L14.5698 45.7353C14.4145 45.5083 14.0596 45.6092 14.0471 45.8841L13.959 47.8289C13.9555 47.915 13.913 47.9947 13.8438 48.0461Z" fill="white"/>
<path d="M54.637 14.2529L53.3469 15.2099C53.1209 15.3776 53.2467 15.7363 53.5278 15.7263L55.0103 15.6729C55.0988 15.6697 55.1834 15.7074 55.2403 15.7752L56.5788 17.3737C56.7555 17.5847 57.0992 17.4493 57.0844 17.1743L56.9895 15.4205C56.9842 15.3233 57.0288 15.2302 57.1074 15.1732L58.6477 14.0565C58.8763 13.8907 58.7525 13.5291 58.4703 13.5382L56.655 13.5968C56.5572 13.5999 56.4645 13.553 56.4092 13.4721L55.363 11.9421C55.2077 11.7151 54.8528 11.816 54.8403 12.0908L54.7522 14.0357C54.7486 14.1218 54.7063 14.2016 54.637 14.2529Z" fill="white"/>
<path d="M68.9127 41.0672L67.6225 42.0242C67.3966 42.1919 67.5224 42.5506 67.8035 42.5406L69.286 42.4872C69.3742 42.484 69.4591 42.5217 69.516 42.5895L70.8544 44.1879C71.0311 44.399 71.3749 44.2636 71.36 43.9886L71.2652 42.2348C71.2599 42.1376 71.3042 42.0445 71.383 41.9875L72.9233 40.8709C73.1519 40.7051 73.0281 40.3436 72.746 40.3526L70.9306 40.4112C70.8328 40.4144 70.7402 40.3673 70.6849 40.2865L69.6386 38.7565C69.4833 38.5295 69.1285 38.6304 69.116 38.9053L69.0278 40.8501C69.0242 40.9361 68.9819 41.0159 68.9127 41.0672Z" fill="white"/>
</g>
<defs>
<clipPath id="clip0_19_1024">
<rect width="80" height="80" fill="white" transform="matrix(-1 0 0 1 80 0)"/>
</clipPath>
</defs>
</svg>
