<svg width="72" height="72" viewBox="0 0 72 72" fill="none" xmlns="http://www.w3.org/2000/svg">
<g clip-path="url(#clip0_19_906)">
<path d="M39.2769 72C34.3061 71.9997 29.396 70.4676 25.4514 67.6858C24.0351 66.6913 22.7439 65.5362 21.6167 64.2545C20.5144 62.9985 19.5661 61.6238 18.7964 60.1678C18.7254 60.0321 18.6606 59.9029 18.5959 59.7736C17.9815 58.5477 17.4868 57.267 17.1171 55.9492C17.0296 55.691 16.9478 55.4328 16.8687 55.1717C16.7149 54.6843 16.5665 54.1744 16.4177 53.6618L16.3604 53.4651C16.2342 53.0279 16.1094 52.5946 15.9756 52.1671C15.5484 50.7662 15.0438 49.3099 14.2271 48.0435L14.1652 47.9763C14.0114 47.8073 13.8654 47.6497 13.7222 47.4951L12.9473 46.6615C11.8082 45.4383 10.7326 44.2834 9.74031 43.0976C6.85032 39.6481 4.25509 35.5612 4.83461 29.0749C4.88031 28.5556 4.94022 28.0664 5.01756 27.5809C5.02768 27.5091 5.04217 27.4088 5.05989 27.305C7.04776 16.1018 16.4587 6.83212 28.5888 4.03355C30.5552 1.45969 34.0492 0 38.3195 0C41.9644 0 46.0097 1.07002 49.7106 3.01303C56.4554 6.55411 61.0288 12.408 61.2842 17.741C65.7924 24.8778 67.899 33.9943 67.0697 42.8425C66.8767 44.9013 66.5259 46.9284 66.027 48.8682C65.8916 49.4062 65.7429 49.9386 65.5873 50.4422C65.4403 50.9304 65.2406 51.5029 65.0431 52.0588C65.0277 52.1276 65.0089 52.1942 64.9865 52.2568C64.6306 53.2457 64.225 54.2261 63.7812 55.1701C63.3705 56.0482 62.9164 56.9168 62.4332 57.7488C60.9953 60.2207 59.2608 62.445 57.2775 64.3604C55.2172 66.3522 52.8613 68.0309 50.2762 69.3484C49.897 69.5431 49.5518 69.7103 49.2261 69.8566C46.1156 71.2772 42.7647 72 39.2772 72H39.2769Z" fill="white"/>
<path d="M65.2171 42.5188C65.0344 44.465 64.7051 46.3902 64.223 48.2645C64.0973 48.7645 63.9595 49.2615 63.8067 49.7555C63.6436 50.2976 63.4055 50.9664 63.2146 51.5015C62.8655 52.4794 57.2971 52.2084 56.8569 53.1451C52.7878 61.8026 52.465 60.3291 42.5999 60.522C37.6818 60.6182 37.9898 59.983 34.089 56.9547C31.9328 55.2807 27.4999 52.6939 26.1388 50.3294C24.6784 47.7927 18.4877 54.2282 17.6258 51.4742C17.1228 49.8244 16.5389 48.2137 15.5868 46.7824C15.5688 46.7615 15.5479 46.7405 15.53 46.7195L15.4222 46.6028C15.2724 46.4382 15.1228 46.2764 14.9761 46.1178C13.5749 44.6058 12.2365 43.2015 11.0538 41.7882C8.06861 38.2252 6.06569 34.6084 6.55971 29.0783C6.59866 28.6352 6.65252 28.177 6.72733 27.7069C6.73928 27.6231 6.75124 27.5393 6.76628 27.4524C8.7903 16.0449 18.611 7.76909 29.5934 5.48169C32.318 4.91581 35.1176 4.71823 37.887 4.93381C40.3931 5.12844 42.8751 5.6614 45.2584 6.56858C45.7195 6.7393 46.1746 6.92787 46.6267 7.1315C49.3603 8.31415 51.8036 9.89506 53.9533 11.7783C55.0611 12.7454 56.0881 13.7933 57.0342 14.9102C57.9025 15.9311 58.7019 17.009 59.4385 18.1348C64.0254 25.162 66.0105 34.0515 65.2171 42.5188Z" fill="#AFD6ED"/>
<path d="M32.8316 32.9741H6.80688C8.0884 31.7525 9.80698 30.998 11.5735 30.8902C13.4957 30.7735 15.4569 31.4261 16.927 32.6716C19.1576 30.6267 22.2205 29.5129 25.2476 29.6506C28.068 29.7794 30.8225 30.992 32.8316 32.9741Z" fill="white"/>
<path d="M43.1517 15.9267H17.127C18.4085 14.7051 20.127 13.9507 21.8936 13.8428C23.8158 13.7261 25.7769 14.3787 27.247 15.6243C29.4776 13.5793 32.5406 12.4655 35.5677 12.6032C38.3882 12.732 41.1427 13.9446 43.1517 15.9267Z" fill="white"/>
<path d="M64.1742 34.6557H38.1494C39.4309 33.4341 41.1495 32.6797 42.916 32.5718C44.8382 32.4551 46.7994 33.1077 48.2695 34.3533C50.5001 32.3083 53.563 31.1945 56.5901 31.3322C59.4106 31.4612 62.1652 32.6738 64.1742 34.6557Z" fill="white"/>
<path d="M63.2321 51.4919C62.8937 52.4321 62.5135 53.3512 62.0913 54.2494C61.7021 55.0817 61.277 55.8961 60.8158 56.6895C59.4924 58.965 57.8786 61.0639 55.9654 62.9113C54.0702 64.7437 51.8815 66.3246 49.3964 67.5912C49.0761 67.7559 48.7526 67.9145 48.4264 68.0613C41.1627 71.3788 32.6086 70.4237 26.4226 66.0612C25.1352 65.157 23.9495 64.103 22.9015 62.9115C21.9135 61.7856 21.0422 60.5372 20.3206 59.1718C20.2548 59.0461 20.192 58.9202 20.129 58.7945C19.575 57.6896 19.117 56.5101 18.7697 55.2615C18.6829 55.0069 18.6021 54.7524 18.5241 54.4949C18.3475 53.9349 18.1858 53.3722 18.0211 52.8063C17.8925 52.3602 17.7636 51.914 17.626 51.4739C18.7068 46.848 20.5063 41.204 23.2849 37.9435C26.5514 34.111 31.5995 32.5661 34.9918 31.9433C35.1504 31.9134 35.3062 31.8864 35.4558 31.8624C36.5576 31.6768 37.4469 31.593 37.9889 31.5541C38.3631 31.5272 38.5728 31.5241 38.5728 31.5241L46.5251 30.605C46.5251 30.605 46.6898 30.6888 46.9862 30.8445C47.2048 30.9612 47.4922 31.117 47.8395 31.3085C47.9743 31.3833 48.118 31.4642 48.2707 31.548C51.9475 33.611 60.304 38.7129 62.1185 43.4495C62.8577 45.3779 63.1632 48.3391 63.2321 51.4919Z" fill="#FFC063"/>
<path d="M58.6665 21.2767C61.3157 16.2303 56.9026 8.69525 48.8095 4.44672C40.7165 0.198187 32.0082 0.84501 29.359 5.89144C26.7098 10.9379 31.123 18.4729 39.216 22.7215C47.3091 26.97 56.0174 26.3232 58.6665 21.2767Z" fill="#F7EDE5"/>
<path d="M47.1868 8.99777C47.1868 8.99777 42.5492 2.3216 39.848 3.2389C37.1469 4.1562 37.0451 7.97852 37.0451 7.97852C37.0451 7.97852 34.4459 6.24574 33.4267 8.23334C32.4074 10.2209 34.7518 14.4509 34.7518 14.4509L47.1359 9.20168L47.1868 8.99777Z" fill="#302945"/>
<path d="M50.474 15.9923C50.474 11.4536 46.7947 7.77441 42.2562 7.77441C38.0857 7.77441 34.6432 10.8818 34.1119 14.9073L34.0892 14.9094C34.0892 14.9094 33.3757 19.1904 34.1912 22.2991C35.0067 25.4079 36.5865 27.0897 36.5865 27.0897C36.5865 27.0897 37.3368 27.1043 38.3843 27.0251L39.3639 28.0708L38.1084 30.1853L37.9116 32.441C37.9116 32.441 35.2104 34.7343 38.4212 35.9575C41.6319 37.1807 46.983 31.014 46.983 31.014L47.1716 22.5724C49.1748 21.0739 50.474 18.6864 50.474 15.9923Z" fill="#FFA78F"/>
<g opacity="0.39">
<path d="M50.474 15.9923C50.474 11.4536 46.7947 7.77441 42.2562 7.77441C38.0857 7.77441 34.6432 10.8818 34.1119 14.9073L34.0892 14.9094C34.0892 14.9094 33.3757 19.1904 34.1912 22.2991C35.0067 25.4079 36.5865 27.0897 36.5865 27.0897C36.5865 27.0897 37.3368 27.1043 38.3843 27.0251L39.3639 28.0708L38.1084 30.1853L37.9116 32.441C37.9116 32.441 35.2104 34.7343 38.4212 35.9575C41.6319 37.1807 46.983 31.014 46.983 31.014L47.1716 22.5724C49.1748 21.0739 50.474 18.6864 50.474 15.9923Z" fill="#302945"/>
</g>
<path d="M48.4108 18.6785C49.0311 18.4787 49.7613 18.433 50.2884 18.8163C50.6741 19.0969 50.8886 19.5739 50.9188 20.05C50.9489 20.526 50.811 21.0006 50.6002 21.4286C50.0664 22.5122 49.0406 23.3412 47.8691 23.6361C47.5009 23.7288 47.1104 23.7704 46.7425 23.6763C46.0916 23.5098 45.5935 22.9082 45.4865 22.245C45.2265 20.6343 47.0441 19.1189 48.4108 18.6785Z" fill="#FFA78F"/>
<g opacity="0.39">
<path d="M48.4108 18.6785C49.0311 18.4787 49.7613 18.433 50.2884 18.8163C50.6741 19.0969 50.8886 19.5739 50.9188 20.05C50.9489 20.526 50.811 21.0006 50.6002 21.4286C50.0664 22.5122 49.0406 23.3412 47.8691 23.6361C47.5009 23.7288 47.1104 23.7704 46.7425 23.6763C46.0916 23.5098 45.5935 22.9082 45.4865 22.245C45.2265 20.6343 47.0441 19.1189 48.4108 18.6785Z" fill="#302945"/>
</g>
<path d="M47.1869 8.99756C47.1869 8.99756 45.9128 10.8323 46.1676 12.5649C46.4224 14.2977 46.983 15.0622 46.983 15.0622C46.983 15.0622 45.505 15.3679 45.403 16.8969C45.3011 18.4258 46.2694 19.9546 46.2694 19.9546L45.9637 21.0758C45.9637 21.0758 48.2061 17.6103 49.9389 18.6806C49.9389 18.6806 51.0092 17.1007 50.9072 14.6545C50.8053 12.2083 47.1869 8.99756 47.1869 8.99756Z" fill="#302945"/>
<path d="M38.3842 27.0254C38.3842 27.0254 41.1094 26.848 43.1352 25.8159L38.1025 30.1733L38.3842 27.0254Z" fill="#302945"/>
<path d="M37.0097 16.3928C36.8638 16.8669 36.5246 17.1833 36.2523 17.0995C35.9799 17.0157 35.8775 16.5633 36.0235 16.0892C36.1695 15.6152 36.5087 15.2988 36.7809 15.3826C37.0532 15.4664 37.1557 15.9187 37.0097 16.3928Z" fill="#302945"/>
<path d="M42.8194 17.9597C42.6735 18.4339 42.3343 18.7502 42.0619 18.6664C41.7895 18.5826 41.6871 18.1302 41.8331 17.6561C41.9791 17.1821 42.3182 16.8657 42.5905 16.9495C42.863 17.0333 42.9654 17.4856 42.8194 17.9597Z" fill="#302945"/>
<path d="M38.0518 19.8884C37.9993 19.8884 37.9484 19.861 37.9211 19.8118L37.386 18.8562C37.3593 18.8085 37.3607 18.75 37.3897 18.7036L39.3773 15.5311C39.4216 15.4612 39.5138 15.4399 39.5837 15.4837C39.6538 15.5276 39.675 15.62 39.6311 15.6902L37.6905 18.7876L38.1821 19.6657C38.2226 19.7379 38.1969 19.8291 38.1246 19.8694C38.1017 19.8824 38.0765 19.8884 38.0518 19.8884Z" fill="#302945"/>
<path d="M38.3145 21.5222C37.853 21.5222 37.4063 21.2851 37.1482 20.9023C37.102 20.834 37.1199 20.7409 37.1885 20.6948C37.2571 20.6479 37.3501 20.6664 37.3964 20.7351C37.5965 21.0316 37.9567 21.2228 38.3145 21.2228C38.3152 21.2228 38.3159 21.2228 38.3167 21.2228C38.6752 21.222 39.0356 21.0289 39.2349 20.7308C39.2809 20.6624 39.374 20.644 39.4425 20.6896C39.5112 20.7355 39.5298 20.8285 39.4837 20.8974C39.2266 21.2819 38.7797 21.5214 38.3173 21.5222C38.3165 21.5222 38.3155 21.5222 38.3145 21.5222Z" fill="#302945"/>
<path d="M35.9898 13.9658C35.9493 13.9658 35.9089 13.9494 35.8794 13.9172C35.8236 13.8561 35.8277 13.7614 35.8887 13.7056C36.3647 13.2699 37.0674 13.1231 37.6786 13.3307C37.7569 13.3575 37.7988 13.4426 37.7719 13.5208C37.7455 13.5991 37.6604 13.6403 37.5821 13.6143C37.0811 13.4439 36.4817 13.5688 36.0911 13.9267C36.0622 13.953 36.0259 13.9658 35.9898 13.9658Z" fill="#302945"/>
<path d="M44.2028 16.1056C44.1464 16.1056 44.0923 16.0737 44.067 16.0191C43.8127 15.4732 43.2616 15.0793 42.6625 15.0153C42.5804 15.0066 42.5209 14.9329 42.5297 14.8507C42.5382 14.7686 42.6115 14.7089 42.6945 14.7176C43.3955 14.7925 44.0408 15.2536 44.3384 15.8927C44.3734 15.9675 44.3409 16.0567 44.2658 16.0916C44.2454 16.1013 44.2239 16.1056 44.2028 16.1056Z" fill="#302945"/>
<path d="M46.677 22.6344C46.6554 22.6344 46.6333 22.6297 46.6123 22.6197C46.5378 22.5837 46.5063 22.4943 46.5422 22.4198C46.6493 22.1966 46.7864 21.9744 46.9867 21.6993C47.5582 20.9145 48.5153 19.9034 49.8295 19.5427C49.9084 19.5216 49.9917 19.5676 50.0135 19.6473C50.0354 19.7272 49.9885 19.8096 49.9089 19.8316C48.6781 20.1693 47.7721 21.1295 47.2288 21.8754C47.0395 22.1353 46.911 22.3433 46.812 22.5497C46.7863 22.603 46.7328 22.6344 46.677 22.6344Z" fill="#302945"/>
<path d="M49.1167 21.9268C49.0678 21.9268 49.0197 21.9027 48.991 21.8587C48.7213 21.4432 48.2465 21.1673 47.7521 21.1377C47.6697 21.1328 47.6067 21.0621 47.6116 20.9795C47.6164 20.8969 47.6889 20.8287 47.7699 20.8389C48.3575 20.8737 48.9215 21.202 49.2421 21.6956C49.2871 21.7649 49.2675 21.8576 49.1981 21.9026C49.1728 21.9189 49.1445 21.9268 49.1167 21.9268Z" fill="#302945"/>
<path d="M38.1538 29.6436L38.1209 29.9729C37.0281 30.3951 35.989 31.1796 35.1357 32.2364C34.0848 33.5418 33.411 35.1077 32.9409 36.3293C31.0667 41.2007 30.2762 46.4793 30.6265 51.6861C30.6624 52.1891 30.7074 52.6921 30.7613 53.1922C30.7703 53.2731 30.7103 53.3479 30.6265 53.3569H30.6115C30.5367 53.3569 30.4707 53.2999 30.4619 53.2251C30.408 52.737 30.3661 52.252 30.3301 51.764C29.9678 46.4944 30.7672 41.1499 32.6625 36.2216C33.1385 34.982 33.8242 33.3861 34.9021 32.0478C35.8243 30.9041 36.959 30.0687 38.1538 29.6436Z" fill="#302945"/>
<path d="M27.8225 52.5551L27.6921 52.1608C27.5362 51.6889 27.7929 51.1801 28.2653 51.0252L28.3453 50.9991C28.8423 50.8362 29.3727 51.1306 29.4973 51.6385L29.5979 52.048L27.8225 52.5551Z" fill="#302945"/>
<path d="M37.5146 50.3743L37.3842 49.98C37.2283 49.5081 37.4851 48.9993 37.9574 48.8445L38.0375 48.8182C38.5344 48.6553 39.0649 48.9497 39.1895 49.4576L39.29 49.8671L37.5146 50.3743Z" fill="#302945"/>
<path d="M45.3427 59.7645L43.9442 60.0902L43.7214 60.1397L29.4121 63.4641C28.9234 63.5794 28.4332 63.2728 28.3206 62.7825L26.5202 54.9817L26.4684 54.7585L26.2305 53.7286C26.1208 53.2458 26.4144 52.7621 26.8928 52.6399L40.7874 49.0905L41.0072 49.0333L42.2967 48.7049C42.7751 48.5827 43.2658 48.8661 43.398 49.3421L43.6847 50.3618L43.7469 50.5803L46.0126 58.6311C46.1531 59.1318 45.8478 59.6481 45.3427 59.7645Z" fill="#E38066"/>
<path d="M43.9443 60.0903L43.7217 60.1398L41.3449 51.1936L41.2878 50.974L40.7876 49.0903L41.0074 49.0332L41.507 50.919L41.5664 51.1392L43.9443 60.0903Z" fill="#302945"/>
<path d="M43.747 50.5801L41.5663 51.1392L41.3448 51.1936L26.5203 54.9818L26.4685 54.7585L41.2877 50.974L41.5069 50.919L43.6848 50.3616L43.747 50.5801Z" fill="#302945"/>
<path d="M37.1527 56.7308C37.5508 58.4282 36.9319 60.025 35.7703 60.2975C34.6086 60.57 33.3443 59.4149 32.9461 57.7176C32.548 56.0202 33.1669 54.4234 34.3285 54.1509C35.4901 53.8784 36.7546 55.0335 37.1527 56.7308Z" fill="#302945"/>
<path d="M37.4947 56.651C37.2762 55.7139 36.815 54.8875 36.2042 54.3276C35.5844 53.7618 34.8778 53.5342 34.2191 53.6899C33.5604 53.8426 33.0304 54.3605 32.7251 55.1451C32.4257 55.9175 32.3838 56.8607 32.6023 57.7978C32.9706 59.3637 33.9886 60.5285 35.0755 60.765C35.342 60.8218 35.6114 60.8249 35.8779 60.7621C37.2282 60.4445 37.9527 58.6001 37.4947 56.651ZM35.839 60.5943C34.5815 60.8907 33.2042 59.6182 32.77 57.7589C32.5573 56.8547 32.5963 55.9475 32.8837 55.2079C33.1682 54.4774 33.6562 53.9983 34.2581 53.8546C34.4975 53.8007 34.7462 53.7976 34.9947 53.8516C35.3689 53.9325 35.7432 54.1361 36.0905 54.4535C36.6774 54.9894 37.1175 55.7858 37.3302 56.6901C37.7641 58.5492 37.0964 60.3008 35.839 60.5943Z" fill="#302945"/>
<path d="M33.4145 55.7231C33.4221 55.7188 33.4298 55.7144 33.4375 55.7102C33.6334 55.6028 33.8757 55.7428 33.8788 55.9663C33.8861 56.4869 33.9673 57.0034 34.1064 57.5066C34.1516 57.6702 34.0588 57.8377 33.8947 57.8817C33.8656 57.8895 33.8365 57.8976 33.8077 57.9062C33.64 57.9556 33.4665 57.8578 33.426 57.6878C33.2906 57.1198 33.2156 56.5486 33.2574 55.9656C33.2647 55.8641 33.3262 55.7738 33.4145 55.7231Z" fill="#F7EDE5"/>
<path d="M28.688 54.9591L30.2499 54.5285C30.3717 54.4949 30.4974 54.5669 30.5301 54.6888L30.6757 55.2295C30.708 55.3499 30.6376 55.4739 30.5176 55.5078L28.9373 55.9533C28.812 55.9886 28.6826 55.9119 28.6535 55.785L28.5265 55.2294C28.4994 55.1106 28.5705 54.9915 28.688 54.9591Z" fill="#F7EDE5"/>
<path d="M37.9193 52.7083L39.4812 52.2777C39.603 52.2443 39.7287 52.3161 39.7616 52.4381L39.9072 52.9788C39.9395 53.0991 39.8691 53.2232 39.7491 53.2571L38.1688 53.7026C38.0435 53.7379 37.9141 53.6611 37.8851 53.5342L37.758 52.9786C37.7307 52.8598 37.8019 52.7407 37.9193 52.7083Z" fill="#F7EDE5"/>
<path d="M49.2499 36.5027C49.2648 38.7423 48.7917 41.1615 47.8037 43.8982C46.7438 46.8264 45.4413 49.1408 43.8455 50.9283C43.4952 51.3236 43.1269 51.6918 42.7467 52.0362C42.7167 52.0632 42.6809 52.0751 42.6449 52.0751C42.6059 52.0751 42.564 52.0602 42.5341 52.0272C42.4802 51.9643 42.4832 51.8684 42.546 51.8145C42.9652 51.4372 43.3664 51.027 43.7496 50.587C45.2616 48.8475 46.5042 46.6109 47.5222 43.7964C48.4983 41.0927 48.9654 38.7065 48.9504 36.5057C48.9324 33.9937 48.2467 31.6462 47.0072 29.8439L47.0102 29.3379C47.0162 29.3408 47.0192 29.3469 47.0252 29.3528C48.4414 31.2452 49.2319 33.7842 49.2499 36.5027Z" fill="#302945"/>
</g>
<defs>
<clipPath id="clip0_19_906">
<rect width="72" height="72" fill="white"/>
</clipPath>
</defs>
</svg>
