<svg width="100" height="100" viewBox="0 0 100 100" fill="none" xmlns="http://www.w3.org/2000/svg">
<path d="M50.2475 100C47.1162 100 43.9727 99.7104 40.9047 99.1389C37.2641 98.4664 33.7885 97.4102 30.5782 96.0002C30.2366 95.8559 29.8721 95.6869 29.5075 95.5172C27.9434 94.7777 26.409 93.9402 24.9309 93.0205C24.5637 92.7945 24.1901 92.5506 23.8215 92.302C16.9694 87.7371 11.5061 81.427 8.03733 74.0633C7.98929 73.9617 7.94202 73.86 7.89847 73.7574C-2.2947 51.5887 11.0182 24.1885 29.2135 11.5021C38.1033 5.30176 48.5973 1.88691 58.7619 1.88691C59.2059 1.88691 59.6522 1.89355 60.0963 1.90684L62.1436 0.499219C62.634 0.161914 63.1932 0 63.7467 0C64.6485 0 65.5346 0.429102 66.0842 1.22832L67.0885 2.68906C68.001 2.87051 68.9049 3.08301 69.7873 3.32305C80.0959 6.12324 88.7358 13.348 92.8983 22.6494C93.7899 24.6457 94.4799 26.7488 94.9506 28.9023C96.2854 35.0627 95.675 41.3557 93.0828 48.1129L94.667 52.1449C94.9418 52.8447 94.9276 53.6246 94.6272 54.3137C94.327 55.0027 93.7651 55.5443 93.0657 55.8191L88.6666 57.5469C87.9633 59.0791 87.2899 60.7986 86.9885 62.5562C86.6467 64.5441 86.752 66.658 86.8633 68.8965C86.9219 70.073 86.9823 71.2898 86.9774 72.5223C86.9438 79.5787 82.9485 86.6623 76.0166 91.9592C69.2397 97.1439 60.0873 100 50.2483 100C50.2477 100 50.2481 100 50.2475 100Z" fill="white"/>
<path d="M88.6963 51.45C87.0385 54.7797 85.1539 58.0906 84.5258 61.7556C83.9353 65.1892 84.4879 68.7033 84.4738 72.1889C84.4408 79.0845 79.9726 85.3 74.6261 89.3855C65.6617 96.2433 53.0418 98.1326 41.7537 96.0308C28.422 93.5683 33.4279 72.8262 27.6285 60.515C27.5908 60.4347 10.8554 72.373 10.8224 72.2926C1.48494 52.0545 13.2263 26.0115 31.1646 13.5049C42.141 5.84881 56.5133 2.23552 69.3742 5.73533C78.7117 8.27166 86.7361 14.7564 90.6422 23.4845C91.4498 25.2935 92.0779 27.1969 92.5125 29.1853C94.2269 37.0967 92.248 44.3371 88.6963 51.45Z" fill="#C3E8FA"/>
<path d="M85.6483 33.878L64.0803 2.51196L18.6498 33.751L40.2177 65.1171L85.6483 33.878Z" fill="#302945"/>
<g opacity="0.14">
<path d="M85.6483 33.878L64.0803 2.51196L18.6498 33.751L40.2177 65.1171L85.6483 33.878Z" fill="#9490F1"/>
</g>
<path d="M57.4665 43.4379L53.156 40.2627L51.2714 45.2744L49.6515 40.1693L45.1823 43.1205L46.8737 38.0375L41.522 37.7971L45.8774 34.6805L41.6907 31.3404L47.0448 31.375L45.623 26.2135L49.9335 29.3887L51.8181 24.377L53.438 29.482L57.9071 26.5309L56.2157 31.6139L61.5675 31.8543L57.212 34.9709L61.3989 38.3109L56.0446 38.2764L57.4665 43.4379Z" fill="#F7EDE5"/>
<path d="M71.0378 37.5653L54.9001 15.1458L61.4404 10.7112L61.5771 10.9098L76.9498 33.3063L71.0378 37.5653ZM55.5855 15.267L71.1478 36.8883L76.2812 33.1901L61.3138 11.3831L55.5855 15.267Z" fill="#F7EDE5"/>
<path d="M46.4229 53.922L32.1545 33.7747L34.5403 32.0854L48.8092 52.2325L46.4229 53.922ZM32.8305 33.8905L46.5387 53.2458L48.1331 52.1165L34.4245 32.7614L32.8305 33.8905Z" fill="#F7EDE5"/>
<path d="M41.7694 55.1917L29.0161 37.1846L31.0286 35.759L43.7815 53.7665L41.7694 55.1917ZM29.6021 37.2846L41.8694 54.6059L43.1958 53.6667L30.929 36.3452L29.6021 37.2846Z" fill="#F7EDE5"/>
<path d="M57.957 16.2742L61.6275 13.7507L62.1793 14.5525C62.5578 15.1031 62.4502 15.5869 61.8574 15.9943L61.5428 16.2103C60.9502 16.6177 60.4654 16.5419 60.0869 15.9914L59.8166 15.5982L58.2385 16.6837L57.957 16.2742ZM60.1889 15.3423L60.459 15.7355C60.6613 16.0294 60.8838 16.0611 61.2406 15.816L61.6021 15.5671C61.9586 15.3222 62.0088 15.1025 61.8064 14.8089L61.5363 14.4156L60.1889 15.3423Z" fill="#F7EDE5"/>
<path d="M60.3881 19.8098L61.0758 19.136L60.4918 18.2868L59.6166 18.6877L59.3535 18.3049L63.4928 16.4631L63.8713 17.0137L60.6732 20.2237L60.3881 19.8098ZM60.8916 18.1045L61.3891 18.8282L63.2025 17.0405L60.8916 18.1045Z" fill="#F7EDE5"/>
<path d="M62.1354 20.1157L62.4024 20.5041L62.1664 20.6661C61.8412 20.8897 61.7762 21.1434 61.9709 21.4268C62.1692 21.7151 62.4289 21.7444 62.7594 21.5174C62.927 21.4022 63.0453 21.2592 63.1188 21.0856C63.1953 20.9163 63.2463 20.6651 63.277 20.3276C63.3078 19.9348 63.3744 19.6272 63.4739 19.4121C63.5733 19.1969 63.7295 19.0198 63.9391 18.876C64.4897 18.4971 65.0203 18.5727 65.3807 19.0969C65.7412 19.6215 65.6158 20.1243 65.05 20.5137L64.9033 20.6149L64.6365 20.227L64.8094 20.1082C65.1344 19.884 65.1994 19.6311 65.0084 19.353C64.8172 19.0754 64.5629 19.042 64.2432 19.262C64.0912 19.3664 63.9836 19.5022 63.9155 19.6725C63.8471 19.8428 63.7998 20.0998 63.7731 20.4424C63.736 20.8381 63.6662 21.1413 63.5584 21.3539C63.4592 21.5696 63.2979 21.75 63.0721 21.9053C62.5004 22.2981 61.9664 22.2176 61.6022 21.6883C61.2379 21.1584 61.3598 20.6498 61.9313 20.2571L62.1354 20.1157Z" fill="#F7EDE5"/>
<path d="M63.7335 22.4402L64.0001 22.8283L63.7641 22.9906C63.439 23.2138 63.3741 23.4677 63.5688 23.7508C63.7669 24.039 64.0266 24.0689 64.3571 23.842C64.5249 23.7265 64.6433 23.5838 64.7167 23.4095C64.7934 23.2408 64.8442 22.989 64.8751 22.6517C64.9059 22.2595 64.9725 21.9513 65.072 21.7363C65.1714 21.5211 65.3276 21.3445 65.5372 21.2002C66.088 20.8216 66.6184 20.8972 66.979 21.4215C67.3393 21.9457 67.2141 22.449 66.6483 22.8383L66.5015 22.9388L66.2347 22.5509L66.4073 22.4324C66.7323 22.2088 66.7977 21.9552 66.6063 21.6775C66.4155 21.3994 66.161 21.3662 65.8411 21.5859C65.6891 21.6904 65.5817 21.8261 65.5136 21.9968C65.4452 22.1672 65.3977 22.4236 65.3708 22.7662C65.3341 23.1623 65.2643 23.465 65.1565 23.6783C65.0573 23.8933 64.8956 24.0738 64.67 24.2293C64.0983 24.6218 63.564 24.5416 63.2001 24.0121C62.8358 23.4826 62.9577 22.9742 63.529 22.5808L63.7335 22.4402Z" fill="#F7EDE5"/>
<path d="M64.3638 25.5919L68.0343 23.0681L68.586 23.8705C68.9646 24.421 68.8567 24.9042 68.2642 25.3117L67.9497 25.5283C67.3571 25.9357 66.8724 25.8599 66.4938 25.3093L66.2233 24.9162L64.645 26.0011L64.3638 25.5919ZM66.5956 24.6595L66.8661 25.0527C67.0683 25.3466 67.2907 25.3789 67.6476 25.1334L68.0091 24.8845C68.3653 24.6396 68.4157 24.4205 68.2136 24.1263L67.9431 23.7332L66.5956 24.6595Z" fill="#F7EDE5"/>
<path d="M66.8416 27.365L68.808 26.013C69.3896 25.6128 69.9152 25.6917 70.2865 26.2316C70.6617 26.7773 70.5472 27.2959 69.9656 27.6962L67.9992 29.0482C67.4169 29.4486 66.8863 29.3734 66.5113 28.8277C66.14 28.2876 66.2595 27.7652 66.8416 27.365ZM67.6916 28.6572L69.7099 27.2693C70.0457 27.0384 70.1123 26.7763 69.914 26.4876C69.7158 26.1994 69.4507 26.1734 69.115 26.4041L67.0964 27.7919C66.7554 28.0265 66.6853 28.2834 66.8834 28.5716C67.0814 28.8599 67.3507 28.8917 67.6916 28.6572Z" fill="#F7EDE5"/>
<path d="M67.7292 30.487L71.3998 27.9631L71.9515 28.7649C72.3517 29.3471 72.2591 29.7741 71.6874 30.1672L71.4615 30.3221C71.0582 30.5999 70.7144 30.6274 70.4304 30.4057L70.4251 30.409C70.5498 30.7481 70.3906 31.0661 69.9552 31.3659L69.2996 31.8161C69.1005 31.9532 68.9648 32.0702 68.8902 32.1756L68.6052 31.7612C68.6884 31.6573 68.8248 31.5409 69.0183 31.4075L69.6951 30.9426C70.0882 30.6719 70.1361 30.4383 69.8945 30.087L69.6675 29.7565L68.0101 30.8961L67.7292 30.487ZM70.04 29.5008L70.2669 29.8307C70.4943 30.161 70.7455 30.2125 71.1023 29.967L71.3644 29.7872C71.7208 29.5417 71.7847 29.3202 71.572 29.0108L71.3089 28.6282L70.04 29.5008Z" fill="#F7EDE5"/>
<path d="M69.7671 33.4504L73.0651 31.1826L72.6183 30.5328L72.9909 30.2764L74.1661 31.9855L73.7938 32.242L73.3468 31.5918L70.0483 33.8596L69.7671 33.4504Z" fill="#F7EDE5"/>
<path d="M64.897 3.72003L19.7144 35.1201L19.8656 35.3378L65.0483 3.93768L64.897 3.72003Z" fill="#F7EDE5"/>
<path d="M92.3622 52.8636L78.4417 17.4321L27.1227 37.5947L41.0433 73.0262L92.3622 52.8636Z" fill="#302945"/>
<g opacity="0.41">
<path d="M92.3622 52.8636L78.4417 17.4321L27.1227 37.5947L41.0433 73.0262L92.3622 52.8636Z" fill="#9490F1"/>
</g>
<path d="M62.7478 55.8011L59.2664 51.7335L56.2978 56.1896L55.874 50.8505L50.8533 52.7149L53.65 48.1458L48.491 46.7019L53.4382 44.6505L50.1148 40.4505L55.3226 41.6944L55.1043 36.345L58.5855 40.4124L61.5542 35.9565L61.9781 41.2956L66.9988 39.4312L64.2021 44.0003L69.3611 45.444L64.4138 47.4956L67.7373 51.6956L62.5294 50.4517L62.7478 55.8011Z" fill="#F7EDE5"/>
<path d="M77.2952 53.1483L66.6431 27.6612L74.0165 24.8198L74.1048 25.044L84.0169 50.3358L77.2952 53.1483ZM67.2833 27.9343L77.5554 52.5138L83.3919 50.0716L73.7413 25.4456L67.2833 27.9343Z" fill="#F7EDE5"/>
<path d="M49.6199 63.5175L40.2751 40.6663L42.981 39.5601L52.3263 62.411L49.6199 63.5175ZM40.9076 40.9319L49.8857 62.8851L51.6939 62.1454L42.7154 40.1925L40.9076 40.9319Z" fill="#F7EDE5"/>
<path d="M44.8 63.7023L36.4473 43.2785L38.7299 42.3447L47.0822 62.7688L44.8 63.7023ZM36.9955 43.5084L45.0299 63.1543L46.5342 62.5391L38.5004 42.893L36.9955 43.5084Z" fill="#F7EDE5"/>
<path d="M69.3657 29.4511L73.5118 27.8228L73.8679 28.7284C74.1122 29.3503 73.898 29.7972 73.2284 30.0603L72.8731 30.1995C72.2038 30.4624 71.7487 30.279 71.5046 29.6571L71.33 29.213L69.5474 29.9136L69.3657 29.4511ZM71.7505 29.0479L71.9247 29.4921C72.0554 29.8241 72.2649 29.9054 72.6681 29.7474L73.0765 29.5866C73.479 29.4286 73.5776 29.2259 73.4468 28.8942L73.2726 28.4501L71.7505 29.0479Z" fill="#F7EDE5"/>
<path d="M70.9344 33.4451L71.7564 32.9443L71.3795 31.985L70.4363 32.1775L70.2666 31.7453L74.715 30.8867L74.9592 31.5086L71.1182 33.9125L70.9344 33.4451ZM71.8103 31.8977L72.1312 32.715L74.302 31.3836L71.8103 31.8977Z" fill="#F7EDE5"/>
<path d="M72.5676 34.138L72.7399 34.5767L72.4735 34.6811C72.1063 34.8255 71.9854 35.0577 72.111 35.3778C72.2389 35.7034 72.4854 35.7907 72.8586 35.6442C73.0479 35.5698 73.1955 35.4573 73.3063 35.3048C73.4192 35.1571 73.5256 34.9239 73.6319 34.6022C73.7508 34.2267 73.885 33.9421 74.0307 33.755C74.1762 33.5679 74.3682 33.4306 74.6049 33.338C75.227 33.0933 75.7268 33.2868 75.9594 33.879C76.1918 34.4716 75.9563 34.9329 75.317 35.1845L75.1512 35.2499L74.9789 34.8116L75.1742 34.7351C75.5416 34.5901 75.6621 34.3585 75.5387 34.0442C75.4153 33.7306 75.175 33.6407 74.8137 33.7827C74.642 33.8501 74.5067 33.9581 74.4018 34.1085C74.2967 34.2589 74.1924 34.4985 74.0891 34.8263C73.9635 35.2032 73.8272 35.4829 73.6741 35.6657C73.5287 35.8534 73.3307 35.9927 73.0756 36.0929C72.4299 36.3462 71.928 36.1472 71.6928 35.5491C71.4578 34.9505 71.6914 34.4827 72.3367 34.2294L72.5676 34.138Z" fill="#F7EDE5"/>
<path d="M73.5991 36.7633L73.7711 37.2015L73.5045 37.3064C73.1373 37.4504 73.0166 37.6832 73.1424 38.0027C73.2701 38.3283 73.5164 38.4162 73.8897 38.2697C74.0793 38.1953 74.2268 38.0828 74.3377 37.9297C74.4506 37.7826 74.5571 37.549 74.6633 37.2271C74.7823 36.8519 74.9164 36.567 75.0621 36.3799C75.2076 36.1927 75.3996 36.056 75.6364 35.9629C76.2584 35.7187 76.7582 35.9123 76.9908 36.5043C77.2235 37.0963 76.9877 37.5582 76.3485 37.8095L76.1826 37.8744L76.0104 37.4361L76.2053 37.3595C76.5725 37.2152 76.6934 36.9828 76.5698 36.6693C76.4467 36.3552 76.2063 36.2654 75.8451 36.4072C75.6735 36.4746 75.5381 36.5826 75.433 36.7336C75.3282 36.884 75.2239 37.1232 75.1201 37.4508C74.9948 37.8283 74.8584 38.1074 74.7053 38.2906C74.56 38.4777 74.3617 38.617 74.1069 38.7174C73.4612 38.9707 72.959 38.7717 72.7241 38.1736C72.4891 37.5756 72.7227 37.1078 73.368 36.8539L73.5991 36.7633Z" fill="#F7EDE5"/>
<path d="M73.5002 39.9761L77.6463 38.3474L78.0024 39.2537C78.2467 39.8755 78.0325 40.3218 77.3629 40.5847L77.0077 40.7246C76.3383 40.9874 75.8832 40.8041 75.6391 40.1822L75.4645 39.738L73.6819 40.4382L73.5002 39.9761ZM75.885 39.5724L76.0596 40.0166C76.1901 40.3486 76.3997 40.4302 76.8026 40.2716L77.211 40.1109C77.6135 39.9529 77.7122 39.7507 77.5817 39.4185L77.4071 38.9744L75.885 39.5724Z" fill="#F7EDE5"/>
<path d="M75.5135 42.2632L77.7346 41.3908C78.3916 41.1324 78.8858 41.3281 79.1254 41.938C79.3676 42.5544 79.1387 43.0337 78.4817 43.2921L76.2606 44.1646C75.6029 44.423 75.103 44.2298 74.861 43.6134C74.6213 43.0034 74.8559 42.5216 75.5135 42.2632ZM76.0492 43.7142L78.3291 42.8185C78.7082 42.6695 78.8326 42.4294 78.7047 42.1033C78.5768 41.7777 78.3244 41.6923 77.9451 41.8413L75.6653 42.737C75.2801 42.8884 75.1535 43.1228 75.2815 43.4484C75.4094 43.774 75.6643 43.8656 76.0492 43.7142Z" fill="#F7EDE5"/>
<path d="M75.6724 45.5049L79.8185 43.8762L80.1747 44.7819C80.4329 45.4395 80.2462 45.8344 79.6005 46.0883L79.3454 46.1881C78.8897 46.3676 78.5485 46.3166 78.3222 46.0366L78.3163 46.0385C78.361 46.3969 78.1341 46.6708 77.6423 46.8645L76.9019 47.1547C76.6771 47.2434 76.5183 47.3266 76.422 47.4124L76.238 46.9444C76.3425 46.862 76.5017 46.7793 76.7204 46.6932L77.4847 46.3932C77.929 46.2184 78.0284 46.0018 77.8724 45.6047L77.7261 45.2315L75.854 45.967L75.6724 45.5049ZM78.146 45.0667L78.2925 45.4393C78.4392 45.8125 78.6722 45.9194 79.0753 45.7608L79.3714 45.6448C79.7741 45.4862 79.8864 45.2848 79.7491 44.9354L79.5794 44.5032L78.146 45.0667Z" fill="#F7EDE5"/>
<path d="M76.9873 48.8525L80.7127 47.3889L80.4242 46.6549L80.8451 46.4893L81.6035 48.4197L81.1828 48.5854L80.8943 47.8508L77.1686 49.3145L76.9873 48.8525Z" fill="#F7EDE5"/>
<path d="M78.9569 18.7829L27.854 39.168L27.9523 39.4143L79.0551 19.0293L78.9569 18.7829Z" fill="#F7EDE5"/>
<path d="M54.4776 67.7916L49.4571 76.109C49.4571 76.109 47.5252 84.4736 45.2725 89.1351C44.4083 90.9205 43.0762 93.5134 41.7538 96.0308C38.3532 95.4027 35.0706 94.4109 32.0479 93.0836C31.7032 92.9371 31.3678 92.7812 31.0325 92.6254C29.5541 91.9263 28.1325 91.147 26.7581 90.2922C26.4133 90.0797 26.0733 89.8576 25.7379 89.631C19.3288 85.3613 14.1618 79.3914 10.9311 72.5336C10.8934 72.4533 10.8555 72.373 10.8225 72.2927C11.8286 68.0183 12.2159 64.8302 16.3344 61.6422C21.3172 57.7834 28.8741 48.9371 28.8741 48.9371L34.1829 56.0123C34.1829 56.0123 42.6229 43.9922 46.803 44.4785C50.9829 44.9603 50.4207 50.7082 49.4573 55.2093C48.4891 59.7105 40.7715 73.2183 40.7715 73.2183L54.4776 67.7916Z" fill="#FFA78F"/>
<g opacity="0.31">
<path d="M54.4776 67.7916L49.4571 76.109C49.4571 76.109 47.5252 84.4736 45.2725 89.1351C44.4083 90.9205 43.0762 93.5134 41.7538 96.0308C38.3532 95.4027 35.0706 94.4109 32.0479 93.0836C31.7032 92.9371 31.3678 92.7812 31.0325 92.6254C29.5541 91.9263 28.1325 91.147 26.7581 90.2922C26.4133 90.0797 26.0733 89.8576 25.7379 89.631C19.3288 85.3613 14.1618 79.3914 10.9311 72.5336C10.8934 72.4533 10.8555 72.373 10.8225 72.2927C11.8286 68.0183 12.2159 64.8302 16.3344 61.6422C21.3172 57.7834 28.8741 48.9371 28.8741 48.9371L34.1829 56.0123C34.1829 56.0123 42.6229 43.9922 46.803 44.4785C50.9829 44.9603 50.4207 50.7082 49.4573 55.2093C48.4891 59.7105 40.7715 73.2183 40.7715 73.2183L54.4776 67.7916Z" fill="#302945"/>
</g>
<path d="M39.205 92.707C39.1876 92.707 39.1703 92.7053 39.1527 92.701C39.0253 92.6725 38.9456 92.5461 38.9744 92.4187C38.9888 92.3551 40.4177 85.9877 40.5363 80.6484C40.6552 75.299 40.5378 73.2512 40.5367 73.2312C40.5339 73.1861 40.5443 73.1408 40.5663 73.1016C40.6037 73.0348 44.3255 66.3863 46.3494 62.3387C48.1697 58.6986 50.0693 53.2686 49.9421 48.9453C49.8826 46.9205 49.1732 45.456 47.9962 44.9269C46.5777 44.2904 44.5912 44.9896 42.2503 46.949C38.8142 49.8258 34.1277 56.7871 30.7058 61.8701C29.5718 63.5545 28.5927 65.0094 27.8193 66.0799C24.6939 70.4072 23.0027 71.5211 22.9322 71.5668C22.8224 71.6373 22.6771 71.6051 22.6064 71.4963C22.5357 71.3865 22.5671 71.2408 22.6763 71.1697C22.6929 71.1592 24.3773 70.0389 27.4365 65.8033C28.2052 64.7393 29.1826 63.2877 30.3138 61.6064C33.7513 56.5 38.4595 49.5068 41.947 46.5867C45.0913 43.9549 47.0775 43.9978 48.1894 44.4965C49.538 45.1025 50.349 46.7187 50.4142 48.9316C50.5435 53.3424 48.6175 58.8584 46.7716 62.5502C44.8453 66.4029 41.3882 72.5986 41.0115 73.273C41.0306 73.6738 41.1156 75.8283 41.0081 80.6588C40.8882 86.0469 39.4492 92.459 39.4347 92.5232C39.4101 92.6328 39.3128 92.707 39.205 92.707Z" fill="#302945"/>
<path d="M43.643 55.0263C42.6032 55.0263 41.6278 54.6265 41.0034 53.907C40.3839 53.1939 40.0948 52.1549 40.2098 51.0566C40.3239 49.9617 40.8118 48.9562 41.1688 48.2947C42.1923 46.398 43.4294 45.2302 44.8452 44.824C46.004 44.492 47.1468 44.6658 48.0612 45.3142C48.9802 45.966 49.5475 47.042 49.618 48.2662C49.7055 49.7814 49.0485 51.4082 47.7682 52.8467C46.7893 53.9476 45.7282 54.6418 44.6147 54.9101C44.2901 54.9885 43.9635 55.0263 43.643 55.0263ZM44.9757 45.2777C43.6862 45.648 42.5454 46.7385 41.5844 48.5187C41.2466 49.1447 40.7854 50.0939 40.6796 51.1052C40.5784 52.0744 40.8262 52.9824 41.36 53.5968C42.0524 54.3943 43.3157 54.7388 44.504 54.4506C45.5219 54.2052 46.5016 53.5599 47.4153 52.5328C48.6118 51.1879 49.2266 49.6824 49.1466 48.2926C49.0843 47.2129 48.5889 46.2677 47.7878 45.6994C46.9926 45.1353 45.9932 44.9859 44.9755 45.2773H44.9757V45.2777Z" fill="#302945"/>
<path d="M48.8172 75.2137C48.7711 75.2137 48.7244 75.2004 48.6834 75.1723C46.8888 73.9372 44.9119 73.0243 42.8072 72.4598C42.681 72.4256 42.6064 72.2961 42.6402 72.1702C42.6742 72.0448 42.8047 71.9723 42.9295 72.0032C45.0865 72.5821 47.1125 73.5174 48.9513 74.7831C49.0586 74.8573 49.0857 75.004 49.0117 75.1114C48.9662 75.1784 48.8924 75.2137 48.8172 75.2137Z" fill="#302945"/>
<path d="M39.3884 89.4749L40.4542 90.9864C40.8374 91.5298 41.5548 91.7202 42.1569 91.4386L42.1979 91.4194C42.7044 91.1825 43.3018 91.2743 43.7108 91.6556C45.3046 93.1415 49.7181 96.4884 55.011 93.9601C61.677 90.7757 61.9958 85.8804 61.9399 84.3173C61.8997 83.1927 61.2452 80.7034 60.8813 79.3954C60.7376 78.8786 60.9087 78.3296 61.3182 77.9833L61.5741 77.7669C62.0503 77.3644 62.7348 77.3345 63.2466 77.6905C65.1757 79.0319 70.0884 81.9054 74.445 79.9368C80.011 77.422 81.8911 74.0665 82.2817 69.6892C82.5089 67.1444 80.4423 64.4603 79.1995 63.0948C78.7126 62.5597 78.7354 61.736 79.2421 61.2194C79.7368 60.7147 79.7673 59.9169 79.3126 59.3759L78.4807 58.3862C78.0577 57.8829 77.3393 57.7487 76.7649 58.0689C74.7766 59.1774 70.2624 61.871 67.3923 64.954C64.1134 68.4761 61.5563 73.2769 60.9479 74.4632C60.8538 74.6466 60.72 74.8044 60.5556 74.9286L59.6657 75.6003C59.4845 75.737 59.2759 75.8261 59.0514 75.8604C57.9253 76.0329 53.9694 76.8296 48.4487 80.052C43.544 82.9149 40.6018 86.3069 39.4239 87.8452C39.0571 88.3237 39.0409 88.9821 39.3884 89.4749Z" fill="#9490F1"/>
<path d="M56.9283 90.5452C55.5549 91.9118 54.2553 92.5952 53.0395 92.7962C51.5754 93.0429 50.2244 92.596 48.9891 91.8212C47.5713 90.9296 46.3111 89.6032 45.2041 88.411C44.6529 87.8181 44.6291 86.9118 45.1459 86.2907C45.8488 85.4538 46.9367 84.2462 48.2994 83.0341C49.5404 81.9232 51.0186 80.8077 52.6307 79.9638C53.6627 79.4255 54.7543 78.9978 55.8731 78.7618C56.499 78.629 57.1479 78.9079 57.4981 79.4405C58.7711 81.3653 61.2357 86.2622 56.9283 90.5452Z" fill="#302945"/>
<path d="M76.6095 75.7123C75.6685 76.4461 74.7402 76.9342 73.8341 77.2268C72.4316 77.6864 71.0925 77.6926 69.8806 77.4424C67.6279 76.9875 65.8113 75.6801 64.8281 74.8332C64.3103 74.3846 64.1042 73.6678 64.3289 73.0221C65.2261 70.4496 67.0869 68.1731 69.0109 66.3676C70.5955 64.8746 72.2218 63.6994 73.3765 62.9366C73.4892 62.861 73.6011 62.7907 73.7019 62.7241C74.4224 62.2604 75.3749 62.4045 75.9273 63.0674C78.8052 66.5067 82.4533 71.1659 76.6095 75.7123Z" fill="#302945"/>
<path d="M42.4438 89.1377C42.3815 89.5836 41.9694 89.8948 41.5233 89.8323C41.0772 89.77 40.7663 89.3578 40.8288 88.9117C40.8911 88.4658 41.3032 88.1547 41.7493 88.2172C42.1952 88.2795 42.5063 88.6916 42.4438 89.1377Z" fill="#302945"/>
<path d="M78.2009 59.8675C78.1386 60.3136 77.7265 60.6245 77.2804 60.562C76.8343 60.4997 76.5234 60.0876 76.5859 59.6415C76.6482 59.1954 77.0603 58.8845 77.5064 58.947C77.9525 59.0093 78.2634 59.4216 78.2009 59.8675Z" fill="#302945"/>
<g opacity="0.29">
<path d="M53.0394 92.7961C51.5753 93.0428 50.2243 92.5959 48.989 91.8211L48.2993 83.0342C49.5403 81.9232 51.0185 80.8078 52.6306 79.9639L53.0394 92.7961Z" fill="#F7EDE5"/>
</g>
<g opacity="0.29">
<path d="M73.834 77.2268C72.4314 77.6863 71.0924 77.6926 69.8805 77.4424L69.0107 66.3676C70.5953 64.8746 72.2217 63.6994 73.3764 62.9365L73.834 77.2268Z" fill="#F7EDE5"/>
</g>
<path d="M83.0606 19.9531L85.2003 19.9111C85.5751 19.9039 85.7347 20.3846 85.43 20.6029L83.8235 21.7541C83.7278 21.8227 83.6692 21.9316 83.6646 22.0492L83.5554 24.8244C83.5409 25.1908 83.0683 25.3279 82.8599 25.0262L81.5314 23.1002C81.4577 22.9934 81.3351 22.9315 81.2056 22.9354L78.6722 23.0127C78.2962 23.0242 78.1321 22.5422 78.437 22.3219L80.3985 20.9053C80.5042 20.8289 80.5636 20.7039 80.5562 20.5736L80.413 18.1086C80.3917 17.7428 80.8482 17.5602 81.0851 17.8397L82.762 19.8182C82.8362 19.9059 82.9458 19.9555 83.0606 19.9531Z" fill="white"/>
<path d="M69.3937 85.7143L71.5334 85.6723C71.9082 85.665 72.0677 86.1457 71.7632 86.3641L70.1568 87.5152C70.0611 87.5838 70.0023 87.6928 69.9976 87.8103L69.8884 90.5855C69.874 90.9521 69.4013 91.0893 69.1929 90.7873L67.8646 88.8611C67.791 88.7545 67.6683 88.6924 67.5388 88.6963L65.0054 88.7736C64.6294 88.7852 64.4654 88.3031 64.7703 88.0828L66.7318 86.6662C66.8375 86.5898 66.8968 86.4648 66.8894 86.3348L66.746 83.8695C66.7248 83.5037 67.1812 83.3211 67.4181 83.6008L69.0951 85.5793C69.1693 85.667 69.2791 85.7166 69.3937 85.7143Z" fill="white"/>
<path d="M17.7819 47.6082L19.9215 47.5662C20.2963 47.559 20.4559 48.0397 20.1512 48.258L18.5448 49.4092C18.4491 49.4777 18.3905 49.5867 18.3858 49.7043L18.2766 52.4795C18.2622 52.8459 17.7895 52.983 17.5811 52.6813L16.2528 50.7553C16.1792 50.6484 16.0565 50.5865 15.927 50.5904L13.3936 50.6678C13.0176 50.6793 12.8536 50.1973 13.1585 49.977L15.12 48.5604C15.2256 48.484 15.285 48.359 15.2776 48.2289L15.1342 45.7639C15.1129 45.3981 15.5694 45.2154 15.8063 45.4949L17.4833 47.4734C17.5575 47.5609 17.667 47.6106 17.7819 47.6082Z" fill="white"/>
<path d="M41.2565 14.969L43.3961 14.927C43.771 14.9195 43.9305 15.4004 43.6258 15.6188L42.0194 16.7699C41.9237 16.8385 41.8649 16.9475 41.8604 17.065L41.7512 19.8402C41.7368 20.2068 41.2641 20.3438 41.0557 20.0418L39.7274 18.1158C39.654 18.009 39.5311 17.9471 39.4016 17.951L36.8682 18.0283C36.4922 18.0399 36.3282 17.5578 36.6331 17.3375L38.5946 15.9209C38.7002 15.8445 38.7596 15.7195 38.7522 15.5895L38.609 13.1242C38.5877 12.7584 39.0442 12.5758 39.2811 12.8553L40.9581 14.8338C41.0321 14.9215 41.1417 14.9711 41.2565 14.969Z" fill="white"/>
</svg>
