<svg width="100" height="100" viewBox="0 0 100 100" fill="none" xmlns="http://www.w3.org/2000/svg">
<g clip-path="url(#clip0_19_1370)">
<path d="M7.57483 100C6.11815 100 4.93726 98.8191 4.93726 97.3622V45.0595C4.93726 38.2177 6.51367 31.2838 9.57919 25.1267C11.0238 22.1966 12.8146 19.3998 14.9079 16.8048L14.6985 15.1518C14.5393 13.9043 14.9247 12.6451 15.7571 11.6996C16.5892 10.7544 17.7884 10.2126 19.048 10.2126H21.4297C21.7762 9.92804 22.126 9.64894 22.4759 9.37764C27.2772 5.65448 33.0527 2.85596 38.9658 1.36315C45.3507 -0.248816 52.1529 -0.431829 58.6173 0.817817C64.8775 2.0282 70.8929 4.615 76.0849 8.31159C76.8089 8.82723 77.5177 9.36416 78.2101 9.92179C78.3298 10.0173 78.4501 10.1144 78.5703 10.2126H81.5534C82.8327 10.2126 84.0441 10.7681 84.8779 11.7369C85.7119 12.7057 86.0807 13.9866 85.8906 15.2512L85.5677 17.3943C89.0227 21.8243 91.5791 26.7795 93.173 32.14C94.4192 36.3308 95.0628 40.6868 95.0628 45.0597V97.3622C95.0628 98.8191 93.8819 100 92.4252 100H7.57483Z" fill="white"/>
<path d="M92.659 45.6445V97.3626H86.7156L69.7425 93.1002L52.7791 97.3626H26.3289L20.6584 92.5816L9.6376 97.3626H7.80884V59.9664L15.2559 51.5904C15.2559 47.7131 9.29638 38.137 10.2677 34.5719C10.3292 34.3477 9.49229 33.1863 9.49229 33.1863C11.7832 25.8843 15.9046 19.3615 21.3545 14.0059C23.2552 12.138 25.4512 10.5247 27.7047 9.10983C27.7047 9.10983 34.1825 9.70066 37.2728 8.64126C39.3168 7.93343 41.0721 5.89313 43.2394 5.5064C45.4549 5.11069 49.5657 2.63913 49.5657 2.63913C55.5048 2.54909 61.5227 3.71279 67.0088 6.08122C70.5431 7.60217 73.8313 9.59363 76.7898 11.9761C83.0692 17.0333 87.9122 23.9153 90.4714 31.5992C90.6142 32.0279 90.7499 32.4588 90.8789 32.892C90.8789 32.892 87.501 37.9835 87.7879 39.7381C88.1659 42.0065 92.659 45.6445 92.659 45.6445Z" fill="#C3E8FA"/>
<path d="M74.9772 94.7222L71.317 97.3625H52.7793C54.375 92.6061 58.0148 88.9795 62.7493 88.1003C66.7928 87.3491 70.8068 88.7529 73.8864 91.5832L74.9772 94.7222Z" fill="#FFCA6D"/>
<path d="M92.659 45.06V45.6446C85.4014 49.0162 76.8337 43.9346 76.8337 43.9346L90.8787 32.8921C91.0502 33.4503 91.2084 34.0175 91.3535 34.589C91.6435 35.7363 91.8898 36.8969 92.0832 38.0794C92.4611 40.3476 92.659 42.6818 92.659 45.06Z" fill="#739EFF"/>
<path d="M7.80884 59.9664V45.0599C7.80884 41.1827 8.3276 37.4286 9.29912 33.8635V33.8547C9.36064 33.6305 9.42217 33.4107 9.49248 33.1865C15.3391 34.435 19.924 38.589 20.7813 44.106C21.9065 51.3767 16.1392 58.3531 7.80884 59.9664Z" fill="#FFCA6D"/>
<path d="M83.5162 14.8588L79.3017 42.8602L83.3055 84.5851L83.3614 85.1613C83.4602 86.1847 82.6061 85.83 81.5738 85.83H18.7298C17.6891 85.83 16.5856 86.1718 16.6973 85.1398L16.7574 84.5851L21.1785 43.4495L17.5489 14.8201C17.4157 13.7752 18.2284 12.8503 19.2821 12.8503H81.7877C82.8584 12.8503 83.6754 13.801 83.5162 14.8588Z" fill="#313045"/>
<path d="M83.3614 85.1611C83.4603 86.1846 82.6518 87.0749 81.6196 87.0749H18.4347C17.3941 87.0749 16.5855 86.1717 16.6974 85.1397L16.7575 84.585H83.3056L83.3614 85.1611Z" fill="#739EFF"/>
<path d="M22.4932 42.4957L19.3455 15.1182H81.5102L77.3218 42.4227C77.3218 42.4227 22.42 42.4957 22.4932 42.4957Z" fill="#ABD8DB"/>
<path d="M79.1519 43.5568H21.1785C21.1193 43.5568 21.0713 43.5087 21.0713 43.4492C21.0713 43.3896 21.1193 43.3416 21.1785 43.3416H79.1519C79.2111 43.3416 79.2591 43.3896 79.2591 43.4492C79.2591 43.5087 79.2113 43.5568 79.1519 43.5568Z" fill="#739EFF"/>
<path d="M80.3337 68.7996L80.3122 68.6043L79.9122 65.1104L79.8864 64.9151L79.4864 61.4174L79.4649 61.2221L79.0649 57.7243L79.0434 57.529L78.6434 54.0351L78.6219 53.8398L78.2219 50.342L78.1961 50.1467L77.8305 46.9421C77.8262 46.8914 77.7789 46.8562 77.7231 46.8562H73.461C72.0891 46.8562 70.7516 46.8562 69.4529 46.8601C69.3799 46.8562 69.3066 46.8562 69.2336 46.8601C67.8574 46.8562 66.5198 46.8562 65.2255 46.8601C65.1522 46.8562 65.0835 46.8562 65.0104 46.8601H60.7872C59.3981 46.8601 58.0606 46.8601 56.7748 46.864H56.5598C55.1664 46.864 53.8288 46.864 52.5474 46.8679C52.4743 46.864 52.4053 46.864 52.3323 46.8679C50.926 46.8679 49.5885 46.8679 48.3156 46.8718C48.2423 46.8679 48.1736 46.8679 48.1005 46.8718C46.6814 46.8718 45.3395 46.8718 44.0793 46.8757H43.8643C42.4279 46.8757 41.0904 46.8796 39.8476 46.8835C39.7743 46.8796 39.7056 46.8796 39.6325 46.8835C38.1618 46.8835 36.8285 46.8875 35.6113 46.8914H35.3963C33.8695 46.8953 32.5364 46.8992 31.3752 46.9031H31.1602C29.4787 46.907 28.1627 46.9148 27.1306 46.9226C27.0575 46.9226 26.9886 46.9226 26.9198 46.9265C23.4492 46.946 23.4235 46.9695 23.4063 46.9812C23.3891 46.9968 23.3762 47.0164 23.3762 47.0398L22.9074 50.1467L22.8816 50.342L22.3527 53.8398L22.3269 54.0351L21.8023 57.529L21.7722 57.7243L21.2433 61.2221L21.2175 61.4174L20.6886 64.9151L20.6628 65.1104L20.1382 68.6043L20.1081 68.7996L19.6437 71.8831C19.6394 71.9104 19.648 71.9417 19.6694 71.9612C19.6866 71.9808 19.7167 71.9964 19.7468 71.9964H80.5792C80.6093 71.9964 80.6394 71.9847 80.6609 71.9612C80.6781 71.9417 80.6909 71.9144 80.6867 71.887L80.3337 68.7996ZM19.871 71.8011L20.3226 68.7996L20.3527 68.6043L20.8773 65.1104L20.9074 64.9151L21.432 61.4174L21.4621 61.2221L21.9867 57.7243L22.0168 57.529L22.5414 54.0351L22.5715 53.8398L23.0961 50.342L23.1262 50.1467L23.5778 47.1414C23.883 47.1296 25.07 47.1179 26.8935 47.1101H27.1085C28.2396 47.1023 29.5986 47.0984 31.1381 47.0945H31.3532C32.5917 47.0906 33.9421 47.0867 35.3785 47.0867C35.4515 47.0828 35.5205 47.0828 35.5935 47.0867C36.8752 47.0828 38.2256 47.0789 39.6188 47.0789C39.6919 47.075 39.7608 47.075 39.8339 47.0789C41.1414 47.075 42.4832 47.071 43.8551 47.071H44.0701C45.3948 47.0671 46.7409 47.0671 48.0955 47.0671H48.3105C49.648 47.0632 50.9942 47.0632 52.3315 47.0632H52.5466C53.897 47.0593 55.2388 47.0593 56.5635 47.0593H56.7785C58.1461 47.0593 59.488 47.0554 60.7952 47.0593C60.8683 47.0554 60.9372 47.0554 61.0103 47.0593C62.3994 47.0554 63.7412 47.0554 65.027 47.0554H65.2421C66.6655 47.0554 68.0117 47.0515 69.2545 47.0554C69.3275 47.0515 69.3965 47.0515 69.4695 47.0554C70.9789 47.0515 72.3337 47.0515 73.4862 47.0515H77.6278L77.9803 50.1467L78.0018 50.342L78.4018 53.8398L78.4276 54.0351L78.8276 57.529L78.8491 57.7243L79.2491 61.2221L79.2706 61.4174L79.6706 64.9151L79.6921 65.1104L80.0921 68.6043L80.1136 68.7996L80.4577 71.8011H19.871Z" fill="#739EFF"/>
<path d="M78.2218 50.3416H22.8813L22.9071 50.1462H78.1961L78.2218 50.3416Z" fill="#739EFF"/>
<path d="M78.6433 54.0349H22.3267L22.3524 53.8394H78.6219L78.6433 54.0349Z" fill="#739EFF"/>
<path d="M79.0648 57.7239H21.7717L21.8018 57.5286H79.0433L79.0648 57.7239Z" fill="#739EFF"/>
<path d="M70.9281 61.4172H21.217L21.2428 61.2217H70.9066L70.9281 61.4172Z" fill="#739EFF"/>
<path d="M79.4863 61.4172H75.2934L75.2676 61.2217H79.4648L79.4863 61.4172Z" fill="#739EFF"/>
<path d="M79.9121 65.1104H20.6621L20.6881 64.915H79.8863L79.9121 65.1104Z" fill="#739EFF"/>
<path d="M80.3336 68.7996H20.1074L20.1375 68.6042H80.3119L80.3336 68.7996Z" fill="#739EFF"/>
<path d="M23.7113 71.801H23.9307L23.9049 71.9965H23.6855L23.7113 71.801Z" fill="#739EFF"/>
<path d="M25.0746 61.2217H25.2896L25.2681 61.4172L24.8166 64.915L24.7908 65.1103L24.3392 68.6041L24.3177 68.7994H24.0984L24.1242 68.6041L24.5757 65.1103L24.6015 64.915L25.0488 61.4172L25.0746 61.2217Z" fill="#739EFF"/>
<path d="M26.7174 50.1462L26.6916 50.3416L26.24 53.8393L26.2185 54.0348L25.7671 57.5287L25.7412 57.724H25.5261L25.5521 57.5287L26.0035 54.0348L26.025 53.8393L26.4767 50.3416L26.5023 50.1462H26.7174Z" fill="#739EFF"/>
<path d="M27.1303 46.9221L27.1088 47.1096H26.8938L26.9196 46.926C26.9885 46.9221 27.0573 46.9221 27.1303 46.9221Z" fill="#739EFF"/>
<path d="M31.3752 46.9026L31.3537 47.094L31.0267 50.1462L31.0095 50.3416L30.6353 53.8393L30.6138 54.0348L30.2398 57.5287L30.2183 57.724L29.8441 61.2218L29.8226 61.4173L29.4484 64.915L29.4269 65.1104L29.0528 68.6042L29.0314 68.7995L28.713 71.801L28.6915 71.9965H28.4722L28.4937 71.801L28.8163 68.7995L28.8378 68.6042L29.2118 65.1104L29.229 64.915L29.6033 61.4173L29.6247 61.2218L29.999 57.724L30.0205 57.5287L30.3945 54.0348L30.416 53.8393L30.7902 50.3416L30.8117 50.1462L31.1387 47.094L31.1601 46.9026H31.3752Z" fill="#739EFF"/>
<path d="M35.6113 46.8909L35.5941 47.0862L35.3361 50.1462L35.3189 50.3416L35.022 53.8393L35.0048 54.0348L34.7081 57.5287L34.691 57.724L34.3943 61.2218L34.3771 61.4173L34.0802 64.915L34.063 65.1103L33.7663 68.6042L33.7491 68.7995L33.4954 71.801L33.4782 71.9965H33.2632L33.2761 71.801L33.5341 68.7995L33.5513 68.6042L33.848 65.1103L33.8652 64.915L34.162 61.4173L34.1792 61.2218L34.4759 57.724L34.4931 57.5287L34.79 54.0348L34.8072 53.8393L35.1039 50.3416L35.1211 50.1462L35.3791 47.0862L35.3963 46.8909H35.6113Z" fill="#739EFF"/>
<path d="M39.8475 46.8831L39.8346 47.0784L39.641 50.1462L39.6324 50.3416L39.4131 53.8393L39.4002 54.0346L39.1808 57.5285L39.168 57.7238L38.9486 61.2216L38.9357 61.4169L38.7164 64.9146L38.7035 65.11L38.4884 68.6038L38.4755 68.7991L38.2863 71.8006L38.2734 71.9959H38.0583L38.0712 71.8006L38.2605 68.7991L38.2691 68.6038L38.4884 65.11L38.5013 64.9146L38.7207 61.4169L38.7336 61.2216L38.9529 57.7238L38.9658 57.5285L39.1851 54.0346L39.1937 53.8393L39.4131 50.3416L39.426 50.1462L39.6195 47.0784L39.6324 46.8831C39.7057 46.8792 39.7744 46.8792 39.8475 46.8831Z" fill="#739EFF"/>
<path d="M42.8664 71.801H43.0814L43.0771 71.9965H42.8621L42.8664 71.801Z" fill="#739EFF"/>
<path d="M44.0792 46.8752L44.0706 47.0706L43.9501 50.1462L43.9415 50.3416L43.7997 53.8393L43.7952 54.0348L43.6534 57.5287L43.6448 57.724L43.5071 61.2218L43.4985 61.4173L43.3567 64.915L43.3525 65.1103L43.2105 68.6042L43.2019 68.7995H42.9868L42.9954 68.6042L43.1372 65.1103L43.1417 64.915L43.2835 61.4173L43.2921 61.2218L43.4298 57.724L43.4384 57.5287L43.5802 54.0348L43.5847 53.8393L43.7265 50.3416L43.7351 50.1462L43.8556 47.0706L43.8642 46.8752H44.0792Z" fill="#739EFF"/>
<path d="M47.8811 71.801H47.666V71.9963H47.8811V71.801Z" fill="#739EFF"/>
<path d="M48.3155 46.8713L48.3112 47.0667L48.2596 50.1462L48.2553 50.3416L48.1952 53.8393L48.1909 54.0346L48.1307 57.5285L48.1264 57.7238L48.0663 61.2216L48.062 61.4169L48.0018 64.9146L47.9975 65.11L47.9374 68.6038L47.9331 68.7991H47.718L47.7223 68.6038L47.7825 65.11L47.7868 64.9146L47.8469 61.4169L47.8512 61.2216L47.9114 57.7238L47.9157 57.5285L47.9758 54.0346L47.9801 53.8393L48.0403 50.3416L48.0446 50.1462L48.0962 47.0667L48.1004 46.8713C48.1735 46.8674 48.2424 46.8674 48.3155 46.8713Z" fill="#739EFF"/>
<path d="M52.4569 68.7996V68.6043L52.4354 65.1104V64.9151L52.4139 61.4174V61.2221L52.3924 57.7243V57.529L52.3709 54.0351V53.8398L52.3495 50.342V50.1467L52.3323 47.0632V46.8679C52.4053 46.864 52.4743 46.864 52.5473 46.8679V47.0632L52.5645 50.1467V50.342L52.586 53.8398V54.0351L52.6075 57.529V57.7243L52.629 61.2221V61.4174L52.6504 64.9151V65.1104L52.6719 68.6043V68.7996H52.4569Z" fill="#739EFF"/>
<path d="M52.6935 71.9965H52.4784L52.4741 71.801H52.6892L52.6935 71.9965Z" fill="#739EFF"/>
<path d="M57.4155 68.7995H57.2005L57.1962 68.6042L57.093 65.1104L57.0887 64.915L56.9856 61.4173L56.9813 61.2218L56.878 57.724L56.8694 57.5287L56.7706 54.0348L56.7618 53.8393L56.6629 50.3416L56.6544 50.1462L56.5641 47.0588L56.5598 46.8635H56.7749L56.7792 47.0588L56.8694 50.1462L56.878 50.3416L56.9768 53.8393L56.9856 54.0348L57.0887 57.5287L57.093 57.724L57.1962 61.2218L57.2005 61.4173L57.3038 64.915L57.3081 65.1104L57.4112 68.6042L57.4155 68.7995Z" fill="#739EFF"/>
<path d="M57.5103 71.9965H57.2953L57.291 71.801H57.5061L57.5103 71.9965Z" fill="#739EFF"/>
<path d="M62.3354 71.9965H62.1204L62.1075 71.801L61.9483 68.7995L61.9397 68.6042L61.7547 65.1104L61.7418 64.915L61.5569 61.4173L61.5483 61.2218L61.3633 57.724L61.3506 57.5287L61.1656 54.0348L61.157 53.8393L60.9721 50.3416L60.9592 50.1462L60.7957 47.0588L60.7871 46.8596H61.0022L61.0108 47.0588L61.1742 50.1462L61.1871 50.3416L61.3721 53.8393L61.3807 54.0348L61.5655 57.5287L61.5783 57.724L61.7633 61.2218L61.7719 61.4173L61.9612 64.915L61.9698 65.1104L62.1547 68.6042L62.1633 68.7995L62.3225 71.801L62.3354 71.9965Z" fill="#739EFF"/>
<path d="M67.1608 71.9964H66.9458L66.9286 71.8011L66.7006 68.7996L66.6834 68.6043L66.4168 65.1104L66.3996 64.9151L66.133 61.4174L66.1159 61.222L65.8492 57.7243L65.8321 57.529L65.5654 54.0351L65.5483 53.8398L65.2773 50.342L65.2645 50.1467L65.0279 47.0554L65.0107 46.8601C65.0838 46.8562 65.1527 46.8562 65.2258 46.8601L65.243 47.0554L65.4795 50.1467L65.4967 50.342L65.7633 53.8398L65.7805 54.0351L66.0471 57.529L66.0643 57.7243L66.3309 61.222L66.3481 61.4174L66.6147 64.9151L66.6319 65.1104L66.8985 68.6043L66.9157 68.7996L67.1479 71.8011L67.1608 71.9964Z" fill="#739EFF"/>
<path d="M70.928 61.4174H70.7087L70.6915 61.2221L70.3347 57.7243L70.3175 57.529L69.9604 54.0351L69.9432 53.8398L69.5862 50.342L69.569 50.1467L69.2551 47.0554L69.2336 46.8601C69.3069 46.8562 69.3799 46.8562 69.453 46.8601L69.4702 47.0554L69.784 50.1467L69.8055 50.342L70.1581 53.8398L70.1796 54.0351L70.5323 57.529L70.5538 57.7243L70.9063 61.2221L70.928 61.4174Z" fill="#739EFF"/>
<path d="M71.999 71.9965H71.7795L71.7623 71.801L71.457 68.7995L71.4355 68.6042L71.0828 65.1104L71.0613 64.915H71.2806L71.3023 65.1104L71.6549 68.6042L71.672 68.7995L71.9773 71.801L71.999 71.9965Z" fill="#739EFF"/>
<path d="M73.6762 46.8557L73.6977 47.051H73.487L73.4612 46.8557H73.6762Z" fill="#739EFF"/>
<path d="M76.4112 68.6042L76.4329 68.7995H76.2221L76.1964 68.6042L75.7577 65.1104L75.7319 64.915L75.2932 61.4173L75.2674 61.2218L74.8287 57.724L74.803 57.5287L74.3643 54.0348L74.3385 53.8393L73.8998 50.3416L73.874 50.1462H74.0891L74.1149 50.3416L74.5535 53.8393L74.5793 54.0348L75.018 57.5287L75.0395 57.724L75.4825 61.2218L75.504 61.4173L75.9469 64.915L75.9684 65.1104L76.4112 68.6042Z" fill="#739EFF"/>
<path d="M76.8371 71.9965H76.6222L76.5964 71.801H76.8113L76.8371 71.9965Z" fill="#739EFF"/>
<path d="M37.3168 73.7532H64.5481L65.5364 83.0865H36.2188L37.3168 73.7532Z" fill="#739EFF"/>
<path d="M69.71 19.6389L71.9755 21.6323L70.9907 39.4928C70.9907 39.4928 29.9239 39.6047 29.8122 39.6047L28.7327 21.6323L29.8136 19.1385C29.7835 18.5752 31.6109 18.9062 32.1744 18.9062L67.3291 19.6199C67.8881 19.6199 69.7446 19.0797 69.71 19.6389Z" fill="white"/>
<path d="M72.1391 18.6735L71.9756 21.6324H28.7327L28.5564 18.6778C28.5263 18.1145 28.9693 17.6458 29.5326 17.6458H71.167C71.7262 17.6456 72.1735 18.1143 72.1391 18.6735Z" fill="#739EFF"/>
<path d="M30.5274 20.3336C30.9215 20.3336 31.2411 20.0141 31.2411 19.6199C31.2411 19.2258 30.9215 18.9062 30.5274 18.9062C30.1332 18.9062 29.8137 19.2258 29.8137 19.6199C29.8137 20.0141 30.1332 20.3336 30.5274 20.3336Z" fill="#FFCA6D"/>
<path d="M32.8882 20.3336C33.2824 20.3336 33.6019 20.0141 33.6019 19.6199C33.6019 19.2258 33.2824 18.9062 32.8882 18.9062C32.4941 18.9062 32.1746 19.2258 32.1746 19.6199C32.1746 20.0141 32.4941 20.3336 32.8882 20.3336Z" fill="#FFDCD7"/>
<path d="M35.1939 20.3336C35.588 20.3336 35.9076 20.0141 35.9076 19.6199C35.9076 19.2258 35.588 18.9062 35.1939 18.9062C34.7997 18.9062 34.4802 19.2258 34.4802 19.6199C34.4802 20.0141 34.7997 20.3336 35.1939 20.3336Z" fill="#FFB7E7"/>
<path d="M55.2089 33.5285H46.1332C45.5017 33.5285 44.9308 33.1306 44.7127 32.5384L42.3829 26.2216C42.3657 26.1755 42.3725 26.1242 42.4005 26.0837C42.4284 26.0433 42.4747 26.0193 42.5237 26.0193H58.373C58.4203 26.0193 58.4648 26.0417 58.4931 26.0798C58.5215 26.1179 58.5304 26.1669 58.5168 26.2125L56.6597 32.4466C56.4704 33.0836 55.8737 33.5285 55.2089 33.5285ZM42.7394 26.3199L44.9945 32.4345C45.1697 32.9093 45.6273 33.2281 46.1334 33.2281H55.2091C55.7419 33.2281 56.2204 32.8716 56.3724 32.3609L58.172 26.3199H42.7394Z" fill="#739EFF"/>
<path d="M55.4588 35.5227H44.4668C44.384 35.5227 44.3167 35.4553 44.3167 35.3725C44.3167 35.2897 44.384 35.2223 44.4668 35.2223H55.3549L59.8177 23.4071C59.8468 23.3296 59.9331 23.2907 60.0112 23.3196C60.0886 23.3491 60.1281 23.4358 60.0984 23.5132L55.599 35.4254C55.5773 35.484 55.5215 35.5227 55.4588 35.5227Z" fill="#739EFF"/>
<path d="M59.8769 23.3535H62.5818C62.9337 23.3535 63.1873 23.6912 63.0892 24.0291C63.0236 24.2549 62.8169 24.4102 62.5818 24.4102L59.4978 24.4187L59.8769 23.3535Z" fill="#739EFF"/>
<path d="M57.9129 27.547H42.95C42.8672 27.547 42.7998 27.4796 42.7998 27.3968C42.7998 27.314 42.8672 27.2466 42.95 27.2466H57.9129C57.9958 27.2466 58.0631 27.314 58.0631 27.3968C58.0631 27.4796 57.996 27.547 57.9129 27.547Z" fill="#739EFF"/>
<path d="M57.3332 29.2853H43.6316C43.5488 29.2853 43.4814 29.2179 43.4814 29.1351C43.4814 29.0522 43.5488 28.9849 43.6316 28.9849H57.3332C57.416 28.9849 57.4834 29.0522 57.4834 29.1351C57.4834 29.2179 57.416 29.2853 57.3332 29.2853Z" fill="#739EFF"/>
<path d="M56.9248 31.2281H44.3475C44.2646 31.2281 44.1973 31.1608 44.1973 31.0779C44.1973 30.9951 44.2646 30.9277 44.3475 30.9277H56.9248C57.0076 30.9277 57.075 30.9951 57.075 31.0779C57.075 31.1608 57.0076 31.2281 56.9248 31.2281Z" fill="#739EFF"/>
<path d="M47.0742 33.4432C47.0086 33.4432 46.9484 33.4001 46.9301 33.3343L44.9189 26.279C44.8962 26.1991 44.9421 26.1161 45.0218 26.0932C45.1013 26.0704 45.1849 26.1169 45.2072 26.1965L47.2184 33.2518C47.241 33.3317 47.1951 33.4147 47.1154 33.4376C47.1017 33.4413 47.0879 33.4432 47.0742 33.4432Z" fill="#739EFF"/>
<path d="M49.3237 33.4093C49.255 33.4093 49.1933 33.3622 49.1774 33.2927L47.5414 26.2032C47.5229 26.1225 47.5733 26.0419 47.6539 26.0231C47.7368 26.0046 47.8159 26.0552 47.8342 26.1358L49.4702 33.2253C49.4888 33.306 49.4384 33.3866 49.3577 33.4054C49.346 33.4081 49.3349 33.4093 49.3237 33.4093Z" fill="#739EFF"/>
<path d="M51.8119 33.4094C51.7402 33.4094 51.6767 33.358 51.6638 33.2852L50.4368 26.2979C50.4226 26.216 50.4773 26.1383 50.5587 26.124C50.6441 26.111 50.7189 26.1645 50.7329 26.2459L51.9599 33.2332C51.9742 33.3151 51.9195 33.3928 51.838 33.4071C51.8291 33.4086 51.8205 33.4094 51.8119 33.4094Z" fill="#739EFF"/>
<path d="M53.8907 33.4093C53.8112 33.4093 53.7452 33.3472 53.7409 33.2671C53.7023 32.555 53.3657 26.3067 53.3657 26.2034C53.3657 26.1206 53.4331 26.0532 53.5159 26.0532C53.5983 26.0532 53.6657 26.12 53.6661 26.2024C53.6687 26.3298 53.912 30.8676 54.0405 33.2509C54.0452 33.3337 53.9818 33.4046 53.8989 33.4091C53.896 33.4091 53.8933 33.4093 53.8907 33.4093Z" fill="#739EFF"/>
<path d="M55.2545 33.4092C55.2467 33.4092 55.2391 33.4087 55.2309 33.4073C55.1488 33.3942 55.093 33.3174 55.1059 33.2354L56.2305 26.1459C56.2438 26.0641 56.318 26.0077 56.4026 26.0213C56.4846 26.0344 56.5405 26.1112 56.5276 26.1932L55.4027 33.2827C55.391 33.3565 55.327 33.4092 55.2545 33.4092Z" fill="#739EFF"/>
<path d="M46.8695 36.7495C46.8695 37.3256 46.4025 37.7926 45.8264 37.7926C45.2502 37.7926 44.7832 37.3256 44.7832 36.7495C44.7832 36.1735 45.2502 35.7063 45.8264 35.7063C46.4025 35.7063 46.8695 36.1733 46.8695 36.7495Z" fill="#739EFF"/>
<path d="M55.2694 36.7495C55.2694 37.3256 54.8024 37.7926 54.2263 37.7926C53.6501 37.7926 53.1831 37.3256 53.1831 36.7495C53.1831 36.1735 53.6501 35.7063 54.2263 35.7063C54.8024 35.7063 55.2694 36.1733 55.2694 36.7495Z" fill="#739EFF"/>
<path d="M71.9939 70.5957C71.9939 70.5957 66.5709 71.9651 66.0232 72.951C65.6166 73.6829 64.1537 76.1957 63.4267 77.442C63.1687 77.8842 63.3917 78.451 63.8825 78.5969C64.3609 78.7391 65.0074 78.7907 65.7496 78.4836C65.7496 78.4836 66.1879 80.9485 70.7343 79.6339L74.2401 77.9907L71.9939 70.5957Z" fill="#FF868E"/>
<path d="M64.561 79.0727C64.2674 79.0727 64.0309 79.0059 63.851 78.9238C63.2959 78.6713 63.0019 78.1603 62.9392 77.8787C62.8525 77.4896 63.6029 76.2661 64.2481 75.3085C64.3219 75.1976 64.4725 75.1688 64.5828 75.2431C64.6936 75.3175 64.7227 75.4677 64.6481 75.578C64.0547 76.4595 63.4135 77.5556 63.4125 77.7892C63.4426 77.9197 63.649 78.3014 64.0508 78.4844C64.4801 78.6795 65.0127 78.6086 65.6341 78.2713C67.3298 77.3498 69.3242 75.6468 69.3439 75.6296C69.4449 75.5435 69.5976 75.5544 69.6844 75.6558C69.7711 75.7571 69.7596 75.9095 69.6582 75.9962C69.5754 76.0673 67.6058 77.7492 65.8641 78.6953C65.3475 78.9764 64.9133 79.0723 64.561 79.0727Z" fill="#313045"/>
<path d="M68.4678 80.3361C66.1746 80.3361 65.5289 78.5849 65.5213 78.5635C65.4776 78.4377 65.5436 78.2998 65.6694 78.2558C65.7959 78.2119 65.9321 78.2775 65.9768 78.4031C66.0098 78.4945 66.7949 80.5543 70.008 79.6076C70.1373 79.5695 70.2703 79.6435 70.3076 79.7711C70.3453 79.8988 70.2725 80.0332 70.1446 80.0707C69.5063 80.2584 68.9508 80.3361 68.4678 80.3361Z" fill="#313045"/>
<path d="M69.8442 75.2986L46.0514 80.6042C45.4097 80.7474 44.7746 80.3403 44.6363 79.6975L42.9722 71.8987L43.4079 70.0469L42.2909 68.7736L42.0546 67.6698C41.9167 67.0257 42.3311 66.3926 42.9768 66.2618L66.742 61.4429C67.7452 61.222 68.0473 61.6976 68.1889 62.3255L68.3743 63.0906L67.0797 65.2828L69.1347 66.4466L70.7411 73.8821C70.8857 74.521 70.4835 75.1558 69.8442 75.2986Z" fill="#FFCA6D"/>
<path d="M69.1348 66.4465L42.999 71.8229L42.291 68.7736L68.3744 63.0906L69.1348 66.4465Z" fill="#313045"/>
<path d="M44.9038 75.7913C44.9709 76.0856 45.2623 76.2715 45.5575 76.2081L48.7926 75.5129C49.0827 75.4506 49.2715 75.1702 49.22 74.878L49.2131 74.8393C49.1584 74.5288 48.8549 74.327 48.5475 74.3969L45.3192 75.1307C45.0223 75.1983 44.8362 75.4942 44.9038 75.7913Z" fill="#FAEAFF"/>
<path d="M50.2065 74.6357C50.2706 74.9306 50.5106 75.1256 50.745 75.0728L53.3126 74.4951C53.5429 74.4433 53.6843 74.1711 53.6329 73.8791L53.6261 73.8404C53.5714 73.5299 53.3212 73.3187 53.0772 73.3775L50.5163 73.9939C50.2806 74.0506 50.1419 74.3381 50.2065 74.6357Z" fill="#FAEAFF"/>
<path d="M54.6338 73.7177C54.6979 74.0126 54.9379 74.2075 55.1723 74.1548L57.7398 73.5771C57.9699 73.5253 58.1115 73.253 58.0602 72.9609L58.0533 72.9222C57.9986 72.6116 57.7484 72.4005 57.5045 72.4593L54.9438 73.0757C54.7078 73.1325 54.5691 73.42 54.6338 73.7177Z" fill="#FAEAFF"/>
<path d="M45.7507 77.3648L57.7271 74.6978C58.04 74.628 58.3497 74.8269 58.4167 75.1404L58.4325 75.215C58.499 75.5261 58.3011 75.8322 57.9903 75.8994L45.998 78.4918C45.6814 78.5602 45.3706 78.3547 45.3095 78.0367C45.2507 77.7305 45.4462 77.4326 45.7507 77.3648Z" fill="#FAEAFF"/>
<path d="M88.0697 80.5392C87.4939 82.8383 84.21 89.1641 85.3575 93.683C85.6124 94.6809 86.1048 95.9645 86.7157 97.3624H71.3169C70.1211 95.7051 69.1893 93.7093 69.4178 91.1378C69.9102 85.6296 70.5696 81.1107 70.5696 81.1107C70.5696 81.1107 70.5563 81.058 70.5344 80.9568C70.486 80.7459 70.3893 80.3238 70.2795 79.7523C70.0598 78.6841 69.774 77.0883 69.5762 75.3477C69.4268 74.0422 69.3301 72.6618 69.352 71.3606C69.3607 70.5694 69.418 69.8088 69.5322 69.1143C69.5498 69.0131 69.5674 68.9076 69.585 68.811C69.6904 68.2791 69.8356 67.7912 70.0201 67.3646C70.1213 67.1449 70.3278 67.0261 70.5741 66.9953C70.8641 66.9556 71.2026 67.0392 71.4489 67.2195C71.5104 67.2634 71.5632 67.3119 71.6116 67.3646L71.9368 68.4109L72.2313 69.3473L72.5435 70.3495C72.5435 70.3495 72.5874 70.3274 72.6665 70.288C72.6974 70.2792 72.7325 70.2616 72.7765 70.244C73.6601 69.844 76.8604 68.4813 78.1307 69.1186C79.6075 69.8573 88.6457 78.2358 88.0697 80.5392Z" fill="#FF868E"/>
<path d="M70.6685 69.558C71.0574 70.3941 72.0041 70.9346 72.9219 70.8443C72.6469 70.2406 72.3689 69.6385 72.0877 69.0379C71.9256 68.6914 71.6535 67.6592 71.3142 67.4732C70.3365 66.9371 70.4701 69.1311 70.6685 69.558Z" fill="#FFB7E7"/>
<path d="M78.3483 82.9978C78.2559 82.9978 78.168 82.9445 78.128 82.8548C77.9194 82.3886 73.0143 71.4259 72.7296 70.7433C72.635 70.5162 72.4715 70.1624 72.2831 69.7548C71.9254 68.9806 71.4803 68.0173 71.2338 67.3352C71.1955 67.2293 71.1067 67.1502 70.9955 67.1239C70.8887 67.0981 70.7816 67.1258 70.7031 67.1997C68.0025 69.7394 70.7752 80.9415 70.8035 81.0544C70.8361 81.1838 70.7576 81.3147 70.6283 81.3473C70.4975 81.379 70.3678 81.3008 70.3355 81.1719C70.217 80.6999 67.4665 69.5804 70.3725 66.8481C70.5682 66.6637 70.8412 66.5903 71.1078 66.6543C71.377 66.7188 71.5938 66.9121 71.6877 67.1713C71.9268 67.8337 72.3672 68.7868 72.721 69.5527C72.9124 69.9671 73.0786 70.3269 73.1747 70.5576C73.4571 71.2347 78.5168 82.5437 78.5678 82.6579C78.6223 82.7796 78.5678 82.9224 78.4463 82.9767C78.4147 82.9909 78.3813 82.9978 78.3483 82.9978Z" fill="#313045"/>
<path d="M78.7864 80.2449C78.6528 80.2449 78.5452 80.1369 78.5452 80.0037V77.1799L76.2506 74.6525L74.7069 74.5754C74.5739 74.5687 74.4711 74.4554 74.4776 74.3222C74.484 74.1894 74.5801 74.0799 74.7309 74.0931L76.3743 74.1752C76.4381 74.1783 76.4979 74.2068 76.5409 74.2539L78.9651 76.9242C79.0055 76.9685 79.0278 77.0265 79.0278 77.0865V80.0035C79.0276 80.1369 78.9198 80.2449 78.7864 80.2449Z" fill="#313045"/>
<path d="M77.5107 80.438C77.3921 80.438 77.2888 80.3505 77.272 80.2294C77.254 80.0974 77.3462 79.9757 77.4781 79.9576L82.0826 79.3238C82.213 79.3058 82.3363 79.3976 82.3546 79.53C82.3726 79.6621 82.2804 79.7837 82.1486 79.8019L77.5441 80.4357C77.533 80.4373 77.5218 80.438 77.5107 80.438Z" fill="#313045"/>
<path d="M44.9018 70.1255C44.9018 70.1255 44.8317 70.1637 44.8229 70.177C44.7086 70.4319 43.9565 70.7802 43.6576 71.4263C43.3983 71.989 43.4115 72.6279 43.0512 73.3885C42.9897 73.516 43.1217 73.9588 43.1217 73.9588C41.1128 78.1437 37.9565 84.3243 36.1893 85.7749C33.455 88.0125 29.5998 88.8828 28.4261 91.5292C27.925 92.6589 27.1031 95.0283 26.3292 97.3626H9.6377C11.6641 90.6587 18.1042 69.3649 19.2517 66.1955C20.0341 64.0282 21.4847 60.9027 22.5793 58.6345C23.199 57.3466 23.709 56.3354 23.9069 55.9354C23.9201 55.9178 23.9244 55.9045 23.9377 55.8958C23.9686 55.8694 23.9992 55.8473 24.0344 55.8209C24.1004 55.7989 24.1707 55.7989 24.2366 55.8342C24.6674 56.054 25.5421 56.7397 25.1378 58.5861C24.6323 60.9246 23.885 63.1139 23.841 63.2501L23.8719 63.2192C23.8764 63.2104 23.8807 63.2059 23.8852 63.1971L28.7252 57.8122L30.6461 55.6758L30.8043 55.4955C30.8088 55.4912 30.8131 55.4868 30.8176 55.4823L30.9319 55.3547C30.9758 55.3108 31.0373 55.2799 31.0989 55.2799C31.1034 55.2799 31.1034 55.2799 31.1077 55.2799C31.4504 55.2799 32.5272 55.8864 31.9559 58.1109L31.9913 57.9526C31.9913 57.9484 31.9913 57.9483 31.9913 57.9483L33.1255 56.8802C33.1431 56.8626 33.1564 56.845 33.1739 56.8274C33.1827 56.8231 33.1915 56.8141 33.196 56.8098L33.2972 56.7087L35.5963 54.5283L35.6402 54.4844C35.6447 54.4799 35.6535 54.4799 35.6578 54.4756C35.6578 54.4711 35.6623 54.4668 35.6711 54.4623L35.7502 54.3832C35.825 54.3172 35.926 54.3084 36.0096 54.3523C36.0141 54.3568 36.0141 54.3568 36.0141 54.3568C36.2162 54.458 36.5635 54.6865 36.7922 55.0865C36.801 55.091 36.801 55.1041 36.8055 55.1129C36.8055 55.1174 36.81 55.1217 36.81 55.1262C36.8145 55.1305 36.8188 55.135 36.8188 55.1395C37.0254 55.5219 37.0912 56.0626 36.7924 56.7792C36.7572 56.8759 36.7088 56.9682 36.6649 57.0692C36.6516 57.0956 36.6385 57.122 36.6252 57.1528C36.5637 57.2804 36.4977 57.4122 36.4273 57.5528C36.4098 57.588 36.3922 57.6188 36.3701 57.654C35.3679 59.5619 33.3898 62.5291 32.4753 64.3446C32.4401 64.4237 32.4005 64.5073 32.3653 64.5819C32.3389 64.6392 32.3126 64.6962 32.2862 64.7489C31.6049 66.248 30.985 68.3711 30.7125 69.3514V69.3559C30.7125 69.3647 30.708 69.3692 30.708 69.3735C30.6157 69.7032 30.5674 69.8966 30.5674 69.8966L31.6489 70.2747L38.3923 60.0937L40.3441 57.1528C40.3529 57.1395 40.3661 57.1265 40.3792 57.1177C40.4628 57.0298 40.6122 57.021 40.7044 57.1089C41.0605 57.4253 41.6759 58.2122 41.1572 59.6716C40.4493 61.6498 34.0314 78.5433 34.0314 78.5433C34.0314 78.5433 36.3963 76.9915 38.3965 74.5606C39.6802 73 41.122 70.9954 42.5726 70.1206C42.5902 70.1073 42.6123 70.0942 42.6299 70.0854C43.3508 69.6633 44.0717 69.5272 44.7751 69.87C44.8667 69.9143 44.9194 70.0286 44.9018 70.1255Z" fill="#FF868E"/>
<path d="M40.1942 59.7051C39.8462 60.0709 38.8845 60.4918 38.3931 60.0942L40.3442 57.1551C40.3538 57.1403 40.3634 57.1254 40.3771 57.1174C40.4271 57.1245 40.4757 57.1372 40.5161 57.159C40.7778 57.2842 40.8351 57.6217 40.8302 57.9088C40.8241 58.5586 40.6446 59.2333 40.1942 59.7051Z" fill="#FFB7E7"/>
<path d="M24.4045 57.2318C24.2903 57.6752 24.1014 58.1166 23.7581 58.4201C23.4391 58.6953 22.9522 58.8178 22.5784 58.635C23.1985 57.3477 23.7069 56.3371 23.909 55.9336C23.9186 55.9188 23.9227 55.9025 23.9364 55.8945C23.9665 55.8676 24.0004 55.8477 24.0358 55.8223C24.2801 55.9256 24.4395 56.1801 24.4809 56.4443C24.5237 56.7031 24.477 56.9736 24.4045 57.2318Z" fill="#FFB7E7"/>
<path d="M31.3714 56.779C31.1386 57.3244 30.7706 57.8349 30.2405 58.1019C29.6642 58.3915 28.8577 58.322 28.7233 57.8146C28.7126 57.7888 28.7075 57.7644 28.7036 57.7345C29.4655 56.8816 30.1562 56.1255 30.6036 55.6874C30.6187 55.674 30.6308 55.6714 30.647 55.6755C30.6796 55.6609 30.7161 55.6531 30.7474 55.6439C30.8817 55.6152 31.0198 55.5931 31.1483 55.632C31.3604 55.704 31.489 55.9216 31.5075 56.1398C31.5261 56.3578 31.4581 56.5765 31.3714 56.779Z" fill="#FFB7E7"/>
<path d="M36.1155 55.7766C35.93 56.1611 35.6796 56.5059 35.3767 56.8084C35.213 56.9738 35.029 57.1281 34.8132 57.2051C34.4507 57.3365 33.6075 57.2748 33.3611 56.9113C33.3249 56.8502 33.3011 56.7863 33.2976 56.7105C33.2921 56.7092 33.2937 56.7037 33.2948 56.6982C34.1999 55.715 35.0128 54.9098 35.5261 54.552C35.5329 54.5478 35.5384 54.5494 35.5384 54.5494C35.5573 54.5428 35.5763 54.5361 35.5954 54.5295C35.6525 54.5096 35.712 54.502 35.7757 54.501C36.0398 54.5057 36.2505 54.7617 36.2878 55.0193C36.3237 55.2824 36.2339 55.5418 36.1155 55.7766Z" fill="#FFB7E7"/>
<path d="M44.8997 70.1267C44.894 70.1484 44.8899 70.1646 44.8803 70.1794C44.6504 70.691 43.9954 72.1365 43.1219 73.9582C42.792 73.6943 42.6874 73.1832 42.7258 72.7433C42.8012 71.8691 43.2692 71.0382 43.9745 70.5167C44.2538 70.306 44.592 70.157 44.8997 70.1267Z" fill="#FFB7E7"/>
<path d="M22.2924 68.0474C22.283 68.0474 22.273 68.0467 22.2637 68.0445C22.1881 68.0287 22.14 67.9547 22.1558 67.8793C22.1828 67.7513 22.8277 64.7325 23.7666 63.1283C23.935 62.8432 24.1028 62.6168 24.2663 62.4557C24.6985 62.0307 25.6815 60.9214 26.7222 59.7472C27.34 59.0505 27.9929 58.3137 28.6 57.6411C29.5084 56.6241 30.1141 55.9715 30.5055 55.5875C30.5764 55.5141 30.6471 55.4484 30.7094 55.3926C30.9559 55.1678 31.0395 55.1496 31.071 55.1428C31.2645 55.1051 31.5024 55.2258 31.7221 55.4781C32.178 56.0014 32.4794 56.9823 32.1243 57.9946C32.1007 58.0643 32.0727 58.1331 32.044 58.2022C32.0149 58.2733 31.9276 58.3165 31.8581 58.2878C31.7868 58.2583 31.7487 58.1864 31.7778 58.1151L31.786 58.0956C31.8122 58.0319 31.8384 57.9688 31.8591 57.9085C32.1784 56.9957 31.9145 56.1236 31.5118 55.6615C31.3477 55.4732 31.1997 55.4035 31.1284 55.416C31.1288 55.416 31.1288 55.416 31.1288 55.416C31.1309 55.416 31.0682 55.443 30.8965 55.5998C30.8377 55.6523 30.7721 55.7129 30.7041 55.784C30.3139 56.1664 29.7121 56.8149 28.807 57.8276C28.2004 58.5001 27.548 59.236 26.931 59.9322C25.8415 61.1615 24.9008 62.2228 24.4618 62.6545C24.3159 62.7983 24.1629 63.0055 24.0071 63.2698C23.0914 64.8344 22.435 67.906 22.4285 67.9367C22.415 68.0025 22.3572 68.0474 22.2924 68.0474Z" fill="#313045"/>
<path d="M30.4236 70.3916C30.4093 70.3916 30.3948 70.3894 30.3806 70.3849C30.3071 70.3611 30.2669 70.2824 30.2909 70.2091L30.5751 69.331C30.9912 68.0304 31.581 66.2479 32.0011 65.0978C32.0638 64.9219 32.1431 64.7287 32.2369 64.5246L32.3506 64.2861C33.0061 62.907 34.1901 60.9735 35.1415 59.4197C35.5643 58.7291 35.964 58.0765 36.2495 57.5828C36.2743 57.541 36.2864 57.5216 36.2958 57.4984C36.3894 57.3404 36.4521 57.2025 36.4976 57.0978L36.5388 57.0101C36.8308 56.315 36.881 55.6577 36.6771 55.1665C36.5247 54.8085 36.2757 54.5719 35.9782 54.4899C35.9739 54.4891 35.9126 54.4782 35.7536 54.5751C35.7425 54.586 35.7296 54.5952 35.7149 54.602C35.6809 54.6178 35.6522 54.6362 35.6286 54.6559C35.6153 54.6673 35.6003 54.6759 35.5839 54.6815C35.1319 55.0011 34.3737 55.7323 33.3975 56.7929L33.325 56.8767C33.315 56.888 33.2809 56.924 33.268 56.9314C31.4962 58.8814 29.3259 61.5411 28.354 62.804C26.7643 64.8869 26.0074 68.7186 25.9998 68.7569C25.9851 68.8325 25.9139 68.8827 25.8363 68.8673C25.7607 68.8526 25.7113 68.7796 25.726 68.7038C25.7568 68.5442 26.5025 64.7701 28.1325 62.6343C29.1079 61.3671 31.2847 58.6994 33.0715 56.7347C33.0818 56.7238 33.0934 56.7144 33.1066 56.707L33.1904 56.606C34.2061 55.5022 34.9643 54.7735 35.4464 54.4374C35.4542 54.4317 35.4632 54.427 35.4729 54.4231C35.5038 54.3995 35.5386 54.3778 35.5764 54.3587C35.5843 54.352 35.5919 54.3462 35.5991 54.3419C35.7782 54.2305 35.9292 54.1885 36.0446 54.2182C36.4302 54.3243 36.7439 54.6157 36.9144 55.0208C36.9216 55.0321 36.928 55.0434 36.9316 55.0516C37.1677 55.6194 37.1175 56.3531 36.7929 57.1248L36.7525 57.2111C36.7048 57.3211 36.637 57.4697 36.5446 57.623C36.539 57.6406 36.521 57.6715 36.5009 57.7048C36.2038 58.2189 35.8032 58.8727 35.3796 59.5649C34.4313 61.1132 33.2516 63.0398 32.6025 64.406L32.4896 64.6427C32.4004 64.8373 32.324 65.0228 32.2635 65.1922C31.8445 66.3395 31.256 68.1179 30.8447 69.3999L30.5562 70.2945C30.5372 70.3539 30.4823 70.3916 30.4236 70.3916Z" fill="#313045"/>
<path d="M86.3359 58.2613L86.7098 56.9722C86.7437 56.8548 86.9074 56.8474 86.9519 56.9613L87.4789 58.3095C87.6305 58.6972 87.9371 59.0038 88.3248 59.1554L89.7189 59.7003C89.8275 59.7427 89.8275 59.8964 89.7189 59.9388L88.2332 60.5195C87.9039 60.6482 87.6434 60.9087 87.5146 61.238L86.934 62.7238C86.8916 62.8324 86.7379 62.8324 86.6955 62.7238L86.1373 61.2955C85.9943 60.9294 85.7047 60.64 85.3387 60.4968L83.9252 59.9443C83.8148 59.9011 83.8172 59.7441 83.9289 59.7044L85.5014 59.146C85.9057 59.0029 86.2164 58.6734 86.3359 58.2613Z" fill="#FAEAFF"/>
<path d="M46.2302 91.7935L46.604 90.5047C46.638 90.3873 46.8017 90.3799 46.8462 90.4937L47.3731 91.842C47.5247 92.2297 47.8313 92.5363 48.219 92.6879L49.6132 93.2328C49.7218 93.2752 49.7218 93.4289 49.6132 93.4713L48.1274 94.0521C47.7981 94.1809 47.5376 94.4414 47.4089 94.7707L46.828 96.2564C46.7856 96.365 46.6319 96.365 46.5895 96.2564L46.0313 94.8281C45.8882 94.4621 45.5987 94.1726 45.2327 94.0295L43.8192 93.4769C43.7089 93.4338 43.7112 93.2768 43.8229 93.2371L45.3954 92.6787C45.8001 92.5353 46.1106 92.2058 46.2302 91.7935Z" fill="#FAEAFF"/>
<path d="M59.6035 6.50619L59.9773 5.21732C60.0113 5.09994 60.175 5.09252 60.2195 5.20639L60.7465 6.55463C60.898 6.94232 61.2047 7.24896 61.5924 7.40053L62.9865 7.94545C63.0951 7.98783 63.0951 8.14154 62.9865 8.18393L61.5008 8.76478C61.1715 8.8935 60.9109 9.15404 60.7822 9.48334L60.2016 10.9691C60.1592 11.0777 60.0055 11.0777 59.9631 10.9691L59.4049 9.54076C59.2617 9.17475 58.9723 8.88529 58.6062 8.74213L57.1928 8.18959C57.0824 8.14643 57.0848 7.98939 57.1965 7.94975L58.7689 7.39135C59.1734 7.24799 59.484 6.9185 59.6035 6.50619Z" fill="#FAEAFF"/>
<path d="M12.3146 66.5154L12.6885 65.2264C12.7225 65.109 12.8861 65.1016 12.9307 65.2154L13.4576 66.5637C13.6092 66.9514 13.9158 67.258 14.3035 67.4096L15.6976 67.9545C15.8062 67.9969 15.8062 68.1506 15.6976 68.193L14.2119 68.7736C13.8826 68.9023 13.6221 69.1629 13.4934 69.4922L12.9125 70.9779C12.8701 71.0865 12.7164 71.0865 12.674 70.9779L12.1158 69.5496C11.9726 69.1836 11.6832 68.8941 11.3172 68.751L9.9037 68.1984C9.79335 68.1553 9.79569 67.9982 9.90741 67.9586L11.4799 67.4002C11.8846 67.257 12.1951 66.9275 12.3146 66.5154Z" fill="#FAEAFF"/>
<path d="M49.5656 2.63916C48.2513 4.53375 46.6071 6.34493 44.5631 7.81314C37.9649 12.5562 30.5664 10.2925 27.7048 9.10986C30.4215 7.40414 33.3448 5.99746 36.4307 4.93806H36.4352C38.4792 4.23022 40.5894 3.68079 42.7564 3.29406C44.9719 2.89854 47.2447 2.67432 49.5656 2.63916Z" fill="#739EFF"/>
</g>
<defs>
<clipPath id="clip0_19_1370">
<rect width="100" height="100" fill="white"/>
</clipPath>
</defs>
</svg>
