<svg width="100" height="100" viewBox="0 0 100 100" fill="none" xmlns="http://www.w3.org/2000/svg">
<path d="M56.4997 100C55.5365 100 54.6064 99.4793 54.1269 98.5691C53.9298 98.1953 52.1954 94.8105 51.9999 91.1945C51.8952 89.2523 52.5517 87.6531 53.3679 86.4381C50.9978 85.5174 48.6888 84.2564 46.4656 82.6668L36.6827 89.6906C36.2224 90.0207 35.6749 90.1936 35.1199 90.1936C34.8884 90.1936 34.6558 90.1635 34.4277 90.1023C33.6523 89.8951 33.0107 89.3514 32.6792 88.6203L25.4335 72.6354C20.5351 70.402 16.4056 66.1865 13.9982 60.9184C11.5201 55.4959 10.7566 49.1465 11.7767 42.5068L6.68138 31.2658C6.33197 30.4949 6.36732 29.6043 6.77669 28.8637C7.18607 28.1229 7.92123 27.6189 8.7599 27.5047L18.1083 26.2299C18.8326 25.1535 19.6009 24.1309 20.4021 23.1779C21.3234 22.0824 22.3236 21.026 23.3749 20.0381C27.2107 16.4334 31.8718 13.6021 36.9017 11.8145L37.0335 11.6275C37.5388 10.91 38.3589 10.4906 39.224 10.4906C39.3259 10.4906 39.4285 10.4965 39.5314 10.5082L40.804 10.6549C41.3564 10.5209 41.864 10.4086 42.3449 10.3141C44.4349 9.90352 46.5898 9.69531 48.7495 9.69531C51.5257 9.69531 54.3488 10.0363 57.1644 10.7104L64.8308 1.01719C65.3433 0.369336 66.1204 0 66.9324 0C67.0648 0 67.1982 0.00976562 67.3318 0.0298828C68.2822 0.172852 69.0827 0.814063 69.4306 1.70996L77.1622 21.6279C82.6802 26.652 86.9595 32.6941 89.5579 39.1383C92.3355 46.0275 93.3058 53.6389 92.313 60.6598L93.3759 63.3975C93.6831 64.1889 93.5972 65.0791 93.1441 65.7971C92.691 66.5152 91.9245 66.976 91.0779 67.0393L90.8097 67.0594C90.1079 69.1545 89.2169 71.1494 88.1503 73.0096C87.3009 74.4916 86.3079 75.9143 85.1857 77.2578C86.4433 79.4148 87.1454 81.8193 87.2435 82.1682C87.5898 83.3963 87.0218 84.698 85.8859 85.2799L57.7189 99.7051C57.3281 99.9055 56.9107 100 56.4997 100Z" fill="white"/>
<path d="M25.6389 21.9903C24.6646 22.9058 23.7433 23.8776 22.882 24.902C15.1943 34.0472 11.7601 48.6366 16.8637 59.8046C19.2252 64.972 23.6211 69.3179 29.05 70.9932C32.1703 71.9561 35.5424 72.0427 38.5531 73.3069C41.9119 74.7173 44.5002 77.4489 47.3764 79.6845C50.7346 82.2946 54.6211 84.2905 58.791 85.1284C69.4656 87.2735 80.8389 81.122 86.2539 71.6763C91.6689 62.2304 91.5721 50.2382 87.5008 40.1401C80.8228 23.5761 61.7519 9.31748 43.2902 12.9429C36.7199 14.2331 30.5183 17.4048 25.6389 21.9903Z" fill="#C3E8FA"/>
<path d="M9.55054 30.1593L35.5482 87.5138L48.889 77.9357L68.2732 78.9619L74.5447 65.621L91.3062 64.3668L67.3611 2.67944L57.441 15.2222L39.6531 13.1697L29.6189 27.4228L9.55054 30.1593Z" fill="#F7EDE5"/>
<path d="M87.5449 62.136L72.3248 63.2749L66.6307 75.3866L50.3254 74.5247L49.0303 74.4577L36.9186 83.1528L20.5463 47.0411L19.2557 44.1874L16.9467 39.1005L13.3115 31.0796L20.9037 30.0437L26.5754 29.2665H26.5799L29.0273 28.936H29.0316L31.5326 28.5921L35.8959 22.3978L40.6432 15.6542L56.7967 17.5165L65.8045 6.12842L68.7564 13.7339L82.5207 49.1937L87.5449 62.136Z" fill="#AFD6ED"/>
<g opacity="0.57">
<path d="M19.8265 31.6702C19.8443 31.4067 20.0097 31.1745 20.1705 30.9601C20.4117 30.6341 20.6529 30.3124 20.8939 29.9864L26.5658 29.2095C26.4765 29.3657 26.4095 29.531 26.4095 29.7097C26.4095 30.3796 27.2894 30.7458 27.4144 31.4022C27.5662 32.1927 26.5972 32.7063 25.7978 32.8313C25.3334 32.9028 24.8332 32.9341 24.409 32.7241C23.9847 32.5187 23.6765 32.0007 23.8597 31.563C23.0693 31.4647 22.3949 32.081 21.667 32.4026C20.9386 32.7288 19.7685 32.4651 19.8265 31.6702Z" fill="#302945"/>
<path d="M57.7069 24.7257C57.6267 25.4359 57.8187 26.3068 57.2647 26.7622C56.9655 27.0035 56.5368 27.0302 56.2153 27.2445C55.4069 27.7804 55.7061 29.071 55.2015 29.9017C54.5763 30.9378 52.839 31.0628 52.5352 32.2329C52.3923 32.7867 52.6513 33.3806 52.5263 33.9345C52.303 34.9036 51.1329 35.2386 50.1683 35.4708C49.2036 35.7031 48.0515 36.2925 48.1362 37.2796C48.1735 37.732 48.4708 38.2286 48.0155 38.5658C47.7552 38.7585 47.4089 38.764 47.0972 38.6757C46.437 38.4888 45.9905 38.9529 45.4747 39.2402C45.0862 39.4546 44.5235 39.5304 44.2511 39.1777C44.1171 39.0124 44.0813 38.7757 43.9251 38.6328C43.5679 38.2978 43.014 38.7087 42.5272 38.7488C41.8931 38.8068 41.3483 38.0298 41.6206 37.4536C41.7011 37.2839 41.8306 37.1367 41.8618 36.9535C41.9423 36.422 41.1071 36.2031 40.6917 36.538C40.2763 36.8775 40.1558 37.4447 39.9146 37.9269C39.6778 38.4048 39.1374 38.8513 38.6507 38.6236C38.3692 38.4896 38.2265 38.1726 37.9987 37.9581C37.512 37.5027 36.5964 37.6634 36.2927 38.2574C35.8462 39.1328 36.5964 40.4904 35.788 41.0441C35.1226 41.4995 33.9972 40.8521 33.497 41.4818C33.2067 41.848 33.3765 42.3974 33.6442 42.7814C33.9497 43.2265 34.3872 43.6177 34.3931 44.1915C34.397 44.5538 34.1442 44.8986 33.7821 44.8925C33.4515 44.8869 33.2972 44.587 33.0503 44.4294C32.6394 44.166 31.9472 44.2687 31.7729 43.8087C31.6792 43.5452 31.831 43.2593 31.7864 42.9826C31.6435 42.0849 30.0044 42.5583 29.4954 41.8036C29.3034 41.5179 29.3257 41.107 29.0622 40.8792C28.486 40.3878 27.6509 41.4687 26.9274 41.241C26.5612 41.1292 26.3737 40.7228 26.0565 40.5085C25.4224 40.0798 24.4175 40.8167 24.6364 41.5536C24.9212 42.4951 26.5282 42.7093 26.4417 43.7406C26.3956 44.2894 25.8507 44.6546 25.305 44.581C24.2724 44.4419 23.8013 43.5411 23.2253 42.8085C22.7653 42.2236 22.0687 41.6831 21.345 41.8574C20.8448 41.9734 20.4876 42.4021 20.1704 42.8085C19.8399 43.2283 19.5005 43.6615 19.246 44.1304L16.937 39.0437C18.1741 37.8603 18.8798 35.8328 20.5724 35.5693C20.8313 35.529 21.1261 35.5245 21.3138 35.3415C21.7335 34.9396 21.2333 34.1581 21.5415 33.6712C21.8497 33.189 22.6224 33.4167 23.0153 33.8275C23.4128 34.2384 23.7255 34.8056 24.2747 34.9441C25.2571 35.1986 26.061 33.9304 27.0749 33.9572C27.4858 33.9661 27.8878 34.1894 28.2853 34.0911C29.1427 33.8812 29.1114 32.479 29.9153 32.0994C30.1028 32.0101 30.3218 31.9921 30.5093 31.8939C30.947 31.6661 31.0452 30.9872 30.688 30.6435C31.3267 30.389 31.9608 30.1345 32.595 29.8798C32.93 29.7458 33.3185 29.5314 33.3185 29.1697C33.3185 28.7677 32.787 28.5622 32.403 28.6874C32.019 28.8079 31.7376 29.1251 31.4026 29.3529C30.8847 29.7101 30.179 29.8441 29.6163 29.5583C29.3438 29.4199 29.1296 29.1654 29.0224 28.8794L31.5233 28.5355L35.8866 22.3411C36.8022 22.5244 37.7222 22.6896 38.6511 22.5958C39.0665 22.5556 39.4995 22.4619 39.9015 22.5779C40.3034 22.6984 40.6517 23.1316 40.4999 23.5247C40.4329 23.69 40.2854 23.815 40.1382 23.9177C39.5298 24.3482 38.7712 24.5581 38.0257 24.5222C37.295 24.4869 36.802 25.3247 37.2737 25.8837C37.2772 25.8878 37.2808 25.8919 37.2845 25.896C37.6462 26.3115 38.2938 26.441 38.7851 26.1997C38.995 26.097 39.1735 25.9363 39.3478 25.78C39.8792 25.2931 40.4151 24.8064 40.9511 24.3197C41.1968 24.0964 41.4513 23.8642 41.764 23.7392C42.2149 23.5472 42.8716 23.4802 42.9429 22.9933C42.9696 22.8146 42.8938 22.6361 42.8849 22.4529C42.871 22.0353 43.1681 21.7779 43.5688 21.637C44.128 21.4406 44.6792 21.9572 44.5528 22.5363C44.552 22.5398 44.5513 22.5433 44.5505 22.5468C44.6124 22.2624 46.1327 21.7322 46.412 21.6083C47.1267 21.2911 47.8589 21.0132 48.6038 20.7761C49.5339 20.4802 50.5196 20.4464 51.4425 20.1558C52.5311 19.8128 53.5333 18.8665 54.6759 18.7679C55.3093 18.7132 55.9716 18.5826 56.6087 18.6122C57.3903 18.6435 58.5067 18.6212 59.1229 19.2062C60.8018 20.8046 57.8901 23.1001 57.7069 24.7257Z" fill="#302945"/>
<path d="M54.0181 59.4263C53.8663 61.0206 53.0892 62.5479 51.8833 63.6018C51.6646 63.7938 51.4233 63.9858 51.3429 64.2628C51.2714 64.4995 51.3339 64.754 51.3429 64.9997C51.4411 66.9425 48.6901 67.8759 48.2747 69.7739C47.98 71.1226 48.9536 72.3776 49.7485 73.503C49.954 73.7977 50.155 74.1239 50.3157 74.4677L49.0206 74.4007L36.9089 83.0958L20.5366 46.9841C20.9028 46.9573 21.269 46.9438 21.6218 46.8546C22.3452 46.6716 22.9526 46.1847 23.6628 45.9569C24.3685 45.7292 25.3286 45.8987 25.5653 46.6044C25.6681 46.3677 25.8825 46.7518 25.8825 47.0108C25.8825 47.2698 25.7083 47.5065 25.7218 47.7655C25.7308 47.9933 25.8825 48.1942 26.0433 48.3595C27.6198 50.0028 30.6923 49.7661 32.0009 47.904C32.1438 47.6985 32.2778 47.4708 32.4831 47.3278C32.8403 47.0911 33.3048 47.1581 33.7337 47.1938C35.6138 47.3368 37.6325 46.5552 39.3251 47.3815C40.9149 48.1585 41.5671 50.0253 42.3753 51.5974C42.5585 51.9501 42.7638 52.3073 43.0765 52.553C43.4605 52.8612 43.9786 52.9685 44.3581 53.281C45.3362 54.0759 45.229 55.9784 46.4526 56.2821C46.7251 56.3491 47.0198 56.3134 47.2923 56.3849C48.1765 56.6306 48.3507 57.8274 49.0341 58.4392C50.0479 59.3503 51.6153 58.6624 52.9731 58.5016C53.3171 58.4614 53.7235 58.4927 53.92 58.7786C54.045 58.9618 54.0405 59.203 54.0181 59.4263Z" fill="#302945"/>
<path d="M82.5111 49.1366C82.4576 49.1321 82.3994 49.1276 82.3459 49.1276C82.0601 49.1144 81.7564 49.1231 81.5062 48.9847C80.6889 48.5515 81.0328 47.1269 80.2826 46.5819C79.9924 46.3677 79.6037 46.3497 79.242 46.3855C77.7057 46.5239 76.2676 47.4796 75.5441 48.8417C75.2314 49.4224 75.0305 50.0878 74.5527 50.5433C74.0391 51.03 73.2531 51.231 72.8959 51.8429C72.2617 52.9237 73.4541 54.3126 73.0924 55.514C72.7842 56.5366 71.3685 56.9118 70.4307 56.3983C69.4883 55.8847 69.015 54.7683 68.9435 53.7009C68.8945 52.9997 68.9613 52.2093 68.4924 51.6778C67.9207 51.0302 66.8221 51.1106 66.2236 50.4854C65.7234 49.9675 65.6744 49.0608 65.049 48.7079C64.2586 48.2614 63.1777 49.0519 62.3873 48.6097C62.0791 48.4399 61.8648 48.1005 61.5254 48.0202C61.1547 47.9355 60.7795 48.1854 60.4 48.1452C59.815 48.0782 59.5471 47.3993 59.0869 47.0286C57.6756 45.881 55.5723 48.1138 53.8662 47.4796C53.2588 47.2519 52.8346 46.6937 52.2496 46.4122C51.6646 46.131 50.7223 46.381 50.758 47.0286C50.7982 47.77 51.9236 47.837 52.3746 48.4265C52.6158 48.7392 52.6426 49.1811 52.9016 49.4761C53.8394 50.5345 55.7553 48.355 56.8584 49.2394C57.4301 49.6993 57.573 50.8694 58.292 50.731C58.8279 51.3651 58.3277 52.3698 57.6355 52.8255C56.9434 53.281 56.0859 53.4597 55.4605 54.0044C54.5271 54.8128 54.0805 56.4071 52.848 56.4519C52.3389 56.4741 51.7941 56.1972 51.343 56.4294C51.0348 56.5856 50.865 56.9474 50.557 57.1083C49.7576 57.5192 49.0922 56.4161 48.3955 55.8489C48.1053 55.6122 47.7523 55.4604 47.4666 55.2147C46.4037 54.2993 46.5644 52.3923 45.3766 51.6464C44.4609 51.0702 42.9381 51.3292 42.5361 50.3245C42.4244 50.052 42.4379 49.744 42.3307 49.4671C42.018 48.6989 40.8613 48.5204 40.6158 47.7253C40.4238 47.1134 40.906 46.4837 41.451 46.1442C41.9959 45.8003 42.6389 45.6083 43.1033 45.1661C43.5678 44.7194 43.751 43.8665 43.2463 43.4735C42.9516 43.2458 42.5451 43.2546 42.1744 43.2771C41.2455 43.3306 40.2986 43.3843 39.4234 43.6923C38.6955 43.9513 38.0078 44.3845 37.2396 44.4157C36.467 44.447 35.5916 43.8218 35.7613 43.0714C35.8418 42.7229 36.1141 42.4595 36.3777 42.214C37.1904 41.4593 38.1195 40.6554 39.2314 40.6554C39.9236 40.6509 40.6203 40.9724 41.2947 40.8161C41.6877 40.7224 42.0316 40.4722 42.4201 40.3606C43.3223 40.0972 44.2734 40.5884 45.2023 40.5081C46.0865 40.4321 46.8369 39.8606 47.6096 39.4274C48.3822 38.9897 49.3691 38.686 50.1328 39.1415C49.9185 40.1061 50.0658 41.0395 50.8965 41.5755C51.7539 42.1337 53.0982 41.2673 52.9463 40.2579C52.723 38.7663 50.1953 38.1634 50.4945 36.6851C50.7893 35.2112 53.6117 35.2292 53.5715 33.7241C53.5625 33.3534 53.3482 32.9917 53.4197 32.6255C53.5582 31.9243 54.5228 31.8483 55.1168 31.4466C56.3539 30.6024 55.876 28.3249 57.1891 27.6015C57.5508 27.405 57.9885 27.3737 58.3367 27.1593C59.4801 26.4626 58.8771 24.6895 59.2879 23.4167C59.7166 22.0858 61.3601 20.947 60.7705 19.6786C60.6098 19.3392 60.3105 19.0892 60.0828 18.7899C59.5781 18.12 59.4933 17.1063 60.0338 16.4677C60.5697 15.8245 61.7486 15.8112 62.1818 16.5257C62.4543 16.9767 62.3963 17.5751 62.691 18.0083C62.9857 18.446 63.9326 18.303 63.7539 17.8073C63.1377 17.5214 63.41 16.5122 63.9951 16.1683C64.5801 15.8288 65.317 15.8288 65.9154 15.5118C66.6836 15.1099 67.1346 14.239 67.9252 13.8862C68.1842 13.77 68.4656 13.721 68.7469 13.6763L82.5111 49.1366Z" fill="#302945"/>
</g>
<path d="M63.3703 76.7349C63.3023 76.7349 63.2386 76.6935 63.2133 76.6261L39.5533 13.271C39.5211 13.1843 39.565 13.0878 39.6519 13.0556C39.7375 13.0226 39.8347 13.0669 39.8674 13.1537L63.5273 76.5087C63.5595 76.5955 63.5156 76.6919 63.4287 76.7242C63.4095 76.7316 63.3898 76.7349 63.3703 76.7349Z" fill="#302945"/>
<path d="M72.3247 63.4422C72.2549 63.4422 72.1899 63.3985 72.1659 63.3285L56.6376 17.5703C56.6079 17.4826 56.6549 17.3875 56.7426 17.358C56.8276 17.3278 56.9249 17.375 56.9549 17.4627L72.4833 63.2209C72.5129 63.3086 72.4659 63.4037 72.3782 63.4332C72.361 63.4395 72.3426 63.4422 72.3247 63.4422Z" fill="#302945"/>
<path d="M49.0207 74.5684C48.9531 74.5684 48.8898 74.5274 48.8641 74.4606L31.3666 28.595C31.334 28.5085 31.3771 28.4118 31.4635 28.3788C31.5498 28.3463 31.6463 28.3889 31.6799 28.4756L49.1773 74.3413C49.21 74.4278 49.1668 74.5245 49.0805 74.5575C49.0609 74.5649 49.0408 74.5684 49.0207 74.5684Z" fill="#302945"/>
<path d="M32.0705 60.4867C31.9781 60.4867 31.9031 60.4117 31.9031 60.3193V56.7845C31.9031 56.6921 31.9781 56.6169 32.0705 56.6169C32.1628 56.6169 32.2378 56.6919 32.2378 56.7845V60.3193C32.238 60.4117 32.163 60.4867 32.0705 60.4867Z" fill="#302945"/>
<path d="M33.4388 55.6155C33.4388 56.4185 32.7878 57.0694 31.9849 57.0694C31.182 57.0694 30.531 56.4185 30.531 55.6155C30.531 54.8126 31.182 54.1616 31.9849 54.1616C32.7878 54.1616 33.4388 54.8126 33.4388 55.6155Z" fill="#E38066"/>
<path d="M49.6303 30.1559C49.5379 30.1559 49.4629 30.0809 49.4629 29.9885V26.4538C49.4629 26.3614 49.5379 26.2864 49.6303 26.2864C49.7227 26.2864 49.7977 26.3614 49.7977 26.4538V29.9885C49.7977 30.0809 49.7227 30.1559 49.6303 30.1559Z" fill="#302945"/>
<path d="M50.9985 25.285C50.9985 26.0879 50.3475 26.7387 49.5448 26.7387C48.7418 26.7387 48.0911 26.0877 48.0911 25.285C48.0911 24.482 48.7418 23.8311 49.5448 23.8311C50.3475 23.8311 50.9985 24.482 50.9985 25.285Z" fill="#E38066"/>
<path d="M73.8031 43.4589C73.7107 43.4589 73.6357 43.3839 73.6357 43.2915V39.7567C73.6357 39.6644 73.7107 39.5894 73.8031 39.5894C73.8955 39.5894 73.9705 39.6644 73.9705 39.7567V43.2915C73.9707 43.3839 73.8957 43.4589 73.8031 43.4589Z" fill="#302945"/>
<path d="M75.1717 38.5877C75.1717 39.3906 74.5208 40.0414 73.7178 40.0414C72.9149 40.0414 72.2639 39.3904 72.2639 38.5877C72.2639 37.7848 72.9149 37.1338 73.7178 37.1338C74.5208 37.134 75.1717 37.7848 75.1717 38.5877Z" fill="#E38066"/>
<path d="M59.6074 82.4964C59.6074 82.4964 57.783 78.0495 55.7305 75.8829C53.6781 73.7165 49.4592 72.3482 47.9768 69.6116C46.4945 66.8749 45.0121 63.9105 43.6437 61.6298C42.2754 59.3493 39.8809 55.1304 39.8809 55.1304C39.8809 55.1304 41.3631 53.1919 43.1875 53.9902C45.0119 54.7884 47.9766 59.2353 47.9766 59.2353C47.9766 59.2353 45.582 48.0609 44.8979 45.3243C44.2137 42.5878 43.1875 39.281 45.6961 38.8249C48.2047 38.3689 48.7748 43.1579 49.2309 44.6402C49.6869 46.1224 51.1693 51.3677 51.1693 51.3677C51.1693 51.3677 51.6254 48.5171 53.3357 48.289C55.0461 48.061 56.3004 50.1134 56.3004 50.1134C56.3004 50.1134 57.0986 48.5171 58.809 48.745C60.5193 48.973 61.5455 51.3675 61.5455 51.3675C61.5455 51.3675 63.1418 49.9991 64.5102 51.1394C65.8785 52.2796 68.501 60.2612 69.2992 62.5419C70.0975 64.8224 73.7463 74.5146 73.7463 74.5146L59.6074 82.4964Z" fill="#FFA78F"/>
<path d="M58.4674 80.3076C58.4072 80.3076 58.3492 80.2752 58.3191 80.2182C58.3078 80.1965 57.1742 78.0492 56.281 76.8578C55.4642 75.7691 54.7023 75.2342 53.8959 74.6676L53.6574 74.4996C53.3508 74.2822 52.8031 73.9318 52.1693 73.5262C50.9529 72.7478 49.4396 71.7793 48.9264 71.2914C48.1064 70.5129 47.2494 68.7383 46.8717 67.8127C46.4613 66.8055 44.4877 63.3484 43.7293 62.0971C42.9766 60.8555 39.7684 55.2705 39.7361 55.2143C39.7057 55.1611 39.7064 55.0955 39.7387 55.0432C39.7492 55.0256 40.8465 53.2756 42.7998 53.6357C44.7109 53.9867 47.9789 58.9334 48.117 59.1436C48.1676 59.2209 48.1463 59.3248 48.0689 59.3756C47.9922 59.4258 47.8879 59.4051 47.8369 59.3275C47.8037 59.2771 44.5105 54.2902 42.7394 53.9648C41.2262 53.6896 40.3058 54.816 40.0781 55.1373C40.4965 55.8656 43.3172 60.7719 44.015 61.9232C44.7398 63.1187 46.7465 66.6185 47.1818 67.6861C47.6576 68.8545 48.4789 70.4049 49.1562 71.0484C49.6465 71.5143 51.1455 72.4732 52.3496 73.2439C52.9873 73.6519 53.5377 74.0043 53.8508 74.2262L54.0881 74.3934C54.9172 74.9756 55.7004 75.5256 56.5488 76.6566C57.4582 77.8697 58.6043 80.0402 58.6156 80.0619C58.6588 80.1439 58.6273 80.2451 58.5455 80.2883C58.5205 80.3016 58.4939 80.3076 58.4674 80.3076Z" fill="#302945"/>
<path d="M42.3915 59.5475C42.3509 59.5475 42.3098 59.5329 42.2776 59.503C42.21 59.4401 42.2057 59.3342 42.2684 59.2665C42.4977 59.018 42.6196 58.6424 42.6303 58.1503C42.647 57.3926 42.4065 56.6692 41.971 56.1653C41.4952 55.6139 40.7651 55.3243 40.1079 55.4274C40.0124 55.4411 39.9303 55.3788 39.9169 55.2878C39.9024 55.1964 39.9649 55.1106 40.0565 55.0964C40.8219 54.9758 41.6751 55.3098 42.2249 55.9464C42.7137 56.5122 42.9837 57.3182 42.9655 58.1577C42.9528 58.734 42.8011 59.1835 42.5145 59.4938C42.4813 59.5294 42.4364 59.5475 42.3915 59.5475Z" fill="#302945"/>
<path d="M48.4713 62.6719C48.3867 62.6719 48.3139 62.6082 48.3047 62.5223C48.3025 62.5012 48.0727 60.3762 47.6605 58.2797C47.415 57.0295 46.5248 53.2494 45.8092 50.2119C45.3033 48.0643 44.8666 46.2092 44.7721 45.7377C44.7445 45.5992 44.6971 45.4008 44.6387 45.158C44.2107 43.3727 43.2086 39.1918 45.2719 38.6256C45.8396 38.47 46.3695 38.5299 46.8477 38.8039C48.0269 39.4797 48.6266 41.2842 48.9752 42.5826C49.3934 44.141 51.9779 53.9096 51.9779 53.9096L51.6543 53.9951C51.6543 53.9951 49.0697 44.2278 48.6516 42.6696C48.4598 41.9547 47.8762 39.7795 46.681 39.0948C46.2771 38.8631 45.8449 38.8155 45.3609 38.9489C43.61 39.4291 44.5594 43.3889 44.9644 45.0799C45.0238 45.3278 45.0727 45.5305 45.101 45.6717C45.1939 46.1377 45.6305 47.9903 46.1355 50.135C46.8518 53.175 47.7428 56.9584 47.9894 58.2149C48.4043 60.3262 48.6357 62.4649 48.6379 62.4864C48.6475 62.5784 48.5812 62.6608 48.4893 62.6709C48.483 62.6715 48.4769 62.6719 48.4713 62.6719Z" fill="#302945"/>
<path d="M57.3649 53.0175C57.2913 53.0175 57.2237 52.9687 57.2036 52.8942C56.9061 51.8114 55.7612 48.2948 53.3477 48.456C51.3323 48.5948 51.4497 51.8218 51.4514 51.8542C51.4553 51.9466 51.3838 52.0247 51.2913 52.0288C51.1819 52.0386 51.1211 51.9612 51.1164 51.8691C51.1151 51.8333 50.9842 48.2831 53.325 48.1218C55.9709 47.9419 57.2123 51.6603 57.5262 52.8056C57.5506 52.8948 57.4983 52.9868 57.4094 53.0114C57.3944 53.0155 57.3791 53.0175 57.3649 53.0175Z" fill="#302945"/>
<path d="M61.8879 52.7517C61.8129 52.7517 61.7444 52.7009 61.7252 52.6247C61.6385 52.2769 60.8168 49.2177 58.7844 48.9108C56.9479 48.6349 56.5938 50.2679 56.5789 50.3374C56.5602 50.4276 56.4739 50.4866 56.3813 50.4673C56.2907 50.4487 56.2321 50.3605 56.2508 50.2702C56.2543 50.2499 56.6887 48.2558 58.834 48.5798C61.0348 48.9116 61.8991 51.9397 62.0504 52.5435C62.0727 52.6331 62.0182 52.7239 61.9283 52.7466C61.9149 52.7501 61.9014 52.7517 61.8879 52.7517Z" fill="#302945"/>
<path d="M46.1587 42.87C45.3845 42.87 44.8189 42.2388 44.5482 41.0574C44.3724 40.2892 44.8273 39.5089 45.5831 39.2804L45.6298 39.2661C45.6298 39.2661 45.6298 39.2661 45.6302 39.2661C46.0525 39.1382 46.5068 39.2019 46.8775 39.4398C47.2521 39.68 47.5015 40.072 47.5626 40.5148C47.7951 42.2074 47.0968 42.7124 46.4701 42.8378C46.3628 42.8595 46.2591 42.87 46.1587 42.87ZM45.7271 39.5866L45.6804 39.6011C45.0921 39.7788 44.7384 40.3855 44.8749 40.9825C45.1414 42.146 45.6587 42.6575 46.4048 42.5095C47.1109 42.3679 47.3892 41.712 47.2304 40.5605C47.1833 40.2148 46.9884 39.9093 46.6966 39.722C46.4083 39.5368 46.055 39.4872 45.7271 39.5866Z" fill="#302945"/>
<path d="M85.0928 82.8946L56.926 97.3196C56.926 97.3196 55.2737 94.1844 55.1037 91.0495C54.9565 88.3118 57.2385 86.4897 57.8192 86.07C57.9039 86.0075 57.9532 85.9762 57.9532 85.9762L57.895 85.8155L56.2426 81.0727L57.7119 80.2913L58.0112 80.1305L60.1637 78.9827L60.4629 78.8264L62.428 77.7815L62.7227 77.6208L64.4867 76.6874L64.777 76.5266L66.5143 75.6067L66.809 75.4459L68.7428 74.4188L69.0375 74.2626L71.2883 73.0657L71.583 72.9092L73.9188 71.6633L75.7856 75.5084L75.8571 75.6559C75.8571 75.6559 75.9151 75.6514 76.0223 75.6469C76.7323 75.6067 79.5504 75.5174 81.1582 76.2811C83.5522 77.4237 85.0928 82.8946 85.0928 82.8946Z" fill="#9490F1"/>
<path d="M76.0046 75.7311C75.9911 75.7624 75.9688 75.7981 73.6643 77.1425C73.5706 77.196 73.4768 77.2497 73.3741 77.3122C72.7847 77.656 72.0567 78.0759 71.1634 78.5895C71.0696 78.6431 70.9669 78.7013 70.8686 78.7593C70.3015 79.0852 69.6718 79.4515 68.9706 79.8534C68.8769 79.9069 68.7786 79.9606 68.6804 80.0186C68.1534 80.3224 67.5862 80.6483 66.9743 81.0011C66.8804 81.0546 66.7823 81.1083 66.6839 81.1663C66.1392 81.4788 65.563 81.8095 64.9511 82.1577H64.9466C64.8528 82.2157 64.7589 82.2694 64.6608 82.3274C64.0489 82.6757 63.406 83.0464 62.7226 83.4351C62.6288 83.4931 62.5306 83.5468 62.4323 83.6048C61.7579 83.9888 61.0477 84.3952 60.3065 84.8196C60.2083 84.8776 60.1145 84.9313 60.0161 84.9849C59.3819 85.3511 58.721 85.7263 58.0378 86.1192C58.011 86.137 57.9843 86.1415 57.953 86.1415C57.8948 86.1415 57.8413 86.1102 57.8101 86.0567C57.761 85.9763 57.7923 85.8737 57.8726 85.829C58.489 85.4763 59.1587 85.0921 59.8688 84.6856C59.9671 84.6319 60.0653 84.5739 60.1636 84.5204C60.8425 84.1274 61.5524 83.721 62.2849 83.3058C62.3786 83.2477 62.4769 83.194 62.5751 83.136C63.2138 82.7698 63.8612 82.3991 64.5134 82.0284C64.6071 81.9704 64.7054 81.9122 64.8036 81.8587C65.3843 81.5282 65.9647 81.1933 66.5364 80.8628C66.6347 80.8048 66.7329 80.7511 66.8267 80.6975C67.4073 80.3626 67.979 80.0366 68.5327 79.7151C68.631 79.6616 68.7292 79.6034 68.8229 79.5499C69.4839 79.1702 70.1181 78.804 70.721 78.4602C70.8192 78.4022 70.9175 78.3442 71.0157 78.2905C71.8329 77.8171 72.5788 77.3884 73.2265 77.0132C73.3247 76.9552 73.4229 76.8972 73.5167 76.8434C74.7983 76.102 75.629 75.6108 75.7407 75.5349C75.7899 75.4858 75.8657 75.4724 75.9282 75.5036C76.0136 75.5481 76.0493 75.6464 76.0046 75.7311Z" fill="#302945"/>
<path d="M60.3066 84.8194C60.2084 84.8774 60.1146 84.9311 60.0162 84.9846L59.8689 84.6854L57.7119 80.2909L58.0111 80.1301L60.1637 84.5202L60.3066 84.8194Z" fill="#302945"/>
<path d="M62.7226 83.435C62.6289 83.493 62.5306 83.5467 62.4324 83.6047L62.2849 83.3055L60.1638 78.9824L60.463 78.8262L62.5755 83.1359L62.7226 83.435Z" fill="#302945"/>
<path d="M64.947 82.1577C64.8532 82.2157 64.7593 82.2694 64.6612 82.3274L64.5138 82.0282L62.4282 77.7811L62.7229 77.6204L64.8042 81.8586L64.947 82.1577Z" fill="#302945"/>
<path d="M66.9743 81.0012C66.8804 81.0547 66.7823 81.1084 66.6839 81.1664L66.5366 80.8627L64.4868 76.6871L64.777 76.5264L66.8269 80.6975L66.9743 81.0012Z" fill="#302945"/>
<path d="M68.9707 79.8531C68.8769 79.9066 68.7787 79.9604 68.6804 80.0184L68.533 79.7147L66.5144 75.6061L66.8091 75.4453L68.8232 79.5496L68.9707 79.8531Z" fill="#302945"/>
<path d="M71.1634 78.5893C71.0697 78.6428 70.9669 78.701 70.8687 78.759L70.7212 78.4598L68.7429 74.418L69.0376 74.2617L71.0162 78.29L71.1634 78.5893Z" fill="#302945"/>
<path d="M73.6646 77.1425C73.5708 77.196 73.4771 77.2497 73.3743 77.3122L73.2269 77.013L71.2886 73.0651L71.5833 72.9087L73.5171 76.8433L73.6646 77.1425Z" fill="#302945"/>
<path d="M38.8078 27.5039L40.8275 27.6306C41.1812 27.6529 41.2943 28.1183 40.9902 28.3004L39.3869 29.2603C39.2914 29.3175 39.2275 29.4156 39.214 29.5261L38.8955 32.133C38.8533 32.4773 38.3972 32.5697 38.2244 32.2689L37.1222 30.3505C37.0613 30.2443 36.9504 30.1763 36.8281 30.1699L34.4347 30.0459C34.0795 30.0275 33.9623 29.5605 34.267 29.3765L36.2255 28.1939C36.331 28.1302 36.3968 28.017 36.3998 27.8937L36.4564 25.5595C36.4648 25.213 36.9091 25.0765 37.1107 25.3584L38.5371 27.3531C38.6 27.442 38.6994 27.497 38.8078 27.5039Z" fill="white"/>
<path d="M85.9068 44.1444L87.5322 45.35C87.8168 45.5612 87.6584 46.0133 87.3043 46.0004L85.4367 45.9331C85.3254 45.9289 85.2186 45.9766 85.1471 46.062L83.461 48.0754C83.2383 48.3414 82.8053 48.1707 82.824 47.8243L82.9436 45.6151C82.9502 45.4928 82.8942 45.3754 82.7951 45.3034L80.8547 43.8967C80.5666 43.6879 80.7227 43.2325 81.0781 43.244L83.3649 43.3178C83.4881 43.3217 83.6047 43.2625 83.6744 43.1608L84.9924 41.2334C85.1879 40.9473 85.635 41.0747 85.6508 41.4207L85.7617 43.8706C85.7664 43.9791 85.8197 44.0797 85.9068 44.1444Z" fill="white"/>
<path d="M40.2031 71.2934L42.1893 70.9051C42.5371 70.8372 42.7643 71.2588 42.5162 71.5118L41.208 72.8463C41.1301 72.9258 41.0932 73.037 41.108 73.1471L41.4594 75.7499C41.5059 76.0936 41.0879 76.2985 40.8445 76.0512L39.2928 74.4741C39.2069 74.3868 39.0824 74.3491 38.9625 74.3739L36.6156 74.8594C36.2674 74.9315 36.0358 74.5094 36.2838 74.2544L37.8793 72.6147C37.9653 72.5264 38.0002 72.4003 37.9719 72.2803L37.436 70.0079C37.3565 69.6706 37.7518 69.426 38.018 69.6477L39.9028 71.2167C39.9863 71.2862 40.0965 71.3143 40.2031 71.2934Z" fill="white"/>
</svg>
