<svg width="390" height="82" viewBox="0 0 390 82" fill="none" xmlns="http://www.w3.org/2000/svg">
<path opacity="0.5" d="M0 0H17.198C25.0808 0 32.6469 3.10258 38.2603 8.63688L42.2809 12.6009C54.5958 24.7424 74.5988 23.985 85.9604 10.9471L86.5324 10.2906C92.2298 3.75268 100.478 0 109.15 0H116.496C125.084 0 133.26 3.68028 138.954 10.1089L139.398 10.6105C151.029 23.7428 171.398 24.1363 183.528 11.4632L185.64 9.25628C191.3 3.34376 199.129 0 207.313 0H212.947C220.978 0 228.674 3.22025 234.312 8.93995L237.86 12.5389C249.904 24.7579 269.725 24.405 281.327 11.7649L284.897 7.87465C288.809 3.61301 295.509 3.54921 299.501 7.73559L310.108 18.8583C318.324 27.4744 332.202 27.0489 339.874 17.9456L349.007 7.11056C352.807 2.60195 358.403 0 364.299 0H390V72C390 77.5229 385.523 82 380 82H10C4.47715 82 0 77.5229 0 72V0Z" fill="#6347F9"/>
</svg>
