<svg width="352" height="199" viewBox="0 0 352 199" fill="none" xmlns="http://www.w3.org/2000/svg">
<path opacity="0.6" d="M1 146C53.0132 159.652 155.707 191.926 232.369 164.867C309.031 137.809 325.036 172.537 351 198" stroke="#8CBFF0" stroke-dasharray="10 10"/>
<g opacity="0.6" clip-path="url(#clip0_112_40)">
<g opacity="0.8">
<path d="M42.766 46.0831C41.4203 45.8628 40.1153 46.8006 39.895 48.1464C39.6747 49.4921 40.6125 50.7971 41.9582 51.0174C43.304 51.2377 44.609 50.2998 44.8293 48.9541C45.0496 47.6084 44.1117 46.3034 42.766 46.0831ZM42.1908 49.5969C41.6674 49.5112 41.2923 48.9892 41.378 48.4659C41.4636 47.9426 41.9856 47.5674 42.509 47.6531C43.0323 47.7388 43.4075 48.2608 43.3218 48.7841C43.2361 49.3074 42.7141 49.6826 42.1908 49.5969Z" fill="#8CBFF0"/>
<path d="M20.7855 42.4849C19.4398 42.2646 18.1348 43.2025 17.9145 44.5482C17.6942 45.8939 18.6321 47.199 19.9778 47.4192C21.3235 47.6395 22.6285 46.7017 22.8488 45.356C23.0691 44.0102 22.1312 42.7052 20.7855 42.4849ZM20.2103 45.9988C19.687 45.9131 19.3118 45.3911 19.3975 44.8677C19.4832 44.3444 20.0052 43.9693 20.5285 44.0549C21.0519 44.1406 21.427 44.6626 21.3413 45.1859C21.2557 45.7093 20.7336 46.0844 20.2103 45.9988Z" fill="#8CBFF0"/>
<path d="M31.2527 39.9763L30.3555 39.8294C29.907 39.756 29.559 40.0061 29.4855 40.4547C29.4121 40.9032 29.6622 41.2512 30.1108 41.3247L30.9332 41.4593C31.3817 41.5327 31.7297 41.2826 31.8032 40.834C31.8766 40.3855 31.6265 40.0375 31.2527 39.9763Z" fill="#8CBFF0"/>
<path d="M55.0843 42.1118L54.4114 42.0017C54.3694 40.3827 53.157 38.8792 51.4374 38.5977L44.8583 37.5208C43.7369 37.3372 42.8126 36.4182 42.6971 35.2478L42.2217 30.1802C42.1184 28.935 41.1439 27.8543 39.8729 27.6463L37.0197 27.256L37.3012 25.5364L37.5255 25.5731C39.544 25.9036 41.3833 24.5158 41.7015 22.572C41.7749 22.1234 41.5248 21.7754 41.0763 21.702C40.6277 21.6286 40.2797 21.8786 40.2063 22.3272C40.0104 23.5234 38.8917 24.2615 37.7702 24.0779L16.9863 20.6756C15.7901 20.4798 15.052 19.361 15.2356 18.2396C15.309 17.791 15.0589 17.443 14.6103 17.3695C14.1618 17.2961 13.8138 17.5462 13.7403 17.9948C13.4099 20.0134 14.7977 21.8526 16.7415 22.1708L16.9658 22.2076L16.6353 24.2261L14.9158 23.9447C13.3458 23.6876 11.8545 24.8253 11.5975 26.3953L10.4104 33.6473C9.42624 33.563 8.46923 34.2507 8.29789 35.2974L7.97969 37.2412C7.80835 38.2879 8.49611 39.2449 9.45578 39.4788L9.14982 41.3478C8.91729 42.7683 9.91767 44.1603 11.3382 44.3929L15.0763 45.0048C15.034 47.6079 16.8961 49.8319 19.5128 50.2602C22.1295 50.6886 24.6158 49.0997 25.3935 46.6937L37.1312 48.6151C37.0889 51.2183 38.9511 53.4422 41.5678 53.8706C44.1844 54.2989 46.6708 52.71 47.4484 50.3041L50.2894 50.7691C51.7847 51.0139 53.2637 49.951 53.5085 48.4557L53.5941 47.9324L54.1922 48.0303C54.6408 48.1037 54.9888 47.8536 55.0622 47.4051L55.7721 43.0688C55.783 42.5333 55.5329 42.1853 55.0843 42.1118ZM53.6268 46.3257C53.5521 46.3134 51.9821 46.0564 52.0568 46.0687C51.384 45.9585 50.9463 45.3495 51.0564 44.6766L51.1421 44.1533C51.2523 43.4804 51.8613 43.0428 52.5341 43.1529L54.1041 43.4099L53.6268 46.3257ZM39.6159 29.2163C40.214 29.3142 40.6014 29.7614 40.653 30.384L41.1284 35.4516C41.1923 35.9994 41.3554 36.41 41.5063 36.8953C37.261 37.5053 36.6765 37.7935 35.4803 37.5977L34.2708 32.7937C34.1825 32.3954 33.7584 32.1725 33.3601 32.2608C32.9618 32.3491 32.7388 32.7732 32.8272 33.1715L33.8355 37.3284L27.1069 36.227L28.5266 27.5545L39.6159 29.2163ZM20.8513 35.0494C19.4308 34.8169 18.4305 33.4248 18.663 32.0044L19.6176 26.1729L27.0313 27.3097L25.6361 35.8327L20.8513 35.0494ZM18.461 22.4523L35.8059 25.2917L35.5244 27.0112L18.2176 24.4084L18.5358 22.4646L18.461 22.4523ZM9.48717 37.4112L9.79314 35.5422C9.82985 35.3179 10.0909 35.1303 10.3151 35.167L10.9132 35.2649L11.7356 35.3995C11.9599 35.4363 12.1475 35.6973 12.1108 35.9216L11.7926 37.8654C11.7559 38.0897 11.4949 38.2772 11.2706 38.2405L10.4482 38.1059L9.85008 38.008C9.63803 37.8965 9.43822 37.7103 9.48717 37.4112ZM19.7698 48.6902C17.7512 48.3598 16.3757 46.4458 16.7062 44.4272C17.0366 42.4086 18.9506 41.0331 20.9692 41.3635C22.9878 41.6939 24.3633 43.608 24.0329 45.6265C23.7024 47.6451 21.7884 49.0207 19.7698 48.6902ZM41.75 52.2883C39.7314 51.9579 38.3559 50.0439 38.6863 48.0253C39.0168 46.0067 40.9308 44.6312 42.9494 44.9616C44.968 45.2921 46.3435 47.2061 46.0131 49.2247C45.7574 51.2555 43.7686 52.6188 41.75 52.2883ZM51.9629 48.0492C51.8528 48.7221 51.1568 49.2223 50.4839 49.1121L47.6429 48.647C47.6852 46.0439 45.8231 43.82 43.2064 43.3916C40.5897 42.9633 38.1034 44.5522 37.3257 46.9581L25.6628 45.0489C25.7051 42.4458 23.8429 40.2218 21.2262 39.7935C18.6095 39.3651 16.1232 40.954 15.3455 43.36L11.6074 42.7481C11.0093 42.6502 10.5716 42.0412 10.6695 41.4431L10.9755 39.574L11.0503 39.5862C12.0969 39.7576 13.141 39.0073 13.3123 37.9606L13.606 36.1663C13.7774 35.1196 13.0271 34.0756 11.9804 33.9043L11.9056 33.8921L13.0928 26.6401C13.2152 25.8925 13.9112 25.3923 14.671 25.4399L18.1223 25.9281L17.1677 31.7596C16.8006 34.0025 18.3637 36.1775 20.6066 36.5446C21.5785 36.7037 36.3067 39.1147 35.3348 38.9556C36.9048 39.2126 37.6633 38.7994 42.6929 38.0875C43.2298 38.5592 43.8782 38.8189 44.6258 38.9412L51.2049 40.0182C52.102 40.1651 52.6892 40.7986 52.8537 41.6699L52.7789 41.6577C51.2837 41.4129 49.8916 42.4133 49.6469 43.9085L49.5612 44.4319C49.3164 45.9271 50.3168 47.3191 51.8121 47.5639L52.0363 47.6006L51.9629 48.0492Z" fill="#8CBFF0"/>
<path d="M43.0709 39.5311C42.6223 39.4576 42.2743 39.7077 42.2009 40.1563L42.0662 40.9787C41.9928 41.4273 42.2429 41.7753 42.6915 41.8487C43.14 41.9221 43.4881 41.6721 43.5615 41.2235L43.6961 40.4011C43.7573 40.0273 43.5194 39.6045 43.0709 39.5311Z" fill="#8CBFF0"/>
<path d="M45.5377 39.9349C45.0891 39.8615 44.7411 40.1115 44.6677 40.5601L44.533 41.3825C44.4596 41.8311 44.7097 42.1791 45.1583 42.2525C45.6068 42.326 45.9548 42.0759 46.0283 41.6273L46.1629 40.8049C46.2241 40.4311 45.9862 40.0083 45.5377 39.9349Z" fill="#8CBFF0"/>
<path d="M21.8636 19.0176L34.4985 21.0859C35.9937 21.3307 37.4728 20.2678 37.7175 18.7726L38.7333 12.5673C38.9781 11.072 37.9152 9.59301 36.4199 9.34824L33.7285 8.90765L33.9365 7.63669C34.1691 6.2162 33.1687 4.82418 31.7482 4.59165L29.7296 4.26121C28.3091 4.02868 26.9171 5.02906 26.6846 6.44955L26.4765 7.72051L23.7851 7.27993C22.2898 7.03516 20.8108 8.09806 20.566 9.59331L19.5502 15.7986C19.3055 17.2939 20.3684 18.7729 21.8636 19.0176ZM28.2546 6.70656C28.3525 6.10846 28.9615 5.67079 29.5596 5.7687L31.5782 6.09914C32.1763 6.19705 32.614 6.80606 32.5161 7.40416L32.3202 8.60036L28.0588 7.90276L28.2546 6.70656ZM33.4212 10.3159L31.9893 19.0631L25.0364 17.9249L26.4683 9.17772L33.4212 10.3159ZM37.3251 12.26L36.3093 18.4653C36.1991 19.1381 35.5031 19.6383 34.8303 19.5282L33.4845 19.3079L34.9165 10.5607L36.2622 10.781C36.935 10.8911 37.4352 11.5871 37.3251 12.26ZM22.0735 9.76332C22.1837 9.09046 22.8797 8.59027 23.5526 8.70041L24.8983 8.92071L23.4664 17.6679L22.1206 17.4476C21.4478 17.3375 20.9476 16.6415 21.0577 15.9686L22.0735 9.76332Z" fill="#8CBFF0"/>
</g>
</g>
<g opacity="0.6" clip-path="url(#clip1_112_40)">
<path d="M312.193 6.43281C312.943 6.33193 313.697 6.26938 314.452 6.2454L314.403 4.68367C312.239 4.75206 310.093 5.11665 308.027 5.76728L308.498 7.25723C309.704 6.87716 310.94 6.60134 312.193 6.43281Z" fill="#8CBFF0"/>
<path d="M300.039 12.2569L298.961 11.1255C296.273 13.6782 294.23 16.8329 292.999 20.3298C291.769 23.8267 291.387 27.5659 291.884 31.2395C292.355 34.8145 293.653 38.2305 295.674 41.2165L296.969 40.3422C295.083 37.5554 293.872 34.3673 293.432 31.031C292.968 27.6021 293.325 24.1119 294.473 20.8479C295.622 17.5839 297.529 14.6394 300.039 12.2569Z" fill="#8CBFF0"/>
<path d="M318.777 49.6782L319.038 51.2187C321.207 50.8529 323.313 50.1831 325.294 49.2291L324.616 47.8216C322.767 48.7118 320.801 49.3368 318.777 49.6782Z" fill="#8CBFF0"/>
<path d="M301.071 29.2144L302.62 29.0059L305.017 46.814L303.469 47.0224L301.071 29.2144Z" fill="#8CBFF0"/>
<path d="M305.717 28.5889L307.265 28.3804L309.663 46.1885L308.114 46.397L305.717 28.5889Z" fill="#8CBFF0"/>
<path d="M310.362 27.9634L311.911 27.7549L314.308 45.563L312.76 45.7715L310.362 27.9634Z" fill="#8CBFF0"/>
<path d="M338.002 25.7912L323.143 20.9574C322.552 20.7658 321.909 20.8166 321.355 21.0985C320.802 21.3804 320.382 21.8705 320.189 22.4612L317.175 31.7268L316.139 24.0323C316 23.0061 315.459 22.0771 314.636 21.449C313.812 20.821 312.773 20.5452 311.747 20.6822L308.65 21.0992L306.982 8.71096C306.871 7.88956 306.439 7.14575 305.78 6.64313C305.121 6.14051 304.289 5.92027 303.468 6.03086C302.646 6.14144 301.903 6.5738 301.4 7.2328C300.897 7.89181 300.677 8.72349 300.788 9.54488L302.456 21.9331L299.358 22.3501C298.332 22.4894 297.403 23.0301 296.775 23.8536C296.147 24.6771 295.871 25.7161 296.008 26.7426L298.719 46.8735C298.827 47.6685 299.176 48.4111 299.721 49.0006C300.265 49.5902 300.977 49.9982 301.761 50.1694C301.641 50.5363 301.614 50.9269 301.682 51.3067C301.75 51.6865 301.911 52.0437 302.15 52.3465C302.388 52.6494 302.699 52.8886 303.052 53.0429C303.406 53.1972 303.792 53.2618 304.176 53.2311C304.561 53.2004 304.932 53.0752 305.257 52.8667C305.581 52.6581 305.849 52.3727 306.037 52.0357C306.225 51.6988 306.327 51.3206 306.333 50.9349C306.34 50.5492 306.251 50.1678 306.075 49.8246L312.536 48.9548C312.457 49.3323 312.472 49.7235 312.58 50.0936C312.689 50.4637 312.887 50.8013 313.157 51.0766C313.427 51.3518 313.761 51.556 314.129 51.6712C314.498 51.7864 314.888 51.809 315.267 51.737C315.646 51.6649 316.001 51.5005 316.302 51.2583C316.602 51.016 316.837 50.7034 316.988 50.3483C317.138 49.9931 317.198 49.6063 317.163 49.2222C317.129 48.8381 316.999 48.4686 316.787 48.1464C317.366 47.8423 317.86 47.3983 318.223 46.8549C318.586 46.3114 318.808 45.6857 318.868 45.0347L330.51 48.8218C330.607 48.8537 330.71 48.866 330.812 48.858C330.915 48.85 331.014 48.822 331.106 48.7754C331.197 48.7288 331.279 48.6647 331.345 48.5867C331.412 48.5087 331.463 48.4182 331.494 48.3206L338.503 26.7758C338.567 26.5788 338.55 26.3643 338.456 26.1797C338.362 25.9951 338.199 25.8553 338.002 25.7912ZM322.315 22.4119C322.431 22.3963 322.549 22.407 322.66 22.4432L336.775 27.0353L336.292 28.5212L322.176 23.9292C321.98 23.8649 321.816 23.7253 321.723 23.5409C321.629 23.3565 321.611 23.1423 321.675 22.9454L321.675 22.9445C321.721 22.8045 321.805 22.6802 321.919 22.586C322.032 22.4918 322.169 22.4314 322.315 22.4119ZM302.336 9.3364C302.281 8.9257 302.391 8.50986 302.642 8.18036C302.894 7.85086 303.266 7.63468 303.676 7.57939C304.087 7.5241 304.503 7.63422 304.832 7.88552C305.162 8.13683 305.378 8.50874 305.433 8.91944L307.101 21.3077L304.004 21.7246L302.336 9.3364ZM304.764 50.7894C304.785 50.9425 304.759 51.0983 304.691 51.2371C304.623 51.3759 304.516 51.4914 304.382 51.5691C304.249 51.6467 304.095 51.683 303.941 51.6733C303.787 51.6637 303.639 51.6085 303.516 51.5148C303.393 51.4211 303.301 51.2931 303.251 51.1469C303.2 51.0007 303.195 50.843 303.234 50.6936C303.274 50.5443 303.357 50.41 303.473 50.3078C303.589 50.2055 303.732 50.14 303.885 50.1194C304.091 50.092 304.299 50.1471 304.463 50.2727C304.628 50.3983 304.736 50.5841 304.764 50.7894ZM314.934 50.2085C314.78 50.2291 314.625 50.2039 314.486 50.1359C314.347 50.068 314.232 49.9604 314.154 49.8269C314.076 49.6933 314.04 49.5397 314.05 49.3854C314.059 49.2312 314.114 49.0833 314.208 48.9605C314.302 48.8376 314.43 48.7453 314.576 48.6952C314.722 48.6451 314.88 48.6395 315.029 48.679C315.179 48.7186 315.313 48.8015 315.415 48.9174C315.517 49.0333 315.583 49.1769 315.604 49.33C315.631 49.5353 315.576 49.7431 315.45 49.9078C315.325 50.0725 315.139 50.1806 314.934 50.2085ZM315.291 47.0072L302.903 48.6751C302.287 48.7573 301.663 48.5918 301.169 48.215C300.675 47.8382 300.351 47.2807 300.267 46.665L297.557 26.5341C297.475 25.9182 297.64 25.2948 298.017 24.8007C298.394 24.3067 298.951 23.9822 299.567 23.8986L302.664 23.4816L303.185 27.353L304.734 27.1445L304.213 23.2732L307.31 22.8562L307.831 26.7275L309.379 26.519L308.858 22.6477L311.955 22.2308C312.571 22.1485 313.194 22.314 313.689 22.6908C314.183 23.0677 314.507 23.6251 314.591 24.2408L316.06 35.1546L314.147 41.0344C314.052 41.327 314.015 41.6356 314.039 41.9425C314.064 42.2493 314.148 42.5484 314.287 42.8227C314.427 43.097 314.619 43.3411 314.853 43.5411C315.087 43.741 315.358 43.893 315.651 43.9882L317.316 44.5299C317.355 45.1224 317.167 45.7076 316.791 46.1673C316.415 46.6271 315.879 46.9272 315.291 47.0072ZM330.25 47.0944L316.134 42.5024C315.937 42.4383 315.774 42.2985 315.68 42.1139C315.586 41.9292 315.569 41.7148 315.633 41.5177L320.992 25.0455C321.203 25.2078 321.44 25.3328 321.693 25.415L335.809 30.007L330.25 47.0944Z" fill="#8CBFF0"/>
<path d="M327.896 29.0761C326.868 28.7415 325.763 28.7195 324.722 29.0127C323.681 29.306 322.751 29.9013 322.048 30.7235C321.345 31.5457 320.902 32.5578 320.775 33.6318C320.647 34.7058 320.841 35.7935 321.332 36.7573C321.822 37.7212 322.588 38.5179 323.531 39.0467C324.475 39.5755 325.554 39.8127 326.632 39.7282C327.71 39.6438 328.739 39.2415 329.589 38.5723C330.438 37.903 331.07 36.9968 331.405 35.9684C331.852 34.5891 331.734 33.0888 331.076 31.7967C330.418 30.5046 329.275 29.5261 327.896 29.0761ZM330.086 34.7178L328.608 34.237C328.803 33.3394 328.834 32.414 328.698 31.5055L328.658 31.2378C329.169 31.6516 329.567 32.1872 329.817 32.7953C330.066 33.4034 330.159 34.0645 330.086 34.7178ZM325.478 36.8874L325.295 37.0728L325.256 36.8155C325.157 36.147 325.171 35.4667 325.297 34.8028L326.629 35.2361C326.34 35.8472 325.951 36.4054 325.478 36.8874ZM325.78 33.3171C326.069 32.7059 326.458 32.1477 326.932 31.6656L327.114 31.4802L327.153 31.7376C327.252 32.4061 327.239 33.0865 327.112 33.7503L325.78 33.3171ZM325.69 30.4046C325.795 30.3904 325.901 30.382 326.008 30.3765L325.819 30.5687C325.175 31.2236 324.655 31.9899 324.284 32.8304L322.808 32.3501C323.106 31.826 323.522 31.3778 324.021 31.0403C324.521 30.7029 325.092 30.4854 325.69 30.4046ZM322.322 33.8352L323.801 34.3162C323.606 35.2137 323.576 36.1391 323.711 37.0475L323.752 37.3179C323.24 36.9043 322.841 36.3683 322.591 35.7596C322.341 35.1509 322.249 34.489 322.322 33.8352ZM326.401 38.1771L326.591 37.9844C327.235 37.3295 327.754 36.5632 328.125 35.7228L329.603 36.2036C329.277 36.7747 328.813 37.2547 328.254 37.5996C327.694 37.9444 327.057 38.143 326.401 38.1771Z" fill="#8CBFF0"/>
<path d="M319.567 41.9734L320.05 40.488L327.478 42.9013L326.995 44.3867L319.567 41.9734Z" fill="#8CBFF0"/>
<path d="M323.648 14.1867C323.134 13.7953 322.485 13.624 321.844 13.7102C321.204 13.7965 320.623 14.1333 320.231 14.6469C320.09 14.8314 319.881 14.9524 319.651 14.9834C319.421 15.0144 319.188 14.9528 319.003 14.8122L318.783 14.6447C317.628 13.7655 316.17 13.3805 314.731 13.5743C313.292 13.768 311.989 14.5246 311.107 15.6781C310.928 15.9144 310.704 16.1128 310.447 16.2618C310.191 16.4108 309.907 16.5075 309.613 16.5463L309.822 18.0948C310.319 18.0292 310.799 17.8656 311.233 17.6134C311.667 17.3613 312.046 17.0256 312.349 16.6258C312.98 15.8013 313.911 15.2605 314.94 15.122C315.968 14.9835 317.01 15.2587 317.836 15.8871L318.055 16.0546C318.57 16.4461 319.219 16.6174 319.859 16.5312C320.5 16.4449 321.08 16.1081 321.473 15.5945C321.614 15.4099 321.823 15.2889 322.053 15.2579C322.283 15.2269 322.516 15.2885 322.701 15.4292L324.32 16.6642C327.471 19.0812 331.419 20.2192 335.373 19.8505C335.879 21.0964 336.27 22.3865 336.539 23.7043L338.07 23.391C337.452 20.3501 336.231 17.4639 334.479 14.903L333.188 15.7844C333.745 16.5993 334.245 17.4511 334.686 18.3338C331.3 18.5191 327.959 17.4861 325.268 15.4217L323.648 14.1867Z" fill="#8CBFF0"/>
<path d="M315.958 8.17511L329.916 14.32C330.397 14.5331 330.936 14.5777 331.446 14.4463C331.955 14.315 332.406 14.0155 332.724 13.5963L335.328 10.182C335.454 10.0172 335.509 9.80927 335.481 9.60391C335.453 9.39855 335.345 9.21259 335.181 9.08692L333.424 7.74687C333.28 7.63739 333.103 7.58102 332.922 7.58738C332.742 7.59373 332.569 7.6624 332.434 7.78172L330.71 9.29876L326.858 7.41797L328.361 4.72911C328.452 4.56495 328.482 4.3732 328.444 4.18907C328.405 4.00494 328.302 3.84078 328.153 3.72673L327.274 3.05671C327.144 2.95728 326.985 2.9014 326.821 2.89697C326.657 2.89255 326.496 2.93981 326.361 3.03205L322.382 5.73903L320.833 5.07193C320.033 4.72641 319.141 4.65871 318.298 4.87963C317.455 5.10055 316.71 5.59736 316.182 6.29084L315.652 6.98628C315.58 7.08026 315.531 7.18928 315.508 7.30512C315.484 7.42096 315.487 7.54062 315.517 7.65507C315.546 7.76952 315.601 7.87578 315.678 7.96586C315.754 8.05594 315.85 8.12749 315.958 8.17511ZM320.215 6.50712L322.158 7.34377C322.279 7.39573 322.411 7.4164 322.542 7.40386C322.673 7.39133 322.798 7.346 322.907 7.27207L326.526 4.80969L325.091 7.37659C325.039 7.46933 325.007 7.57167 324.996 7.67735C324.985 7.78302 324.996 7.88982 325.027 7.99121C325.059 8.0926 325.111 8.18645 325.18 8.26701C325.25 8.34758 325.335 8.41317 325.43 8.45977L330.493 10.9314C330.631 10.999 330.787 11.0241 330.94 11.0036C331.093 10.983 331.236 10.9176 331.352 10.8157L332.985 9.37766L333.612 9.85558L331.481 12.6487C331.375 12.7885 331.225 12.8883 331.055 12.9321C330.886 12.9758 330.706 12.961 330.546 12.8899L317.499 7.14612C317.823 6.76202 318.262 6.49248 318.751 6.37739C319.241 6.26231 319.754 6.3078 320.215 6.50712Z" fill="#8CBFF0"/>
</g>
<defs>
<clipPath id="clip0_112_40">
<rect width="50" height="50" fill="white" transform="translate(13.0781) rotate(9.29678)"/>
</clipPath>
<clipPath id="clip1_112_40">
<rect width="50" height="50" fill="white" transform="translate(287 6.67139) rotate(-7.66772)"/>
</clipPath>
</defs>
</svg>
