<svg width="730" height="210" viewBox="0 0 730 210" fill="none" xmlns="http://www.w3.org/2000/svg">
<path opacity="0.6" d="M50 107C150.906 133.779 350.132 197.085 498.856 144.009C647.58 90.9327 678.63 159.053 729 209" stroke="#8CBFF0" stroke-dasharray="10 10"/>
<g opacity="0.6" clip-path="url(#clip0_112_34)">
<path d="M698.084 7.32051C698.833 7.21963 699.587 7.15708 700.343 7.1331L700.294 5.57137C698.129 5.63976 695.984 6.00435 693.918 6.65497L694.388 8.14493C695.594 7.76486 696.831 7.48904 698.084 7.32051Z" fill="#8CBFF0"/>
<path d="M685.93 13.1446L684.852 12.0132C682.164 14.5659 680.121 17.7206 678.89 21.2175C677.66 24.7144 677.277 28.4536 677.775 32.1272C678.246 35.7022 679.544 39.1182 681.565 42.1042L682.86 41.2299C680.974 38.4431 679.763 35.255 679.323 31.9187C678.859 28.4898 679.216 24.9996 680.364 21.7356C681.513 18.4716 683.42 15.5271 685.93 13.1446Z" fill="#8CBFF0"/>
<path d="M704.668 50.5659L704.929 52.1064C707.097 51.7406 709.203 51.0708 711.185 50.1168L710.507 48.7093C708.657 49.5995 706.692 50.2245 704.668 50.5659Z" fill="#8CBFF0"/>
<path d="M686.962 30.1021L688.51 29.8936L690.908 47.7017L689.359 47.9101L686.962 30.1021Z" fill="#8CBFF0"/>
<path d="M691.607 29.4766L693.156 29.2681L695.553 47.0762L694.005 47.2846L691.607 29.4766Z" fill="#8CBFF0"/>
<path d="M696.253 28.8511L697.801 28.6426L700.199 46.4507L698.65 46.6592L696.253 28.8511Z" fill="#8CBFF0"/>
<path d="M723.893 26.6789L709.034 21.8451C708.443 21.6535 707.8 21.7043 707.246 21.9862C706.692 22.2681 706.273 22.7582 706.08 23.3489L703.066 32.6145L702.03 24.92C701.891 23.8938 701.35 22.9648 700.527 22.3367C699.703 21.7087 698.664 21.4329 697.638 21.5699L694.541 21.9869L692.873 9.59865C692.762 8.77726 692.33 8.03344 691.671 7.53083C691.012 7.02821 690.18 6.80797 689.359 6.91855C688.537 7.02914 687.793 7.46149 687.291 8.1205C686.788 8.77951 686.568 9.61118 686.679 10.4326L688.346 22.8208L685.249 23.2378C684.223 23.3771 683.294 23.9178 682.666 24.7413C682.038 25.5648 681.762 26.6038 681.899 27.6303L684.609 47.7612C684.717 48.5562 685.067 49.2988 685.611 49.8883C686.156 50.4779 686.868 50.8859 687.652 51.0571C687.532 51.424 687.505 51.8146 687.573 52.1944C687.641 52.5742 687.801 52.9313 688.04 53.2342C688.279 53.5371 688.589 53.7763 688.943 53.9306C689.297 54.0849 689.683 54.1495 690.067 54.1188C690.452 54.0881 690.823 53.9629 691.147 53.7543C691.472 53.5458 691.74 53.2604 691.928 52.9234C692.116 52.5865 692.217 52.2083 692.224 51.8226C692.231 51.4369 692.142 51.0555 691.966 50.7123L698.426 49.8425C698.347 50.22 698.363 50.6112 698.471 50.9813C698.58 51.3514 698.778 51.689 699.048 51.9643C699.318 52.2395 699.652 52.4437 700.02 52.5589C700.388 52.6741 700.779 52.6967 701.158 52.6247C701.537 52.5526 701.892 52.3882 702.192 52.146C702.493 51.9037 702.728 51.5911 702.879 51.236C703.029 50.8808 703.089 50.494 703.054 50.1099C703.019 49.7258 702.89 49.3563 702.678 49.0341C703.257 48.73 703.75 48.286 704.114 47.7426C704.477 47.1991 704.699 46.5734 704.759 45.9224L716.4 49.7095C716.498 49.7414 716.601 49.7537 716.703 49.7457C716.806 49.7377 716.905 49.7096 716.997 49.6631C717.088 49.6165 717.17 49.5524 717.236 49.4744C717.303 49.3963 717.353 49.3059 717.385 49.2083L724.394 27.6635C724.458 27.4665 724.441 27.252 724.347 27.0674C724.253 26.8828 724.09 26.743 723.893 26.6789ZM708.206 23.2996C708.322 23.284 708.44 23.2947 708.551 23.3309L722.666 27.923L722.183 29.4089L708.067 24.8169C707.871 24.7526 707.707 24.613 707.613 24.4286C707.519 24.2442 707.502 24.03 707.566 23.8331L707.566 23.8322C707.612 23.6922 707.696 23.5679 707.809 23.4737C707.923 23.3795 708.06 23.3191 708.206 23.2996ZM688.227 10.2241C688.172 9.8134 688.282 9.39756 688.533 9.06806C688.785 8.73855 689.156 8.52238 689.567 8.46708C689.978 8.41179 690.394 8.52191 690.723 8.77322C691.053 9.02453 691.269 9.39644 691.324 9.80713L692.992 22.1954L689.895 22.6123L688.227 10.2241ZM690.655 51.6771C690.675 51.8302 690.65 51.986 690.582 52.1248C690.514 52.2636 690.407 52.3791 690.273 52.4567C690.14 52.5344 689.986 52.5707 689.832 52.561C689.677 52.5514 689.53 52.4962 689.407 52.4025C689.284 52.3088 689.192 52.1808 689.141 52.0346C689.091 51.8884 689.086 51.7307 689.125 51.5813C689.165 51.432 689.248 51.2977 689.364 51.1954C689.48 51.0932 689.623 51.0277 689.776 51.007C689.982 50.9796 690.189 51.0348 690.354 51.1604C690.519 51.286 690.627 51.4718 690.655 51.6771ZM700.824 51.0962C700.671 51.1168 700.516 51.0916 700.377 51.0236C700.238 50.9557 700.122 50.8481 700.045 50.7145C699.967 50.581 699.931 50.4273 699.94 50.2731C699.95 50.1189 700.005 49.971 700.099 49.8482C700.193 49.7253 700.321 49.633 700.467 49.5829C700.613 49.5328 700.771 49.5272 700.92 49.5667C701.07 49.6063 701.204 49.6892 701.306 49.8051C701.408 49.921 701.474 50.0646 701.494 50.2177C701.522 50.423 701.467 50.6308 701.341 50.7955C701.216 50.9602 701.03 51.0683 700.824 51.0962ZM701.182 47.8949L688.794 49.5628C688.178 49.645 687.554 49.4795 687.06 49.1027C686.566 48.7258 686.242 48.1684 686.158 47.5527L683.448 27.4218C683.366 26.8059 683.531 26.1825 683.908 25.6884C684.285 25.1943 684.842 24.8699 685.458 24.7863L688.555 24.3693L689.076 28.2407L690.625 28.0322L690.103 24.1609L693.2 23.7439L693.722 27.6152L695.27 27.4067L694.749 23.5354L697.846 23.1184C698.462 23.0362 699.085 23.2017 699.579 23.5785C700.074 23.9554 700.398 24.5128 700.482 25.1285L701.951 36.0423L700.038 41.922C699.943 42.2147 699.906 42.5233 699.93 42.8302C699.954 43.137 700.039 43.4361 700.178 43.7104C700.318 43.9847 700.51 44.2288 700.744 44.4288C700.978 44.6287 701.249 44.7807 701.542 44.8759L703.207 45.4176C703.246 46.0101 703.058 46.5953 702.682 47.055C702.306 47.5148 701.77 47.8149 701.182 47.8949ZM716.141 47.9821L702.025 43.3901C701.828 43.326 701.665 43.1862 701.571 43.0015C701.477 42.8169 701.46 42.6025 701.524 42.4054L706.883 25.9332C707.094 26.0955 707.331 26.2205 707.584 26.3027L721.7 30.8947L716.141 47.9821Z" fill="#8CBFF0"/>
<path d="M713.787 29.9637C712.758 29.6292 711.654 29.6072 710.613 29.9004C709.572 30.1937 708.641 30.789 707.938 31.6112C707.236 32.4334 706.792 33.4455 706.665 34.5195C706.537 35.5935 706.731 36.6812 707.222 37.645C707.713 38.6089 708.478 39.4056 709.422 39.9344C710.365 40.4632 711.444 40.7004 712.522 40.6159C713.601 40.5315 714.63 40.1292 715.479 39.4599C716.329 38.7907 716.961 37.8845 717.296 36.8561C717.743 35.4768 717.624 33.9765 716.966 32.6844C716.309 31.3923 715.165 30.4138 713.787 29.9637ZM715.977 35.6055L714.499 35.1247C714.693 34.2271 714.724 33.3017 714.589 32.3932L714.548 32.1255C715.059 32.5393 715.458 33.0748 715.707 33.683C715.957 34.2911 716.049 34.9522 715.977 35.6055ZM711.368 37.7751L711.185 37.9605L711.147 37.7031C711.047 37.0347 711.061 36.3544 711.187 35.6905L712.519 36.1238C712.231 36.7349 711.842 37.2931 711.368 37.7751ZM711.671 34.2048C711.959 33.5936 712.348 33.0354 712.822 32.5533L713.005 32.3679L713.043 32.6253C713.143 33.2938 713.129 33.9742 713.003 34.638L711.671 34.2048ZM711.58 31.2923C711.685 31.2781 711.792 31.2697 711.899 31.2642L711.709 31.4564C711.065 32.1113 710.545 32.8776 710.175 33.7181L708.698 33.2378C708.997 32.7137 709.412 32.2655 709.912 31.928C710.411 31.5906 710.982 31.3731 711.58 31.2923ZM708.213 34.7229L709.691 35.2039C709.497 36.1014 709.466 37.0268 709.602 37.9352L709.642 38.2055C709.13 37.792 708.731 37.256 708.481 36.6473C708.232 36.0386 708.139 35.3767 708.213 34.7229ZM712.291 39.0648L712.481 38.872C713.125 38.2172 713.645 37.4509 714.015 36.6104L715.493 37.0913C715.168 37.6624 714.704 38.1424 714.144 38.4873C713.585 38.8321 712.947 39.0307 712.291 39.0648Z" fill="#8CBFF0"/>
<path d="M705.458 42.8611L705.941 41.3757L713.368 43.789L712.885 45.2744L705.458 42.8611Z" fill="#8CBFF0"/>
<path d="M709.539 15.0744C709.024 14.683 708.376 14.5117 707.735 14.5979C707.094 14.6842 706.514 15.021 706.121 15.5346C705.98 15.7191 705.772 15.8401 705.542 15.8711C705.311 15.9021 705.078 15.8405 704.893 15.6999L704.674 15.5324C703.518 14.6532 702.061 14.2682 700.622 14.462C699.183 14.6557 697.88 15.4123 696.998 16.5658C696.818 16.8021 696.594 17.0005 696.338 17.1495C696.081 17.2985 695.798 17.3952 695.504 17.434L695.713 18.9825C696.21 18.9169 696.69 18.7533 697.123 18.5011C697.557 18.249 697.937 17.9133 698.24 17.5135C698.87 16.689 699.802 16.1482 700.83 16.0097C701.859 15.8712 702.9 16.1464 703.726 16.7748L703.946 16.9423C704.46 17.3338 705.109 17.5051 705.75 17.4189C706.391 17.3326 706.971 16.9958 707.364 16.4822C707.505 16.2976 707.713 16.1766 707.943 16.1456C708.174 16.1146 708.407 16.1762 708.591 16.3169L710.211 17.5518C713.362 19.9689 717.309 21.1069 721.263 20.7382C721.77 21.9841 722.161 23.2742 722.43 24.592L723.961 24.2787C723.343 21.2378 722.122 18.3516 720.369 15.7907L719.079 16.6721C719.636 17.487 720.136 18.3388 720.577 19.2215C717.19 19.4068 713.849 18.3738 711.158 16.3094L709.539 15.0744Z" fill="#8CBFF0"/>
<path d="M701.849 9.06281L715.806 15.2077C716.288 15.4208 716.827 15.4654 717.336 15.334C717.846 15.2027 718.296 14.9031 718.615 14.484L721.219 11.0697C721.344 10.9049 721.399 10.697 721.372 10.4916C721.344 10.2862 721.236 10.1003 721.071 9.97462L719.314 8.63457C719.171 8.52508 718.993 8.46872 718.813 8.47507C718.632 8.48142 718.46 8.5501 718.324 8.66941L716.601 10.1865L712.748 8.30567L714.251 5.61681C714.343 5.45265 714.373 5.2609 714.334 5.07677C714.296 4.89263 714.193 4.72847 714.043 4.61443L713.165 3.9444C713.034 3.84498 712.876 3.78909 712.712 3.78467C712.548 3.78024 712.387 3.8275 712.251 3.91975L708.273 6.62673L706.724 5.95962C705.924 5.61411 705.031 5.54641 704.188 5.76733C703.345 5.98825 702.601 6.48506 702.073 7.17853L701.543 7.87398C701.471 7.96796 701.422 8.07697 701.398 8.19281C701.375 8.30866 701.378 8.42831 701.407 8.54276C701.437 8.65721 701.492 8.76348 701.568 8.85356C701.645 8.94364 701.741 9.01518 701.849 9.06281ZM706.106 7.39482L708.049 8.23147C708.17 8.28342 708.302 8.30409 708.432 8.29156C708.563 8.27902 708.689 8.23369 708.797 8.15976L712.416 5.69739L710.982 8.26429C710.93 8.35703 710.897 8.45936 710.886 8.56504C710.875 8.67072 710.886 8.77752 710.918 8.87891C710.95 8.9803 711.002 9.07414 711.071 9.15471C711.14 9.23527 711.225 9.30086 711.321 9.34746L716.383 11.8191C716.522 11.8867 716.677 11.9118 716.83 11.8913C716.983 11.8707 717.127 11.8053 717.242 11.7034L718.876 10.2654L719.502 10.7433L717.372 13.5364C717.266 13.6762 717.116 13.776 716.946 13.8198C716.776 13.8635 716.597 13.8487 716.436 13.7776L703.39 8.03381C703.714 7.64971 704.153 7.38017 704.642 7.26509C705.131 7.15 705.645 7.19549 706.106 7.39482Z" fill="#8CBFF0"/>
</g>
<g opacity="0.6" clip-path="url(#clip1_112_34)">
<g opacity="0.8">
<path d="M38.0548 90.3726C36.7091 90.1523 35.4041 91.0902 35.1838 92.4359C34.9635 93.7816 35.9013 95.0867 37.2471 95.3069C38.5928 95.5272 39.8978 94.5894 40.1181 93.2437C40.3384 91.8979 39.4005 90.5929 38.0548 90.3726ZM37.4796 93.8865C36.9563 93.8008 36.5811 93.2788 36.6668 92.7554C36.7525 92.2321 37.2745 91.857 37.7978 91.9426C38.3211 92.0283 38.6963 92.5503 38.6106 93.0736C38.5249 93.597 38.0029 93.9721 37.4796 93.8865Z" fill="#8CBFF0"/>
<path d="M16.0746 86.7745C14.7289 86.5542 13.4238 87.492 13.2036 88.8378C12.9833 90.1835 13.9211 91.4885 15.2668 91.7088C16.6126 91.9291 17.9176 90.9912 18.1379 89.6455C18.3582 88.2998 17.4203 86.9948 16.0746 86.7745ZM15.4994 90.2883C14.976 90.2026 14.6009 89.6806 14.6866 89.1573C14.7722 88.634 15.2942 88.2588 15.8176 88.3445C16.3409 88.4302 16.7161 88.9522 16.6304 89.4755C16.5447 89.9988 16.0227 90.374 15.4994 90.2883Z" fill="#8CBFF0"/>
<path d="M26.5417 84.2658L25.6446 84.119C25.196 84.0455 24.848 84.2956 24.7746 84.7442C24.7012 85.1928 24.9513 85.5408 25.3998 85.6142L26.2222 85.7488C26.6708 85.8223 27.0188 85.5722 27.0922 85.1236C27.1657 84.675 26.9156 84.327 26.5417 84.2658Z" fill="#8CBFF0"/>
<path d="M50.3734 86.4014L49.7005 86.2912C49.6585 84.6723 48.446 83.1688 46.7265 82.8873L40.1474 81.8103C39.026 81.6267 38.1017 80.7078 37.9862 79.5374L37.5107 74.4698C37.4075 73.2246 36.4329 72.1439 35.162 71.9358L32.3088 71.5455L32.5902 69.826L32.8145 69.8627C34.8331 70.1931 36.6724 68.8054 36.9906 66.8615C37.064 66.413 36.8139 66.065 36.3653 65.9915C35.9168 65.9181 35.5688 66.1682 35.4953 66.6168C35.2995 67.813 34.1807 68.551 33.0593 68.3674L12.2753 64.9651C11.0791 64.7693 10.3411 63.6505 10.5247 62.5291C10.5981 62.0805 10.348 61.7325 9.89941 61.6591C9.45084 61.5857 9.10283 61.8358 9.0294 62.2843C8.69896 64.3029 10.0867 66.1422 12.0306 66.4604L12.2548 66.4971L11.9244 68.5157L10.2049 68.2342C8.63485 67.9772 7.1436 69.1149 6.88659 70.6849L5.69945 77.9368C4.7153 77.8525 3.75829 78.5403 3.58695 79.5869L3.26875 81.5308C3.09741 82.5774 3.78517 83.5345 4.74485 83.7683L4.43888 85.6374C4.20635 87.0579 5.20674 88.4499 6.62722 88.6824L10.3653 89.2943C10.323 91.8975 12.1852 94.1214 14.8019 94.5498C17.4186 94.9781 19.9049 93.3892 20.6826 90.9833L32.4203 92.9047C32.378 95.5078 34.2401 97.7318 36.8568 98.1601C39.4735 98.5885 41.9598 96.9996 42.7375 94.5936L45.5785 95.0587C47.0737 95.3034 48.5527 94.2405 48.7975 92.7453L48.8832 92.222L49.4813 92.3199C49.9299 92.3933 50.2779 92.1432 50.3513 91.6946L51.0611 87.3584C51.072 86.8228 50.8219 86.4748 50.3734 86.4014ZM48.9159 90.6152C48.8411 90.603 47.2711 90.346 47.3459 90.3582C46.673 90.2481 46.2354 89.6391 46.3455 88.9662L46.4312 88.4429C46.5413 87.77 47.1503 87.3323 47.8232 87.4425L49.3932 87.6995L48.9159 90.6152ZM34.905 73.5058C35.5031 73.6037 35.8904 74.051 35.9421 74.6736L36.4175 79.7412C36.4814 80.289 36.6445 80.6995 36.7953 81.1848C32.5501 81.7949 31.9656 82.083 30.7694 81.8872L29.5598 77.0833C29.4715 76.685 29.0474 76.462 28.6491 76.5504C28.2508 76.6387 28.0279 77.0628 28.1162 77.4611L29.1246 81.618L22.396 80.5165L23.8156 71.8441L34.905 73.5058ZM16.1404 79.3389C14.7199 79.1064 13.7195 77.7144 13.9521 76.2939L14.9067 70.4624L22.3204 71.5993L20.9252 80.1222L16.1404 79.3389ZM13.7501 66.7419L31.095 69.5812L30.8135 71.3007L13.5067 68.6979L13.8249 66.7541L13.7501 66.7419ZM4.77624 81.7008L5.0822 79.8317C5.11892 79.6074 5.37992 79.4199 5.60421 79.4566L6.20231 79.5545L7.02469 79.6891C7.24898 79.7258 7.43655 79.9868 7.39984 80.2111L7.08164 82.1549C7.04492 82.3792 6.78392 82.5668 6.55963 82.5301L5.73724 82.3954L5.13914 82.2975C4.92709 82.1861 4.72728 81.9998 4.77624 81.7008ZM15.0589 92.9798C13.0403 92.6493 11.6648 90.7353 11.9952 88.7167C12.3257 86.6981 14.2397 85.3226 16.2583 85.653C18.2769 85.9835 19.6524 87.8975 19.3219 89.9161C18.9915 91.9347 17.0775 93.3102 15.0589 92.9798ZM37.0391 96.5779C35.0205 96.2475 33.6449 94.3334 33.9754 92.3148C34.3058 90.2963 36.2199 88.9207 38.2384 89.2512C40.257 89.5816 41.6326 91.4956 41.3021 93.5142C41.0464 95.545 39.0577 96.9083 37.0391 96.5779ZM47.252 92.3388C47.1418 93.0116 46.4458 93.5118 45.773 93.4017L42.932 92.9366C42.9743 90.3335 41.1121 88.1095 38.4954 87.6812C35.8788 87.2528 33.3924 88.8417 32.6148 91.2477L20.9518 89.3385C20.9941 86.7354 19.132 84.5114 16.5153 84.083C13.8986 83.6547 11.4123 85.2436 10.6346 87.6496L6.89647 87.0376C6.29837 86.9397 5.8607 86.3307 5.95861 85.7326L6.26457 83.8636L6.33934 83.8758C7.38601 84.0471 8.43002 83.2968 8.60136 82.2502L8.89509 80.4559C9.06643 79.4092 8.31614 78.3652 7.26946 78.1938L7.1947 78.1816L8.38184 70.9296C8.50422 70.182 9.20023 69.6818 9.96009 69.7295L13.4114 70.2177L12.4568 76.0491C12.0896 78.292 13.6527 80.467 15.8956 80.8342C16.8675 80.9933 31.5957 83.4043 30.6238 83.2452C32.1938 83.5022 32.9524 83.089 37.9819 82.377C38.5189 82.8487 39.1672 83.1084 39.9149 83.2308L46.494 84.3078C47.3911 84.4546 47.9783 85.0881 48.1427 85.9595L48.068 85.9472C46.5727 85.7025 45.1807 86.7028 44.9359 88.1981L44.8503 88.7214C44.6055 90.2167 45.6059 91.6087 47.1011 91.8535L47.3254 91.8902L47.252 92.3388Z" fill="#8CBFF0"/>
<path d="M38.3597 83.8206C37.9111 83.7472 37.5631 83.9973 37.4897 84.4459L37.3551 85.2683C37.2816 85.7168 37.5317 86.0648 37.9803 86.1383C38.4289 86.2117 38.7769 85.9616 38.8503 85.513L38.9849 84.6906C39.0461 84.3168 38.8083 83.8941 38.3597 83.8206Z" fill="#8CBFF0"/>
<path d="M40.827 84.2244C40.3784 84.151 40.0304 84.4011 39.957 84.8497L39.8223 85.6721C39.7489 86.1206 39.999 86.4686 40.4476 86.5421C40.8962 86.6155 41.2442 86.3654 41.3176 85.9168L41.4522 85.0944C41.5134 84.7206 41.2755 84.2979 40.827 84.2244Z" fill="#8CBFF0"/>
<path d="M17.1527 63.3072L29.7876 65.3755C31.2828 65.6203 32.7618 64.5574 33.0066 63.0621L34.0224 56.8568C34.2672 55.3616 33.2043 53.8826 31.709 53.6378L29.0176 53.1972L29.2256 51.9262C29.4581 50.5058 28.4578 49.1137 27.0373 48.8812L25.0187 48.5508C23.5982 48.3182 22.2062 49.3186 21.9736 50.7391L21.7656 52.0101L19.0741 51.5695C17.5789 51.3247 16.0999 52.3876 15.8551 53.8829L14.8393 60.0882C14.5945 61.5834 15.6574 63.0624 17.1527 63.3072ZM23.5437 50.9961C23.6416 50.398 24.2506 49.9603 24.8487 50.0583L26.8673 50.3887C27.4654 50.4866 27.903 51.0956 27.8051 51.6937L27.6093 52.8899L23.3478 52.1923L23.5437 50.9961ZM28.7103 54.6054L27.2784 63.3527L20.3254 62.2145L21.7574 53.4673L28.7103 54.6054ZM32.6141 56.5495L31.5983 62.7548C31.4882 63.4277 30.7922 63.9279 30.1193 63.8177L28.7736 63.5974L30.2055 54.8502L31.5512 55.0705C32.2241 55.1807 32.7243 55.8767 32.6141 56.5495ZM17.3626 54.0529C17.4727 53.38 18.1688 52.8798 18.8416 52.99L20.1873 53.2103L18.7554 61.9575L17.4097 61.7372C16.7368 61.627 16.2367 60.931 16.3468 60.2582L17.3626 54.0529Z" fill="#8CBFF0"/>
</g>
</g>
<defs>
<clipPath id="clip0_112_34">
<rect width="50" height="50" fill="white" transform="translate(672.891 7.55908) rotate(-7.66772)"/>
</clipPath>
<clipPath id="clip1_112_34">
<rect width="50" height="50" fill="white" transform="translate(8.36719 44.2896) rotate(9.29678)"/>
</clipPath>
</defs>
</svg>
