<svg width="351" height="102" viewBox="0 0 351 102" fill="none" xmlns="http://www.w3.org/2000/svg">
<g opacity="0.6" clip-path="url(#clip0_112_42)">
<path d="M303.278 22.7009L308.783 24.4435" stroke="#F08B8B" stroke-width="1.5039" stroke-miterlimit="10" stroke-linecap="round" stroke-linejoin="round"/>
<path d="M302.921 19.0922L312.828 22.2285" stroke="#F08B8B" stroke-width="1.5039" stroke-miterlimit="10" stroke-linecap="round" stroke-linejoin="round"/>
<path d="M313.178 25.8369L323.7 29.1671" stroke="#F08B8B" stroke-width="1.5039" stroke-miterlimit="10" stroke-linecap="round" stroke-linejoin="round"/>
<path d="M317.228 23.6214L323.349 25.5588" stroke="#F08B8B" stroke-width="1.5039" stroke-miterlimit="10" stroke-linecap="round" stroke-linejoin="round"/>
<path d="M303.713 27.2169L322.509 16.9312" stroke="#F08B8B" stroke-width="1.5039" stroke-miterlimit="10" stroke-linecap="round" stroke-linejoin="round"/>
<path d="M304.064 30.8251L322.86 20.5383" stroke="#F08B8B" stroke-width="1.5039" stroke-miterlimit="10" stroke-linecap="round" stroke-linejoin="round"/>
<mask id="mask0_112_42" style="mask-type:luminance" maskUnits="userSpaceOnUse" x="281" y="-1" width="57" height="58">
<path d="M332.102 -0.000617437L281.011 4.97417L285.986 56.0657L337.077 51.0909L332.102 -0.000617437Z" fill="white"/>
</mask>
<g mask="url(#mask0_112_42)">
<path d="M328.172 19.9427L333.451 21.6136" stroke="#F08B8B" stroke-width="1.5039" stroke-miterlimit="10" stroke-linecap="round" stroke-linejoin="round"/>
<path d="M327.82 16.3334L333.099 18.0043" stroke="#F08B8B" stroke-width="1.5039" stroke-miterlimit="10" stroke-linecap="round" stroke-linejoin="round"/>
<path d="M328.676 25.1208L333.533 22.4629" stroke="#F08B8B" stroke-width="1.5039" stroke-miterlimit="10" stroke-linecap="round" stroke-linejoin="round"/>
<path d="M329.027 28.7292L333.885 26.0713" stroke="#F08B8B" stroke-width="1.5039" stroke-miterlimit="10" stroke-linecap="round" stroke-linejoin="round"/>
<path d="M335.631 44.0033C331.498 44.4057 331.79 47.3994 327.657 47.8018C323.524 48.2042 323.232 45.2105 319.1 45.6129C314.967 46.0154 315.258 49.009 311.126 49.4114C306.993 49.8138 306.701 46.8202 302.568 47.2226C298.435 47.625 298.727 50.6187 294.594 51.0211C290.461 51.4236 290.169 48.4299 286.036 48.8323" stroke="#F08B8B" stroke-width="1.5039" stroke-miterlimit="10" stroke-linecap="round" stroke-linejoin="round"/>
<path d="M324.447 36.7735C322.172 36.2072 321.31 34.3934 318.035 34.7123C313.901 35.1147 314.193 38.1084 310.061 38.5107C307.312 38.7783 306.263 37.5448 304.652 36.8061" stroke="#F08B8B" stroke-width="1.5039" stroke-miterlimit="10" stroke-linecap="round" stroke-linejoin="round"/>
<path d="M299.305 36.9188C297.282 37.9277 296.744 39.8074 293.529 40.1204C289.396 40.5228 289.105 37.5292 284.971 37.9316" stroke="#F08B8B" stroke-width="1.5039" stroke-miterlimit="10" stroke-linecap="round" stroke-linejoin="round"/>
<path d="M334.569 33.1024C331.896 33.3627 331.074 34.707 329.709 35.7324" stroke="#F08B8B" stroke-width="1.5039" stroke-miterlimit="10" stroke-linecap="round" stroke-linejoin="round"/>
<path d="M305.11 41.4478L302.288 12.4693L296.979 12.9862L299.762 41.5605" stroke="#F08B8B" stroke-width="1.5039" stroke-miterlimit="10" stroke-linecap="round" stroke-linejoin="round"/>
<path d="M330.163 40.3743L327.209 10.0427L321.9 10.5597L324.904 41.4152" stroke="#F08B8B" stroke-width="1.5039" stroke-miterlimit="10" stroke-linecap="round" stroke-linejoin="round"/>
<path d="M293.675 44.7854C289.835 45.0132 289.455 42.1813 285.428 42.5734" stroke="#F08B8B" stroke-width="1.5039" stroke-miterlimit="10" stroke-linecap="round" stroke-linejoin="round"/>
<path d="M335.021 37.7444C332.348 38.0047 331.526 39.349 330.161 40.3744C329.623 40.7783 329 41.1341 328.146 41.3543C327.817 41.4387 327.454 41.5033 327.048 41.5428C326.19 41.6263 325.497 41.5638 324.903 41.4152C322.628 40.849 321.766 39.0351 318.491 39.354C314.357 39.7565 314.649 42.7501 310.517 43.1525C307.768 43.42 306.719 42.1865 305.108 41.4478C304.506 41.171 303.825 40.9643 302.948 40.9319C302.643 40.9192 302.315 40.929 301.959 40.9637C301.04 41.0532 300.339 41.2706 299.76 41.5606C298.428 42.2252 297.739 43.2663 296.507 43.9897" stroke="#F08B8B" stroke-width="1.5039" stroke-miterlimit="10" stroke-linecap="round" stroke-linejoin="round"/>
<path d="M331.759 4.23971L291.016 8.20681L291.533 13.5165L316.058 11.1285" stroke="#F08B8B" stroke-width="1.5039" stroke-miterlimit="10" stroke-linecap="round" stroke-linejoin="round"/>
<path d="M319.044 10.8378L332.276 9.54944" stroke="#F08B8B" stroke-width="1.5039" stroke-miterlimit="10" stroke-linecap="round" stroke-linejoin="round"/>
</g>
</g>
<path opacity="0.6" d="M350 53.3337C307.478 88.6022 138.389 83.3495 46.3407 50.3323C-54.2575 14.2482 42.089 82.8491 30.0827 100.859" stroke="#F08B8B" stroke-dasharray="10 10"/>
<defs>
<clipPath id="clip0_112_42">
<rect width="51.3332" height="51.3332" fill="white" transform="matrix(-0.995293 0.0969117 0.0969117 0.995293 332.094 0)"/>
</clipPath>
</defs>
</svg>
