<svg width="730" height="153" viewBox="0 0 730 153" fill="none" xmlns="http://www.w3.org/2000/svg">
<path opacity="0.6" d="M700.501 56.9997C615.501 127.5 277.5 117 93.5002 51C-107.591 -21.1306 85.0011 116 61.0011 152" stroke="#F08B8B" stroke-dasharray="10 10"/>
<g opacity="0.6" clip-path="url(#clip0_112_41)">
<path d="M695.911 23.3341L701.416 25.0767" stroke="#F08B8B" stroke-width="1.5039" stroke-miterlimit="10" stroke-linecap="round" stroke-linejoin="round"/>
<path d="M695.554 19.7255L705.46 22.8618" stroke="#F08B8B" stroke-width="1.5039" stroke-miterlimit="10" stroke-linecap="round" stroke-linejoin="round"/>
<path d="M705.811 26.47L716.333 29.8003" stroke="#F08B8B" stroke-width="1.5039" stroke-miterlimit="10" stroke-linecap="round" stroke-linejoin="round"/>
<path d="M709.86 24.2547L715.981 26.1921" stroke="#F08B8B" stroke-width="1.5039" stroke-miterlimit="10" stroke-linecap="round" stroke-linejoin="round"/>
<path d="M696.345 27.8502L715.141 17.5645" stroke="#F08B8B" stroke-width="1.5039" stroke-miterlimit="10" stroke-linecap="round" stroke-linejoin="round"/>
<path d="M696.697 31.4584L715.492 21.1716" stroke="#F08B8B" stroke-width="1.5039" stroke-miterlimit="10" stroke-linecap="round" stroke-linejoin="round"/>
<mask id="mask0_112_41" style="mask-type:luminance" maskUnits="userSpaceOnUse" x="673" y="0" width="57" height="57">
<path d="M724.735 0.632561L673.644 5.60735L678.618 56.6989L729.71 51.7241L724.735 0.632561Z" fill="white"/>
</mask>
<g mask="url(#mask0_112_41)">
<path d="M720.805 20.5759L726.083 22.2468" stroke="#F08B8B" stroke-width="1.5039" stroke-miterlimit="10" stroke-linecap="round" stroke-linejoin="round"/>
<path d="M720.453 16.9665L725.732 18.6375" stroke="#F08B8B" stroke-width="1.5039" stroke-miterlimit="10" stroke-linecap="round" stroke-linejoin="round"/>
<path d="M721.309 25.754L726.166 23.0961" stroke="#F08B8B" stroke-width="1.5039" stroke-miterlimit="10" stroke-linecap="round" stroke-linejoin="round"/>
<path d="M721.66 29.3624L726.518 26.7045" stroke="#F08B8B" stroke-width="1.5039" stroke-miterlimit="10" stroke-linecap="round" stroke-linejoin="round"/>
<path d="M728.264 44.6365C724.131 45.0389 724.422 48.0325 720.29 48.4349C716.157 48.8374 715.865 45.8437 711.732 46.2461C707.6 46.6485 707.891 49.6422 703.759 50.0446C699.626 50.447 699.334 47.4534 695.201 47.8558C691.068 48.2582 691.36 51.2519 687.227 51.6543C683.093 52.0567 682.802 49.0631 678.669 49.4655" stroke="#F08B8B" stroke-width="1.5039" stroke-miterlimit="10" stroke-linecap="round" stroke-linejoin="round"/>
<path d="M717.079 37.4067C714.805 36.8404 713.942 35.0266 710.667 35.3455C706.534 35.7479 706.826 38.7416 702.693 39.1439C699.945 39.4115 698.895 38.178 697.285 37.4392" stroke="#F08B8B" stroke-width="1.5039" stroke-miterlimit="10" stroke-linecap="round" stroke-linejoin="round"/>
<path d="M691.938 37.5518C689.915 38.5607 689.376 40.4405 686.162 40.7534C682.029 41.1559 681.737 38.1622 677.604 38.5647" stroke="#F08B8B" stroke-width="1.5039" stroke-miterlimit="10" stroke-linecap="round" stroke-linejoin="round"/>
<path d="M727.202 33.7356C724.529 33.9959 723.707 35.3402 722.342 36.3656" stroke="#F08B8B" stroke-width="1.5039" stroke-miterlimit="10" stroke-linecap="round" stroke-linejoin="round"/>
<path d="M697.743 42.0811L694.921 13.1026L689.612 13.6195L692.395 42.1938" stroke="#F08B8B" stroke-width="1.5039" stroke-miterlimit="10" stroke-linecap="round" stroke-linejoin="round"/>
<path d="M722.796 41.0074L719.842 10.6757L714.533 11.1928L717.537 42.0483" stroke="#F08B8B" stroke-width="1.5039" stroke-miterlimit="10" stroke-linecap="round" stroke-linejoin="round"/>
<path d="M686.308 45.4185C682.468 45.6463 682.088 42.8143 678.061 43.2065" stroke="#F08B8B" stroke-width="1.5039" stroke-miterlimit="10" stroke-linecap="round" stroke-linejoin="round"/>
<path d="M727.654 38.3777C724.981 38.638 724.159 39.9823 722.794 41.0077C722.256 41.4116 721.633 41.7674 720.779 41.9876C720.45 42.072 720.086 42.1366 719.68 42.1761C718.823 42.2596 718.13 42.1971 717.535 42.0485C715.261 41.4823 714.398 39.6684 711.123 39.9873C706.99 40.3898 707.282 43.3834 703.149 43.7858C700.401 44.0533 699.351 42.8198 697.741 42.0811C697.139 41.8043 696.458 41.5976 695.581 41.5652C695.276 41.5525 694.948 41.5623 694.591 41.597C693.672 41.6865 692.971 41.9039 692.393 42.1939C691.061 42.8585 690.372 43.8996 689.14 44.623" stroke="#F08B8B" stroke-width="1.5039" stroke-miterlimit="10" stroke-linecap="round" stroke-linejoin="round"/>
<path d="M724.392 4.87289L683.649 8.83999L684.166 14.1497L708.691 11.7617" stroke="#F08B8B" stroke-width="1.5039" stroke-miterlimit="10" stroke-linecap="round" stroke-linejoin="round"/>
<path d="M711.677 11.471L724.909 10.1826" stroke="#F08B8B" stroke-width="1.5039" stroke-miterlimit="10" stroke-linecap="round" stroke-linejoin="round"/>
</g>
<path d="M680.497 55C570.496 89 306.194 143.7 128.997 90.5C-48.1999 37.3 -157.502 108 -190.003 150" stroke="#F08B8B" stroke-dasharray="10 10"/>
</g>
<defs>
<clipPath id="clip0_112_41">
<rect width="51.3332" height="51.3332" fill="white" transform="matrix(-0.995293 0.0969117 0.0969117 0.995293 724.727 0.633301)"/>
</clipPath>
</defs>
</svg>
