<svg width="351" height="124" viewBox="0 0 351 124" fill="none" xmlns="http://www.w3.org/2000/svg">
<g opacity="0.6" clip-path="url(#clip0_112_44)">
<path d="M62.671 47.7088C61.863 47.6251 61.0479 47.6392 60.2432 47.7507L64.7607 38.2911C64.8907 38.0154 64.9155 37.7017 64.8304 37.4091C64.7454 37.1164 64.5563 36.8649 64.2988 36.7018L61.3982 34.8771L62.2247 26.3169C62.2565 25.987 62.156 25.6578 61.9452 25.402C61.7344 25.1461 61.4306 24.9845 61.1006 24.9526L57.3679 24.5922L57.7283 20.8596C57.7602 20.5296 57.6596 20.2005 57.4488 19.9446C57.238 19.6887 56.9342 19.5271 56.6042 19.4952L54.1158 19.255L54.2359 18.0108C54.2678 17.6808 54.1672 17.3517 53.9564 17.0958C53.7456 16.8399 53.4418 16.6783 53.1118 16.6464C52.7818 16.6146 52.4527 16.7151 52.1968 16.9259C51.941 17.1367 51.7793 17.4406 51.7475 17.7705L51.6274 19.0148L49.1389 18.7745C48.8089 18.7426 48.4798 18.8432 48.224 19.054C47.9681 19.2648 47.8065 19.5686 47.7746 19.8986L47.4142 23.6312L43.6816 23.2709C43.3516 23.239 43.0225 23.3395 42.7666 23.5504C42.5107 23.7612 42.3491 24.065 42.3172 24.395L41.4908 32.9552L38.2947 34.1912C38.0108 34.302 37.7771 34.5127 37.6376 34.7837C37.4981 35.0547 37.4624 35.3673 37.5373 35.6628L40.4163 46.8161L40.1282 46.9389C38.9597 47.5743 37.623 47.8313 36.3023 47.6747C34.9725 47.5817 33.7045 47.0775 32.6741 46.2318C31.9459 45.678 31.1439 45.2286 30.2914 44.8967L30.8019 39.6088L33.2903 39.849C33.6203 39.8809 33.9495 39.7803 34.2053 39.5695C34.4612 39.3587 34.6228 39.0549 34.6547 38.7249L35.1352 33.7481C35.167 33.4181 35.0665 33.089 34.8557 32.8331C34.6449 32.5772 34.3411 32.4156 34.0111 32.3837L11.6152 30.2215C11.2852 30.1896 10.9561 30.2902 10.7002 30.501C10.4444 30.7118 10.2827 31.0156 10.2509 31.3456C10.219 31.6756 10.3196 32.0047 10.5304 32.2606C10.7412 32.5164 11.045 32.6781 11.375 32.7099L32.5266 34.752L32.2864 37.2405L11.1347 35.1984C10.8047 35.1665 10.4756 35.267 10.2198 35.4778C9.96389 35.6887 9.80225 35.9925 9.77039 36.3225C9.73853 36.6524 9.83906 36.9816 10.0499 37.2374C10.2607 37.4933 10.5645 37.6549 10.8945 37.6868L12.1387 37.8069L11.651 42.8584C11.2422 42.7729 10.8293 42.7079 10.414 42.6637C10.084 42.6318 9.75487 42.7323 9.49901 42.9431C9.24315 43.1539 9.08151 43.4578 9.04965 43.7877C9.01779 44.1177 9.11832 44.4469 9.32913 44.7027C9.53994 44.9586 9.84375 45.1202 10.1737 45.1521C11.5035 45.245 12.7715 45.7493 13.8019 46.5949C15.1916 47.6919 16.8774 48.3488 18.643 48.4814C20.4014 48.6898 22.1819 48.3675 23.7556 47.5559C24.9296 46.9253 26.2698 46.6731 27.5927 46.8338C28.9218 46.93 30.1888 47.4338 31.2209 48.2766C32.6064 49.3811 34.2945 50.0389 36.062 50.1631C37.8203 50.3685 39.5999 50.0463 41.1746 49.2376C42.3472 48.6031 43.6887 48.3507 45.0118 48.5155C46.3408 48.6117 47.6078 49.1156 48.6399 49.9584C50.0254 51.0628 51.7135 51.7207 53.481 51.8448C55.2394 52.0525 57.0196 51.7302 58.5936 50.9194C59.7679 50.2896 61.1079 50.0374 62.4308 50.1973C62.7607 50.2291 63.0899 50.1286 63.3457 49.9178C63.6016 49.707 63.7632 49.4032 63.7951 49.0732C63.827 48.7432 63.7264 48.4141 63.5156 48.1582C63.3048 47.9023 63.001 47.7407 62.671 47.7088ZM14.0734 43.783L14.6271 38.0472L15.8713 38.1673L15.2539 44.5626C14.885 44.3511 14.5009 44.0378 14.0734 43.783ZM22.7204 45.2709C21.5464 45.9014 20.2062 46.1536 18.8832 45.9929C18.467 45.9525 18.0541 45.8833 17.6474 45.7857L18.3598 38.4075L24.5808 39.0082L24.0271 44.744C23.5475 44.8986 23.1217 45.1463 22.7204 45.2709ZM26.5816 44.2999L27.0693 39.2484L28.3135 39.3685L27.833 44.3454C27.3726 44.3009 26.9745 44.2625 26.5816 44.2999ZM59.0299 33.3927L53.1092 29.6815L53.3951 26.7203L59.6161 27.3209L59.0299 33.3927ZM50.1429 21.3831L55.1198 21.8636L54.8795 24.352L49.9027 23.8715L50.1429 21.3831ZM44.6855 25.8794L50.9066 26.48L50.6207 29.4413L44.0993 31.9512L44.6855 25.8794ZM51.6559 31.7263L62.0291 38.2283L61.1979 39.9438L51.9655 34.2427C51.8032 34.1428 51.6201 34.0813 51.4303 34.063C51.2406 34.0446 51.0491 34.07 50.8706 34.137L40.7181 37.9666L40.2305 36.1237L51.6559 31.7263ZM45.252 46.0271C44.4393 45.9403 43.6188 45.9581 42.8106 46.0802L41.3484 40.4135L49.8724 37.1927L48.9114 47.1465C47.791 46.5036 46.5403 46.1211 45.252 46.0271ZM51.2749 48.6807L52.356 37.4827L60.1064 42.2747L56.9488 48.9648C55.9264 49.3778 54.8128 49.5129 53.7213 49.3564C52.8686 49.2984 52.0364 49.0686 51.2749 48.6807Z" fill="#C092FB"/>
</g>
<path opacity="0.6" d="M3.44493 66.8867C-3.47865 83.1255 0.182043 115.504 70.2134 115.108C157.753 114.614 240.35 50.8128 326.655 57.4897C395.698 62.8312 293.874 102.089 313.822 123.274" stroke="#C092FB" stroke-dasharray="10 10"/>
<defs>
<clipPath id="clip0_112_44">
<rect width="60" height="60" fill="white" transform="translate(10.7656) rotate(5.51456)"/>
</clipPath>
</defs>
</svg>
