<svg width="352" height="95" viewBox="0 0 352 95" fill="none" xmlns="http://www.w3.org/2000/svg">
<g opacity="0.6">
<path d="M333.467 16.3075C333.77 15.767 334.036 15.2066 334.263 14.6302C334.419 14.2276 334.646 13.8565 334.935 13.5349C339.118 8.96491 335.806 1.47731 329.603 1.49601C323.393 1.48981 320.111 8.87271 324.237 13.496C324.538 13.8294 324.777 14.2135 324.944 14.6306C325.171 15.207 325.437 15.7674 325.74 16.3079C322.935 16.8528 321.284 17.9279 321.284 19.2413C321.284 21.3763 325.57 22.5283 329.603 22.5283C333.636 22.5283 337.923 21.3763 337.923 19.2413C337.923 17.9272 336.272 16.8524 333.467 16.3075ZM323.403 8.66891C323.78 0.467007 335.465 0.486806 335.803 8.69601C335.805 10.2368 335.231 11.7227 334.194 12.8626C333.825 13.2734 333.533 13.7477 333.333 14.2626C332.488 16.3294 331.244 18.1406 329.568 19.1565C327.946 18.0065 326.704 16.36 325.874 14.2627C325.664 13.7359 325.362 13.2505 324.982 12.8292C323.958 11.6862 323.396 10.2035 323.403 8.66891ZM329.603 21.528C325.069 21.528 322.284 20.196 322.284 19.241C322.284 18.5646 323.665 17.671 326.307 17.221C327.03 18.2906 327.939 19.2222 328.99 19.9721C329.169 20.0992 329.384 20.1675 329.604 20.1675C329.824 20.1675 330.038 20.0992 330.218 19.9721C331.269 19.2221 332.177 18.2902 332.9 17.2205C335.542 17.6705 336.923 18.5645 336.923 19.2405C336.923 20.196 334.138 21.528 329.603 21.528H329.603Z" fill="#8CBFF0"/>
<path d="M329.603 12.2532C330.546 12.252 331.45 11.8769 332.117 11.21C332.784 10.5432 333.159 9.63908 333.16 8.69606C332.964 3.97696 326.24 3.97826 326.045 8.69606C326.046 9.63922 326.422 10.5434 327.089 11.2103C327.756 11.8772 328.66 12.2522 329.603 12.2532ZM329.603 6.13886C330.281 6.13971 330.931 6.40941 331.41 6.88881C331.889 7.36821 332.159 8.01815 332.16 8.69606C332.02 12.0885 327.185 12.0875 327.045 8.69606C327.046 8.01801 327.316 7.36795 327.795 6.88853C328.275 6.40911 328.925 6.1395 329.603 6.13886Z" fill="#8CBFF0"/>
<path d="M302.405 42.2835C302.708 41.7429 302.974 41.1824 303.201 40.6059C303.357 40.2033 303.585 39.8322 303.873 39.5106C308.056 34.9406 304.744 27.4531 298.541 27.4718C292.331 27.4656 289.049 34.8486 293.175 39.4718C293.476 39.8051 293.715 40.1892 293.882 40.6062C294.109 41.1827 294.375 41.7431 294.678 42.2837C291.873 42.8285 290.222 43.9037 290.222 45.2171C290.222 47.3521 294.508 48.5041 298.541 48.5041C302.574 48.5041 306.861 47.3521 306.861 45.2171C306.861 43.9032 305.21 42.8283 302.405 42.2835ZM292.342 34.6447C292.718 26.4427 304.403 26.4626 304.742 34.6718C304.743 36.2127 304.169 37.6985 303.132 38.8384C302.763 39.2492 302.471 39.7235 302.271 40.2384C301.426 42.3053 300.182 44.1165 298.506 45.1323C296.884 43.9823 295.642 42.3358 294.812 40.2385C294.602 39.7116 294.3 39.2261 293.92 38.8047C292.896 37.6618 292.334 36.1792 292.342 34.6447ZM298.542 47.504C294.007 47.504 291.223 46.172 291.223 45.217C291.223 44.5405 292.603 43.647 295.245 43.1965C295.968 44.2661 296.877 45.1978 297.928 45.9476C298.107 46.0747 298.322 46.143 298.542 46.143C298.762 46.143 298.976 46.0747 299.156 45.9476C300.207 45.1978 301.115 44.2662 301.839 43.1966C304.481 43.6466 305.862 44.5406 305.862 45.2171C305.861 46.172 303.076 47.504 298.541 47.504H298.542Z" fill="#8CBFF0"/>
<path d="M298.542 38.229C299.485 38.228 300.389 37.8529 301.056 37.186C301.723 36.5192 302.098 35.615 302.099 34.6719C301.903 29.9527 295.179 29.9541 294.984 34.6719C294.985 35.615 295.361 36.5192 296.027 37.186C296.694 37.8529 297.598 38.228 298.542 38.229ZM298.542 32.1146C299.22 32.1154 299.87 32.3851 300.349 32.8645C300.828 33.3439 301.098 33.9939 301.099 34.6719C300.958 38.0642 296.124 38.0633 295.984 34.6719C295.985 33.9939 296.255 33.3439 296.734 32.8645C297.214 32.385 297.864 32.1154 298.542 32.1146Z" fill="#8CBFF0"/>
<path d="M311.242 44.7356C310.109 44.723 309.051 44.7169 308.006 44.7169C307.346 44.7369 307.345 45.6963 308.006 45.7169C309.048 45.7169 310.106 45.7232 311.236 45.7356C311.893 45.7162 311.9 44.7631 311.242 44.7356Z" fill="#8CBFF0"/>
<path d="M309.994 27.7011C310.611 27.9268 310.972 27.0376 310.364 26.772C308.928 26.2007 308.082 25.462 307.777 24.5154C307.757 24.4529 307.725 24.3949 307.683 24.3449C307.64 24.2948 307.588 24.2536 307.53 24.2236C307.471 24.1936 307.408 24.1754 307.342 24.17C307.277 24.1646 307.211 24.1722 307.148 24.1923C307.086 24.2124 307.028 24.2446 306.978 24.2871C306.928 24.3296 306.887 24.3815 306.857 24.4399C306.827 24.4983 306.808 24.562 306.803 24.6275C306.798 24.6929 306.805 24.7588 306.825 24.8213C307.226 26.0705 308.263 27.0125 309.994 27.7011Z" fill="#8CBFF0"/>
<path d="M327.431 34.1237C327.304 34.163 327.198 34.2511 327.137 34.3684C327.075 34.4858 327.062 34.6229 327.102 34.7495C327.339 35.5224 327.459 36.3268 327.456 37.1354C327.456 37.5855 327.42 38.0348 327.35 38.4793C327.329 38.6103 327.361 38.7441 327.439 38.8515C327.517 38.9588 327.634 39.0308 327.765 39.0516C327.896 39.0724 328.03 39.0404 328.137 38.9625C328.245 38.8846 328.317 38.7673 328.337 38.6363C328.416 38.1399 328.456 37.638 328.456 37.1354C328.459 36.2262 328.324 35.3219 328.056 34.453C328.017 34.3264 327.929 34.2206 327.812 34.1589C327.694 34.0972 327.557 34.0845 327.431 34.1237Z" fill="#8CBFF0"/>
<path d="M325.134 31.6277C325.233 31.7149 325.361 31.76 325.493 31.753C325.624 31.7461 325.747 31.6878 325.836 31.5908C325.924 31.4937 325.971 31.3657 325.966 31.2344C325.961 31.1031 325.904 30.9791 325.808 30.8891C324.756 29.9309 323.479 29.255 322.094 28.9245C321.967 28.8945 321.832 28.9159 321.72 28.9839C321.608 29.052 321.527 29.1615 321.495 29.2886C321.463 29.4157 321.482 29.5504 321.548 29.6636C321.615 29.7768 321.723 29.8595 321.849 29.8938C322.254 29.991 322.649 30.1208 323.033 30.2818C323.803 30.612 324.513 31.0668 325.134 31.6277Z" fill="#8CBFF0"/>
<path d="M312.061 19.0652C310.548 19.3703 309.292 19.9175 308.22 20.7381C308.167 20.7778 308.123 20.8275 308.09 20.8845C308.056 20.9414 308.035 21.0043 308.026 21.0697C308.017 21.1351 308.021 21.2016 308.038 21.2654C308.055 21.3292 308.084 21.389 308.124 21.4414C308.164 21.4937 308.214 21.5377 308.271 21.5706C308.329 21.6035 308.392 21.6248 308.457 21.6333C308.523 21.6417 308.589 21.6371 308.653 21.6197C308.716 21.6023 308.776 21.5725 308.828 21.532C309.776 20.8061 310.898 20.3198 312.258 20.0455C312.901 19.8959 312.714 18.9546 312.061 19.0652Z" fill="#8CBFF0"/>
<path d="M326.635 41.8206C326.529 41.7403 326.396 41.7053 326.265 41.7232C326.133 41.7411 326.014 41.8104 325.934 41.916C325.612 42.3454 325.229 42.7254 324.796 43.0439C324.229 43.4685 323.611 43.8212 322.957 44.0939C322.351 44.3629 322.717 45.2509 323.334 45.02C324.555 44.51 325.878 43.67 326.73 42.5216C326.77 42.4693 326.799 42.4097 326.816 42.3462C326.833 42.2826 326.837 42.2164 326.828 42.1513C326.819 42.0862 326.797 42.0235 326.764 41.9667C326.731 41.91 326.687 41.8603 326.635 41.8206Z" fill="#8CBFF0"/>
<path d="M320.167 19.001C318.835 18.9174 317.501 18.8077 316.153 18.7767C316.021 18.7737 315.892 18.8235 315.796 18.9151C315.7 19.0067 315.645 19.1327 315.642 19.2653C315.639 19.3979 315.688 19.5263 315.78 19.6222C315.872 19.7181 315.998 19.7737 316.13 19.7767C317.466 19.8067 318.808 19.9203 320.136 20.0002C320.775 19.9832 320.807 19.0589 320.167 19.001Z" fill="#8CBFF0"/>
<path d="M319.211 44.7735C317.957 44.8282 316.751 44.8127 315.235 44.7935C314.58 44.8126 314.571 45.7642 315.228 45.7935C316.761 45.8135 317.985 45.8272 319.256 45.7724C319.915 45.7219 319.872 44.7654 319.211 44.7735Z" fill="#8CBFF0"/>
<path d="M317.96 29.2512C318.615 29.3147 318.74 28.3627 318.085 28.259C316.777 28.0946 315.433 27.9384 314.135 27.7236C313.481 27.6342 313.322 28.582 313.971 28.7102C315.291 28.9286 316.638 29.0852 317.96 29.2512Z" fill="#8CBFF0"/>
</g>
<path opacity="0.6" d="M1 27C30.661 44.0987 94.5194 54.9163 168.498 42.3539C242.476 29.7916 324.945 75.5045 351 93.65" stroke="#8CBFF0" stroke-dasharray="10 10"/>
</svg>
