<svg width="730" height="163" viewBox="0 0 730 163" fill="none" xmlns="http://www.w3.org/2000/svg">
<g opacity="0.6" clip-path="url(#clip0_112_45)">
<path d="M41.4062 15.625H46.0938C46.5041 15.6186 46.9092 15.5313 47.2859 15.3683C47.6626 15.2053 48.0034 14.9697 48.289 14.6749C48.5747 14.3802 48.7994 14.0321 48.9505 13.6505C49.1016 13.2688 49.176 12.8612 49.1695 12.4508C49.1631 12.0404 49.0758 11.6354 48.9128 11.2587C48.7498 10.882 48.5142 10.5411 48.2194 10.2555C47.9247 9.96992 47.5766 9.74516 47.1949 9.59408C46.8133 9.44301 46.4057 9.36858 45.9953 9.37504C45.8227 8.70354 45.4316 8.10852 44.8837 7.68365C44.3358 7.25879 43.6621 7.02821 42.9688 7.02821C42.2754 7.02821 41.6017 7.25879 41.0538 7.68365C40.5059 8.10852 40.1148 8.70354 39.9422 9.37504C39.2628 9.36497 38.5982 9.57399 38.0469 9.97113L34.6711 4.28832C34.602 4.17138 34.5036 4.07447 34.3857 4.00715C34.2677 3.93983 34.1343 3.90442 33.9984 3.90442C33.8626 3.90442 33.7291 3.93983 33.6112 4.00715C33.4932 4.07447 33.3949 4.17138 33.3258 4.28832L23.343 21.275L15.5031 8.95551C15.4279 8.85097 15.3288 8.76583 15.2142 8.7071C15.0995 8.64838 14.9726 8.61775 14.8438 8.61775C14.7149 8.61775 14.588 8.64838 14.4733 8.7071C14.3587 8.76583 14.2596 8.85097 14.1844 8.95551L3.47734 25.7813H0.78125V27.3438H17.9688V25.7813H5.32969L9.53125 19.1735L11.3281 21.5625C11.3951 21.6524 11.4806 21.7269 11.5789 21.7808C11.6771 21.8347 11.7859 21.8669 11.8977 21.875H11.9523C12.1595 21.875 12.3582 21.7927 12.5047 21.6461L15.7734 18.3766L17.5781 20.7813C17.6613 20.8923 17.7726 20.9792 17.9005 21.033C18.0284 21.0868 18.1683 21.1055 18.3059 21.0873C18.4434 21.0691 18.5737 21.0145 18.6832 20.9293C18.7927 20.8441 18.8775 20.7313 18.9289 20.6024L19.7531 18.5422L23.3734 24.2321C23.1792 24.2464 22.9975 24.3334 22.8646 24.4758C22.7317 24.6181 22.6573 24.8053 22.6562 25V26.5625H20.3125C20.1053 26.5625 19.9066 26.6448 19.7601 26.7914C19.6136 26.9379 19.5312 27.1366 19.5312 27.3438V29.6875H17.9688C16.7259 29.6888 15.5344 30.183 14.6556 31.0618C13.7767 31.9407 13.2825 33.1322 13.2812 34.375V38.2813H0.78125V39.8438H13.2812V42.9688C13.2812 43.176 13.3636 43.3747 13.5101 43.5212C13.6566 43.6677 13.8553 43.75 14.0625 43.75H15.7359C15.9065 44.42 16.2954 45.0141 16.8412 45.4384C17.387 45.8627 18.0587 46.0931 18.75 46.0931C19.4413 46.0931 20.113 45.8627 20.6588 45.4384C21.2046 45.0141 21.5935 44.42 21.7641 43.75H28.2359C28.4065 44.42 28.7954 45.0141 29.3412 45.4384C29.887 45.8627 30.5587 46.0931 31.25 46.0931C31.9413 46.0931 32.613 45.8627 33.1588 45.4384C33.7046 45.0141 34.0935 44.42 34.2641 43.75H35.9375C36.1447 43.75 36.3434 43.6677 36.4899 43.5212C36.6364 43.3747 36.7188 43.176 36.7188 42.9688V39.8438H49.2188V38.2813H36.7188V35.1563C36.7171 33.7064 36.1404 32.3164 35.1152 31.2911C34.0899 30.2659 32.6999 29.6892 31.25 29.6875H30.4688V25C30.4688 24.7928 30.3864 24.5941 30.2399 24.4476C30.0934 24.3011 29.8947 24.2188 29.6875 24.2188H25.2156L24.2852 22.7563L29.0305 14.6821L30.1484 17.4774C30.1999 17.6063 30.2847 17.7191 30.3942 17.8043C30.5037 17.8895 30.6339 17.9441 30.7715 17.9623C30.909 17.9805 31.0489 17.9618 31.1768 17.908C31.3047 17.8542 31.416 17.7673 31.4992 17.6563L33.3023 15.2516L36.5711 18.5211C36.7176 18.6677 36.9163 18.75 37.1234 18.75H37.1781C37.2899 18.7419 37.3986 18.7097 37.4969 18.6558C37.5952 18.6019 37.6807 18.5274 37.7477 18.4375L39.7062 15.8274L45.6172 25.7813H32.8125V27.3438H49.2188V25.7813H47.4352L41.4062 15.625ZM17.9922 18.7321L16.4844 16.7188C16.4172 16.6293 16.3316 16.5552 16.2333 16.5017C16.135 16.4481 16.0264 16.4163 15.9148 16.4083C15.8031 16.4004 15.6911 16.4166 15.5862 16.4557C15.4814 16.4948 15.3862 16.5561 15.307 16.6352L12.0383 19.9047L10.4328 17.7641L14.8438 10.8297L18.718 16.9188L17.9922 18.7321ZM21.0938 28.125H25.7812V29.6875H21.0938V28.125ZM35.1562 35.1563V36.7188H32.0312V34.375H35.0781C35.1303 34.6322 35.1565 34.8939 35.1562 35.1563ZM30.4688 36.7188H27.3438V34.375H30.4688V36.7188ZM25.7812 36.7188H22.6562V34.375H25.7812V36.7188ZM21.0938 36.7188H17.1875C17.0185 36.7188 16.854 36.7736 16.7188 36.875L14.8438 38.2813V34.375H21.0938V36.7188ZM18.75 44.5313C18.441 44.5313 18.1389 44.4397 17.8819 44.268C17.625 44.0963 17.4247 43.8522 17.3064 43.5667C17.1882 43.2812 17.1572 42.9671 17.2175 42.664C17.2778 42.3609 17.4266 42.0825 17.6451 41.8639C17.8637 41.6454 18.1421 41.4966 18.4452 41.4363C18.7483 41.376 19.0624 41.407 19.3479 41.5252C19.6335 41.6435 19.8775 41.8438 20.0492 42.1007C20.2209 42.3577 20.3125 42.6598 20.3125 42.9688C20.3125 43.3832 20.1479 43.7806 19.8549 44.0736C19.5618 44.3667 19.1644 44.5313 18.75 44.5313ZM31.25 44.5313C30.941 44.5313 30.6389 44.4397 30.3819 44.268C30.125 44.0963 29.9247 43.8522 29.8064 43.5667C29.6882 43.2812 29.6572 42.9671 29.7175 42.664C29.7778 42.3609 29.9266 42.0825 30.1451 41.8639C30.3637 41.6454 30.6421 41.4966 30.9452 41.4363C31.2483 41.376 31.5624 41.407 31.8479 41.5252C32.1335 41.6435 32.3775 41.8438 32.5492 42.1007C32.7209 42.3577 32.8125 42.6598 32.8125 42.9688C32.8125 43.3832 32.6479 43.7806 32.3549 44.0736C32.0618 44.3667 31.6644 44.5313 31.25 44.5313ZM34.2641 42.1875C34.0935 41.5176 33.7046 40.9235 33.1588 40.4992C32.613 40.0749 31.9413 39.8445 31.25 39.8445C30.5587 39.8445 29.887 40.0749 29.3412 40.4992C28.7954 40.9235 28.4065 41.5176 28.2359 42.1875H21.7641C21.5935 41.5176 21.2046 40.9235 20.6588 40.4992C20.113 40.0749 19.4413 39.8445 18.75 39.8445C18.0587 39.8445 17.387 40.0749 16.8412 40.4992C16.2954 40.9235 15.9065 41.5176 15.7359 42.1875H14.8438V40.2344L17.4477 38.2813H35.1562V42.1875H34.2641ZM34.3547 32.8125H15.2781C15.5503 32.3391 15.9421 31.9455 16.4144 31.6713C16.8866 31.397 17.4227 31.2518 17.9688 31.25H31.25C31.8532 31.2518 32.4478 31.3939 32.9866 31.6651C33.5255 31.9363 33.9939 32.3291 34.3547 32.8125ZM28.9062 29.6875H27.3438V27.3438C27.3438 27.1366 27.2614 26.9379 27.1149 26.7914C26.9684 26.6448 26.7697 26.5625 26.5625 26.5625H24.2188V25.7813H28.9062V29.6875ZM39.8438 10.9375C40.0246 10.9396 40.2037 10.9737 40.3727 11.0383C40.4944 11.0826 40.6253 11.0959 40.7535 11.0771C40.8816 11.0582 41.0031 11.0077 41.107 10.9302C41.2108 10.8528 41.2937 10.7507 41.3483 10.6331C41.4029 10.5156 41.4273 10.3864 41.4195 10.2571C41.4195 10.2375 41.4086 10.1789 41.4062 10.1571C41.4034 9.74267 41.5652 9.34409 41.8562 9.04901C42.1471 8.75394 42.5434 8.58653 42.9578 8.58363C43.3722 8.58073 43.7708 8.74257 44.0659 9.03355C44.361 9.32452 44.5284 9.7208 44.5312 10.1352C44.5312 10.1547 44.5188 10.2375 44.518 10.2571C44.5102 10.3864 44.5346 10.5156 44.5892 10.6331C44.6438 10.7507 44.7267 10.8528 44.8305 10.9302C44.9344 11.0077 45.0559 11.0582 45.184 11.0771C45.3122 11.0959 45.4431 11.0826 45.5648 11.0383C45.7338 10.9737 45.9129 10.9396 46.0938 10.9375C46.5082 10.9375 46.9056 11.1022 47.1986 11.3952C47.4916 11.6882 47.6562 12.0856 47.6562 12.5C47.6562 12.9144 47.4916 13.3119 47.1986 13.6049C46.9056 13.8979 46.5082 14.0625 46.0938 14.0625H39.8438C39.4293 14.0625 39.0319 13.8979 38.7389 13.6049C38.4459 13.3119 38.2812 12.9144 38.2812 12.5C38.2812 12.0856 38.4459 11.6882 38.7389 11.3952C39.0319 11.1022 39.4293 10.9375 39.8438 10.9375ZM37.0391 16.7797L33.7703 13.5102C33.692 13.4299 33.5969 13.368 33.4918 13.3288C33.3867 13.2897 33.2743 13.2742 33.1625 13.2836C33.0507 13.2918 32.942 13.324 32.8437 13.3779C32.7454 13.4318 32.6599 13.5062 32.593 13.5961L31.0836 15.6094L30.0375 12.9938L30.0211 13L34.0055 6.22582L36.9898 11.2508C36.8124 11.6434 36.72 12.0692 36.7188 12.5C36.7202 13.0393 36.8616 13.569 37.1292 14.0372C37.3968 14.5054 37.7814 14.8961 38.2453 15.1711L37.0391 16.7797Z" fill="#8CBFF0"/>
<path d="M0.78125 47.6562H49.2188V49.2188H0.78125V47.6562Z" fill="#8CBFF0"/>
<path d="M44.5312 42.9688H47.6562V44.5312H44.5312V42.9688Z" fill="#8CBFF0"/>
<path d="M39.8438 42.9688H42.9688V44.5312H39.8438V42.9688Z" fill="#8CBFF0"/>
<path d="M7.8125 42.9688H10.9375V44.5312H7.8125V42.9688Z" fill="#8CBFF0"/>
<path d="M3.125 42.9688H6.25V44.5312H3.125V42.9688Z" fill="#8CBFF0"/>
<path d="M36.7188 30.4688H39.8438V32.0312H36.7188V30.4688Z" fill="#8CBFF0"/>
<path d="M42.9688 34.375H46.0938V35.9375H42.9688V34.375Z" fill="#8CBFF0"/>
<path d="M9.375 30.4688H12.5V32.0312H9.375V30.4688Z" fill="#8CBFF0"/>
<path d="M3.90625 34.375H7.03125V35.9375H3.90625V34.375Z" fill="#8CBFF0"/>
<path d="M3.90625 9.37503H10.1562C10.5666 9.36857 10.9717 9.28134 11.3484 9.11832C11.7251 8.9553 12.0659 8.71969 12.3515 8.42494C12.6372 8.13018 12.8619 7.78206 13.013 7.40044C13.1641 7.01883 13.2385 6.61119 13.232 6.20081C13.2256 5.79043 13.1383 5.38534 12.9753 5.00867C12.8123 4.632 12.5767 4.29113 12.2819 4.00552C11.9872 3.71991 11.6391 3.49515 11.2574 3.34407C10.8758 3.193 10.4682 3.11857 10.0578 3.12503C9.88516 2.45353 9.49409 1.85851 8.94617 1.43364C8.39825 1.00878 7.72459 0.778198 7.03125 0.778198C6.3379 0.778198 5.66425 1.00878 5.11633 1.43364C4.5684 1.85851 4.17734 2.45353 4.00468 3.12503C3.5943 3.11857 3.18667 3.193 2.80505 3.34407C2.42344 3.49515 2.07531 3.71991 1.78056 4.00552C1.48581 4.29113 1.25019 4.632 1.08718 5.00867C0.92416 5.38534 0.836929 5.79043 0.830466 6.20081C0.824002 6.61119 0.898432 7.01883 1.04951 7.40044C1.20058 7.78206 1.42534 8.13018 1.71095 8.42494C1.99657 8.71969 2.33744 8.9553 2.71411 9.11832C3.09078 9.28134 3.49587 9.36857 3.90625 9.37503ZM3.90625 4.68753C4.08712 4.68959 4.2662 4.72371 4.43515 4.78831C4.55691 4.8326 4.68777 4.84591 4.81596 4.82704C4.94414 4.80818 5.06561 4.75773 5.16945 4.68024C5.27329 4.60275 5.35622 4.50065 5.41078 4.38314C5.46535 4.26563 5.48983 4.13639 5.48203 4.00706C5.48125 3.98441 5.46875 3.92581 5.46875 3.90628C5.46585 3.49188 5.62768 3.0933 5.91866 2.79822C6.20963 2.50315 6.60591 2.33574 7.02031 2.33284C7.43471 2.32994 7.83329 2.49178 8.12837 2.78276C8.42344 3.07373 8.59085 3.47001 8.59375 3.88441C8.59375 3.90394 8.58125 3.98675 8.58047 4.00628C8.57266 4.13561 8.59714 4.26485 8.65171 4.38236C8.70627 4.49987 8.78921 4.60197 8.89304 4.67946C8.99688 4.75695 9.11836 4.8074 9.24654 4.82626C9.37472 4.84513 9.50558 4.83182 9.62734 4.78753C9.79635 4.7232 9.97542 4.68934 10.1562 4.68753C10.5706 4.68753 10.9681 4.85215 11.2611 5.14518C11.5541 5.4382 11.7187 5.83563 11.7187 6.25003C11.7187 6.66443 11.5541 7.06186 11.2611 7.35488C10.9681 7.64791 10.5706 7.81253 10.1562 7.81253H3.90625C3.49185 7.81253 3.09442 7.64791 2.80139 7.35488C2.50837 7.06186 2.34375 6.66443 2.34375 6.25003C2.34375 5.83563 2.50837 5.4382 2.80139 5.14518C3.09442 4.85215 3.49185 4.68753 3.90625 4.68753Z" fill="#8CBFF0"/>
</g>
<g opacity="0.6">
<path d="M724.467 26.3075C724.77 25.767 725.036 25.2066 725.263 24.6302C725.419 24.2276 725.646 23.8565 725.934 23.5349C730.118 18.9649 726.806 11.4773 720.603 11.496C714.393 11.4898 711.11 18.8727 715.237 23.496C715.538 23.8294 715.777 24.2135 715.944 24.6306C716.171 25.207 716.437 25.7674 716.739 26.3079C713.935 26.8528 712.284 27.9279 712.284 29.2413C712.284 31.3763 716.57 32.5283 720.603 32.5283C724.636 32.5283 728.923 31.3763 728.923 29.2413C728.923 27.9272 727.272 26.8524 724.467 26.3075ZM714.403 18.6689C714.78 10.467 726.464 10.4868 726.803 18.696C726.805 20.2368 726.231 21.7227 725.194 22.8626C724.825 23.2734 724.533 23.7477 724.333 24.2626C723.488 26.3294 722.244 28.1406 720.568 29.1565C718.946 28.0065 717.703 26.36 716.874 24.2627C716.664 23.7359 716.362 23.2505 715.982 22.8292C714.958 21.6862 714.395 20.2035 714.403 18.6689ZM720.603 31.528C716.069 31.528 713.284 30.196 713.284 29.241C713.284 28.5646 714.665 27.671 717.307 27.221C718.03 28.2906 718.938 29.2222 719.989 29.9721C720.169 30.0992 720.383 30.1675 720.603 30.1675C720.823 30.1675 721.038 30.0992 721.218 29.9721C722.269 29.2221 723.177 28.2902 723.9 27.2205C726.542 27.6705 727.923 28.5645 727.923 29.2405C727.923 30.196 725.138 31.528 720.603 31.528H720.603Z" fill="#8CBFF0"/>
<path d="M720.603 22.2532C721.546 22.252 722.45 21.8769 723.117 21.21C723.784 20.5432 724.159 19.6391 724.16 18.6961C723.965 13.977 717.24 13.9783 717.046 18.6961C717.047 19.6392 717.422 20.5434 718.089 21.2103C718.756 21.8772 719.66 22.2522 720.603 22.2532ZM720.603 16.1389C721.281 16.1397 721.931 16.4094 722.41 16.8888C722.89 17.3682 723.159 18.0181 723.16 18.6961C723.02 22.0885 718.186 22.0875 718.046 18.6961C718.046 18.018 718.316 17.3679 718.796 16.8885C719.275 16.4091 719.925 16.1395 720.603 16.1389Z" fill="#8CBFF0"/>
<path d="M693.405 52.2835C693.708 51.7429 693.974 51.1824 694.201 50.6059C694.357 50.2033 694.584 49.8322 694.873 49.5106C699.056 44.9406 695.744 37.4531 689.541 37.4718C683.331 37.4656 680.049 44.8486 684.175 49.4718C684.476 49.8051 684.715 50.1892 684.882 50.6062C685.109 51.1827 685.375 51.7431 685.678 52.2837C682.873 52.8285 681.222 53.9037 681.222 55.2171C681.222 57.3521 685.508 58.5041 689.541 58.5041C693.574 58.5041 697.861 57.3521 697.861 55.2171C697.861 53.9032 696.21 52.8283 693.405 52.2835ZM683.341 44.6447C683.718 36.4427 695.403 36.4626 695.741 44.6718C695.743 46.2127 695.169 47.6985 694.132 48.8384C693.763 49.2492 693.471 49.7235 693.271 50.2384C692.426 52.3053 691.182 54.1165 689.506 55.1323C687.884 53.9823 686.641 52.3358 685.812 50.2385C685.602 49.7116 685.3 49.2261 684.92 48.8047C683.896 47.6618 683.333 46.1792 683.341 44.6447ZM689.541 57.504C685.007 57.504 682.222 56.172 682.222 55.217C682.222 54.5405 683.603 53.647 686.245 53.1965C686.968 54.2661 687.877 55.1978 688.928 55.9476C689.107 56.0747 689.322 56.143 689.542 56.143C689.762 56.143 689.976 56.0747 690.156 55.9476C691.207 55.1978 692.115 54.2662 692.838 53.1966C695.481 53.6466 696.861 54.5406 696.861 55.2171C696.861 56.172 694.076 57.504 689.541 57.504H689.541Z" fill="#8CBFF0"/>
<path d="M689.541 48.229C690.484 48.228 691.389 47.8529 692.055 47.186C692.722 46.5192 693.097 45.615 693.098 44.6719C692.903 39.9527 686.178 39.9541 685.984 44.6719C685.985 45.615 686.36 46.5192 687.027 47.186C687.694 47.8529 688.598 48.228 689.541 48.229ZM689.541 42.1146C690.219 42.1154 690.869 42.3851 691.349 42.8645C691.828 43.3439 692.098 43.9939 692.098 44.6719C691.958 48.0642 687.124 48.0633 686.984 44.6719C686.985 43.9939 687.254 43.3439 687.734 42.8645C688.213 42.385 688.863 42.1154 689.541 42.1146Z" fill="#8CBFF0"/>
<path d="M702.242 54.7356C701.109 54.723 700.051 54.7169 699.006 54.7169C698.346 54.7369 698.345 55.6963 699.006 55.7169C700.048 55.7169 701.106 55.7232 702.236 55.7356C702.893 55.7162 702.9 54.7631 702.242 54.7356Z" fill="#8CBFF0"/>
<path d="M700.993 37.7011C701.611 37.9268 701.972 37.0376 701.363 36.772C699.927 36.2007 699.081 35.462 698.777 34.5154C698.757 34.4529 698.725 34.3949 698.682 34.3449C698.64 34.2948 698.588 34.2536 698.53 34.2236C698.471 34.1936 698.407 34.1754 698.342 34.17C698.276 34.1646 698.211 34.1722 698.148 34.1923C698.086 34.2124 698.028 34.2446 697.978 34.2871C697.927 34.3296 697.886 34.3815 697.856 34.4399C697.826 34.4983 697.808 34.562 697.803 34.6275C697.797 34.6929 697.805 34.7588 697.825 34.8213C698.226 36.0705 699.262 37.0125 700.993 37.7011Z" fill="#8CBFF0"/>
<path d="M718.431 44.1237C718.304 44.163 718.198 44.2511 718.137 44.3684C718.075 44.4858 718.062 44.6229 718.102 44.7495C718.339 45.5224 718.459 46.3268 718.456 47.1354C718.456 47.5855 718.42 48.0348 718.35 48.4793C718.329 48.6103 718.361 48.7441 718.439 48.8515C718.517 48.9588 718.634 49.0308 718.765 49.0516C718.896 49.0724 719.03 49.0404 719.137 48.9625C719.245 48.8846 719.317 48.7673 719.337 48.6363C719.416 48.1399 719.456 47.638 719.456 47.1354C719.459 46.2262 719.324 45.3219 719.056 44.453C719.017 44.3264 718.929 44.2206 718.812 44.1589C718.694 44.0972 718.557 44.0845 718.431 44.1237Z" fill="#8CBFF0"/>
<path d="M716.134 41.6277C716.232 41.7149 716.361 41.76 716.492 41.753C716.624 41.7461 716.747 41.6878 716.835 41.5908C716.924 41.4937 716.971 41.3657 716.966 41.2344C716.961 41.1031 716.904 40.9791 716.808 40.8891C715.756 39.9309 714.478 39.255 713.094 38.9245C712.967 38.8945 712.832 38.9159 712.72 38.9839C712.608 39.052 712.527 39.1615 712.495 39.2886C712.463 39.4157 712.482 39.5504 712.548 39.6636C712.614 39.7768 712.722 39.8595 712.849 39.8938C713.253 39.991 713.649 40.1208 714.033 40.2818C714.802 40.612 715.512 41.0668 716.134 41.6277Z" fill="#8CBFF0"/>
<path d="M703.061 29.0652C701.548 29.3703 700.292 29.9175 699.22 30.7381C699.167 30.7778 699.123 30.8275 699.09 30.8845C699.056 30.9414 699.035 31.0043 699.026 31.0697C699.017 31.1351 699.021 31.2016 699.038 31.2654C699.055 31.3292 699.084 31.389 699.124 31.4414C699.164 31.4937 699.214 31.5377 699.271 31.5706C699.329 31.6035 699.392 31.6248 699.457 31.6333C699.523 31.6417 699.589 31.6371 699.653 31.6197C699.716 31.6023 699.776 31.5725 699.828 31.532C700.776 30.8061 701.898 30.3198 703.258 30.0455C703.901 29.8959 703.714 28.9546 703.061 29.0652Z" fill="#8CBFF0"/>
<path d="M717.634 51.8206C717.529 51.7403 717.396 51.7053 717.264 51.7232C717.133 51.7411 717.014 51.8104 716.934 51.916C716.612 52.3454 716.228 52.7254 715.796 53.0439C715.229 53.4685 714.611 53.8212 713.957 54.0939C713.351 54.3629 713.717 55.2509 714.334 55.02C715.555 54.51 716.877 53.67 717.73 52.5216C717.77 52.4693 717.799 52.4097 717.816 52.3462C717.832 52.2826 717.836 52.2164 717.828 52.1513C717.819 52.0862 717.797 52.0235 717.764 51.9667C717.731 51.91 717.687 51.8603 717.634 51.8206Z" fill="#8CBFF0"/>
<path d="M711.167 29.001C709.835 28.9174 708.501 28.8077 707.153 28.7767C707.021 28.7737 706.892 28.8235 706.796 28.9151C706.7 29.0067 706.645 29.1327 706.642 29.2653C706.639 29.3979 706.688 29.5263 706.78 29.6222C706.872 29.7181 706.998 29.7737 707.13 29.7767C708.466 29.8067 709.808 29.9203 711.136 30.0002C711.775 29.9832 711.807 29.0589 711.167 29.001Z" fill="#8CBFF0"/>
<path d="M710.211 54.7735C708.957 54.8282 707.751 54.8127 706.235 54.7935C705.58 54.8126 705.571 55.7642 706.229 55.7935C707.761 55.8135 708.986 55.8272 710.256 55.7724C710.915 55.7219 710.872 54.7654 710.211 54.7735Z" fill="#8CBFF0"/>
<path d="M708.96 39.2512C709.615 39.3147 709.74 38.3627 709.085 38.259C707.777 38.0946 706.433 37.9384 705.135 37.7236C704.481 37.6342 704.322 38.582 704.971 38.7102C706.291 38.9286 707.638 39.0852 708.96 39.2512Z" fill="#8CBFF0"/>
</g>
<path opacity="0.6" d="M49 66.5C91.5 91 183 106.5 289 88.5C395 70.5 513.167 136 550.5 162" stroke="#8CBFF0" stroke-dasharray="10 10"/>
<defs>
<clipPath id="clip0_112_45">
<rect width="50" height="50" fill="white"/>
</clipPath>
</defs>
</svg>
