<svg width="352" height="80" viewBox="0 0 352 80" fill="none" xmlns="http://www.w3.org/2000/svg">
<g opacity="0.6" clip-path="url(#clip0_112_49)">
<path d="M203.736 23.3455C203.509 23.0735 203.479 22.6875 203.662 22.384C204.394 21.213 204.612 19.7928 204.267 18.4559C203.928 17.1162 203.037 15.9833 201.815 15.3387C201.507 15.1665 201.346 14.8139 201.419 14.4688C201.459 14.2785 201.489 14.0867 201.51 13.8937C201.547 13.5438 201.36 13.2085 201.042 13.0564C200.725 12.9047 200.346 12.9688 200.097 13.2172L196.145 17.1693L172.086 41.2271L168.13 45.1827C167.882 45.4323 167.818 45.8117 167.97 46.1289C168.123 46.4465 168.458 46.6336 168.809 46.5955C169.001 46.575 169.193 46.5448 169.382 46.5051C169.728 46.432 170.081 46.5919 170.253 46.9005C170.897 48.123 172.03 49.0145 173.369 49.3538C174.704 49.6973 176.121 49.4796 177.291 48.752C177.599 48.5629 177.994 48.5943 178.268 48.8302C179.183 49.6384 180.361 50.0845 181.581 50.0849C181.735 50.0849 181.889 50.0782 182.043 50.0633C183.423 49.9273 184.688 49.2351 185.546 48.1462C185.772 47.8679 186.148 47.7622 186.486 47.8821C187.772 48.3891 189.211 48.3431 190.462 47.7547C191.719 47.1603 192.678 46.0805 193.121 44.7633C193.244 44.4193 193.571 44.191 193.936 44.1949C195.315 44.2138 196.644 43.6796 197.627 42.7114C198.601 41.7361 199.137 40.4075 199.113 39.0293C199.112 38.6626 199.341 38.3343 199.686 38.2089C201 37.7644 202.078 36.8044 202.672 35.5497C203.258 34.3016 203.305 32.8673 202.801 31.5834C202.677 31.2418 202.785 30.8594 203.068 30.6318C204.154 29.7717 204.844 28.5075 204.979 27.129C205.106 25.7504 204.655 24.3809 203.736 23.3455ZM192.34 37.4263C187.589 42.218 180.488 43.8175 174.141 41.5254L175.476 40.1893C176.961 40.6422 178.503 40.8749 180.055 40.8808C185.034 40.8639 189.714 38.4963 192.677 34.4947C195.641 30.4926 196.541 25.3267 195.105 20.5581L196.435 19.2287C198.726 25.5747 197.129 32.6731 192.34 37.4263ZM193.753 21.9135C194.858 26.6565 193.436 31.6341 189.992 35.0772C186.548 38.5207 181.571 39.9421 176.828 38.8363L193.753 21.9135ZM202.047 29.3181C201.182 29.9965 200.861 31.1601 201.255 32.1868C201.598 33.043 201.568 34.0045 201.171 34.8374C200.774 35.6822 200.051 36.3292 199.167 36.6311C198.128 36.9821 197.435 37.9637 197.451 39.06C197.47 39.9759 197.12 40.8607 196.478 41.5148C195.838 42.1693 194.96 42.538 194.044 42.5376H193.933C192.855 42.5392 191.896 43.2255 191.548 44.2464C191.248 45.1312 190.601 45.8561 189.756 46.2539C188.92 46.6529 187.956 46.6827 187.097 46.3372C186.074 45.9473 184.917 46.268 184.24 47.1281C183.664 47.8577 182.815 48.3211 181.891 48.4123C180.978 48.4988 180.071 48.2036 179.384 47.5971C178.933 47.1902 178.347 46.9662 177.74 46.9689C177.274 46.9689 176.817 47.0982 176.42 47.3427C175.638 47.8372 174.685 47.9843 173.791 47.748C172.903 47.5236 172.152 46.9327 171.724 46.1226C171.476 45.6584 171.084 45.2873 170.607 45.064L172.853 42.8112C179.96 45.6796 188.093 44.0231 193.513 38.6036C198.932 33.1841 200.588 25.0507 197.72 17.9441L199.975 15.6885C200.197 16.1657 200.569 16.5576 201.034 16.8053C201.843 17.2338 202.434 17.9846 202.659 18.8721C202.895 19.7688 202.747 20.7236 202.25 21.5066C201.672 22.4367 201.773 23.6364 202.5 24.4564C203.109 25.1443 203.407 26.0531 203.323 26.9678C203.233 27.8923 202.771 28.741 202.043 29.3181H202.047Z" fill="#F08B8B"/>
<path d="M156.337 27.7889C155.606 28.9603 155.388 30.3802 155.734 31.7171C156.073 33.0563 156.963 34.1892 158.185 34.8342C158.493 35.0064 158.653 35.359 158.58 35.7041C158.54 35.8944 158.51 36.0862 158.49 36.2792C158.453 36.6291 158.64 36.9644 158.957 37.1165C159.274 37.2682 159.653 37.2042 159.903 36.9557L163.855 33.0036L187.916 8.94309L191.866 4.99177C192.115 4.74216 192.179 4.36322 192.027 4.04561C191.875 3.72799 191.539 3.54088 191.188 3.57901C190.996 3.59945 190.804 3.62972 190.615 3.66942C190.269 3.74293 189.916 3.58255 189.744 3.27398C189.1 2.05226 187.969 1.16073 186.63 0.820714C185.296 0.475975 183.879 0.693353 182.709 1.42253C182.401 1.612 182.005 1.58016 181.731 1.34431C180.698 0.428019 179.331 -0.0193156 177.956 0.108831C176.577 0.24484 175.312 0.937068 174.453 2.02592C174.227 2.30384 173.851 2.40958 173.514 2.29008C172.227 1.78221 170.788 1.8282 169.537 2.41704C168.281 3.01179 167.321 4.0916 166.878 5.40884C166.767 5.76144 166.432 5.99493 166.063 5.97724C164.684 5.95523 163.353 6.48904 162.372 7.45801C161.397 8.43444 160.861 9.76465 160.886 11.1436C160.888 11.5104 160.658 11.8386 160.314 11.964C158.999 12.4086 157.921 13.3685 157.328 14.6232C156.741 15.8713 156.695 17.3057 157.198 18.5895C157.322 18.9311 157.215 19.3135 156.932 19.5411C155.846 20.4012 155.156 21.6654 155.02 23.044C154.896 24.4221 155.347 25.7909 156.267 26.8251C156.494 27.0983 156.522 27.4855 156.337 27.7889ZM167.659 12.7474C172.411 7.95644 179.511 6.35697 185.858 8.64828L184.529 9.98203C178.971 8.30315 172.941 9.81732 168.836 13.9219C164.73 18.027 163.216 24.0569 164.894 29.6144L163.561 30.9486C161.268 24.6006 162.868 17.4994 167.659 12.7466V12.7474ZM166.247 28.2602C165.141 23.5168 166.563 18.5388 170.007 15.0953C173.451 11.6515 178.429 10.2305 183.173 11.3366L166.247 28.2602ZM157.953 20.8556C158.818 20.1772 159.139 19.0136 158.745 17.9873C158.401 17.1307 158.431 16.1692 158.828 15.3363C159.226 14.4915 159.949 13.8445 160.832 13.5426C161.871 13.1916 162.565 12.2097 162.548 11.1129C162.53 10.197 162.88 9.3122 163.521 8.6581C164.162 8.00361 165.039 7.6349 165.956 7.63529H166.067C167.145 7.63372 168.103 6.94699 168.451 5.92654C168.753 5.04169 169.401 4.31763 170.247 3.92061C171.083 3.52162 172.047 3.49175 172.906 3.83727C173.928 4.22722 175.085 3.90685 175.762 3.04717C176.338 2.31799 177.187 1.85454 178.112 1.76334C179.024 1.67647 179.931 1.97168 180.618 2.5786C181.44 3.31132 182.647 3.4147 183.582 2.83254C184.364 2.33843 185.317 2.19181 186.212 2.42727C187.099 2.65211 187.85 3.24253 188.278 4.05268C188.526 4.51692 188.918 4.88839 189.395 5.11127L187.142 7.36681C180.035 4.49569 171.9 6.15099 166.48 11.5717C161.061 16.992 159.408 25.1269 162.28 32.2332L160.025 34.4844C159.802 34.0072 159.43 33.6153 158.966 33.3676C158.156 32.9392 157.566 32.1884 157.34 31.3008C157.104 30.4041 157.252 29.4493 157.749 28.6663C158.327 27.7362 158.226 26.5365 157.5 25.7162C156.891 25.0287 156.593 24.1198 156.676 23.2051C156.766 22.2806 157.228 21.4319 157.956 20.8548L157.953 20.8556Z" fill="#F08B8B"/>
<path d="M167.315 42.8835C167.587 43.0144 167.907 42.9881 168.154 42.8147C168.401 42.6414 168.534 42.3482 168.502 42.0486C168.471 41.7487 168.28 41.4896 168.003 41.3709L161.54 38.4334C161.225 38.2903 160.854 38.3579 160.61 38.6024C160.365 38.8469 160.297 39.2176 160.44 39.5329L163.379 45.9964C163.496 46.2759 163.756 46.4697 164.057 46.5019C164.358 46.5345 164.653 46.4005 164.827 46.1521C165 45.904 165.025 45.5809 164.892 45.3093L164.393 44.2173L166.221 42.389L167.315 42.8835ZM163.658 42.6017L162.868 40.8623L164.607 41.6528L163.658 42.6017Z" fill="#F08B8B"/>
<path d="M170.01 40.6079C170.346 40.6083 170.65 40.4059 170.779 40.0953C170.907 39.7848 170.837 39.4275 170.599 39.1897L168.835 37.4263L169.424 36.8386C170.397 35.8645 170.397 34.2859 169.423 33.3126C168.449 32.3393 166.87 32.3397 165.897 33.3134L165.309 33.9011C164.998 34.2128 164.822 34.6357 164.822 35.0764C164.822 35.5174 164.998 35.9404 165.309 36.2521L167.063 38.0045L167.072 38.0143L167.082 38.0246L169.423 40.3654C169.579 40.5211 169.79 40.6083 170.01 40.6079ZM168.248 35.6637L167.659 36.2509L166.484 35.076L167.072 34.4883C167.282 34.2784 167.588 34.1963 167.875 34.2729C168.162 34.35 168.386 34.574 168.463 34.8606C168.54 35.1475 168.458 35.4534 168.248 35.6637Z" fill="#F08B8B"/>
<path d="M174.711 35.907C175.047 35.907 175.35 35.7046 175.479 35.394C175.607 35.0835 175.536 34.7262 175.298 34.4884L173.536 32.725L174.124 32.1377C175.068 31.1593 175.055 29.6046 174.093 28.6428C173.131 27.6813 171.576 27.6675 170.598 28.6125L170.01 29.2002C169.361 29.8491 169.361 30.901 170.01 31.55L174.124 35.6637C174.279 35.8194 174.491 35.907 174.711 35.907ZM172.948 30.9628L172.361 31.55L171.186 30.3751L171.773 29.7874C172.1 29.4726 172.618 29.4773 172.938 29.7976C173.259 30.118 173.263 30.6365 172.948 30.9628Z" fill="#F08B8B"/>
<path d="M182.593 28.0248C182.593 27.5661 182.221 27.1938 181.762 27.1938H179.039C179.842 26.1521 179.697 24.6663 178.709 23.7991C177.721 22.9316 176.228 22.9807 175.3 23.9115L174.712 24.4988C174.063 25.1478 174.063 26.2001 174.712 26.8491L178.826 30.9627C179.153 31.2694 179.665 31.2611 179.982 30.9439C180.299 30.6263 180.307 30.1145 180 29.7874L179.068 28.8558H181.762C182.221 28.8558 182.593 28.4839 182.593 28.0248ZM177.65 26.2614L177.062 26.8499L175.886 25.6741L176.474 25.0865C176.684 24.8766 176.99 24.7944 177.277 24.8711C177.563 24.9477 177.788 25.1718 177.865 25.4587C177.942 25.7453 177.86 26.0515 177.65 26.2614Z" fill="#F08B8B"/>
<path d="M185.876 25.0865C186.847 24.1116 186.847 22.5353 185.876 21.5605L183.525 19.2114C182.539 18.2687 180.986 18.2687 179.999 19.2114C179.026 20.1847 179.026 21.7629 179.999 22.7362L182.35 25.0865C182.817 25.5542 183.452 25.8168 184.113 25.8168C184.774 25.8168 185.408 25.5542 185.876 25.0865ZM181.175 21.5605C180.959 21.3517 180.872 21.0428 180.948 20.7523C181.024 20.4618 181.251 20.235 181.542 20.1587C181.832 20.0828 182.141 20.1693 182.35 20.3855L184.7 22.7354C184.91 22.9453 184.992 23.2515 184.915 23.5385C184.838 23.825 184.614 24.0491 184.328 24.1261C184.041 24.2032 183.735 24.1214 183.525 23.9115L181.175 21.5605Z" fill="#F08B8B"/>
<path d="M189.989 20.6289C190.289 20.6289 190.564 20.4677 190.712 20.2071C190.859 19.9469 190.855 19.6273 190.701 19.3706L187.176 13.4939C186.94 13.1004 186.429 12.9727 186.036 13.2093C185.642 13.4456 185.514 13.9562 185.751 14.3497L187.562 17.3757L184.537 15.5596C184.143 15.3238 183.633 15.4511 183.397 15.8446C183.161 16.2385 183.288 16.7487 183.682 16.9849L189.557 20.5109C189.688 20.5888 189.837 20.6297 189.989 20.6289Z" fill="#F08B8B"/>
<path d="M193.515 17.1036C193.733 17.1036 193.942 17.0183 194.097 16.8662L196.471 14.5391C196.799 14.218 196.804 13.6916 196.483 13.3638C196.162 13.0359 195.636 13.0304 195.308 13.3516L193.521 15.1016L192.339 13.9208L193.515 12.7459C193.731 12.5371 193.818 12.2282 193.742 11.9377C193.666 11.6472 193.439 11.4204 193.148 11.3441C192.858 11.2682 192.549 11.3547 192.34 11.5709L191.164 12.7459L189.989 11.5701L191.752 9.80752C192.067 9.48125 192.062 8.96316 191.742 8.6424C191.421 8.32204 190.903 8.31732 190.577 8.63218L188.227 10.9832C187.902 11.3079 187.902 11.8339 188.227 12.1582L190.577 14.5085L192.928 16.8595C193.084 17.0156 193.295 17.1036 193.515 17.1036Z" fill="#F08B8B"/>
<path d="M198.216 12.402C198.436 12.402 198.647 12.3143 198.803 12.1582L199.391 11.571C200.688 10.273 200.688 8.16879 199.391 6.87081L198.216 5.69548C196.917 4.39789 194.813 4.39789 193.515 5.69548L192.928 6.28314C192.603 6.60784 192.603 7.13379 192.928 7.45809L197.628 12.1582C197.784 12.3143 197.995 12.402 198.216 12.402ZM197.04 6.87081L198.216 8.04575C198.864 8.69474 198.864 9.74664 198.216 10.396L194.69 6.87081C195.348 6.24344 196.383 6.24344 197.04 6.87081Z" fill="#F08B8B"/>
</g>
<path opacity="0.6" d="M351 78.8799C340.36 36.8799 271.762 88.3999 155.28 71.32C17.1663 51.0681 -4.78639 39.5867 2.12028 31" stroke="#F08B8B" stroke-dasharray="10 10"/>
<defs>
<clipPath id="clip0_112_49">
<rect width="50" height="50" fill="white" transform="translate(155)"/>
</clipPath>
</defs>
</svg>
