<svg width="671" height="135" viewBox="0 0 671 135" fill="none" xmlns="http://www.w3.org/2000/svg">
<path opacity="0.6" d="M670 134C651 59 528.503 151 320.5 120.5C73.8684 84.3361 34.6672 63.8336 47.0005 48.5002" stroke="#F08B8B" stroke-dasharray="10 10"/>
<g opacity="0.6" clip-path="url(#clip0_112_48)">
<path d="M48.7358 23.3455C48.5089 23.0735 48.4791 22.6875 48.6618 22.384C49.3934 21.213 49.6119 19.7928 49.2668 18.4559C48.928 17.1162 48.0368 15.9833 46.8147 15.3387C46.5065 15.1665 46.3462 14.8139 46.4189 14.4688C46.459 14.2785 46.4893 14.0867 46.5097 13.8937C46.5466 13.5438 46.3595 13.2085 46.0419 13.0564C45.7247 12.9047 45.3462 12.9688 45.0969 13.2172L41.1444 17.1693L17.0859 41.2271L13.1302 45.1827C12.8818 45.4323 12.8173 45.8117 12.9698 46.1289C13.1224 46.4465 13.4581 46.6336 13.8083 46.5955C14.0009 46.575 14.1923 46.5448 14.3818 46.5051C14.7273 46.432 15.0803 46.5919 15.2525 46.9005C15.8968 48.123 17.0297 49.0145 18.3689 49.3538C19.7034 49.6973 21.1205 49.4796 22.2904 48.752C22.5985 48.5629 22.9936 48.5943 23.268 48.8302C24.1823 49.6384 25.3608 50.0845 26.5809 50.0849C26.7346 50.0849 26.8887 50.0782 27.0432 50.0633C28.4229 49.9273 29.6875 49.2351 30.546 48.1462C30.7716 47.8679 31.1482 47.7622 31.4859 47.8821C32.772 48.3891 34.2108 48.3431 35.462 47.7547C36.7183 47.1603 37.6782 46.0805 38.1212 44.7633C38.2434 44.4193 38.5709 44.191 38.9357 44.1949C40.3146 44.2138 41.644 43.6796 42.6264 42.7114C43.6004 41.7361 44.137 40.4075 44.113 39.0293C44.1115 38.6626 44.3406 38.3343 44.6854 38.2089C46.0003 37.7644 47.0777 36.8044 47.6713 35.5497C48.2581 34.3016 48.3049 32.8673 47.801 31.5834C47.6772 31.2418 47.7845 30.8594 48.0679 30.6318C49.1536 29.7717 49.8435 28.5075 49.9791 27.129C50.1053 25.7504 49.6552 24.3809 48.7358 23.3455ZM37.3401 37.4263C32.5885 42.218 25.4881 43.8175 19.1409 41.5254L20.4762 40.1893C21.9605 40.6422 23.503 40.8749 25.0545 40.8808C30.0342 40.8639 34.7135 38.4963 37.677 34.4947C40.6409 30.4926 41.5407 25.3267 40.1051 20.5581L41.4345 19.2287C43.7258 25.5747 42.1287 32.6731 37.3401 37.4263ZM38.7529 21.9135C39.8579 26.6565 38.4357 31.6341 34.9918 35.0772C31.548 38.5207 26.5707 39.9421 21.8277 38.8363L38.7529 21.9135ZM47.0463 29.3181C46.1815 29.9965 45.8603 31.1601 46.2546 32.1868C46.5981 33.043 46.5679 34.0045 46.1712 34.8374C45.7738 35.6822 45.0505 36.3292 44.1669 36.6311C43.128 36.9821 42.4345 37.9637 42.4511 39.06C42.4699 39.9759 42.1193 40.8607 41.4782 41.5148C40.8374 42.1693 39.9597 42.538 39.0438 42.5376H38.9325C37.8543 42.5392 36.8959 43.2255 36.5481 44.2464C36.2481 45.1312 35.6011 45.8561 34.7556 46.2539C33.9199 46.6529 32.9556 46.6827 32.0963 46.3372C31.0739 45.9473 29.9167 46.268 29.2402 47.1281C28.6639 47.8577 27.8152 48.3211 26.8903 48.4123C25.9779 48.4988 25.0707 48.2036 24.3839 47.5971C23.9331 47.1902 23.347 46.9662 22.74 46.9689C22.2738 46.9689 21.8167 47.0982 21.4197 47.3427C20.6374 47.8372 19.685 47.9843 18.7903 47.748C17.9027 47.5236 17.1519 46.9327 16.7242 46.1226C16.4758 45.6584 16.0839 45.2873 15.6067 45.064L17.8528 42.8112C24.9602 45.6796 33.0932 44.0231 38.5123 38.6036C43.9318 33.1841 45.5879 25.0507 42.7195 17.9441L44.9747 15.6885C45.1972 16.1657 45.569 16.5576 46.0333 16.8053C46.843 17.2338 47.4334 17.9846 47.6591 18.8721C47.8949 19.7688 47.7467 20.7236 47.2499 21.5066C46.6716 22.4367 46.7731 23.6364 47.4995 24.4564C48.1084 25.1443 48.4063 26.0531 48.323 26.9678C48.233 27.8923 47.7711 28.741 47.0431 29.3181H47.0463Z" fill="#F08B8B"/>
<path d="M1.33721 27.7889C0.606455 28.9603 0.388291 30.3802 0.734208 31.7171C1.07266 33.0563 1.963 34.1892 3.18472 34.8342C3.4929 35.0064 3.65328 35.359 3.58017 35.7041C3.54007 35.8944 3.5098 36.0862 3.48976 36.2792C3.45281 36.6291 3.63992 36.9644 3.95714 37.1165C4.27436 37.2682 4.6533 37.2042 4.90252 36.9557L8.85462 33.0036L32.9159 8.94309L36.8665 4.99177C37.1153 4.74216 37.1794 4.36322 37.0269 4.04561C36.8747 3.72799 36.5386 3.54088 36.1884 3.57901C35.9958 3.59945 35.8044 3.62972 35.6149 3.66942C35.2694 3.74293 34.9164 3.58255 34.7442 3.27398C34.1003 2.05226 32.969 1.16073 31.6302 0.820714C30.296 0.475975 28.8785 0.693353 27.7087 1.42253C27.4005 1.612 27.0055 1.58016 26.7315 1.34431C25.6981 0.428019 24.3313 -0.0193156 22.9563 0.108831C21.5765 0.24484 20.3116 0.937068 19.4535 2.02592C19.2274 2.30384 18.8512 2.40958 18.5136 2.29008C17.2274 1.78221 15.7883 1.8282 14.5371 2.41704C13.2812 3.01179 12.3209 4.0916 11.8779 5.40884C11.7674 5.76144 11.4325 5.99493 11.0634 5.97724C9.68404 5.95523 8.35344 6.48904 7.3715 7.45801C6.39704 8.43444 5.86086 9.76465 5.88642 11.1436C5.88759 11.5104 5.65842 11.8386 5.31369 11.964C3.9992 12.4086 2.92135 13.3685 2.32779 14.6232C1.7413 15.8713 1.69452 17.3057 2.19846 18.5895C2.32189 18.9311 2.21497 19.3135 1.93156 19.5411C0.845846 20.4012 0.155976 21.6654 0.0203604 23.044C-0.104249 24.4221 0.347017 25.7909 1.26684 26.8251C1.49405 27.0983 1.52235 27.4855 1.33721 27.7889ZM12.6589 12.7474C17.411 7.95644 24.5109 6.35697 30.8581 8.64828L29.5287 9.98203C23.9712 8.30315 17.9409 9.81732 13.8358 13.9219C9.73042 18.027 8.21586 24.0569 9.89434 29.6144L8.56059 30.9486C6.2685 24.6006 7.86758 17.4994 12.6589 12.7466V12.7474ZM11.2466 28.2602C10.1408 23.5168 11.563 18.5388 15.0072 15.0953C18.4511 11.6515 23.4292 10.2305 28.1726 11.3366L11.2466 28.2602ZM2.9528 20.8556C3.81799 20.1772 4.13914 19.0136 3.74487 17.9873C3.40131 17.1307 3.43119 16.1692 3.82781 15.3363C4.22562 14.4915 4.9489 13.8445 5.83217 13.5426C6.87149 13.1916 7.5649 12.2097 7.54839 11.1129C7.52952 10.197 7.87977 9.3122 8.52089 8.6581C9.16202 8.00361 10.0394 7.6349 10.9557 7.63529H11.0669C12.1452 7.63372 13.1031 6.94699 13.451 5.92654C13.7525 5.04169 14.4007 4.31763 15.247 3.92061C16.0827 3.52162 17.047 3.49175 17.9063 3.83727C18.9283 4.22722 20.0852 3.90685 20.7617 3.04717C21.3379 2.31799 22.1866 1.85454 23.1115 1.76334C24.0239 1.67647 24.9311 1.97168 25.6179 2.5786C26.4402 3.31132 27.647 3.4147 28.5821 2.83254C29.3644 2.33843 30.3168 2.19181 31.2115 2.42727C32.0991 2.65211 32.8499 3.24253 33.2776 4.05268C33.526 4.51692 33.9179 4.88839 34.3951 5.11127L32.1416 7.36681C25.0345 4.49569 16.9 6.15099 11.4805 11.5717C6.06134 16.992 4.40762 25.1269 7.27991 32.2332L5.02477 34.4844C4.80189 34.0072 4.43042 33.6153 3.96579 33.3676C3.15642 32.9392 2.566 32.1884 2.34037 31.3008C2.10412 30.4041 2.25232 29.4493 2.74918 28.6663C3.32741 27.7362 3.22599 26.5365 2.49996 25.7162C1.89067 25.0287 1.59271 24.1198 1.67644 23.2051C1.76646 22.2806 2.22834 21.4319 2.95634 20.8548L2.9528 20.8556Z" fill="#F08B8B"/>
<path d="M12.3151 42.8835C12.5868 43.0144 12.9075 42.9881 13.1544 42.8147C13.4009 42.6414 13.5341 42.3482 13.5027 42.0486C13.4716 41.7487 13.2802 41.4896 13.0034 41.3709L6.54068 38.4334C6.22542 38.2903 5.85474 38.3579 5.60985 38.6024C5.36535 38.8469 5.29774 39.2176 5.44043 39.5329L8.37955 45.9964C8.4963 46.2759 8.75613 46.4697 9.05723 46.5019C9.35834 46.5345 9.65355 46.4005 9.8269 46.1521C10.0006 45.904 10.0254 45.5809 9.89215 45.3093L9.39332 44.2173L11.2216 42.389L12.3151 42.8835ZM8.65864 42.6017L7.86853 40.8623L9.60677 41.6528L8.65864 42.6017Z" fill="#F08B8B"/>
<path d="M15.01 40.6079C15.3461 40.6083 15.6496 40.4059 15.7785 40.0953C15.907 39.7848 15.8363 39.4275 15.5985 39.1897L13.8351 37.4263L14.4235 36.8386C15.3968 35.8645 15.3964 34.2859 14.4223 33.3126C13.4487 32.3393 11.87 32.3397 10.8967 33.3134L10.3091 33.9011C9.99734 34.2128 9.82202 34.6357 9.82202 35.0764C9.82202 35.5174 9.99734 35.9404 10.3091 36.2521L12.0626 38.0045L12.0717 38.0143L12.0815 38.0246L14.4223 40.3654C14.5784 40.5211 14.7899 40.6083 15.01 40.6079ZM13.2474 35.6637L12.6589 36.2509L11.484 35.076L12.0717 34.4883C12.2816 34.2784 12.5874 34.1963 12.8744 34.2729C13.1613 34.35 13.3854 34.574 13.4624 34.8606C13.5395 35.1475 13.4573 35.4534 13.2474 35.6637Z" fill="#F08B8B"/>
<path d="M19.7111 35.907C20.0472 35.907 20.3502 35.7046 20.4788 35.394C20.6073 35.0835 20.5362 34.7262 20.2987 34.4884L18.5361 32.725L19.1238 32.1377C20.0684 31.1593 20.055 29.6046 19.0935 28.6428C18.1316 27.6813 16.5766 27.6675 15.5986 28.6125L15.0101 29.2002C14.3615 29.8491 14.3615 30.901 15.0101 31.55L19.1238 35.6637C19.2795 35.8194 19.4909 35.907 19.7111 35.907ZM17.9485 30.9628L17.3612 31.55L16.1862 30.3751L16.7735 29.7874C17.0998 29.4726 17.6179 29.4773 17.9386 29.7976C18.259 30.118 18.2637 30.6365 17.9485 30.9628Z" fill="#F08B8B"/>
<path d="M27.5931 28.0248C27.5931 27.5661 27.2212 27.1938 26.7621 27.1938H24.0388C24.8415 26.1521 24.6968 24.6663 23.7086 23.7991C22.7204 22.9316 21.2282 22.9807 20.2994 23.9115L19.7121 24.4988C19.0631 25.1478 19.0631 26.2001 19.7121 26.8491L23.8254 30.9627C24.1528 31.2694 24.6646 31.2611 24.9818 30.9439C25.2987 30.6263 25.3069 30.1145 24.9995 29.7874L24.0679 28.8558H26.7621C27.2212 28.8558 27.5931 28.4839 27.5931 28.0248ZM22.6496 26.2614L22.062 26.8499L20.8862 25.6741L21.4735 25.0865C21.6834 24.8766 21.9896 24.7944 22.2766 24.8711C22.5632 24.9477 22.7876 25.1718 22.8643 25.4587C22.9413 25.7453 22.8595 26.0515 22.6496 26.2614Z" fill="#F08B8B"/>
<path d="M30.876 25.0865C31.8469 24.1116 31.8469 22.5353 30.876 21.5605L28.5257 19.2114C27.5395 18.2687 25.9864 18.2687 24.9997 19.2114C24.0265 20.1847 24.0265 21.7629 24.9997 22.7362L27.35 25.0865C27.8174 25.5542 28.4518 25.8168 29.113 25.8168C29.7742 25.8168 30.4082 25.5542 30.876 25.0865ZM26.1751 21.5605C25.9589 21.3517 25.8724 21.0428 25.9483 20.7523C26.0245 20.4618 26.2513 20.235 26.5418 20.1587C26.8323 20.0828 27.1413 20.1693 27.35 20.3855L29.6999 22.7354C29.9102 22.9453 29.9924 23.2515 29.9153 23.5385C29.8387 23.825 29.6146 24.0491 29.328 24.1261C29.0411 24.2032 28.7353 24.1214 28.525 23.9115L26.1751 21.5605Z" fill="#F08B8B"/>
<path d="M34.9893 20.6289C35.2888 20.6289 35.5647 20.4677 35.7121 20.2071C35.8595 19.9469 35.8552 19.6273 35.7015 19.3706L32.1763 13.4939C31.9401 13.1004 31.4294 12.9727 31.036 13.2093C30.6425 13.4456 30.5147 13.9562 30.7514 14.3497L32.5619 17.3757L29.5371 15.5596C29.1436 15.3238 28.633 15.4511 28.3972 15.8446C28.1609 16.2385 28.2887 16.7487 28.6822 16.9849L34.5572 20.5109C34.6881 20.5888 34.8375 20.6297 34.9893 20.6289Z" fill="#F08B8B"/>
<path d="M38.5151 17.1036C38.7329 17.1036 38.9416 17.0183 39.0969 16.8662L41.4712 14.5391C41.799 14.218 41.8045 13.6916 41.4833 13.3638C41.1622 13.0359 40.6358 13.0304 40.3076 13.3516L38.521 15.1016L37.3394 13.9208L38.5151 12.7459C38.7313 12.5371 38.8178 12.2282 38.7419 11.9377C38.6657 11.6472 38.4389 11.4204 38.1484 11.3441C37.8579 11.2682 37.5489 11.3547 37.3402 11.5709L36.1645 12.7459L34.9891 11.5701L36.7517 9.80752C37.067 9.48125 37.0623 8.96316 36.7419 8.6424C36.4212 8.32204 35.9031 8.31732 35.5768 8.63218L33.2269 10.9832C32.9022 11.3079 32.9022 11.8339 33.2269 12.1582L35.5768 14.5085L37.9279 16.8595C38.0835 17.0156 38.295 17.1036 38.5151 17.1036Z" fill="#F08B8B"/>
<path d="M43.2156 12.402C43.4357 12.402 43.6472 12.3143 43.8029 12.1582L44.3906 11.571C45.6881 10.273 45.6881 8.16879 44.3906 6.87081L43.2156 5.69548C41.9172 4.39789 39.8134 4.39789 38.5151 5.69548L37.9278 6.28314C37.6035 6.60784 37.6035 7.13379 37.9278 7.45809L42.6279 12.1582C42.7836 12.3143 42.9951 12.402 43.2156 12.402ZM42.0403 6.87081L43.2156 8.04575C43.8642 8.69474 43.8642 9.74664 43.2156 10.396L39.6904 6.87081C40.348 6.24344 41.3826 6.24344 42.0403 6.87081Z" fill="#F08B8B"/>
</g>
<defs>
<clipPath id="clip0_112_48">
<rect width="50" height="50" fill="white"/>
</clipPath>
</defs>
</svg>
