<svg width="352" height="116" viewBox="0 0 352 116" fill="none" xmlns="http://www.w3.org/2000/svg">
<path opacity="0.6" d="M351 61.8283C324.162 46.537 253.946 34.4911 190.284 71.1903C110.706 117.064 185.601 126.426 103.839 95.5317C22.0775 64.637 -16.6169 88.6662 8.66056 115.192" stroke="#6347F9" stroke-dasharray="10 10"/>
<g opacity="0.6" clip-path="url(#clip0_112_51)">
<path d="M36.2998 48.779C37.6174 48.4274 39.0083 49.2324 39.3598 50.55C39.7114 51.8675 38.9064 53.2584 37.5888 53.61C36.2713 53.9615 34.8804 53.1565 34.5288 51.839C34.1773 50.5214 34.9823 49.1305 36.2998 48.779ZM37.2178 52.2192C37.7301 52.0825 38.0521 51.5261 37.9154 51.0138C37.7787 50.5014 37.2224 50.1794 36.71 50.3161C36.1976 50.4528 35.8756 51.0092 36.0123 51.5215C36.149 52.0339 36.7054 52.3559 37.2178 52.2192Z" fill="#C092FB"/>
<path d="M57.8199 43.037C59.1374 42.6855 60.5283 43.4905 60.8799 44.808C61.2314 46.1256 60.4264 47.5165 59.1089 47.868C57.7913 48.2196 56.4004 47.4146 56.0489 46.097C55.6973 44.7795 56.5023 43.3886 57.8199 43.037ZM58.7378 46.4773C59.2502 46.3406 59.5722 45.7842 59.4354 45.2718C59.2987 44.7594 58.7424 44.4374 58.23 44.5742C57.7176 44.7109 57.3956 45.2672 57.5323 45.7796C57.669 46.292 58.2254 46.614 58.7378 46.4773Z" fill="#C092FB"/>
<path d="M47.1568 41.5697L48.0351 41.3353C48.4743 41.2181 48.8452 41.4328 48.9624 41.872C49.0796 42.3112 48.8649 42.6821 48.4257 42.7993L47.6206 43.0141C47.1814 43.1313 46.8105 42.9166 46.6933 42.4774C46.5761 42.0382 46.7908 41.6673 47.1568 41.5697Z" fill="#C092FB"/>
<path d="M23.6507 46.0382L24.3094 45.8624C24.1921 44.2472 25.2508 42.6317 26.9343 42.1825L33.3757 40.4639C34.4736 40.1709 35.3031 39.1655 35.3029 37.9894L35.2778 32.8996C35.2581 31.6504 36.1217 30.479 37.366 30.147L40.167 29.4781L39.7178 27.7945L39.4982 27.8531C37.5219 28.3805 35.5551 27.1803 35.0473 25.2772C34.9301 24.838 35.1448 24.4671 35.584 24.3499C36.0232 24.2327 36.3941 24.4474 36.5112 24.8865C36.8237 26.0577 38.0097 26.6822 39.1076 26.3892L59.4563 20.9598C60.6275 20.6473 61.2519 19.4613 60.959 18.3634C60.8418 17.9242 61.0565 17.5533 61.4956 17.4361C61.9348 17.3189 62.3057 17.5336 62.4229 17.9728C62.9502 19.9491 61.7501 21.9159 59.8469 22.4237L59.6273 22.4823L60.1547 24.4586L61.8382 24.0094C63.3753 23.5993 64.9712 24.5848 65.3814 26.1219L67.2758 33.222C68.2469 33.0413 69.2669 33.6316 69.5403 34.6564L70.0481 36.5595C70.3215 37.5843 69.7312 38.6043 68.7992 38.9314L69.2874 40.7613C69.6585 42.152 68.7998 43.6357 67.4091 44.0067L63.7493 44.9833C64.0473 47.5696 62.4129 49.9659 59.851 50.6495C57.2891 51.333 54.6586 49.9963 53.6481 47.6784L42.1562 50.7447C42.4543 53.3311 40.8198 55.7274 38.2579 56.4109C35.696 57.0945 33.0655 55.7578 32.055 53.4399L29.2736 54.1821C27.8096 54.5727 26.2333 53.6603 25.8427 52.1964L25.7059 51.684L25.1204 51.8403C24.6812 51.9575 24.3103 51.7428 24.1931 51.3036L23.0603 47.0582C22.9968 46.5263 23.2115 46.1554 23.6507 46.0382ZM25.5154 50.0883C25.5886 50.0688 27.1257 49.6586 27.0525 49.6782C27.7113 49.5024 28.087 48.8533 27.9112 48.1945L27.7745 47.6822C27.5987 47.0234 26.9496 46.6477 26.2908 46.8235L24.7537 47.2336L25.5154 50.0883ZM37.7761 31.6842C37.1906 31.8404 36.849 32.3236 36.8589 32.9482L36.884 38.038C36.8743 38.5895 36.7524 39.014 36.65 39.5118C40.9346 39.7015 41.5447 39.9308 42.7158 39.6183L43.4471 34.7187C43.4958 34.3137 43.896 34.0501 44.301 34.0988C44.7061 34.1476 44.9696 34.5477 44.9209 34.9527L44.3261 39.1886L50.9138 37.4309L48.6483 28.9401L37.7761 31.6842ZM57.0233 35.6439C58.4141 35.2729 59.2727 33.7892 58.9016 32.3985L57.3783 26.6891L50.1123 28.5495L52.3387 36.8939L57.0233 35.6439ZM58.1634 22.8729L41.1817 27.4039L41.6309 29.0875L58.598 24.7955L58.0902 22.8924L58.1634 22.8729ZM68.5646 36.8769L68.0764 35.047C68.0178 34.8274 67.7396 34.6664 67.52 34.725L66.9344 34.8813L66.1293 35.0961C65.9097 35.1547 65.7487 35.4329 65.8073 35.6524L66.3151 37.5556C66.3737 37.7752 66.6518 37.9362 66.8714 37.8776L67.6766 37.6627L68.2622 37.5065C68.4622 37.3747 68.6428 37.1697 68.5646 36.8769ZM59.4408 49.1123C61.4172 48.585 62.5978 46.545 62.0705 44.5687C61.5432 42.5924 59.5032 41.4117 57.5269 41.939C55.5505 42.4664 54.3699 44.5064 54.8972 46.4827C55.4245 48.459 57.4645 49.6397 59.4408 49.1123ZM37.921 54.8543C39.8973 54.3269 41.078 52.2869 40.5506 50.3106C40.0233 48.3343 37.9833 47.1537 36.007 47.681C34.0307 48.2083 32.85 50.2483 33.3773 52.2246C33.8315 54.2205 35.9447 55.3816 37.921 54.8543ZM27.3407 51.6399C27.5165 52.2987 28.2583 52.728 28.9171 52.5522L31.6986 51.8101C31.4005 49.2237 33.035 46.8274 35.5969 46.1438C38.1587 45.4603 40.7892 46.797 41.7997 49.1149L53.2184 46.0681C52.9204 43.4818 54.5548 41.0855 57.1167 40.4019C59.6786 39.7183 62.3091 41.0551 63.3196 43.3729L66.9794 42.3964C67.565 42.2402 67.9407 41.5911 67.7844 41.0055L67.2962 39.1756L67.223 39.1951C66.1982 39.4685 65.0855 38.8245 64.8121 37.7998L64.3433 36.0431C64.0699 35.0183 64.7139 33.9056 65.7387 33.6321L65.8119 33.6126L63.9174 26.5125C63.7221 25.7806 62.9803 25.3512 62.2288 25.4733L58.8422 26.2985L60.3656 32.0079C60.9515 34.2038 59.6098 36.522 57.4139 37.1079C56.4624 37.3618 42.0426 41.2093 42.9942 40.9554C41.457 41.3655 40.6615 41.0289 35.5863 40.8149C35.0984 41.3371 34.4787 41.6593 33.7467 41.8546L27.3054 43.5733C26.4271 43.8077 25.905 44.4958 25.827 45.3791L25.9002 45.3596C27.3642 44.9689 28.8478 45.8276 29.2384 47.2916L29.3751 47.8039C29.7657 49.2679 28.9071 50.7515 27.4431 51.1421L27.2235 51.2007L27.3407 51.6399Z" fill="#C092FB"/>
<path d="M35.352 42.2887C35.7912 42.1715 36.1621 42.3862 36.2793 42.8254L36.4941 43.6305C36.6113 44.0697 36.3966 44.4406 35.9575 44.5578C35.5183 44.675 35.1474 44.4603 35.0302 44.0211L34.8154 43.216C34.7177 42.85 34.9128 42.4059 35.352 42.2887Z" fill="#C092FB"/>
<path d="M32.9365 42.9332C33.3757 42.816 33.7466 43.0307 33.8638 43.4699L34.0786 44.2751C34.1958 44.7142 33.9811 45.0851 33.5419 45.2023C33.1028 45.3195 32.7318 45.1048 32.6147 44.6657L32.3998 43.8605C32.3022 43.4945 32.4973 43.0504 32.9365 42.9332Z" fill="#C092FB"/>
<path d="M54.4395 19.7893L42.0692 23.09C40.6053 23.4806 39.0289 22.5682 38.6383 21.1043L37.0173 15.029C36.6267 13.565 37.539 11.9887 39.003 11.5981L41.638 10.895L41.306 9.65061C40.9349 8.25987 41.7936 6.77624 43.1843 6.40516L45.1607 5.87784C46.5514 5.50676 48.035 6.36542 48.4061 7.75616L48.7381 9.00051L51.3732 8.29741C52.8372 7.90681 54.4135 8.81914 54.8041 10.2831L56.4251 16.3584C56.8158 17.8223 55.9034 19.3987 54.4395 19.7893ZM46.869 8.1663C46.7127 7.58073 46.0636 7.20506 45.4781 7.3613L43.5018 7.88862C42.9162 8.04487 42.5405 8.69396 42.6968 9.27953L43.0092 10.4507L47.1815 9.33745L46.869 8.1663ZM42.0823 12.2662L44.3674 20.8302L51.1747 19.0139L48.8896 10.4498L42.0823 12.2662ZM38.3885 14.5847L40.0095 20.66C40.1853 21.3188 40.9271 21.7481 41.5859 21.5723L42.9034 21.2208L40.6184 12.6568L39.3008 13.0083C38.6421 13.1841 38.2127 13.9259 38.3885 14.5847ZM53.3207 10.6005C53.1449 9.94171 52.4031 9.51238 51.7443 9.68815L50.4268 10.0397L52.7118 18.6037L54.0293 18.2522C54.6881 18.0764 55.1175 17.3346 54.9417 16.6758L53.3207 10.6005Z" fill="#C092FB"/>
</g>
<defs>
<clipPath id="clip0_112_51">
<rect width="50" height="50" fill="white" transform="matrix(-0.966198 0.257801 0.257801 0.966198 61.3125 0)"/>
</clipPath>
</defs>
</svg>
