<svg width="624" height="141" viewBox="0 0 624 141" fill="none" xmlns="http://www.w3.org/2000/svg">
<path opacity="0.6" d="M561.002 54.5001C518.002 30.0001 405.5 10.7 303.5 69.5C176 143 295.997 158 164.997 108.5C33.9973 59.0002 -27.9996 97.5002 12.5004 140" stroke="#6347F9" stroke-dasharray="10 10"/>
<g opacity="0.6" clip-path="url(#clip0_112_50)">
<path d="M585.3 48.7789C586.617 48.4274 588.008 49.2324 588.36 50.5499C588.711 51.8674 587.906 53.2583 586.589 53.6099C585.271 53.9614 583.88 53.1564 583.529 51.8389C583.177 50.5214 583.982 49.1304 585.3 48.7789ZM586.218 52.2192C586.73 52.0824 587.052 51.5261 586.915 51.0137C586.779 50.5013 586.222 50.1793 585.71 50.316C585.198 50.4527 584.876 51.0091 585.012 51.5215C585.149 52.0339 585.705 52.3559 586.218 52.2192Z" fill="#C092FB"/>
<path d="M606.82 43.037C608.137 42.6854 609.528 43.4904 609.88 44.808C610.231 46.1255 609.426 47.5164 608.109 47.8679C606.791 48.2195 605.4 47.4145 605.049 46.097C604.697 44.7794 605.502 43.3885 606.82 43.037ZM607.738 46.4772C608.25 46.3405 608.572 45.7841 608.435 45.2718C608.298 44.7594 607.742 44.4374 607.23 44.5741C606.717 44.7108 606.395 45.2672 606.532 45.7795C606.669 46.2919 607.225 46.6139 607.738 46.4772Z" fill="#C092FB"/>
<path d="M596.157 41.5696L597.035 41.3352C597.474 41.218 597.845 41.4327 597.962 41.8719C598.08 42.311 597.865 42.682 597.426 42.7991L596.621 43.014C596.181 43.1311 595.81 42.9165 595.693 42.4773C595.576 42.0381 595.791 41.6672 596.157 41.5696Z" fill="#C092FB"/>
<path d="M572.65 46.0382L573.309 45.8624C573.192 44.2472 574.251 42.6317 575.934 42.1825L582.375 40.4639C583.473 40.1709 584.303 39.1655 584.303 37.9894L584.278 32.8996C584.258 31.6504 585.121 30.479 586.366 30.147L589.167 29.4781L588.718 27.7945L588.498 27.8531C586.522 28.3805 584.555 27.1803 584.047 25.2772C583.93 24.838 584.145 24.4671 584.584 24.3499C585.023 24.2327 585.394 24.4474 585.511 24.8865C585.823 26.0577 587.009 26.6822 588.107 26.3892L608.456 20.9598C609.627 20.6473 610.252 19.4613 609.959 18.3634C609.842 17.9242 610.056 17.5533 610.495 17.4361C610.935 17.3189 611.305 17.5336 611.423 17.9728C611.95 19.9491 610.75 21.9159 608.847 22.4237L608.627 22.4823L609.154 24.4586L610.838 24.0094C612.375 23.5993 613.971 24.5848 614.381 26.1219L616.276 33.222C617.247 33.0413 618.267 33.6316 618.54 34.6564L619.048 36.5595C619.321 37.5843 618.731 38.6043 617.799 38.9314L618.287 40.7613C618.658 42.152 617.8 43.6357 616.409 44.0067L612.749 44.9833C613.047 47.5696 611.413 49.9659 608.851 50.6495C606.289 51.333 603.658 49.9963 602.648 47.6784L591.156 50.7447C591.454 53.3311 589.82 55.7274 587.258 56.4109C584.696 57.0945 582.065 55.7578 581.055 53.4399L578.273 54.1821C576.809 54.5727 575.233 53.6603 574.842 52.1964L574.706 51.684L574.12 51.8403C573.681 51.9575 573.31 51.7428 573.193 51.3036L572.06 47.0582C571.997 46.5263 572.211 46.1554 572.65 46.0382ZM574.515 50.0883C574.588 50.0688 576.125 49.6586 576.052 49.6782C576.711 49.5024 577.087 48.8533 576.911 48.1945L576.774 47.6822C576.598 47.0234 575.949 46.6477 575.291 46.8235L573.753 47.2336L574.515 50.0883ZM586.776 31.6842C586.19 31.8404 585.849 32.3236 585.859 32.9482L585.884 38.038C585.874 38.5895 585.752 39.014 585.65 39.5118C589.934 39.7015 590.544 39.9308 591.716 39.6183L592.447 34.7187C592.496 34.3137 592.896 34.0501 593.301 34.0988C593.706 34.1476 593.969 34.5477 593.921 34.9527L593.326 39.1886L599.914 37.4309L597.648 28.9401L586.776 31.6842ZM606.023 35.6439C607.414 35.2729 608.272 33.7892 607.901 32.3985L606.378 26.6891L599.112 28.5495L601.338 36.8939L606.023 35.6439ZM607.163 22.8729L590.181 27.4039L590.631 29.0875L607.598 24.7955L607.09 22.8924L607.163 22.8729ZM617.564 36.8769L617.076 35.047C617.018 34.8274 616.739 34.6664 616.52 34.725L615.934 34.8813L615.129 35.0961C614.909 35.1547 614.748 35.4329 614.807 35.6524L615.315 37.5556C615.373 37.7752 615.652 37.9362 615.871 37.8776L616.676 37.6627L617.262 37.5065C617.462 37.3747 617.643 37.1697 617.564 36.8769ZM608.441 49.1123C610.417 48.585 611.598 46.545 611.07 44.5687C610.543 42.5924 608.503 41.4117 606.527 41.939C604.55 42.4664 603.37 44.5064 603.897 46.4827C604.424 48.459 606.464 49.6397 608.441 49.1123ZM586.921 54.8543C588.897 54.3269 590.078 52.2869 589.55 50.3106C589.023 48.3343 586.983 47.1537 585.007 47.681C583.03 48.2083 581.85 50.2483 582.377 52.2246C582.831 54.2205 584.944 55.3816 586.921 54.8543ZM576.34 51.6399C576.516 52.2987 577.258 52.728 577.917 52.5522L580.698 51.8101C580.4 49.2237 582.035 46.8274 584.597 46.1438C587.159 45.4603 589.789 46.797 590.799 49.1149L602.218 46.0681C601.92 43.4818 603.555 41.0855 606.116 40.4019C608.678 39.7183 611.309 41.0551 612.319 43.3729L615.979 42.3964C616.565 42.2402 616.94 41.5911 616.784 41.0055L616.296 39.1756L616.223 39.1951C615.198 39.4685 614.085 38.8245 613.812 37.7998L613.343 36.0431C613.07 35.0183 613.714 33.9056 614.738 33.6321L614.812 33.6126L612.917 26.5125C612.722 25.7806 611.98 25.3512 611.229 25.4733L607.842 26.2985L609.365 32.0079C609.951 34.2038 608.61 36.522 606.414 37.1079C605.462 37.3618 591.042 41.2093 591.994 40.9554C590.457 41.3655 589.661 41.0289 584.586 40.8149C584.098 41.3371 583.478 41.6593 582.746 41.8546L576.305 43.5733C575.427 43.8077 574.905 44.4958 574.827 45.3791L574.9 45.3596C576.364 44.9689 577.848 45.8276 578.238 47.2916L578.375 47.8039C578.765 49.2679 577.907 50.7515 576.443 51.1421L576.223 51.2007L576.34 51.6399Z" fill="#C092FB"/>
<path d="M584.352 42.2887C584.791 42.1715 585.162 42.3862 585.279 42.8254L585.494 43.6305C585.611 44.0697 585.397 44.4406 584.957 44.5578C584.518 44.675 584.147 44.4603 584.03 44.0211L583.815 43.216C583.718 42.85 583.913 42.4059 584.352 42.2887Z" fill="#C092FB"/>
<path d="M581.937 42.9331C582.376 42.8159 582.747 43.0306 582.864 43.4698L583.079 44.2749C583.196 44.7141 582.981 45.085 582.542 45.2022C582.103 45.3194 581.732 45.1047 581.615 44.6655L581.4 43.8604C581.302 43.4944 581.498 43.0503 581.937 42.9331Z" fill="#C092FB"/>
<path d="M603.439 19.7892L591.069 23.0898C589.605 23.4804 588.029 22.5681 587.638 21.1042L586.017 15.0288C585.627 13.5649 586.539 11.9885 588.003 11.5979L590.638 10.8948L590.306 9.65049C589.935 8.25975 590.794 6.77611 592.184 6.40504L594.161 5.87772C595.551 5.50664 597.035 6.3653 597.406 7.75604L597.738 9.00039L600.373 8.29729C601.837 7.90668 603.414 8.81901 603.804 10.2829L605.425 16.3583C605.816 17.8222 604.903 19.3986 603.439 19.7892ZM595.869 8.16618C595.713 7.5806 595.064 7.20494 594.478 7.36118L592.502 7.8885C591.916 8.04475 591.541 8.69384 591.697 9.27941L592.009 10.4506L596.181 9.33733L595.869 8.16618ZM591.082 12.266L593.367 20.8301L600.175 19.0137L597.89 10.4497L591.082 12.266ZM587.389 14.5846L589.01 20.6599C589.185 21.3187 589.927 21.748 590.586 21.5722L591.903 21.2207L589.618 12.6567L588.301 13.0082C587.642 13.184 587.213 13.9258 587.389 14.5846ZM602.321 10.6004C602.145 9.94159 601.403 9.51226 600.744 9.68803L599.427 10.0396L601.712 18.6036L603.029 18.2521C603.688 18.0763 604.117 17.3345 603.942 16.6757L602.321 10.6004Z" fill="#C092FB"/>
</g>
<defs>
<clipPath id="clip0_112_50">
<rect width="50" height="50" fill="white" transform="matrix(-0.966198 0.257801 0.257801 0.966198 610.312 0)"/>
</clipPath>
</defs>
</svg>
