<svg width="352" height="81" viewBox="0 0 352 81" fill="none" xmlns="http://www.w3.org/2000/svg">
<path opacity="0.6" d="M1 1C13.0871 31.3491 67.8468 103.95 191.766 72.7342C315.685 41.518 348.635 59.5961 351 78.6464" stroke="#8CBFF0" stroke-dasharray="10 10"/>
<g opacity="0.6" clip-path="url(#clip0_112_53)">
<path d="M200.671 48.7088C199.863 48.6251 199.048 48.6392 198.243 48.7507L202.761 39.2911C202.891 39.0154 202.916 38.7017 202.83 38.4091C202.745 38.1164 202.556 37.8649 202.299 37.7018L199.398 35.8771L200.225 27.3169C200.257 26.987 200.156 26.6578 199.945 26.402C199.734 26.1461 199.431 25.9845 199.101 25.9526L195.368 25.5922L195.728 21.8596C195.76 21.5296 195.66 21.2005 195.449 20.9446C195.238 20.6887 194.934 20.5271 194.604 20.4952L192.116 20.255L192.236 19.0108C192.268 18.6808 192.167 18.3517 191.956 18.0958C191.746 17.8399 191.442 17.6783 191.112 17.6464C190.782 17.6146 190.453 17.7151 190.197 17.9259C189.941 18.1367 189.779 18.4406 189.747 18.7705L189.627 20.0148L187.139 19.7745C186.809 19.7426 186.48 19.8432 186.224 20.054C185.968 20.2648 185.806 20.5686 185.775 20.8986L185.414 24.6312L181.682 24.2709C181.352 24.239 181.022 24.3395 180.767 24.5504C180.511 24.7612 180.349 25.065 180.317 25.395L179.491 33.9552L176.295 35.1912C176.011 35.302 175.777 35.5127 175.638 35.7837C175.498 36.0547 175.462 36.3673 175.537 36.6628L178.416 47.8161L178.128 47.9389C176.96 48.5743 175.623 48.8313 174.302 48.6747C172.972 48.5817 171.705 48.0775 170.674 47.2318C169.946 46.678 169.144 46.2286 168.291 45.8967L168.802 40.6088L171.29 40.849C171.62 40.8809 171.949 40.7803 172.205 40.5695C172.461 40.3587 172.623 40.0549 172.655 39.7249L173.135 34.7481C173.167 34.4181 173.067 34.089 172.856 33.8331C172.645 33.5772 172.341 33.4156 172.011 33.3837L149.615 31.2215C149.285 31.1896 148.956 31.2902 148.7 31.501C148.444 31.7118 148.283 32.0156 148.251 32.3456C148.219 32.6756 148.32 33.0047 148.53 33.2606C148.741 33.5164 149.045 33.6781 149.375 33.7099L170.527 35.752L170.286 38.2405L149.135 36.1984C148.805 36.1665 148.476 36.267 148.22 36.4778C147.964 36.6887 147.802 36.9925 147.77 37.3225C147.739 37.6524 147.839 37.9816 148.05 38.2374C148.261 38.4933 148.564 38.6549 148.894 38.6868L150.139 38.8069L149.651 43.8584C149.242 43.7729 148.829 43.7079 148.414 43.6637C148.084 43.6318 147.755 43.7323 147.499 43.9431C147.243 44.1539 147.082 44.4578 147.05 44.7877C147.018 45.1177 147.118 45.4469 147.329 45.7027C147.54 45.9586 147.844 46.1202 148.174 46.1521C149.504 46.245 150.771 46.7493 151.802 47.5949C153.192 48.6919 154.877 49.3488 156.643 49.4814C158.401 49.6898 160.182 49.3675 161.756 48.5559C162.93 47.9253 164.27 47.6731 165.593 47.8338C166.922 47.93 168.189 48.4338 169.221 49.2766C170.606 50.3811 172.295 51.0389 174.062 51.1631C175.82 51.3685 177.6 51.0463 179.175 50.2376C180.347 49.6031 181.689 49.3507 183.012 49.5155C184.341 49.6117 185.608 50.1156 186.64 50.9584C188.025 52.0628 189.714 52.7207 191.481 52.8448C193.239 53.0525 195.02 52.7302 196.594 51.9194C197.768 51.2896 199.108 51.0374 200.431 51.1973C200.761 51.2291 201.09 51.1286 201.346 50.9178C201.602 50.707 201.763 50.4032 201.795 50.0732C201.827 49.7432 201.726 49.4141 201.516 49.1582C201.305 48.9023 201.001 48.7407 200.671 48.7088ZM152.073 44.783L152.627 39.0472L153.871 39.1673L153.254 45.5626C152.885 45.3511 152.501 45.0378 152.073 44.783ZM160.72 46.2709C159.546 46.9014 158.206 47.1536 156.883 46.9929C156.467 46.9525 156.054 46.8833 155.647 46.7857L156.36 39.4075L162.581 40.0082L162.027 45.744C161.547 45.8986 161.122 46.1463 160.72 46.2709ZM164.582 45.2999L165.069 40.2484L166.313 40.3685L165.833 45.3454C165.373 45.3009 164.974 45.2625 164.582 45.2999ZM197.03 34.3927L191.109 30.6815L191.395 27.7203L197.616 28.3209L197.03 34.3927ZM188.143 22.3831L193.12 22.8636L192.88 25.352L187.903 24.8715L188.143 22.3831ZM182.686 26.8794L188.907 27.48L188.621 30.4413L182.099 32.9512L182.686 26.8794ZM189.656 32.7263L200.029 39.2283L199.198 40.9438L189.966 35.2427C189.803 35.1428 189.62 35.0813 189.43 35.063C189.241 35.0446 189.049 35.07 188.871 35.137L178.718 38.9666L178.23 37.1237L189.656 32.7263ZM183.252 47.0271C182.439 46.9403 181.619 46.9581 180.811 47.0802L179.348 41.4135L187.872 38.1927L186.911 48.1465C185.791 47.5036 184.54 47.1211 183.252 47.0271ZM189.275 49.6807L190.356 38.4827L198.106 43.2747L194.949 49.9648C193.926 50.3778 192.813 50.5129 191.721 50.3564C190.869 50.2984 190.036 50.0686 189.275 49.6807Z" fill="#8CBFF0"/>
</g>
<defs>
<clipPath id="clip0_112_53">
<rect width="60" height="60" fill="white" transform="translate(148.766 1) rotate(5.51456)"/>
</clipPath>
</defs>
</svg>
