<svg width="712" height="159" viewBox="0 0 712 159" fill="none" xmlns="http://www.w3.org/2000/svg">
<g opacity="0.6" clip-path="url(#clip0_112_52)">
<path d="M57.671 47.7088C56.863 47.6251 56.0479 47.6392 55.2432 47.7507L59.7607 38.2911C59.8907 38.0154 59.9155 37.7017 59.8304 37.4091C59.7454 37.1164 59.5563 36.8649 59.2988 36.7018L56.3982 34.8771L57.2247 26.3169C57.2565 25.987 57.156 25.6578 56.9452 25.402C56.7344 25.1461 56.4306 24.9845 56.1006 24.9526L52.3679 24.5922L52.7283 20.8596C52.7602 20.5296 52.6596 20.2005 52.4488 19.9446C52.238 19.6887 51.9342 19.5271 51.6042 19.4952L49.1158 19.255L49.2359 18.0108C49.2678 17.6808 49.1672 17.3517 48.9564 17.0958C48.7456 16.8399 48.4418 16.6783 48.1118 16.6464C47.7818 16.6146 47.4527 16.7151 47.1968 16.9259C46.941 17.1367 46.7793 17.4406 46.7475 17.7705L46.6274 19.0148L44.1389 18.7745C43.8089 18.7426 43.4798 18.8432 43.224 19.054C42.9681 19.2648 42.8065 19.5686 42.7746 19.8986L42.4142 23.6312L38.6816 23.2709C38.3516 23.239 38.0225 23.3395 37.7666 23.5504C37.5107 23.7612 37.3491 24.065 37.3172 24.395L36.4908 32.9552L33.2947 34.1912C33.0108 34.302 32.7771 34.5127 32.6376 34.7837C32.4981 35.0547 32.4624 35.3673 32.5373 35.6628L35.4163 46.8161L35.1282 46.9389C33.9597 47.5743 32.623 47.8313 31.3023 47.6747C29.9725 47.5817 28.7045 47.0775 27.6741 46.2318C26.9459 45.678 26.1439 45.2286 25.2914 44.8967L25.8019 39.6088L28.2903 39.849C28.6203 39.8809 28.9495 39.7803 29.2053 39.5695C29.4612 39.3587 29.6228 39.0549 29.6547 38.7249L30.1352 33.7481C30.167 33.4181 30.0665 33.089 29.8557 32.8331C29.6449 32.5772 29.3411 32.4156 29.0111 32.3837L6.61522 30.2215C6.28523 30.1896 5.95611 30.2902 5.70024 30.501C5.44438 30.7118 5.28274 31.0156 5.25088 31.3456C5.21902 31.6756 5.31956 32.0047 5.53036 32.2606C5.74117 32.5164 6.04499 32.6781 6.37497 32.7099L27.5266 34.752L27.2864 37.2405L6.13473 35.1984C5.80474 35.1665 5.47561 35.267 5.21975 35.4778C4.96389 35.6887 4.80225 35.9925 4.77039 36.3225C4.73853 36.6524 4.83906 36.9816 5.04987 37.2374C5.26068 37.4933 5.56449 37.6549 5.89448 37.6868L7.13869 37.8069L6.65099 42.8584C6.24217 42.7729 5.82932 42.7079 5.41399 42.6637C5.084 42.6318 4.75487 42.7323 4.49901 42.9431C4.24315 43.1539 4.08151 43.4578 4.04965 43.7877C4.01779 44.1177 4.11832 44.4469 4.32913 44.7027C4.53994 44.9586 4.84375 45.1202 5.17374 45.1521C6.50351 45.245 7.77145 45.7492 8.80188 46.5949C10.1916 47.6919 11.8774 48.3488 13.643 48.4814C15.4014 48.6898 17.1819 48.3675 18.7556 47.5559C19.9296 46.9253 21.2698 46.6731 22.5927 46.8338C23.9218 46.93 25.1888 47.4338 26.2209 48.2766C27.6064 49.3811 29.2945 50.0389 31.062 50.1631C32.8203 50.3685 34.5999 50.0463 36.1746 49.2376C37.3472 48.6031 38.6887 48.3507 40.0118 48.5155C41.3408 48.6117 42.6078 49.1156 43.6399 49.9584C45.0254 51.0628 46.7135 51.7207 48.481 51.8448C50.2394 52.0525 52.0196 51.7302 53.5936 50.9194C54.7679 50.2896 56.1079 50.0374 57.4308 50.1973C57.7608 50.2291 58.0899 50.1286 58.3457 49.9178C58.6016 49.707 58.7632 49.4032 58.7951 49.0732C58.827 48.7432 58.7264 48.4141 58.5156 48.1582C58.3048 47.9023 58.001 47.7407 57.671 47.7088ZM9.07336 43.783L9.62712 38.0472L10.8713 38.1673L10.2539 44.5626C9.88502 44.3511 9.50085 44.0378 9.07336 43.783ZM17.7204 45.2709C16.5464 45.9014 15.2062 46.1536 13.8832 45.9929C13.467 45.9526 13.0541 45.8833 12.6474 45.7857L13.3598 38.4075L19.5808 39.0082L19.0271 44.744C18.5475 44.8986 18.1217 45.1463 17.7204 45.2709ZM21.5816 44.2999L22.0693 39.2484L23.3135 39.3685L22.833 44.3454C22.3726 44.3009 21.9745 44.2625 21.5816 44.2999ZM54.0299 33.3927L48.1092 29.6815L48.3951 26.7203L54.6161 27.3209L54.0299 33.3927ZM45.1429 21.3831L50.1198 21.8636L49.8795 24.352L44.9027 23.8715L45.1429 21.3831ZM39.6855 25.8794L45.9066 26.48L45.6207 29.4413L39.0993 31.9512L39.6855 25.8794ZM46.6559 31.7263L57.0291 38.2283L56.1979 39.9438L46.9655 34.2427C46.8032 34.1428 46.6201 34.0813 46.4303 34.063C46.2406 34.0446 46.0491 34.07 45.8706 34.137L35.7181 37.9666L35.2305 36.1237L46.6559 31.7263ZM40.252 46.0271C39.4393 45.9403 38.6188 45.9581 37.8106 46.0802L36.3484 40.4135L44.8724 37.1927L43.9114 47.1465C42.791 46.5036 41.5403 46.1211 40.252 46.0271ZM46.2749 48.6807L47.356 37.4827L55.1064 42.2747L51.9488 48.9648C50.9264 49.3778 49.8128 49.5129 48.7213 49.3564C47.8686 49.2984 47.0364 49.0686 46.2749 48.6807Z" fill="#8CBFF0"/>
</g>
<path opacity="0.6" d="M37 57C60.2763 95.6192 165.728 188.004 404.36 148.282C642.993 108.559 706.446 131.564 711 155.805" stroke="#8CBFF0" stroke-dasharray="10 10"/>
<defs>
<clipPath id="clip0_112_52">
<rect width="60" height="60" fill="white" transform="translate(5.76562) rotate(5.51456)"/>
</clipPath>
</defs>
</svg>
