<svg width="50" height="50" viewBox="0 0 50 50" fill="none" xmlns="http://www.w3.org/2000/svg">
<g opacity="0.6">
<path d="M45.9517 11.6667H42.455H41.6667V9.16667H35V11.6667H34.1667C34.1667 6.6125 30.0542 2.5 25 2.5C19.9458 2.5 15.8333 6.6125 15.8333 11.6667H15V9.16667H8.33333V11.6667H7.545H4.04833C1.81667 11.6667 0 13.4833 0 15.715V19.2117V39.955V43.4517C0 45.6842 1.81667 47.5 4.04833 47.5H7.545H8.33333H15H35H41.6667H42.455H45.9517C48.1833 47.5 50 45.6842 50 43.4517V39.955V19.2117V15.715C50 13.4833 48.1833 11.6667 45.9517 11.6667ZM45.9517 13.3333C47.265 13.3333 48.3333 14.4017 48.3333 15.715V17.1367C46.5633 16.5092 45.1567 15.1033 44.53 13.3333H45.9517ZM36.6667 10.8333H40V11.6667H36.6667V10.8333ZM25 4.16667C29.135 4.16667 32.5 7.53167 32.5 11.6667H30.8333C30.8333 8.45 28.2167 5.83333 25 5.83333C21.7833 5.83333 19.1667 8.45 19.1667 11.6667H17.5C17.5 7.53167 20.865 4.16667 25 4.16667ZM29.1667 11.6667H20.8333C20.8333 9.36917 22.7025 7.5 25 7.5C27.2975 7.5 29.1667 9.36917 29.1667 11.6667ZM10 10.8333H13.3333V11.6667H10V10.8333ZM1.66667 15.715C1.66667 14.4017 2.735 13.3333 4.04833 13.3333H5.47C4.84333 15.1033 3.43667 16.5092 1.66667 17.1367V15.715ZM4.04833 45.8333C2.735 45.8333 1.66667 44.765 1.66667 43.4517V42.0292C3.43667 42.6567 4.8425 44.0625 5.47 45.8325L4.04833 45.8333ZM7.19167 45.8333C6.45583 43.1508 4.34917 41.0442 1.66667 40.3083V18.8583C4.34917 18.1225 6.45583 16.0158 7.19167 13.3333H8.33333V45.8333H7.19167ZM10 45.8333V13.3333H13.3333V45.8333H10ZM15 45.8333V13.3333H15.8333H19.1667H30.8333H34.1667H35V45.8333H15ZM36.6667 45.8333V13.3333H40V45.8333H36.6667ZM41.6667 45.8333V13.3333H42.8083C43.5442 16.0158 45.65 18.1225 48.3333 18.8583V40.3083C45.6508 41.0442 43.5442 43.1508 42.8083 45.8333H41.6667ZM48.3333 43.4517C48.3333 44.765 47.265 45.8333 45.9517 45.8333H44.53C45.1575 44.0633 46.5633 42.6575 48.3333 42.03V43.4517Z" fill="#F08B8B"/>
<path d="M30.0158 17.5925L19.2325 22.6275L20.34 25H19.1667V29.3484L18.0375 28.8717L15.4233 35.0684L23.9492 38.6659L25.4967 35H33.3333V25.4134L33.6075 25.285L30.0158 17.5925ZM21.4475 23.4325L29.2108 19.8084L31.3925 24.4809L30.2783 25H22.1792L21.4475 23.4325ZM23.0617 36.4817L17.6067 34.18L18.925 31.055L19.1667 31.1567L24.3808 33.3567L23.6875 35L23.0617 36.4817ZM31.6667 26.6667V33.3334H26.2L26.5642 32.4692L20.8333 30.0517V26.6667H21.1183H30.6492H31.6667Z" fill="#F08B8B"/>
</g>
</svg>
