<svg width="315" height="60" viewBox="0 0 315 60" fill="none" xmlns="http://www.w3.org/2000/svg">
<g opacity="0.6" clip-path="url(#clip0_112_55)">
<path d="M0.537598 47.903C0.537598 48.0537 0.597459 48.1982 0.704014 48.3048C0.810569 48.4113 0.955088 48.4712 1.10578 48.4712C3.32356 48.4712 4.468 47.3728 5.47783 46.4037C6.45686 45.4644 7.30248 44.6529 9.06305 44.6529C10.8236 44.6529 11.6693 45.4644 12.6483 46.4037C13.6582 47.3728 14.8025 48.4712 17.0203 48.4712C19.237 48.4712 20.3809 47.3728 21.3902 46.4035C22.3684 45.4641 23.2132 44.6529 24.9724 44.6529C26.7324 44.6529 27.5775 45.4644 28.5563 46.4037C29.5656 47.3728 30.7097 48.4712 32.9269 48.4712C35.1441 48.4712 36.2872 47.3728 37.2965 46.4037C38.2747 45.4641 39.1195 44.6529 40.8787 44.6529C42.6379 44.6529 43.4838 45.4644 44.4623 46.4037C45.4716 47.3728 46.6157 48.4712 48.8327 48.4712C48.9834 48.4712 49.1279 48.4113 49.2345 48.3048C49.341 48.1982 49.4009 48.0537 49.4009 47.903C49.4009 47.7523 49.341 47.6078 49.2345 47.5012C49.1279 47.3947 48.9834 47.3348 48.8327 47.3348C47.0727 47.3348 46.2276 46.5233 45.2491 45.5839C44.2398 44.6149 43.0957 43.5165 40.8787 43.5165C38.6618 43.5165 37.5185 44.6149 36.5094 45.5839C35.5312 46.5236 34.6864 47.3348 32.9272 47.3348C31.168 47.3348 30.3221 46.5233 29.3433 45.5839C28.3341 44.6149 27.1899 43.5165 24.9727 43.5165C22.7554 43.5165 21.6124 44.6149 20.6033 45.5839C19.6248 46.5233 18.78 47.3348 17.0206 47.3348C15.2597 47.3348 14.4144 46.5233 13.4353 45.5839C12.4254 44.6149 11.2811 43.5165 9.06322 43.5165C6.84538 43.5165 5.70078 44.6149 4.69089 45.5839C3.71186 46.5233 2.86652 47.3348 1.10567 47.3348C0.954994 47.3349 0.810504 47.3947 0.703974 47.5013C0.597444 47.6078 0.537598 47.7523 0.537598 47.903Z" fill="#C092FB"/>
<path d="M46.6989 16.9193C45.0455 16.1385 43.1194 16.3552 41.3146 17.4393C41.635 16.6129 41.7586 15.7233 41.6755 14.8408C41.5925 13.9584 41.3051 13.1074 40.8362 12.3553C40.7525 12.23 40.6224 12.1431 40.4746 12.1137C40.3268 12.0843 40.1734 12.1148 40.048 12.1985C39.9227 12.2822 39.8358 12.4123 39.8064 12.5601C39.777 12.708 39.8076 12.8614 39.8913 12.9867C40.8895 14.481 40.743 16.5526 39.5228 18.6361C39.6578 17.121 39.3107 15.6021 38.5309 14.2962C37.7511 12.9902 36.5786 11.9641 35.1808 11.3643C36.2255 11.1523 37.3096 11.2549 38.2961 11.6589C38.3643 11.6897 38.4379 11.7066 38.5127 11.7089C38.5875 11.7111 38.662 11.6985 38.732 11.6718C38.8019 11.6452 38.8659 11.605 38.9202 11.5535C38.9745 11.5021 39.0182 11.4404 39.0486 11.372C39.0791 11.3036 39.0957 11.2299 39.0975 11.1551C39.0994 11.0803 39.0865 11.0059 39.0595 10.9361C39.0325 10.8663 38.992 10.8025 38.9403 10.7484C38.8886 10.6943 38.8267 10.6509 38.7582 10.6208C37.1938 9.92443 35.2152 9.9688 33.1866 10.7465C33.0763 10.7888 32.9819 10.8645 32.9166 10.963C32.8513 11.0615 32.8184 11.1779 32.8223 11.296C32.8263 11.4141 32.867 11.528 32.9388 11.6219C33.0105 11.7158 33.1097 11.785 33.2227 11.8198C34.5279 12.1799 35.7239 12.8572 36.7041 13.7914C35.9405 13.4214 35.123 13.1754 34.2821 13.0625C33.1213 12.8586 31.9284 12.9382 30.805 13.2944C29.6815 13.6506 28.6608 14.273 27.8296 15.1085C27.755 15.1898 27.7056 15.291 27.6876 15.3998C27.6695 15.5087 27.6836 15.6204 27.728 15.7214C27.7724 15.8224 27.8452 15.9083 27.9376 15.9686C28.03 16.0289 28.1379 16.061 28.2482 16.061H28.2624C29.9488 16.0294 31.6286 16.2797 33.2326 16.8013C33.2108 16.8008 33.1895 16.7961 33.1677 16.7956C33.1513 16.7956 33.1357 16.7956 33.1194 16.7956C29.6109 16.7956 27.0516 20.2677 26.944 20.4164C26.8712 20.5168 26.8332 20.6384 26.8359 20.7624C26.8387 20.8865 26.8819 21.0063 26.9591 21.1034C27.0363 21.2006 27.1432 21.2698 27.2635 21.3005C27.3837 21.3312 27.5107 21.3216 27.625 21.2733C29.8707 20.329 32.3346 20.0269 34.7419 20.4006C27.7444 23.7146 24.8637 31.1708 23.7227 35.7898L23.7136 35.7904C22.712 35.8365 21.7149 35.9518 20.7292 36.1354C20.504 32.1874 19.319 27.2452 15.2406 24.3777C15.2875 24.3314 15.3379 24.2802 15.4062 24.2193C15.7905 24.134 16.1801 24.0743 16.5723 24.0408C19.5569 25.8468 21.5945 28.7723 22.6301 32.7408C22.6682 32.8866 22.7626 33.0114 22.8926 33.0876C23.0226 33.1638 23.1776 33.1853 23.3234 33.1472C23.4693 33.1092 23.594 33.0148 23.6702 32.8847C23.7465 32.7547 23.7679 32.5997 23.7299 32.4539C22.782 28.8214 21.0282 26.0054 18.527 24.0335C20.3363 24.1783 22.0763 24.7935 23.5745 25.8179C23.6769 25.8882 23.7994 25.9229 23.9234 25.9169C24.0474 25.9109 24.166 25.8645 24.2611 25.7847C24.3562 25.7049 24.4226 25.5962 24.45 25.4751C24.4775 25.3541 24.4646 25.2274 24.4132 25.1144C24.3555 24.9874 23.0644 22.2099 20.61 21.3709C21.7338 21.3126 22.8605 21.4036 23.9604 21.6415C24.0685 21.6635 24.1806 21.6536 24.2832 21.613C24.3857 21.5724 24.4742 21.5029 24.5379 21.4128C24.6015 21.3228 24.6376 21.2162 24.6418 21.106C24.6459 20.9958 24.6178 20.8867 24.5611 20.7922C24.0327 19.987 23.3175 19.3214 22.4765 18.8522C21.6354 18.383 20.6934 18.124 19.7307 18.0973C19.277 18.0679 18.8215 18.0843 18.3711 18.1462C19.1261 17.7971 19.9366 17.5836 20.7655 17.5156C20.8831 17.504 20.9942 17.456 21.0833 17.3783C21.1723 17.3006 21.2349 17.1971 21.2624 17.0822C21.2899 16.9673 21.2808 16.8466 21.2365 16.7371C21.1922 16.6275 21.1148 16.5345 21.0152 16.471C19.9162 15.7195 18.6083 15.3335 17.2774 15.3679C17.202 15.3712 17.128 15.3894 17.0598 15.4215C16.9915 15.4536 16.9303 15.499 16.8798 15.555C16.8293 15.611 16.7904 15.6766 16.7655 15.7478C16.7405 15.819 16.73 15.8944 16.7345 15.9697C16.7391 16.045 16.7585 16.1187 16.7918 16.1863C16.8251 16.254 16.8716 16.3144 16.9284 16.364C16.9853 16.4135 17.0515 16.4513 17.1231 16.475C17.1947 16.4987 17.2703 16.5079 17.3455 16.5021C17.878 16.4761 18.4106 16.5492 18.9164 16.7177C17.8605 16.9962 16.9046 17.567 16.1584 18.3644C15.4123 19.1618 14.9062 20.1535 14.6982 21.2256C14.6953 21.2389 14.6903 21.2529 14.6875 21.2661C14.2142 19.4806 14.5843 17.8951 15.7262 17.0616C15.7884 17.0184 15.8413 16.9632 15.8819 16.8993C15.9225 16.8354 15.9499 16.7639 15.9624 16.6893C15.975 16.6146 15.9726 16.5382 15.9552 16.4645C15.9378 16.3908 15.9059 16.3213 15.8613 16.2601C15.8167 16.1989 15.7603 16.1473 15.6954 16.1082C15.6305 16.0691 15.5585 16.0434 15.4836 16.0325C15.4086 16.0217 15.3323 16.0259 15.259 16.045C15.1857 16.0641 15.117 16.0976 15.0569 16.1436C14.4425 16.6237 13.9637 17.2555 13.6675 17.9767C13.3714 18.698 13.2682 19.484 13.368 20.2573C12.8333 19.7605 12.1868 19.3998 11.4831 19.2056C10.7795 19.0115 10.0395 18.9897 9.32566 19.142C7.31788 19.634 5.97623 21.5893 5.82418 24.2449C5.81738 24.3629 5.84756 24.4801 5.91051 24.5802C5.97346 24.6802 6.06606 24.7581 6.17539 24.8031C6.28472 24.848 6.40535 24.8578 6.52048 24.8309C6.6356 24.8041 6.73948 24.742 6.81765 24.6533C7.56169 23.7399 8.54836 23.055 9.66424 22.6773C9.3102 22.9519 8.98912 23.2665 8.70742 23.6148C7.11799 25.5771 6.7393 28.3223 7.78697 30.2904C7.83538 30.3813 7.9076 30.4574 7.9959 30.5104C8.08421 30.5634 8.18527 30.5915 8.28828 30.5915C8.30271 30.5915 8.31668 30.591 8.33129 30.5899C8.44133 30.5816 8.54657 30.5415 8.63417 30.4743C8.72177 30.4072 8.78794 30.3161 8.82458 30.212C9.12301 29.3428 9.50865 28.5061 9.9756 27.7145C9.90609 29.274 10.2877 30.8204 11.0748 32.1685C11.1393 32.2745 11.2367 32.3566 11.3522 32.402C11.4677 32.4475 11.5949 32.4539 11.7144 32.4202C11.8339 32.3866 11.939 32.3147 12.0138 32.2156C12.0886 32.1165 12.1289 31.9957 12.1285 31.8716C12.1338 29.4595 12.9605 27.1211 14.4723 25.2416C18.335 27.8877 19.4171 32.6393 19.6022 36.39C15.8451 37.3381 12.732 39.3147 11.1003 41.9497C11.0248 42.0776 11.0024 42.2301 11.038 42.3744C11.0735 42.5186 11.1642 42.6432 11.2905 42.7215C11.4169 42.7997 11.5688 42.8253 11.7138 42.7929C11.8588 42.7604 11.9853 42.6724 12.0662 42.5478C16.7641 34.9623 32.9733 35.0793 37.4041 42.7267C37.4408 42.7927 37.4903 42.8507 37.5496 42.8973C37.6089 42.9439 37.677 42.9783 37.7497 42.9984C37.8225 43.0184 37.8985 43.0238 37.9734 43.0141C38.0482 43.0045 38.1204 42.98 38.1857 42.9422C38.251 42.9043 38.3081 42.8538 38.3537 42.7937C38.3992 42.7335 38.4324 42.6649 38.4511 42.5918C38.4698 42.5187 38.4738 42.4425 38.4629 42.3679C38.4519 42.2932 38.4261 42.2215 38.3871 42.1569C36.7621 39.3524 33.5007 37.2711 29.5278 36.3279C29.9982 34.0848 30.7523 31.9106 31.7719 29.8579C31.8365 29.7243 31.8463 29.5708 31.7991 29.4301C31.752 29.2893 31.6517 29.1727 31.5196 29.105C31.3875 29.0373 31.2342 29.0239 31.0924 29.0678C30.9507 29.1117 30.8317 29.2093 30.7609 29.3397C29.6908 31.4804 28.8989 33.7492 28.4047 36.0909C27.2467 35.8913 26.0748 35.7828 24.8999 35.7666C26.1188 31.0241 29.1953 23.4748 36.6766 20.827C37.1817 20.9745 37.676 21.1565 38.156 21.3719C38.2168 21.4541 38.3128 21.5901 38.4377 21.7825C35.9152 22.8754 33.7549 24.6621 32.2083 26.9348C32.1243 27.058 32.0922 27.2092 32.1187 27.3559C32.1452 27.5025 32.2283 27.6329 32.3501 27.7189C32.4718 27.8049 32.6225 27.8396 32.7696 27.8155C32.9167 27.7914 33.0484 27.7105 33.1364 27.5902C34.5901 25.453 36.6325 23.7833 39.016 22.7834C40.4593 25.5121 40.913 28.6564 40.2999 31.6818C40.2748 31.8033 40.2902 31.9297 40.3437 32.0416C40.3971 32.1536 40.4858 32.2449 40.5961 32.3017C40.7064 32.3586 40.8322 32.3777 40.9544 32.3563C41.0766 32.3349 41.1884 32.2741 41.2728 32.1831C41.385 32.0619 43.7498 29.462 43.7186 26.431C44.2322 27.7141 44.58 29.0575 44.7535 30.4286C44.7686 30.5379 44.8152 30.6405 44.8876 30.7238C44.9601 30.807 45.0552 30.8674 45.1614 30.8975C45.2118 30.9119 45.264 30.9192 45.3164 30.9191C45.4001 30.9191 45.4828 30.9006 45.5585 30.8649C45.6343 30.8293 45.7012 30.7773 45.7545 30.7127C47.4904 28.6098 47.7046 25.2235 46.2758 22.4777C45.9191 21.784 45.4452 21.1572 44.875 20.625C46.1547 21.1113 47.4557 22.1391 48.5739 24.0827C48.6237 24.1692 48.6955 24.2411 48.7819 24.2912C48.8684 24.3412 48.9665 24.3676 49.0663 24.3676C49.1022 24.3676 49.1379 24.3642 49.1732 24.3576C49.2892 24.3353 49.3954 24.2775 49.4771 24.1921C49.5587 24.1067 49.6117 23.9979 49.6287 23.881C50.0952 20.6608 48.9727 17.9933 46.6989 16.9193ZM22.11 23.7333C20.5512 23.0893 18.8719 22.7885 17.1864 22.8514C17.9663 22.3666 18.895 22.1795 19.8018 22.3245C20.7006 22.5387 21.5086 23.0319 22.11 23.7333ZM19.6595 19.2312C20.7179 19.2865 21.7368 19.6514 22.5897 20.2807C18.9501 19.9104 16.8288 21.0871 15.7041 22.1098C15.9517 19.9428 17.4633 19.0958 19.6595 19.2312ZM7.25435 22.6863C7.40034 22.1118 7.69281 21.5849 8.1032 21.1572C8.5136 20.7294 9.0279 20.4154 9.59589 20.2457C9.81816 20.1913 10.0462 20.1638 10.275 20.1639C10.8953 20.2055 11.4985 20.3844 12.0412 20.6875C12.5839 20.9907 13.0524 21.4106 13.413 21.917L13.38 21.9028C13.3649 21.8963 13.3495 21.8906 13.3337 21.8858C12.346 21.4414 11.2541 21.2809 10.1803 21.4223C9.10653 21.5637 8.09335 22.0014 7.25435 22.6863ZM11.2288 29.4943C10.987 28.6017 11.0339 27.6554 11.3628 26.791C11.7529 25.958 12.4309 25.2941 13.2719 24.9217C12.2705 26.2815 11.5737 27.8411 11.2288 29.4943ZM8.35521 28.3512C8.23212 26.9015 8.67484 25.4604 9.59061 24.3299C10.6963 22.9662 12.1453 22.4237 13.6588 23.3179C12.1995 23.706 9.97788 24.8768 8.35521 28.3512ZM32.7496 19.0933C31.6227 19.0926 30.4998 19.2264 29.4046 19.4917C30.4336 18.5474 31.7621 17.9953 33.1574 17.9322C33.8367 17.9681 34.5022 18.1378 35.1157 18.4315C35.7293 18.7253 36.2788 19.1373 36.7327 19.644C35.4362 19.28 34.0961 19.0947 32.7496 19.0933ZM38.3323 19.2056L38.329 19.2257C37.2898 17.6424 34.9183 15.3592 29.7824 14.9793C31.1007 14.2369 32.6299 13.9581 34.1253 14.1875C37.1484 14.6086 38.7154 16.2151 38.3323 19.2056ZM41.7016 29.5836C41.7962 27.1041 41.2539 24.6417 40.1263 22.4314C40.7109 22.7777 41.2215 23.2359 41.6288 23.7798C42.0361 24.3237 42.3322 24.9426 42.5 25.601C42.7048 26.981 42.4223 28.3891 41.7016 29.5836ZM45.2674 23.0023C45.7316 23.8848 46.0028 24.8559 46.0631 25.8512C46.1235 26.8465 45.9715 27.8433 45.6173 28.7754C44.4987 23.5502 41.7625 21.5527 40.0573 20.8006C42.4549 19.8616 44.1745 20.9014 45.2674 23.0023ZM40.545 19.4398C42.3921 17.7172 44.5136 17.144 46.2137 17.9466C47.6364 18.6186 48.4832 20.1356 48.5855 22.0737C47.6893 20.8488 46.4314 19.9358 44.989 19.4633C43.5467 18.9909 41.9922 18.9825 40.545 19.4398Z" fill="#C092FB"/>
<path d="M6.12491 15.111C6.79917 15.111 7.45828 14.9111 8.0189 14.5365C8.57952 14.1619 9.01647 13.6295 9.2745 13.0065C9.53253 12.3836 9.60004 11.6981 9.4685 11.0368C9.33696 10.3755 9.01227 9.7681 8.5355 9.29133C8.05873 8.81456 7.45129 8.48988 6.78999 8.35834C6.12869 8.2268 5.44324 8.29431 4.82031 8.55233C4.19738 8.81036 3.66495 9.24731 3.29036 9.80793C2.91576 10.3686 2.71582 11.0277 2.71582 11.7019C2.71681 12.6058 3.0763 13.4723 3.71542 14.1114C4.35453 14.7505 5.22107 15.11 6.12491 15.111ZM6.12491 9.4292C6.57441 9.4292 7.01382 9.56249 7.38757 9.81222C7.76132 10.062 8.05262 10.4169 8.22464 10.8322C8.39666 11.2475 8.44166 11.7044 8.35397 12.1453C8.26627 12.5862 8.04982 12.9911 7.73197 13.309C7.41412 13.6268 7.00916 13.8433 6.5683 13.931C6.12743 14.0187 5.67046 13.9737 5.25518 13.8016C4.83989 13.6296 4.48494 13.3383 4.23521 12.9646C3.98548 12.5908 3.85218 12.1514 3.85218 11.7019C3.85288 11.0994 4.09255 10.5217 4.51861 10.0956C4.94468 9.66956 5.52236 9.42989 6.12491 9.4292Z" fill="#C092FB"/>
<path d="M6.12482 7.75988C6.27551 7.75988 6.42003 7.70002 6.52659 7.59347C6.63314 7.48691 6.693 7.34239 6.693 7.1917V6.41045C6.693 6.25976 6.63314 6.11524 6.52659 6.00869C6.42003 5.90213 6.27551 5.84227 6.12482 5.84227C5.97413 5.84227 5.82961 5.90213 5.72306 6.00869C5.6165 6.11524 5.55664 6.25976 5.55664 6.41045V7.1917C5.55664 7.34239 5.6165 7.48691 5.72306 7.59347C5.82961 7.70002 5.97413 7.75988 6.12482 7.75988Z" fill="#C092FB"/>
<path d="M2.53406 8.91477C2.6406 9.02139 2.78513 9.08131 2.93585 9.08136C3.08657 9.08142 3.23114 9.02159 3.33776 8.91506C3.44437 8.80852 3.5043 8.66399 3.50435 8.51327C3.5044 8.36255 3.44458 8.21798 3.33804 8.11136L2.78566 7.55869C2.73291 7.5059 2.67029 7.46402 2.60136 7.43543C2.53243 7.40684 2.45855 7.39211 2.38393 7.39207C2.30931 7.39204 2.23541 7.4067 2.16645 7.43523C2.0975 7.46375 2.03484 7.50558 1.98205 7.55832C1.87543 7.66484 1.8155 7.80934 1.81543 7.96005C1.81536 8.11076 1.87516 8.25532 1.98168 8.36193L2.53406 8.91477Z" fill="#C092FB"/>
<path d="M1.61506 12.2701C1.76575 12.2701 1.91027 12.2102 2.01682 12.1037C2.12338 11.9971 2.18324 11.8526 2.18324 11.7019C2.18324 11.5512 2.12338 11.4067 2.01682 11.3002C1.91027 11.1936 1.76575 11.1337 1.61506 11.1337H0.833807C0.683116 11.1337 0.538596 11.1936 0.432042 11.3002C0.325487 11.4067 0.265625 11.5512 0.265625 11.7019C0.265625 11.8526 0.325487 11.9971 0.432042 12.1037C0.538596 12.2102 0.683116 12.2701 0.833807 12.2701H1.61506Z" fill="#C092FB"/>
<path d="M2.78529 15.8451L3.33768 15.2927C3.39043 15.24 3.43227 15.1773 3.46082 15.1084C3.48936 15.0394 3.50404 14.9655 3.50403 14.8909C3.50402 14.8163 3.48931 14.7424 3.46074 14.6735C3.43217 14.6046 3.39031 14.5419 3.33754 14.4892C3.28477 14.4364 3.22212 14.3946 3.15318 14.366C3.08424 14.3375 3.01035 14.3228 2.93573 14.3228C2.86111 14.3228 2.78723 14.3376 2.7183 14.3661C2.64937 14.3947 2.58674 14.4366 2.53399 14.4893L1.98166 15.0417C1.87777 15.1487 1.82018 15.2924 1.82131 15.4416C1.82243 15.5908 1.8822 15.7335 1.98769 15.839C2.09318 15.9445 2.23594 16.0043 2.38513 16.0054C2.53432 16.0066 2.6782 15.949 2.78529 15.8451Z" fill="#C092FB"/>
<path d="M6.693 16.9934V16.2122C6.693 16.0615 6.63314 15.917 6.52659 15.8104C6.42003 15.7038 6.27551 15.644 6.12482 15.644C5.97413 15.644 5.82961 15.7038 5.72306 15.8104C5.6165 15.917 5.55664 16.0615 5.55664 16.2122V16.9934C5.55664 17.1441 5.6165 17.2886 5.72306 17.3952C5.82961 17.5017 5.97413 17.5616 6.12482 17.5616C6.27551 17.5616 6.42003 17.5017 6.52659 17.3952C6.63314 17.2886 6.693 17.1441 6.693 16.9934Z" fill="#C092FB"/>
<path d="M8.91229 14.4893C8.80582 14.596 8.74604 14.7405 8.74609 14.8912C8.74615 15.0419 8.80602 15.1864 8.91257 15.293L9.46524 15.8454C9.57185 15.9519 9.71643 16.0118 9.86715 16.0117C10.0179 16.0117 10.1624 15.9518 10.269 15.8451C10.3755 15.7385 10.4353 15.594 10.4353 15.4432C10.4352 15.2925 10.3753 15.148 10.2687 15.0414L9.71598 14.489C9.6093 14.3826 9.46475 14.3229 9.31407 14.3229C9.16339 14.323 9.01889 14.3828 8.91229 14.4893Z" fill="#C092FB"/>
<path d="M10.0669 11.7019C10.0669 11.8526 10.1268 11.9971 10.2333 12.1037C10.3399 12.2102 10.4844 12.2701 10.6351 12.2701H11.4163C11.567 12.2701 11.7115 12.2102 11.8181 12.1037C11.9246 11.9971 11.9845 11.8526 11.9845 11.7019C11.9845 11.5512 11.9246 11.4067 11.8181 11.3002C11.7115 11.1936 11.567 11.1337 11.4163 11.1337H10.6351C10.4844 11.1337 10.3399 11.1936 10.2333 11.3002C10.1268 11.4067 10.0669 11.5512 10.0669 11.7019Z" fill="#C092FB"/>
<path d="M9.71576 8.91478L10.2684 8.36216C10.3728 8.25516 10.4307 8.11136 10.4298 7.96192C10.4288 7.81248 10.369 7.66943 10.2634 7.56376C10.1577 7.45808 10.0146 7.3983 9.8652 7.39735C9.71576 7.3964 9.57197 7.45437 9.46496 7.5587L8.91229 8.11137C8.80842 8.21846 8.75083 8.36211 8.75197 8.5113C8.75311 8.66049 8.81288 8.80325 8.91838 8.90874C9.02388 9.01423 9.16664 9.074 9.31583 9.07513C9.46502 9.07626 9.60867 9.01866 9.71576 8.91478Z" fill="#C092FB"/>
<path d="M48.8635 53.0214C47.5373 53.045 46.2431 52.6131 45.197 51.7976C43.9532 50.88 42.4481 50.3849 40.9024 50.3849C39.3568 50.3849 37.8517 50.88 36.6079 51.7976C35.5499 52.5919 34.2626 53.0214 32.9396 53.0214C31.6165 53.0214 30.3293 52.5919 29.2712 51.7976C28.027 50.88 26.5216 50.3849 24.9756 50.3849C23.4296 50.3849 21.9242 50.88 20.68 51.7976C19.6334 52.6131 18.3389 53.0451 17.0123 53.0214C15.6849 53.045 14.3895 52.6131 13.3418 51.7976C12.1081 50.8583 10.5946 50.3608 9.04418 50.3849C7.4938 50.3608 5.98028 50.8582 4.74645 51.7973C3.69894 52.6131 2.40346 53.0451 1.07599 53.0214C0.925303 53.0214 0.780784 53.0812 0.674229 53.1878C0.567674 53.2943 0.507813 53.4389 0.507812 53.5895C0.507813 53.7402 0.567674 53.8848 0.674229 53.9913C0.780784 54.0979 0.925303 54.1577 1.07599 54.1577C2.62639 54.1818 4.13992 53.6843 5.37366 52.7451C6.42122 51.9294 7.71669 51.4975 9.04412 51.5212C10.3715 51.4976 11.667 51.9295 12.7146 52.7451C13.9483 53.6843 15.4619 54.1818 17.0123 54.1577C18.562 54.1817 20.0748 53.6842 21.3078 52.7451C22.3657 51.9507 23.653 51.5213 24.976 51.5213C26.299 51.5213 27.5862 51.9507 28.6442 52.7451C29.8885 53.6627 31.3939 54.1577 32.9399 54.1577C34.486 54.1577 35.9914 53.6627 37.2357 52.7451C38.2932 51.9507 39.5801 51.5213 40.9027 51.5213C42.2253 51.5213 43.5121 51.9507 44.5696 52.7451C45.802 53.6841 47.3143 54.1817 48.8635 54.1577C49.0142 54.1577 49.1587 54.0979 49.2653 53.9913C49.3718 53.8848 49.4317 53.7402 49.4317 53.5895C49.4317 53.4389 49.3718 53.2943 49.2653 53.1878C49.1587 53.0812 49.0142 53.0214 48.8635 53.0214Z" fill="#C092FB"/>
</g>
<g opacity="0.6">
<path d="M271.892 20.4983C272.794 20.4983 273.676 20.2308 274.426 19.7297C275.176 19.2285 275.76 18.5162 276.106 17.6829C276.451 16.8495 276.541 15.9324 276.365 15.0477C276.189 14.163 275.755 13.3504 275.117 12.7125C274.479 12.0747 273.666 11.6403 272.782 11.4643C271.897 11.2883 270.98 11.3787 270.147 11.7239C269.313 12.069 268.601 12.6536 268.1 13.4036C267.599 14.1537 267.331 15.0355 267.331 15.9375C267.332 17.1467 267.813 18.306 268.668 19.161C269.523 20.016 270.683 20.497 271.892 20.4983ZM271.892 13.2517C272.423 13.2517 272.942 13.4092 273.384 13.7043C273.826 13.9994 274.17 14.4189 274.373 14.9097C274.577 15.4005 274.63 15.9405 274.526 16.4615C274.422 16.9825 274.167 17.461 273.791 17.8367C273.415 18.2123 272.937 18.4681 272.416 18.5717C271.895 18.6753 271.355 18.6222 270.864 18.4189C270.373 18.2156 269.954 17.8713 269.659 17.4297C269.364 16.988 269.206 16.4687 269.206 15.9375C269.207 15.2254 269.49 14.5427 269.994 14.0392C270.497 13.5357 271.18 13.2525 271.892 13.2517Z" fill="#C092FB"/>
<path d="M271.892 9.62836C272.14 9.62836 272.379 9.52959 272.555 9.35377C272.73 9.17796 272.829 8.9395 272.829 8.69086V7.48312C272.829 7.23448 272.73 6.99603 272.555 6.82021C272.379 6.6444 272.14 6.54562 271.892 6.54562C271.643 6.54562 271.405 6.6444 271.229 6.82021C271.053 6.99603 270.954 7.23448 270.954 7.48312V8.69086C270.954 8.9395 271.053 9.17796 271.229 9.35377C271.405 9.52959 271.643 9.62836 271.892 9.62836Z" fill="#C092FB"/>
<path d="M270.954 23.1841V24.392C270.954 24.6406 271.053 24.8791 271.229 25.0549C271.405 25.2307 271.643 25.3295 271.892 25.3295C272.14 25.3295 272.379 25.2307 272.555 25.0549C272.73 24.8791 272.829 24.6406 272.829 24.392V23.1841C272.829 22.9355 272.73 22.697 272.555 22.5212C272.379 22.3454 272.14 22.2466 271.892 22.2466C271.643 22.2466 271.405 22.3454 271.229 22.5212C271.053 22.697 270.954 22.9355 270.954 23.1841Z" fill="#C092FB"/>
<path d="M278.05 15.9375C278.05 16.1861 278.149 16.4246 278.324 16.6004C278.5 16.7762 278.739 16.875 278.987 16.875H280.195C280.444 16.875 280.682 16.7762 280.858 16.6004C281.034 16.4246 281.133 16.1861 281.133 15.9375C281.133 15.6889 281.034 15.4504 280.858 15.2746C280.682 15.0988 280.444 15 280.195 15H278.987C278.739 15 278.5 15.0988 278.324 15.2746C278.149 15.4504 278.05 15.6889 278.05 15.9375Z" fill="#C092FB"/>
<path d="M263.438 16.875H264.645C264.894 16.875 265.132 16.7762 265.308 16.6004C265.484 16.4246 265.583 16.1861 265.583 15.9375C265.583 15.6889 265.484 15.4504 265.308 15.2746C265.132 15.0988 264.894 15 264.645 15H263.438C263.189 15 262.95 15.0988 262.775 15.2746C262.599 15.4504 262.5 15.6889 262.5 15.9375C262.5 16.1861 262.599 16.4246 262.775 16.6004C262.95 16.7762 263.189 16.875 263.438 16.875Z" fill="#C092FB"/>
<path d="M276.964 11.8026C277.087 11.8028 277.209 11.7787 277.323 11.7315C277.437 11.6844 277.54 11.6153 277.627 11.5281L278.481 10.674C278.657 10.4982 278.756 10.2597 278.756 10.0111C278.756 9.76244 278.657 9.52398 278.481 9.34816C278.305 9.17234 278.067 9.07356 277.818 9.07356C277.57 9.07356 277.331 9.17234 277.155 9.34816L276.301 10.2023C276.17 10.3335 276.081 10.5005 276.045 10.6823C276.009 10.8642 276.027 11.0527 276.098 11.2239C276.169 11.3952 276.289 11.5416 276.443 11.6446C276.598 11.7476 276.779 11.8026 276.964 11.8026Z" fill="#C092FB"/>
<path d="M266.156 20.3469L265.302 21.2009C265.126 21.3767 265.027 21.6151 265.027 21.8638C265.027 22.1124 265.126 22.3509 265.302 22.5267C265.478 22.7025 265.716 22.8013 265.965 22.8014C266.213 22.8014 266.452 22.7026 266.628 22.5268L267.482 21.6728C267.57 21.5859 267.64 21.4825 267.687 21.3686C267.735 21.2546 267.76 21.1323 267.76 21.0087C267.761 20.8851 267.737 20.7627 267.69 20.6484C267.643 20.5341 267.573 20.4303 267.486 20.3429C267.399 20.2555 267.295 20.1863 267.18 20.1391C267.066 20.092 266.944 20.0679 266.82 20.0683C266.697 20.0687 266.574 20.0935 266.46 20.1413C266.346 20.1891 266.243 20.259 266.156 20.3469Z" fill="#C092FB"/>
<path d="M276.301 20.347C276.126 20.5228 276.027 20.7613 276.027 21.0099C276.027 21.2585 276.126 21.497 276.301 21.6728L277.155 22.5268C277.243 22.6139 277.346 22.683 277.46 22.7301C277.573 22.7772 277.695 22.8014 277.818 22.8014C277.942 22.8014 278.063 22.7772 278.177 22.73C278.291 22.6829 278.394 22.6138 278.481 22.5268C278.568 22.4397 278.637 22.3364 278.685 22.2226C278.732 22.1089 278.756 21.9869 278.756 21.8638C278.756 21.7407 278.732 21.6188 278.685 21.505C278.637 21.3913 278.568 21.2879 278.481 21.2009L277.627 20.3469C277.54 20.2599 277.437 20.1908 277.323 20.1437C277.209 20.0966 277.087 20.0724 276.964 20.0724C276.841 20.0724 276.719 20.0966 276.606 20.1438C276.492 20.1909 276.388 20.26 276.301 20.347Z" fill="#C092FB"/>
<path d="M266.156 11.5281C266.243 11.6152 266.346 11.6843 266.46 11.7314C266.574 11.7785 266.696 11.8028 266.819 11.8029C266.942 11.8029 267.064 11.7787 267.178 11.7316C267.292 11.6845 267.395 11.6154 267.482 11.5284C267.569 11.4413 267.638 11.338 267.685 11.2242C267.733 11.1105 267.757 10.9885 267.757 10.8654C267.757 10.7423 267.733 10.6203 267.686 10.5066C267.638 10.3928 267.569 10.2894 267.482 10.2023L266.628 9.34816C266.452 9.17234 266.214 9.07356 265.965 9.07356C265.717 9.07356 265.478 9.17234 265.302 9.34816C265.127 9.52398 265.028 9.76244 265.028 10.0111C265.028 10.2597 265.127 10.4982 265.302 10.674L266.156 11.5281Z" fill="#C092FB"/>
<path d="M313.853 51.9094L291.296 24.1477C290.989 23.769 290.601 23.4638 290.16 23.2542C289.72 23.0445 289.238 22.9357 288.75 22.9357C288.262 22.9357 287.78 23.0445 287.34 23.2542C286.899 23.4638 286.511 23.769 286.203 24.1477L274.694 38.3109L273.484 36.8215C273.176 36.4429 272.788 36.1376 272.348 35.928C271.907 35.7183 271.425 35.6095 270.937 35.6095C270.45 35.6095 269.968 35.7183 269.527 35.928C269.087 36.1376 268.699 36.4429 268.391 36.8215L256.147 51.8906C256.036 52.0283 255.965 52.1947 255.945 52.3706C255.924 52.5465 255.953 52.7247 256.029 52.8847C256.105 53.0446 256.225 53.1798 256.375 53.2745C256.524 53.3692 256.698 53.4196 256.875 53.4199L313.125 53.4375C313.302 53.4374 313.476 53.3872 313.625 53.2926C313.775 53.1981 313.895 53.063 313.971 52.9031C314.047 52.7432 314.077 52.565 314.056 52.3891C314.035 52.2133 313.964 52.0469 313.853 51.9094ZM287.659 25.3301C287.791 25.1679 287.957 25.0372 288.146 24.9474C288.335 24.8577 288.541 24.8111 288.75 24.8111C288.959 24.8111 289.165 24.8577 289.354 24.9474C289.543 25.0372 289.709 25.1679 289.841 25.3301L296.266 33.2379L294.308 34.5434L291.044 32.9109C290.822 32.8005 290.564 32.7824 290.328 32.8606L285.17 34.5797L282.046 32.2371L287.659 25.3301ZM269.846 38.0039C269.978 37.8418 270.145 37.7111 270.333 37.6213C270.522 37.5315 270.728 37.4849 270.937 37.4849C271.146 37.4849 271.353 37.5315 271.542 37.6213C271.73 37.7111 271.897 37.8418 272.028 38.0039L273.968 40.3898C273.968 40.391 273.969 40.3922 273.969 40.3934L276.543 43.5598L274.915 43.1531C274.742 43.1098 274.56 43.1167 274.391 43.1731L271.78 44.0438L265.57 43.2668L269.846 38.0039ZM258.845 51.5449L264.179 44.9789C264.205 44.9848 264.232 44.9895 264.259 44.993L271.759 45.9305C271.898 45.9474 272.039 45.9334 272.171 45.8895L274.725 45.0387L278.21 45.9094C278.285 45.928 278.362 45.9374 278.439 45.9375C278.45 45.9375 278.462 45.9363 278.474 45.9363L283.03 51.5449H258.845ZM285.461 51.5625L275.903 39.798L280.862 33.6938L284.437 36.375C284.6 36.4967 284.797 36.5625 285 36.5625C285.101 36.5628 285.201 36.5465 285.296 36.5145L290.553 34.7625L293.955 36.4641C294.103 36.5378 294.268 36.5712 294.433 36.5609C294.598 36.5506 294.758 36.497 294.895 36.4055L297.453 34.6992L311.155 51.5625H285.461Z" fill="#C092FB"/>
<path d="M292.5 16.875H304.688C304.936 16.875 305.175 16.9738 305.35 17.1496C305.526 17.3254 305.625 17.5639 305.625 17.8125C305.625 18.0611 305.526 18.2996 305.35 18.4754C305.175 18.6512 304.936 18.75 304.688 18.75H298.125C297.379 18.75 296.664 19.0463 296.136 19.5738C295.609 20.1012 295.312 20.8166 295.312 21.5625C295.312 22.3084 295.609 23.0238 296.136 23.5512C296.664 24.0787 297.379 24.375 298.125 24.375H300.938C301.186 24.3753 301.424 24.4741 301.6 24.6499C301.776 24.8257 301.875 25.0639 301.875 25.3125V26.25C301.875 26.4986 301.974 26.7371 302.15 26.9129C302.325 27.0887 302.564 27.1875 302.812 27.1875C303.061 27.1875 303.3 27.0887 303.475 26.9129C303.651 26.7371 303.75 26.4986 303.75 26.25V25.3125C303.749 24.5668 303.453 23.852 302.925 23.3247C302.398 22.7974 301.683 22.5008 300.938 22.5H298.125C297.876 22.5 297.638 22.4012 297.462 22.2254C297.286 22.0496 297.188 21.8111 297.188 21.5625C297.188 21.3139 297.286 21.0754 297.462 20.8996C297.638 20.7238 297.876 20.625 298.125 20.625H304.688C305.433 20.625 306.149 20.3287 306.676 19.8012C307.204 19.2738 307.5 18.5584 307.5 17.8125C307.5 17.0666 307.204 16.3512 306.676 15.8238C306.149 15.2963 305.433 15 304.688 15H292.5C292.251 15 292.013 15.0988 291.837 15.2746C291.661 15.4504 291.562 15.6889 291.562 15.9375C291.562 16.1861 291.661 16.4246 291.837 16.6004C292.013 16.7762 292.251 16.875 292.5 16.875Z" fill="#C092FB"/>
</g>
<defs>
<clipPath id="clip0_112_55">
<rect width="50" height="50" fill="white" transform="translate(0 5)"/>
</clipPath>
</defs>
</svg>
