<svg width="725" height="60" viewBox="0 0 725 60" fill="none" xmlns="http://www.w3.org/2000/svg">
<g opacity="0.6">
<path d="M681.892 20.4984C682.794 20.4984 683.676 20.2309 684.426 19.7297C685.176 19.2286 685.76 18.5163 686.106 17.6829C686.451 16.8495 686.541 15.9325 686.365 15.0478C686.189 14.163 685.755 13.3504 685.117 12.7125C684.479 12.0747 683.666 11.6403 682.782 11.4643C681.897 11.2884 680.98 11.3787 680.147 11.7239C679.313 12.0691 678.601 12.6537 678.1 13.4037C677.599 14.1537 677.331 15.0355 677.331 15.9375C677.332 17.1467 677.813 18.306 678.668 19.161C679.523 20.016 680.683 20.497 681.892 20.4984ZM681.892 13.2517C682.423 13.2517 682.942 13.4092 683.384 13.7044C683.826 13.9995 684.17 14.4189 684.373 14.9097C684.577 15.4005 684.63 15.9405 684.526 16.4615C684.422 16.9825 684.167 17.4611 683.791 17.8367C683.415 18.2123 682.937 18.4681 682.416 18.5717C681.895 18.6754 681.355 18.6222 680.864 18.4189C680.373 18.2156 679.954 17.8714 679.659 17.4297C679.364 16.988 679.206 16.4687 679.206 15.9375C679.207 15.2254 679.49 14.5427 679.994 14.0392C680.497 13.5357 681.18 13.2525 681.892 13.2517Z" fill="#C092FB"/>
<path d="M681.892 9.62839C682.14 9.62839 682.379 9.52962 682.555 9.3538C682.731 9.17799 682.829 8.93953 682.829 8.69089V7.48315C682.829 7.23451 682.731 6.99606 682.555 6.82024C682.379 6.64443 682.14 6.54565 681.892 6.54565C681.643 6.54565 681.405 6.64443 681.229 6.82024C681.053 6.99606 680.954 7.23451 680.954 7.48315V8.69089C680.954 8.93953 681.053 9.17799 681.229 9.3538C681.405 9.52962 681.643 9.62839 681.892 9.62839Z" fill="#C092FB"/>
<path d="M680.954 23.1841V24.392C680.954 24.6406 681.053 24.8791 681.229 25.0549C681.405 25.2307 681.643 25.3295 681.892 25.3295C682.14 25.3295 682.379 25.2307 682.555 25.0549C682.731 24.8791 682.829 24.6406 682.829 24.392V23.1841C682.829 22.9355 682.731 22.697 682.555 22.5212C682.379 22.3454 682.14 22.2466 681.892 22.2466C681.643 22.2466 681.405 22.3454 681.229 22.5212C681.053 22.697 680.954 22.9355 680.954 23.1841Z" fill="#C092FB"/>
<path d="M688.05 15.9375C688.05 16.1861 688.149 16.4246 688.325 16.6004C688.5 16.7762 688.739 16.875 688.988 16.875H690.195C690.444 16.875 690.682 16.7762 690.858 16.6004C691.034 16.4246 691.133 16.1861 691.133 15.9375C691.133 15.6889 691.034 15.4504 690.858 15.2746C690.682 15.0988 690.444 15 690.195 15H688.988C688.739 15 688.5 15.0988 688.325 15.2746C688.149 15.4504 688.05 15.6889 688.05 15.9375Z" fill="#C092FB"/>
<path d="M673.438 16.875H674.645C674.894 16.875 675.132 16.7762 675.308 16.6004C675.484 16.4246 675.583 16.1861 675.583 15.9375C675.583 15.6889 675.484 15.4504 675.308 15.2746C675.132 15.0988 674.894 15 674.645 15H673.438C673.189 15 672.95 15.0988 672.775 15.2746C672.599 15.4504 672.5 15.6889 672.5 15.9375C672.5 16.1861 672.599 16.4246 672.775 16.6004C672.95 16.7762 673.189 16.875 673.438 16.875Z" fill="#C092FB"/>
<path d="M686.964 11.8027C687.087 11.8029 687.209 11.7787 687.323 11.7316C687.437 11.6845 687.54 11.6153 687.627 11.5281L688.481 10.6741C688.657 10.4982 688.756 10.2598 688.756 10.0111C688.756 9.76249 688.657 9.52402 688.481 9.3482C688.305 9.17238 688.067 9.07361 687.818 9.07361C687.57 9.07361 687.331 9.17238 687.155 9.3482L686.301 10.2024C686.17 10.3335 686.081 10.5005 686.045 10.6824C686.009 10.8642 686.027 11.0527 686.098 11.224C686.169 11.3953 686.289 11.5417 686.443 11.6447C686.598 11.7477 686.779 11.8027 686.964 11.8027Z" fill="#C092FB"/>
<path d="M676.156 20.347L675.302 21.2009C675.126 21.3767 675.028 21.6152 675.028 21.8638C675.028 22.1125 675.126 22.3509 675.302 22.5268C675.478 22.7026 675.716 22.8014 675.965 22.8014C676.214 22.8014 676.452 22.7027 676.628 22.5269L677.482 21.6728C677.57 21.586 677.64 21.4826 677.688 21.3686C677.736 21.2546 677.76 21.1323 677.761 21.0087C677.761 20.8852 677.737 20.7627 677.69 20.6484C677.643 20.5342 677.574 20.4304 677.486 20.343C677.399 20.2556 677.295 20.1863 677.181 20.1392C677.066 20.0921 676.944 20.068 676.82 20.0684C676.697 20.0687 676.575 20.0935 676.461 20.1413C676.347 20.1892 676.243 20.259 676.156 20.347Z" fill="#C092FB"/>
<path d="M686.301 20.3471C686.125 20.5229 686.027 20.7613 686.027 21.0099C686.027 21.2585 686.125 21.497 686.301 21.6728L687.155 22.5269C687.242 22.6139 687.346 22.683 687.459 22.7301C687.573 22.7772 687.695 22.8014 687.818 22.8014C687.941 22.8014 688.063 22.7772 688.177 22.73C688.291 22.6829 688.394 22.6139 688.481 22.5268C688.568 22.4397 688.637 22.3364 688.684 22.2226C688.731 22.1089 688.756 21.9869 688.756 21.8638C688.756 21.7407 688.731 21.6188 688.684 21.505C688.637 21.3913 688.568 21.2879 688.481 21.2009L687.627 20.3469C687.54 20.2599 687.437 20.1908 687.323 20.1437C687.209 20.0966 687.087 20.0724 686.964 20.0724C686.841 20.0724 686.719 20.0967 686.605 20.1438C686.492 20.1909 686.388 20.26 686.301 20.3471Z" fill="#C092FB"/>
<path d="M676.156 11.5281C676.243 11.6152 676.347 11.6843 676.46 11.7314C676.574 11.7786 676.696 11.8029 676.819 11.8029C676.942 11.8029 677.064 11.7787 677.178 11.7316C677.292 11.6845 677.395 11.6155 677.482 11.5284C677.569 11.4414 677.638 11.338 677.686 11.2243C677.733 11.1105 677.757 10.9886 677.757 10.8655C677.757 10.7423 677.733 10.6204 677.686 10.5066C677.639 10.3929 677.57 10.2895 677.483 10.2024L676.629 9.3482C676.453 9.17238 676.214 9.07361 675.966 9.07361C675.717 9.07361 675.478 9.17238 675.303 9.3482C675.127 9.52402 675.028 9.76249 675.028 10.0111C675.028 10.2598 675.127 10.4982 675.303 10.6741L676.156 11.5281Z" fill="#C092FB"/>
<path d="M723.853 51.9094L701.296 24.1477C700.989 23.7691 700.601 23.4638 700.16 23.2542C699.72 23.0445 699.238 22.9357 698.75 22.9357C698.262 22.9357 697.78 23.0445 697.34 23.2542C696.899 23.4638 696.511 23.7691 696.203 24.1477L684.694 38.311L683.484 36.8215C683.176 36.4429 682.788 36.1376 682.348 35.928C681.907 35.7183 681.425 35.6096 680.937 35.6096C680.45 35.6096 679.968 35.7183 679.527 35.928C679.087 36.1376 678.699 36.4429 678.391 36.8215L666.147 51.8906C666.036 52.0283 665.965 52.1947 665.945 52.3706C665.924 52.5465 665.953 52.7247 666.029 52.8847C666.105 53.0446 666.225 53.1798 666.375 53.2745C666.524 53.3692 666.698 53.4196 666.875 53.4199L723.125 53.4375C723.302 53.4375 723.476 53.3872 723.625 53.2927C723.775 53.1981 723.895 53.063 723.971 52.9031C724.047 52.7432 724.077 52.565 724.056 52.3891C724.035 52.2133 723.964 52.0469 723.853 51.9094ZM697.659 25.3301C697.791 25.168 697.957 25.0372 698.146 24.9475C698.335 24.8577 698.541 24.8111 698.75 24.8111C698.959 24.8111 699.165 24.8577 699.354 24.9475C699.543 25.0372 699.709 25.168 699.841 25.3301L706.266 33.2379L704.308 34.5434L701.044 32.911C700.822 32.8005 700.564 32.7824 700.328 32.8606L695.17 34.5797L692.046 32.2371L697.659 25.3301ZM679.846 38.0039C679.978 37.8418 680.145 37.7111 680.333 37.6213C680.522 37.5315 680.728 37.4849 680.937 37.4849C681.146 37.4849 681.353 37.5315 681.542 37.6213C681.73 37.7111 681.897 37.8418 682.028 38.0039L683.968 40.3899C683.968 40.391 683.969 40.3922 683.969 40.3934L686.543 43.5598L684.915 43.1531C684.742 43.1098 684.56 43.1168 684.391 43.1731L681.78 44.0438L675.57 43.2668L679.846 38.0039ZM668.845 51.5449L674.179 44.9789C674.205 44.9848 674.232 44.9895 674.259 44.993L681.759 45.9305C681.898 45.9474 682.039 45.9334 682.171 45.8895L684.725 45.0387L688.21 45.9094C688.285 45.928 688.362 45.9374 688.439 45.9375C688.45 45.9375 688.462 45.9363 688.474 45.9363L693.03 51.5449H668.845ZM695.461 51.5625L685.903 39.7981L690.862 33.6938L694.437 36.375C694.6 36.4967 694.797 36.5625 695 36.5625C695.101 36.5628 695.201 36.5466 695.296 36.5145L700.553 34.7625L703.955 36.4641C704.103 36.5378 704.268 36.5712 704.433 36.5609C704.598 36.5506 704.758 36.497 704.895 36.4055L707.453 34.6992L721.155 51.5625H695.461Z" fill="#C092FB"/>
<path d="M702.5 16.875H714.688C714.936 16.875 715.175 16.9738 715.35 17.1496C715.526 17.3254 715.625 17.5639 715.625 17.8125C715.625 18.0611 715.526 18.2996 715.35 18.4754C715.175 18.6512 714.936 18.75 714.688 18.75H708.125C707.379 18.75 706.664 19.0463 706.136 19.5738C705.609 20.1012 705.312 20.8166 705.312 21.5625C705.312 22.3084 705.609 23.0238 706.136 23.5512C706.664 24.0787 707.379 24.375 708.125 24.375H710.938C711.186 24.3753 711.424 24.4741 711.6 24.6499C711.776 24.8257 711.875 25.0639 711.875 25.3125V26.25C711.875 26.4986 711.974 26.7371 712.15 26.9129C712.325 27.0887 712.564 27.1875 712.812 27.1875C713.061 27.1875 713.3 27.0887 713.475 26.9129C713.651 26.7371 713.75 26.4986 713.75 26.25V25.3125C713.749 24.5668 713.453 23.852 712.925 23.3247C712.398 22.7974 711.683 22.5008 710.938 22.5H708.125C707.876 22.5 707.638 22.4012 707.462 22.2254C707.286 22.0496 707.188 21.8111 707.188 21.5625C707.188 21.3139 707.286 21.0754 707.462 20.8996C707.638 20.7238 707.876 20.625 708.125 20.625H714.688C715.433 20.625 716.149 20.3287 716.676 19.8012C717.204 19.2738 717.5 18.5584 717.5 17.8125C717.5 17.0666 717.204 16.3512 716.676 15.8238C716.149 15.2963 715.433 15 714.688 15H702.5C702.251 15 702.013 15.0988 701.837 15.2746C701.661 15.4504 701.562 15.6889 701.562 15.9375C701.562 16.1861 701.661 16.4246 701.837 16.6004C702.013 16.7762 702.251 16.875 702.5 16.875Z" fill="#C092FB"/>
</g>
<g opacity="0.6" clip-path="url(#clip0_112_54)">
<path d="M0.538086 51.903C0.538086 52.0537 0.597948 52.1982 0.704503 52.3048C0.811057 52.4113 0.955577 52.4712 1.10627 52.4712C3.32405 52.4712 4.46848 51.3728 5.47831 50.4038C6.45735 49.4644 7.30297 48.6529 9.06354 48.6529C10.8241 48.6529 11.6698 49.4644 12.6488 50.4038C13.6587 51.3728 14.803 52.4712 17.0208 52.4712C19.2375 52.4712 20.3814 51.3728 21.3906 50.4035C22.3689 49.4641 23.2137 48.6529 24.9729 48.6529C26.7329 48.6529 27.578 49.4644 28.5568 50.4038C29.566 51.3728 30.7102 52.4712 32.9274 52.4712C35.1446 52.4712 36.2877 51.3728 37.297 50.4038C38.2752 49.4641 39.12 48.6529 40.8792 48.6529C42.6384 48.6529 43.4843 49.4644 44.4628 50.4038C45.4721 51.3728 46.6162 52.4712 48.8332 52.4712C48.9839 52.4712 49.1284 52.4113 49.235 52.3048C49.3415 52.1982 49.4014 52.0537 49.4014 51.903C49.4014 51.7523 49.3415 51.6078 49.235 51.5013C49.1284 51.3947 48.9839 51.3348 48.8332 51.3348C47.0731 51.3348 46.2281 50.5234 45.2496 49.5839C44.2403 48.6149 43.0962 47.5165 40.8792 47.5165C38.6623 47.5165 37.5189 48.6149 36.5099 49.5839C35.5317 50.5236 34.6869 51.3348 32.9277 51.3348C31.1685 51.3348 30.3226 50.5234 29.3438 49.5839C28.3346 48.6149 27.1904 47.5165 24.9731 47.5165C22.7559 47.5165 21.6129 48.6149 20.6038 49.5839C19.6253 50.5234 18.7805 51.3348 17.021 51.3348C15.2602 51.3348 14.4148 50.5234 13.4358 49.5839C12.4259 48.6149 11.2816 47.5165 9.06371 47.5165C6.84587 47.5165 5.70127 48.6149 4.69138 49.5839C3.71235 50.5234 2.86701 51.3348 1.10615 51.3348C0.955483 51.3349 0.810993 51.3947 0.704462 51.5013C0.597932 51.6078 0.538086 51.7523 0.538086 51.903Z" fill="#C092FB"/>
<path d="M46.6989 20.9193C45.0455 20.1385 43.1194 20.3552 41.3146 21.4393C41.635 20.6129 41.7586 19.7233 41.6755 18.8408C41.5925 17.9584 41.3051 17.1074 40.8362 16.3553C40.7525 16.23 40.6224 16.1431 40.4746 16.1137C40.3268 16.0843 40.1734 16.1148 40.048 16.1985C39.9227 16.2822 39.8358 16.4123 39.8064 16.5601C39.777 16.708 39.8076 16.8614 39.8913 16.9867C40.8895 18.481 40.743 20.5526 39.5228 22.6361C39.6578 21.121 39.3107 19.6021 38.5309 18.2962C37.7511 16.9902 36.5786 15.9641 35.1808 15.3643C36.2255 15.1523 37.3096 15.2549 38.2961 15.6589C38.3643 15.6897 38.4379 15.7066 38.5127 15.7089C38.5875 15.7111 38.662 15.6985 38.732 15.6718C38.8019 15.6452 38.8659 15.605 38.9202 15.5535C38.9745 15.5021 39.0182 15.4404 39.0486 15.372C39.0791 15.3036 39.0957 15.2299 39.0975 15.1551C39.0994 15.0803 39.0865 15.0059 39.0595 14.9361C39.0325 14.8663 38.992 14.8025 38.9403 14.7484C38.8886 14.6943 38.8267 14.6509 38.7582 14.6208C37.1938 13.9244 35.2152 13.9688 33.1866 14.7465C33.0763 14.7888 32.9819 14.8645 32.9166 14.963C32.8513 15.0615 32.8184 15.1779 32.8223 15.296C32.8263 15.4141 32.867 15.528 32.9388 15.6219C33.0105 15.7158 33.1097 15.785 33.2227 15.8198C34.5279 16.1799 35.7239 16.8572 36.7041 17.7914C35.9405 17.4214 35.123 17.1754 34.2821 17.0625C33.1213 16.8586 31.9284 16.9382 30.805 17.2944C29.6815 17.6506 28.6608 18.273 27.8296 19.1085C27.755 19.1898 27.7056 19.291 27.6876 19.3998C27.6695 19.5087 27.6836 19.6204 27.728 19.7214C27.7724 19.8224 27.8452 19.9083 27.9376 19.9686C28.03 20.0289 28.1379 20.061 28.2482 20.061H28.2624C29.9488 20.0294 31.6286 20.2797 33.2326 20.8013C33.2108 20.8008 33.1895 20.7961 33.1677 20.7956C33.1513 20.7956 33.1357 20.7956 33.1194 20.7956C29.6109 20.7956 27.0516 24.2677 26.944 24.4164C26.8712 24.5168 26.8332 24.6384 26.8359 24.7624C26.8387 24.8865 26.8819 25.0063 26.9591 25.1034C27.0363 25.2006 27.1432 25.2698 27.2635 25.3005C27.3837 25.3312 27.5107 25.3216 27.625 25.2733C29.8707 24.329 32.3346 24.0269 34.7419 24.4006C27.7444 27.7146 24.8637 35.1708 23.7227 39.7898L23.7136 39.7904C22.712 39.8365 21.7149 39.9518 20.7292 40.1354C20.504 36.1874 19.319 31.2452 15.2406 28.3777C15.2875 28.3314 15.3379 28.2802 15.4062 28.2193C15.7905 28.134 16.1801 28.0743 16.5723 28.0408C19.5569 29.8468 21.5945 32.7723 22.6301 36.7408C22.6682 36.8866 22.7626 37.0114 22.8926 37.0876C23.0226 37.1638 23.1776 37.1853 23.3234 37.1472C23.4693 37.1092 23.594 37.0148 23.6702 36.8847C23.7465 36.7547 23.7679 36.5997 23.7299 36.4539C22.782 32.8214 21.0282 30.0054 18.527 28.0335C20.3363 28.1783 22.0763 28.7935 23.5745 29.8179C23.6769 29.8882 23.7994 29.9229 23.9234 29.9169C24.0474 29.9109 24.166 29.8645 24.2611 29.7847C24.3562 29.7049 24.4226 29.5962 24.45 29.4751C24.4775 29.3541 24.4646 29.2274 24.4132 29.1144C24.3555 28.9874 23.0644 26.2099 20.61 25.3709C21.7338 25.3126 22.8605 25.4036 23.9604 25.6415C24.0685 25.6635 24.1806 25.6536 24.2832 25.613C24.3857 25.5724 24.4742 25.5029 24.5379 25.4128C24.6015 25.3228 24.6376 25.2162 24.6418 25.106C24.6459 24.9958 24.6178 24.8867 24.5611 24.7922C24.0327 23.987 23.3175 23.3214 22.4765 22.8522C21.6354 22.383 20.6934 22.124 19.7307 22.0973C19.277 22.0679 18.8215 22.0843 18.3711 22.1462C19.1261 21.7971 19.9366 21.5836 20.7655 21.5156C20.8831 21.504 20.9942 21.456 21.0833 21.3783C21.1723 21.3006 21.2349 21.1971 21.2624 21.0822C21.2899 20.9673 21.2808 20.8466 21.2365 20.7371C21.1922 20.6275 21.1148 20.5345 21.0152 20.471C19.9162 19.7195 18.6083 19.3335 17.2774 19.3679C17.202 19.3712 17.128 19.3894 17.0598 19.4215C16.9915 19.4536 16.9303 19.499 16.8798 19.555C16.8293 19.611 16.7904 19.6766 16.7655 19.7478C16.7405 19.819 16.73 19.8944 16.7345 19.9697C16.7391 20.045 16.7585 20.1187 16.7918 20.1863C16.8251 20.254 16.8716 20.3144 16.9284 20.364C16.9853 20.4135 17.0515 20.4513 17.1231 20.475C17.1947 20.4987 17.2703 20.5079 17.3455 20.5021C17.878 20.4761 18.4106 20.5492 18.9164 20.7177C17.8605 20.9962 16.9046 21.567 16.1584 22.3644C15.4123 23.1618 14.9062 24.1535 14.6982 25.2256C14.6953 25.2389 14.6903 25.2529 14.6875 25.2661C14.2142 23.4806 14.5843 21.8951 15.7262 21.0616C15.7884 21.0184 15.8413 20.9632 15.8819 20.8993C15.9225 20.8354 15.9499 20.7639 15.9624 20.6893C15.975 20.6146 15.9726 20.5382 15.9552 20.4645C15.9378 20.3908 15.9059 20.3213 15.8613 20.2601C15.8167 20.1989 15.7603 20.1473 15.6954 20.1082C15.6305 20.0691 15.5585 20.0434 15.4836 20.0325C15.4086 20.0217 15.3323 20.0259 15.259 20.045C15.1857 20.0641 15.117 20.0976 15.0569 20.1436C14.4425 20.6237 13.9637 21.2555 13.6675 21.9767C13.3714 22.698 13.2682 23.484 13.368 24.2573C12.8333 23.7605 12.1868 23.3998 11.4831 23.2056C10.7795 23.0115 10.0395 22.9897 9.32566 23.142C7.31788 23.634 5.97623 25.5893 5.82418 28.2449C5.81738 28.3629 5.84756 28.4801 5.91051 28.5802C5.97346 28.6802 6.06606 28.7581 6.17539 28.8031C6.28472 28.848 6.40535 28.8578 6.52048 28.8309C6.6356 28.8041 6.73948 28.742 6.81765 28.6533C7.56169 27.7399 8.54836 27.055 9.66424 26.6773C9.3102 26.9519 8.98912 27.2665 8.70742 27.6148C7.11799 29.5771 6.7393 32.3223 7.78697 34.2904C7.83538 34.3813 7.9076 34.4574 7.9959 34.5104C8.08421 34.5634 8.18527 34.5915 8.28828 34.5915C8.30271 34.5915 8.31668 34.591 8.33129 34.5899C8.44133 34.5816 8.54657 34.5415 8.63417 34.4743C8.72177 34.4072 8.78794 34.3161 8.82458 34.212C9.12301 33.3428 9.50865 32.5061 9.9756 31.7145C9.90609 33.274 10.2877 34.8204 11.0748 36.1685C11.1393 36.2745 11.2367 36.3566 11.3522 36.402C11.4677 36.4475 11.5949 36.4539 11.7144 36.4202C11.8339 36.3866 11.939 36.3147 12.0138 36.2156C12.0886 36.1165 12.1289 35.9957 12.1285 35.8716C12.1338 33.4595 12.9605 31.1211 14.4723 29.2416C18.335 31.8877 19.4171 36.6393 19.6022 40.39C15.8451 41.3381 12.732 43.3147 11.1003 45.9497C11.0248 46.0776 11.0024 46.2301 11.038 46.3744C11.0735 46.5186 11.1642 46.6432 11.2905 46.7215C11.4169 46.7997 11.5688 46.8253 11.7138 46.7929C11.8588 46.7604 11.9853 46.6724 12.0662 46.5478C16.7641 38.9623 32.9733 39.0793 37.4041 46.7267C37.4408 46.7927 37.4903 46.8507 37.5496 46.8973C37.6089 46.9439 37.677 46.9783 37.7497 46.9984C37.8225 47.0184 37.8985 47.0238 37.9734 47.0141C38.0482 47.0045 38.1204 46.98 38.1857 46.9422C38.251 46.9043 38.3081 46.8538 38.3537 46.7937C38.3992 46.7335 38.4324 46.6649 38.4511 46.5918C38.4698 46.5187 38.4738 46.4425 38.4629 46.3679C38.4519 46.2932 38.4261 46.2215 38.3871 46.1569C36.7621 43.3524 33.5007 41.2711 29.5278 40.3279C29.9982 38.0848 30.7523 35.9106 31.7719 33.8579C31.8365 33.7243 31.8463 33.5708 31.7991 33.4301C31.752 33.2893 31.6517 33.1727 31.5196 33.105C31.3875 33.0373 31.2342 33.0239 31.0924 33.0678C30.9507 33.1117 30.8317 33.2093 30.7609 33.3397C29.6908 35.4804 28.8989 37.7492 28.4047 40.0909C27.2467 39.8913 26.0748 39.7828 24.8999 39.7666C26.1188 35.0241 29.1953 27.4748 36.6766 24.827C37.1817 24.9745 37.676 25.1565 38.156 25.3719C38.2168 25.4541 38.3128 25.5901 38.4377 25.7825C35.9152 26.8754 33.7549 28.6621 32.2083 30.9348C32.1243 31.058 32.0922 31.2092 32.1187 31.3559C32.1452 31.5025 32.2283 31.6329 32.3501 31.7189C32.4718 31.8049 32.6225 31.8396 32.7696 31.8155C32.9167 31.7914 33.0484 31.7105 33.1364 31.5902C34.5901 29.453 36.6325 27.7833 39.016 26.7834C40.4593 29.5121 40.913 32.6564 40.2999 35.6818C40.2748 35.8033 40.2902 35.9297 40.3437 36.0416C40.3971 36.1536 40.4858 36.2449 40.5961 36.3017C40.7064 36.3586 40.8322 36.3777 40.9544 36.3563C41.0766 36.3349 41.1884 36.2741 41.2728 36.1831C41.385 36.0619 43.7498 33.462 43.7186 30.431C44.2322 31.7141 44.58 33.0575 44.7535 34.4286C44.7686 34.5379 44.8152 34.6405 44.8876 34.7238C44.9601 34.807 45.0552 34.8674 45.1614 34.8975C45.2118 34.9119 45.264 34.9192 45.3164 34.9191C45.4001 34.9191 45.4828 34.9006 45.5585 34.8649C45.6343 34.8293 45.7012 34.7773 45.7545 34.7127C47.4904 32.6098 47.7046 29.2235 46.2758 26.4777C45.9191 25.784 45.4452 25.1572 44.875 24.625C46.1547 25.1113 47.4557 26.1391 48.5739 28.0827C48.6237 28.1692 48.6955 28.2411 48.7819 28.2912C48.8684 28.3412 48.9665 28.3676 49.0663 28.3676C49.1022 28.3676 49.1379 28.3642 49.1732 28.3576C49.2892 28.3353 49.3954 28.2775 49.4771 28.1921C49.5587 28.1067 49.6117 27.9979 49.6287 27.881C50.0952 24.6608 48.9727 21.9933 46.6989 20.9193ZM22.11 27.7333C20.5512 27.0893 18.8719 26.7885 17.1864 26.8514C17.9663 26.3666 18.895 26.1795 19.8018 26.3245C20.7006 26.5387 21.5086 27.0319 22.11 27.7333ZM19.6595 23.2312C20.7179 23.2865 21.7368 23.6514 22.5897 24.2807C18.9501 23.9104 16.8288 25.0871 15.7041 26.1098C15.9517 23.9428 17.4633 23.0958 19.6595 23.2312ZM7.25435 26.6863C7.40034 26.1118 7.69281 25.5849 8.1032 25.1572C8.5136 24.7294 9.0279 24.4154 9.59589 24.2457C9.81816 24.1913 10.0462 24.1638 10.275 24.1639C10.8953 24.2055 11.4985 24.3844 12.0412 24.6875C12.5839 24.9907 13.0524 25.4106 13.413 25.917L13.38 25.9028C13.3649 25.8963 13.3495 25.8906 13.3337 25.8858C12.346 25.4414 11.2541 25.2809 10.1803 25.4223C9.10653 25.5637 8.09335 26.0014 7.25435 26.6863ZM11.2288 33.4943C10.987 32.6017 11.0339 31.6554 11.3628 30.791C11.7529 29.958 12.4309 29.2941 13.2719 28.9217C12.2705 30.2815 11.5737 31.8411 11.2288 33.4943ZM8.35521 32.3512C8.23212 30.9015 8.67484 29.4604 9.59061 28.3299C10.6963 26.9662 12.1453 26.4237 13.6588 27.3179C12.1995 27.706 9.97788 28.8768 8.35521 32.3512ZM32.7496 23.0933C31.6227 23.0926 30.4998 23.2264 29.4046 23.4917C30.4336 22.5474 31.7621 21.9953 33.1574 21.9322C33.8367 21.9681 34.5022 22.1378 35.1157 22.4315C35.7293 22.7253 36.2788 23.1373 36.7327 23.644C35.4362 23.28 34.0961 23.0947 32.7496 23.0933ZM38.3323 23.2056L38.329 23.2257C37.2898 21.6424 34.9183 19.3592 29.7824 18.9793C31.1007 18.2369 32.6299 17.9581 34.1253 18.1875C37.1484 18.6086 38.7154 20.2151 38.3323 23.2056ZM41.7016 33.5836C41.7962 31.1041 41.2539 28.6417 40.1263 26.4314C40.7109 26.7777 41.2215 27.2359 41.6288 27.7798C42.0361 28.3237 42.3322 28.9426 42.5 29.601C42.7048 30.981 42.4223 32.3891 41.7016 33.5836ZM45.2674 27.0023C45.7316 27.8848 46.0028 28.8559 46.0631 29.8512C46.1235 30.8465 45.9715 31.8433 45.6173 32.7754C44.4987 27.5502 41.7625 25.5527 40.0573 24.8006C42.4549 23.8616 44.1745 24.9014 45.2674 27.0023ZM40.545 23.4398C42.3921 21.7172 44.5136 21.144 46.2137 21.9466C47.6364 22.6186 48.4832 24.1356 48.5855 26.0737C47.6893 24.8488 46.4314 23.9358 44.989 23.4633C43.5467 22.9909 41.9922 22.9825 40.545 23.4398Z" fill="#C092FB"/>
<path d="M6.12515 19.111C6.79941 19.111 7.45852 18.9111 8.01915 18.5365C8.57977 18.1619 9.01672 17.6295 9.27474 17.0065C9.53277 16.3836 9.60028 15.6982 9.46874 15.0369C9.3372 14.3756 9.01252 13.7681 8.53575 13.2913C8.05898 12.8146 7.45153 12.4899 6.79024 12.3584C6.12894 12.2268 5.44348 12.2943 4.82055 12.5523C4.19762 12.8104 3.6652 13.2473 3.2906 13.8079C2.916 14.3686 2.71606 15.0277 2.71606 15.7019C2.71706 16.6058 3.07655 17.4723 3.71566 18.1114C4.35477 18.7505 5.22131 19.11 6.12515 19.111ZM6.12515 13.4292C6.57466 13.4292 7.01407 13.5625 7.38781 13.8122C7.76156 14.062 8.05286 14.4169 8.22488 14.8322C8.3969 15.2475 8.44191 15.7045 8.35421 16.1453C8.26652 16.5862 8.05006 16.9912 7.73222 17.309C7.41437 17.6268 7.00941 17.8433 6.56854 17.931C6.12768 18.0187 5.67071 17.9737 5.25542 17.8017C4.84013 17.6296 4.48518 17.3383 4.23545 16.9646C3.98572 16.5909 3.85243 16.1514 3.85243 15.7019C3.85312 15.0994 4.09279 14.5217 4.51886 14.0956C4.94493 13.6696 5.5226 13.4299 6.12515 13.4292Z" fill="#C092FB"/>
<path d="M6.12507 11.7599C6.27576 11.7599 6.42028 11.7 6.52683 11.5935C6.63339 11.4869 6.69325 11.3424 6.69325 11.1917V10.4105C6.69325 10.2598 6.63339 10.1153 6.52683 10.0087C6.42028 9.90215 6.27576 9.84229 6.12507 9.84229C5.97438 9.84229 5.82986 9.90215 5.7233 10.0087C5.61675 10.1153 5.55688 10.2598 5.55688 10.4105V11.1917C5.55688 11.3424 5.61675 11.4869 5.7233 11.5935C5.82986 11.7 5.97438 11.7599 6.12507 11.7599Z" fill="#C092FB"/>
<path d="M2.53406 12.9148C2.6406 13.0214 2.78513 13.0813 2.93585 13.0814C3.08657 13.0814 3.23114 13.0216 3.33776 12.9151C3.44437 12.8085 3.5043 12.664 3.50435 12.5133C3.5044 12.3626 3.44458 12.218 3.33804 12.1114L2.78566 11.5587C2.73291 11.5059 2.67029 11.464 2.60136 11.4354C2.53243 11.4069 2.45855 11.3921 2.38393 11.3921C2.30931 11.3921 2.23541 11.4067 2.16645 11.4352C2.0975 11.4638 2.03484 11.5056 1.98205 11.5583C1.87543 11.6649 1.8155 11.8094 1.81543 11.9601C1.81536 12.1108 1.87516 12.2553 1.98168 12.3619L2.53406 12.9148Z" fill="#C092FB"/>
<path d="M1.6153 16.2702C1.76599 16.2702 1.91051 16.2103 2.01707 16.1037C2.12362 15.9972 2.18348 15.8527 2.18348 15.702C2.18348 15.5513 2.12362 15.4068 2.01707 15.3002C1.91051 15.1937 1.76599 15.1338 1.6153 15.1338H0.834051C0.68336 15.1338 0.53884 15.1937 0.432286 15.3002C0.325731 15.4068 0.265869 15.5513 0.265869 15.702C0.265869 15.8527 0.325731 15.9972 0.432286 16.1037C0.53884 16.2103 0.68336 16.2702 0.834051 16.2702H1.6153Z" fill="#C092FB"/>
<path d="M2.78554 19.8451L3.33792 19.2927C3.39068 19.2399 3.43252 19.1773 3.46106 19.1084C3.4896 19.0394 3.50429 18.9655 3.50427 18.8909C3.50426 18.8163 3.48955 18.7424 3.46098 18.6735C3.43242 18.6045 3.39055 18.5419 3.33778 18.4892C3.28501 18.4364 3.22236 18.3946 3.15342 18.366C3.08448 18.3375 3.01059 18.3228 2.93598 18.3228C2.86136 18.3228 2.78748 18.3375 2.71854 18.3661C2.64961 18.3947 2.58698 18.4365 2.53423 18.4893L1.9819 19.0416C1.87802 19.1487 1.82042 19.2924 1.82155 19.4416C1.82268 19.5907 1.88244 19.7335 1.98794 19.839C2.09343 19.9445 2.23618 20.0043 2.38537 20.0054C2.53456 20.0066 2.67844 19.949 2.78554 19.8451Z" fill="#C092FB"/>
<path d="M6.69325 20.9934V20.2122C6.69325 20.0615 6.63339 19.917 6.52683 19.8104C6.42028 19.7038 6.27576 19.644 6.12507 19.644C5.97438 19.644 5.82986 19.7038 5.7233 19.8104C5.61675 19.917 5.55688 20.0615 5.55688 20.2122V20.9934C5.55688 21.1441 5.61675 21.2886 5.7233 21.3952C5.82986 21.5017 5.97438 21.5616 6.12507 21.5616C6.27576 21.5616 6.42028 21.5017 6.52683 21.3952C6.63339 21.2886 6.69325 21.1441 6.69325 20.9934Z" fill="#C092FB"/>
<path d="M8.91229 18.4893C8.80582 18.596 8.74604 18.7405 8.74609 18.8912C8.74615 19.0419 8.80602 19.1864 8.91257 19.293L9.46524 19.8454C9.57185 19.9519 9.71643 20.0118 9.86715 20.0117C10.0179 20.0117 10.1624 19.9518 10.269 19.8451C10.3755 19.7385 10.4353 19.594 10.4353 19.4432C10.4352 19.2925 10.3753 19.148 10.2687 19.0414L9.71598 18.489C9.6093 18.3826 9.46475 18.3229 9.31407 18.3229C9.16339 18.323 9.01889 18.3828 8.91229 18.4893Z" fill="#C092FB"/>
<path d="M10.0674 15.702C10.0674 15.8527 10.1272 15.9972 10.2338 16.1037C10.3404 16.2103 10.4849 16.2702 10.6356 16.2702H11.4168C11.5675 16.2702 11.712 16.2103 11.8186 16.1037C11.9251 15.9972 11.985 15.8527 11.985 15.702C11.985 15.5513 11.9251 15.4068 11.8186 15.3002C11.712 15.1937 11.5675 15.1338 11.4168 15.1338H10.6356C10.4849 15.1338 10.3404 15.1937 10.2338 15.3002C10.1272 15.4068 10.0674 15.5513 10.0674 15.702Z" fill="#C092FB"/>
<path d="M9.716 12.9148L10.2687 12.3622C10.373 12.2552 10.431 12.1114 10.43 11.9619C10.4291 11.8125 10.3693 11.6694 10.2636 11.5638C10.1579 11.4581 10.0149 11.3983 9.86545 11.3974C9.71601 11.3964 9.57221 11.4544 9.46521 11.5587L8.91254 12.1114C8.80866 12.2185 8.75107 12.3621 8.75221 12.5113C8.75335 12.6605 8.81313 12.8032 8.91863 12.9087C9.02413 13.0142 9.16689 13.074 9.31608 13.0751C9.46527 13.0763 9.60892 13.0187 9.716 12.9148Z" fill="#C092FB"/>
<path d="M48.8637 57.0213C47.5375 57.045 46.2433 56.6131 45.1972 55.7976C43.9534 54.88 42.4484 54.3849 40.9027 54.3849C39.357 54.3849 37.852 54.88 36.6082 55.7976C35.5501 56.5919 34.2628 57.0213 32.9398 57.0213C31.6168 57.0213 30.3295 56.5919 29.2715 55.7976C28.0272 54.88 26.5219 54.3849 24.9758 54.3849C23.4298 54.3849 21.9244 54.88 20.6802 55.7976C19.6337 56.6131 18.3391 57.045 17.0125 57.0213C15.6851 57.045 14.3897 56.6131 13.3421 55.7976C12.1084 54.8583 10.5948 54.3608 9.04442 54.3849C7.49405 54.3608 5.98052 54.8582 4.74669 55.7973C3.69919 56.6131 2.4037 57.0451 1.07624 57.0213C0.925547 57.0213 0.781028 57.0812 0.674473 57.1878C0.567918 57.2943 0.508057 57.4388 0.508057 57.5895C0.508057 57.7402 0.567918 57.8847 0.674473 57.9913C0.781028 58.0978 0.925547 58.1577 1.07624 58.1577C2.62663 58.1818 4.14017 57.6843 5.37391 56.745C6.42146 55.9294 7.71693 55.4975 9.04436 55.5212C10.3718 55.4976 11.6672 55.9295 12.7148 56.745C13.9486 57.6843 15.4621 58.1818 17.0125 58.1577C18.5622 58.1817 20.0751 57.6842 21.308 56.745C22.366 55.9507 23.6532 55.5212 24.9762 55.5212C26.2992 55.5212 27.5864 55.9507 28.6444 56.745C29.8887 57.6627 31.3941 58.1577 32.9402 58.1577C34.4862 58.1577 35.9917 57.6627 37.236 56.745C38.2935 55.9507 39.5803 55.5212 40.9029 55.5212C42.2255 55.5212 43.5124 55.9507 44.5699 56.745C45.8023 57.6841 47.3145 58.1816 48.8637 58.1577C49.0144 58.1577 49.159 58.0978 49.2655 57.9913C49.3721 57.8847 49.4319 57.7402 49.4319 57.5895C49.4319 57.4388 49.3721 57.2943 49.2655 57.1878C49.159 57.0812 49.0144 57.0213 48.8637 57.0213Z" fill="#C092FB"/>
</g>
<defs>
<clipPath id="clip0_112_54">
<rect width="50" height="50" fill="white" transform="translate(0 9)"/>
</clipPath>
</defs>
</svg>
